G04 #@! TF.GenerationSoftware,KiCad,Pcbnew,5.0.0-fee4fd1~66~ubuntu16.04.1*
G04 #@! TF.CreationDate,2018-10-21T13:34:44-05:00*
G04 #@! TF.ProjectId,design_emb,64657369676E5F656D622E6B69636164,rev?*
G04 #@! TF.SameCoordinates,Original*
G04 #@! TF.FileFunction,Paste,Bot*
G04 #@! TF.FilePolarity,Positive*
%FSLAX46Y46*%
G04 Gerber Fmt 4.6, Leading zero omitted, Abs format (unit mm)*
G04 Created by KiCad (PCBNEW 5.0.0-fee4fd1~66~ubuntu16.04.1) date Sun Oct 21 13:34:44 2018*
%MOMM*%
%LPD*%
G01*
G04 APERTURE LIST*
%ADD10R,1.500000X1.300000*%
%ADD11C,0.300000*%
%ADD12C,0.100000*%
%ADD13C,0.750000*%
%ADD14R,1.200000X0.750000*%
%ADD15R,0.750000X1.200000*%
%ADD16R,1.200000X0.900000*%
%ADD17R,0.900000X1.200000*%
%ADD18R,1.400000X1.200000*%
%ADD19R,1.400000X1.000000*%
%ADD20R,3.149600X1.765300*%
%ADD21R,0.889000X1.765300*%
%ADD22R,1.765300X0.889000*%
%ADD23R,1.765300X3.149600*%
%ADD24R,0.500000X0.280000*%
%ADD25R,0.900000X1.600000*%
%ADD26R,0.900000X0.800000*%
%ADD27R,0.800000X0.900000*%
%ADD28R,1.300000X1.500000*%
G04 APERTURE END LIST*
D10*
G04 #@! TO.C,L8*
X117386100Y-126644400D03*
X120086100Y-126644400D03*
G04 #@! TD*
D11*
G04 #@! TO.C,ICE40HX1K*
X144387059Y-97789035D03*
D12*
G36*
X145041133Y-98230977D02*
X144829001Y-98443109D01*
X143732985Y-97347093D01*
X143945117Y-97134961D01*
X145041133Y-98230977D01*
X145041133Y-98230977D01*
G37*
D11*
X144033506Y-98142588D03*
D12*
G36*
X144687580Y-98584530D02*
X144475448Y-98796662D01*
X143379432Y-97700646D01*
X143591564Y-97488514D01*
X144687580Y-98584530D01*
X144687580Y-98584530D01*
G37*
D11*
X143679953Y-98496141D03*
D12*
G36*
X144334027Y-98938083D02*
X144121895Y-99150215D01*
X143025879Y-98054199D01*
X143238011Y-97842067D01*
X144334027Y-98938083D01*
X144334027Y-98938083D01*
G37*
D11*
X143326399Y-98849695D03*
D12*
G36*
X143980473Y-99291637D02*
X143768341Y-99503769D01*
X142672325Y-98407753D01*
X142884457Y-98195621D01*
X143980473Y-99291637D01*
X143980473Y-99291637D01*
G37*
D11*
X142972846Y-99203248D03*
D12*
G36*
X143626920Y-99645190D02*
X143414788Y-99857322D01*
X142318772Y-98761306D01*
X142530904Y-98549174D01*
X143626920Y-99645190D01*
X143626920Y-99645190D01*
G37*
D11*
X142619292Y-99556802D03*
D12*
G36*
X143273366Y-99998744D02*
X143061234Y-100210876D01*
X141965218Y-99114860D01*
X142177350Y-98902728D01*
X143273366Y-99998744D01*
X143273366Y-99998744D01*
G37*
D11*
X142265739Y-99910355D03*
D12*
G36*
X142919813Y-100352297D02*
X142707681Y-100564429D01*
X141611665Y-99468413D01*
X141823797Y-99256281D01*
X142919813Y-100352297D01*
X142919813Y-100352297D01*
G37*
D11*
X141912186Y-100263908D03*
D12*
G36*
X142566260Y-100705850D02*
X142354128Y-100917982D01*
X141258112Y-99821966D01*
X141470244Y-99609834D01*
X142566260Y-100705850D01*
X142566260Y-100705850D01*
G37*
D11*
X141558632Y-100617462D03*
D12*
G36*
X142212706Y-101059404D02*
X142000574Y-101271536D01*
X140904558Y-100175520D01*
X141116690Y-99963388D01*
X142212706Y-101059404D01*
X142212706Y-101059404D01*
G37*
D11*
X141205079Y-100971015D03*
D12*
G36*
X141859153Y-101412957D02*
X141647021Y-101625089D01*
X140551005Y-100529073D01*
X140763137Y-100316941D01*
X141859153Y-101412957D01*
X141859153Y-101412957D01*
G37*
D11*
X140851525Y-101324568D03*
D12*
G36*
X141505599Y-101766510D02*
X141293467Y-101978642D01*
X140197451Y-100882626D01*
X140409583Y-100670494D01*
X141505599Y-101766510D01*
X141505599Y-101766510D01*
G37*
D11*
X140497972Y-101678122D03*
D12*
G36*
X141152046Y-102120064D02*
X140939914Y-102332196D01*
X139843898Y-101236180D01*
X140056030Y-101024048D01*
X141152046Y-102120064D01*
X141152046Y-102120064D01*
G37*
D11*
X140144419Y-102031675D03*
D12*
G36*
X140798493Y-102473617D02*
X140586361Y-102685749D01*
X139490345Y-101589733D01*
X139702477Y-101377601D01*
X140798493Y-102473617D01*
X140798493Y-102473617D01*
G37*
D11*
X139790865Y-102385229D03*
D12*
G36*
X140444939Y-102827171D02*
X140232807Y-103039303D01*
X139136791Y-101943287D01*
X139348923Y-101731155D01*
X140444939Y-102827171D01*
X140444939Y-102827171D01*
G37*
D11*
X139437312Y-102738782D03*
D12*
G36*
X140091386Y-103180724D02*
X139879254Y-103392856D01*
X138783238Y-102296840D01*
X138995370Y-102084708D01*
X140091386Y-103180724D01*
X140091386Y-103180724D01*
G37*
D11*
X139083758Y-103092335D03*
D12*
G36*
X139737832Y-103534277D02*
X139525700Y-103746409D01*
X138429684Y-102650393D01*
X138641816Y-102438261D01*
X139737832Y-103534277D01*
X139737832Y-103534277D01*
G37*
D11*
X138730205Y-103445889D03*
D12*
G36*
X139384279Y-103887831D02*
X139172147Y-104099963D01*
X138076131Y-103003947D01*
X138288263Y-102791815D01*
X139384279Y-103887831D01*
X139384279Y-103887831D01*
G37*
D11*
X138376652Y-103799442D03*
D12*
G36*
X139030726Y-104241384D02*
X138818594Y-104453516D01*
X137722578Y-103357500D01*
X137934710Y-103145368D01*
X139030726Y-104241384D01*
X139030726Y-104241384D01*
G37*
D11*
X138023098Y-104152996D03*
D12*
G36*
X138677172Y-104594938D02*
X138465040Y-104807070D01*
X137369024Y-103711054D01*
X137581156Y-103498922D01*
X138677172Y-104594938D01*
X138677172Y-104594938D01*
G37*
D11*
X137669545Y-104506549D03*
D12*
G36*
X138323619Y-104948491D02*
X138111487Y-105160623D01*
X137015471Y-104064607D01*
X137227603Y-103852475D01*
X138323619Y-104948491D01*
X138323619Y-104948491D01*
G37*
D11*
X137315991Y-104860102D03*
D12*
G36*
X137970065Y-105302044D02*
X137757933Y-105514176D01*
X136661917Y-104418160D01*
X136874049Y-104206028D01*
X137970065Y-105302044D01*
X137970065Y-105302044D01*
G37*
D11*
X136962438Y-105213656D03*
D12*
G36*
X137616512Y-105655598D02*
X137404380Y-105867730D01*
X136308364Y-104771714D01*
X136520496Y-104559582D01*
X137616512Y-105655598D01*
X137616512Y-105655598D01*
G37*
D11*
X136608885Y-105567209D03*
D12*
G36*
X137262959Y-106009151D02*
X137050827Y-106221283D01*
X135954811Y-105125267D01*
X136166943Y-104913135D01*
X137262959Y-106009151D01*
X137262959Y-106009151D01*
G37*
D11*
X136255331Y-105920763D03*
D12*
G36*
X136909405Y-106362705D02*
X136697273Y-106574837D01*
X135601257Y-105478821D01*
X135813389Y-105266689D01*
X136909405Y-106362705D01*
X136909405Y-106362705D01*
G37*
D11*
X135901778Y-106274316D03*
D12*
G36*
X136555852Y-106716258D02*
X136343720Y-106928390D01*
X135247704Y-105832374D01*
X135459836Y-105620242D01*
X136555852Y-106716258D01*
X136555852Y-106716258D01*
G37*
D11*
X135548225Y-106627869D03*
D12*
G36*
X136202299Y-107069811D02*
X135990167Y-107281943D01*
X134894151Y-106185927D01*
X135106283Y-105973795D01*
X136202299Y-107069811D01*
X136202299Y-107069811D01*
G37*
D11*
X135194671Y-106981423D03*
D12*
G36*
X135848745Y-107423365D02*
X135636613Y-107635497D01*
X134540597Y-106539481D01*
X134752729Y-106327349D01*
X135848745Y-107423365D01*
X135848745Y-107423365D01*
G37*
D11*
X134841118Y-107334976D03*
D12*
G36*
X135495192Y-107776918D02*
X135283060Y-107989050D01*
X134187044Y-106893034D01*
X134399176Y-106680902D01*
X135495192Y-107776918D01*
X135495192Y-107776918D01*
G37*
D11*
X134487564Y-107688530D03*
D12*
G36*
X135141638Y-108130472D02*
X134929506Y-108342604D01*
X133833490Y-107246588D01*
X134045622Y-107034456D01*
X135141638Y-108130472D01*
X135141638Y-108130472D01*
G37*
D11*
X134134011Y-108042083D03*
D12*
G36*
X134788085Y-108484025D02*
X134575953Y-108696157D01*
X133479937Y-107600141D01*
X133692069Y-107388009D01*
X134788085Y-108484025D01*
X134788085Y-108484025D01*
G37*
D11*
X133780458Y-108395636D03*
D12*
G36*
X134434532Y-108837578D02*
X134222400Y-109049710D01*
X133126384Y-107953694D01*
X133338516Y-107741562D01*
X134434532Y-108837578D01*
X134434532Y-108837578D01*
G37*
D11*
X133426904Y-108749190D03*
D12*
G36*
X134080978Y-109191132D02*
X133868846Y-109403264D01*
X132772830Y-108307248D01*
X132984962Y-108095116D01*
X134080978Y-109191132D01*
X134080978Y-109191132D01*
G37*
D11*
X133073351Y-109102743D03*
D12*
G36*
X133727425Y-109544685D02*
X133515293Y-109756817D01*
X132419277Y-108660801D01*
X132631409Y-108448669D01*
X133727425Y-109544685D01*
X133727425Y-109544685D01*
G37*
D11*
X132719797Y-109456296D03*
D12*
G36*
X133373871Y-109898238D02*
X133161739Y-110110370D01*
X132065723Y-109014354D01*
X132277855Y-108802222D01*
X133373871Y-109898238D01*
X133373871Y-109898238D01*
G37*
D11*
X132366244Y-109809850D03*
D12*
G36*
X133020318Y-110251792D02*
X132808186Y-110463924D01*
X131712170Y-109367908D01*
X131924302Y-109155776D01*
X133020318Y-110251792D01*
X133020318Y-110251792D01*
G37*
D11*
X132012691Y-110163403D03*
D12*
G36*
X132666765Y-110605345D02*
X132454633Y-110817477D01*
X131358617Y-109721461D01*
X131570749Y-109509329D01*
X132666765Y-110605345D01*
X132666765Y-110605345D01*
G37*
D11*
X132012691Y-112921120D03*
D12*
G36*
X132454633Y-112267046D02*
X132666765Y-112479178D01*
X131570749Y-113575194D01*
X131358617Y-113363062D01*
X132454633Y-112267046D01*
X132454633Y-112267046D01*
G37*
D11*
X132366244Y-113274673D03*
D12*
G36*
X132808186Y-112620599D02*
X133020318Y-112832731D01*
X131924302Y-113928747D01*
X131712170Y-113716615D01*
X132808186Y-112620599D01*
X132808186Y-112620599D01*
G37*
D11*
X132719797Y-113628226D03*
D12*
G36*
X133161739Y-112974152D02*
X133373871Y-113186284D01*
X132277855Y-114282300D01*
X132065723Y-114070168D01*
X133161739Y-112974152D01*
X133161739Y-112974152D01*
G37*
D11*
X133073351Y-113981780D03*
D12*
G36*
X133515293Y-113327706D02*
X133727425Y-113539838D01*
X132631409Y-114635854D01*
X132419277Y-114423722D01*
X133515293Y-113327706D01*
X133515293Y-113327706D01*
G37*
D11*
X133426904Y-114335333D03*
D12*
G36*
X133868846Y-113681259D02*
X134080978Y-113893391D01*
X132984962Y-114989407D01*
X132772830Y-114777275D01*
X133868846Y-113681259D01*
X133868846Y-113681259D01*
G37*
D11*
X133780458Y-114688887D03*
D12*
G36*
X134222400Y-114034813D02*
X134434532Y-114246945D01*
X133338516Y-115342961D01*
X133126384Y-115130829D01*
X134222400Y-114034813D01*
X134222400Y-114034813D01*
G37*
D11*
X134134011Y-115042440D03*
D12*
G36*
X134575953Y-114388366D02*
X134788085Y-114600498D01*
X133692069Y-115696514D01*
X133479937Y-115484382D01*
X134575953Y-114388366D01*
X134575953Y-114388366D01*
G37*
D11*
X134487564Y-115395993D03*
D12*
G36*
X134929506Y-114741919D02*
X135141638Y-114954051D01*
X134045622Y-116050067D01*
X133833490Y-115837935D01*
X134929506Y-114741919D01*
X134929506Y-114741919D01*
G37*
D11*
X134841118Y-115749547D03*
D12*
G36*
X135283060Y-115095473D02*
X135495192Y-115307605D01*
X134399176Y-116403621D01*
X134187044Y-116191489D01*
X135283060Y-115095473D01*
X135283060Y-115095473D01*
G37*
D11*
X135194671Y-116103100D03*
D12*
G36*
X135636613Y-115449026D02*
X135848745Y-115661158D01*
X134752729Y-116757174D01*
X134540597Y-116545042D01*
X135636613Y-115449026D01*
X135636613Y-115449026D01*
G37*
D11*
X135548225Y-116456654D03*
D12*
G36*
X135990167Y-115802580D02*
X136202299Y-116014712D01*
X135106283Y-117110728D01*
X134894151Y-116898596D01*
X135990167Y-115802580D01*
X135990167Y-115802580D01*
G37*
D11*
X135901778Y-116810207D03*
D12*
G36*
X136343720Y-116156133D02*
X136555852Y-116368265D01*
X135459836Y-117464281D01*
X135247704Y-117252149D01*
X136343720Y-116156133D01*
X136343720Y-116156133D01*
G37*
D11*
X136255331Y-117163760D03*
D12*
G36*
X136697273Y-116509686D02*
X136909405Y-116721818D01*
X135813389Y-117817834D01*
X135601257Y-117605702D01*
X136697273Y-116509686D01*
X136697273Y-116509686D01*
G37*
D11*
X136608885Y-117517314D03*
D12*
G36*
X137050827Y-116863240D02*
X137262959Y-117075372D01*
X136166943Y-118171388D01*
X135954811Y-117959256D01*
X137050827Y-116863240D01*
X137050827Y-116863240D01*
G37*
D11*
X136962438Y-117870867D03*
D12*
G36*
X137404380Y-117216793D02*
X137616512Y-117428925D01*
X136520496Y-118524941D01*
X136308364Y-118312809D01*
X137404380Y-117216793D01*
X137404380Y-117216793D01*
G37*
D11*
X137315991Y-118224421D03*
D12*
G36*
X137757933Y-117570347D02*
X137970065Y-117782479D01*
X136874049Y-118878495D01*
X136661917Y-118666363D01*
X137757933Y-117570347D01*
X137757933Y-117570347D01*
G37*
D11*
X137669545Y-118577974D03*
D12*
G36*
X138111487Y-117923900D02*
X138323619Y-118136032D01*
X137227603Y-119232048D01*
X137015471Y-119019916D01*
X138111487Y-117923900D01*
X138111487Y-117923900D01*
G37*
D11*
X138023098Y-118931527D03*
D12*
G36*
X138465040Y-118277453D02*
X138677172Y-118489585D01*
X137581156Y-119585601D01*
X137369024Y-119373469D01*
X138465040Y-118277453D01*
X138465040Y-118277453D01*
G37*
D11*
X138376652Y-119285081D03*
D12*
G36*
X138818594Y-118631007D02*
X139030726Y-118843139D01*
X137934710Y-119939155D01*
X137722578Y-119727023D01*
X138818594Y-118631007D01*
X138818594Y-118631007D01*
G37*
D11*
X138730205Y-119638634D03*
D12*
G36*
X139172147Y-118984560D02*
X139384279Y-119196692D01*
X138288263Y-120292708D01*
X138076131Y-120080576D01*
X139172147Y-118984560D01*
X139172147Y-118984560D01*
G37*
D11*
X139083758Y-119992188D03*
D12*
G36*
X139525700Y-119338114D02*
X139737832Y-119550246D01*
X138641816Y-120646262D01*
X138429684Y-120434130D01*
X139525700Y-119338114D01*
X139525700Y-119338114D01*
G37*
D11*
X139437312Y-120345741D03*
D12*
G36*
X139879254Y-119691667D02*
X140091386Y-119903799D01*
X138995370Y-120999815D01*
X138783238Y-120787683D01*
X139879254Y-119691667D01*
X139879254Y-119691667D01*
G37*
D11*
X139790865Y-120699294D03*
D12*
G36*
X140232807Y-120045220D02*
X140444939Y-120257352D01*
X139348923Y-121353368D01*
X139136791Y-121141236D01*
X140232807Y-120045220D01*
X140232807Y-120045220D01*
G37*
D11*
X140144419Y-121052848D03*
D12*
G36*
X140586361Y-120398774D02*
X140798493Y-120610906D01*
X139702477Y-121706922D01*
X139490345Y-121494790D01*
X140586361Y-120398774D01*
X140586361Y-120398774D01*
G37*
D11*
X140497972Y-121406401D03*
D12*
G36*
X140939914Y-120752327D02*
X141152046Y-120964459D01*
X140056030Y-122060475D01*
X139843898Y-121848343D01*
X140939914Y-120752327D01*
X140939914Y-120752327D01*
G37*
D11*
X140851525Y-121759954D03*
D12*
G36*
X141293467Y-121105880D02*
X141505599Y-121318012D01*
X140409583Y-122414028D01*
X140197451Y-122201896D01*
X141293467Y-121105880D01*
X141293467Y-121105880D01*
G37*
D11*
X141205079Y-122113508D03*
D12*
G36*
X141647021Y-121459434D02*
X141859153Y-121671566D01*
X140763137Y-122767582D01*
X140551005Y-122555450D01*
X141647021Y-121459434D01*
X141647021Y-121459434D01*
G37*
D11*
X141558632Y-122467061D03*
D12*
G36*
X142000574Y-121812987D02*
X142212706Y-122025119D01*
X141116690Y-123121135D01*
X140904558Y-122909003D01*
X142000574Y-121812987D01*
X142000574Y-121812987D01*
G37*
D11*
X141912186Y-122820615D03*
D12*
G36*
X142354128Y-122166541D02*
X142566260Y-122378673D01*
X141470244Y-123474689D01*
X141258112Y-123262557D01*
X142354128Y-122166541D01*
X142354128Y-122166541D01*
G37*
D11*
X142265739Y-123174168D03*
D12*
G36*
X142707681Y-122520094D02*
X142919813Y-122732226D01*
X141823797Y-123828242D01*
X141611665Y-123616110D01*
X142707681Y-122520094D01*
X142707681Y-122520094D01*
G37*
D11*
X142619292Y-123527721D03*
D12*
G36*
X143061234Y-122873647D02*
X143273366Y-123085779D01*
X142177350Y-124181795D01*
X141965218Y-123969663D01*
X143061234Y-122873647D01*
X143061234Y-122873647D01*
G37*
D11*
X142972846Y-123881275D03*
D12*
G36*
X143414788Y-123227201D02*
X143626920Y-123439333D01*
X142530904Y-124535349D01*
X142318772Y-124323217D01*
X143414788Y-123227201D01*
X143414788Y-123227201D01*
G37*
D11*
X143326399Y-124234828D03*
D12*
G36*
X143768341Y-123580754D02*
X143980473Y-123792886D01*
X142884457Y-124888902D01*
X142672325Y-124676770D01*
X143768341Y-123580754D01*
X143768341Y-123580754D01*
G37*
D11*
X143679953Y-124588382D03*
D12*
G36*
X144121895Y-123934308D02*
X144334027Y-124146440D01*
X143238011Y-125242456D01*
X143025879Y-125030324D01*
X144121895Y-123934308D01*
X144121895Y-123934308D01*
G37*
D11*
X144033506Y-124941935D03*
D12*
G36*
X144475448Y-124287861D02*
X144687580Y-124499993D01*
X143591564Y-125596009D01*
X143379432Y-125383877D01*
X144475448Y-124287861D01*
X144475448Y-124287861D01*
G37*
D11*
X144387059Y-125295488D03*
D12*
G36*
X144829001Y-124641414D02*
X145041133Y-124853546D01*
X143945117Y-125949562D01*
X143732985Y-125737430D01*
X144829001Y-124641414D01*
X144829001Y-124641414D01*
G37*
D11*
X147144776Y-125295488D03*
D12*
G36*
X147798850Y-125737430D02*
X147586718Y-125949562D01*
X146490702Y-124853546D01*
X146702834Y-124641414D01*
X147798850Y-125737430D01*
X147798850Y-125737430D01*
G37*
D11*
X147498329Y-124941935D03*
D12*
G36*
X148152403Y-125383877D02*
X147940271Y-125596009D01*
X146844255Y-124499993D01*
X147056387Y-124287861D01*
X148152403Y-125383877D01*
X148152403Y-125383877D01*
G37*
D11*
X147851883Y-124588382D03*
D12*
G36*
X148505957Y-125030324D02*
X148293825Y-125242456D01*
X147197809Y-124146440D01*
X147409941Y-123934308D01*
X148505957Y-125030324D01*
X148505957Y-125030324D01*
G37*
D11*
X148205436Y-124234828D03*
D12*
G36*
X148859510Y-124676770D02*
X148647378Y-124888902D01*
X147551362Y-123792886D01*
X147763494Y-123580754D01*
X148859510Y-124676770D01*
X148859510Y-124676770D01*
G37*
D11*
X148558989Y-123881275D03*
D12*
G36*
X149213063Y-124323217D02*
X149000931Y-124535349D01*
X147904915Y-123439333D01*
X148117047Y-123227201D01*
X149213063Y-124323217D01*
X149213063Y-124323217D01*
G37*
D11*
X148912543Y-123527721D03*
D12*
G36*
X149566617Y-123969663D02*
X149354485Y-124181795D01*
X148258469Y-123085779D01*
X148470601Y-122873647D01*
X149566617Y-123969663D01*
X149566617Y-123969663D01*
G37*
D11*
X149266096Y-123174168D03*
D12*
G36*
X149920170Y-123616110D02*
X149708038Y-123828242D01*
X148612022Y-122732226D01*
X148824154Y-122520094D01*
X149920170Y-123616110D01*
X149920170Y-123616110D01*
G37*
D11*
X149619649Y-122820615D03*
D12*
G36*
X150273723Y-123262557D02*
X150061591Y-123474689D01*
X148965575Y-122378673D01*
X149177707Y-122166541D01*
X150273723Y-123262557D01*
X150273723Y-123262557D01*
G37*
D11*
X149973203Y-122467061D03*
D12*
G36*
X150627277Y-122909003D02*
X150415145Y-123121135D01*
X149319129Y-122025119D01*
X149531261Y-121812987D01*
X150627277Y-122909003D01*
X150627277Y-122909003D01*
G37*
D11*
X150326756Y-122113508D03*
D12*
G36*
X150980830Y-122555450D02*
X150768698Y-122767582D01*
X149672682Y-121671566D01*
X149884814Y-121459434D01*
X150980830Y-122555450D01*
X150980830Y-122555450D01*
G37*
D11*
X150680310Y-121759954D03*
D12*
G36*
X151334384Y-122201896D02*
X151122252Y-122414028D01*
X150026236Y-121318012D01*
X150238368Y-121105880D01*
X151334384Y-122201896D01*
X151334384Y-122201896D01*
G37*
D11*
X151033863Y-121406401D03*
D12*
G36*
X151687937Y-121848343D02*
X151475805Y-122060475D01*
X150379789Y-120964459D01*
X150591921Y-120752327D01*
X151687937Y-121848343D01*
X151687937Y-121848343D01*
G37*
D11*
X151387416Y-121052848D03*
D12*
G36*
X152041490Y-121494790D02*
X151829358Y-121706922D01*
X150733342Y-120610906D01*
X150945474Y-120398774D01*
X152041490Y-121494790D01*
X152041490Y-121494790D01*
G37*
D11*
X151740970Y-120699294D03*
D12*
G36*
X152395044Y-121141236D02*
X152182912Y-121353368D01*
X151086896Y-120257352D01*
X151299028Y-120045220D01*
X152395044Y-121141236D01*
X152395044Y-121141236D01*
G37*
D11*
X152094523Y-120345741D03*
D12*
G36*
X152748597Y-120787683D02*
X152536465Y-120999815D01*
X151440449Y-119903799D01*
X151652581Y-119691667D01*
X152748597Y-120787683D01*
X152748597Y-120787683D01*
G37*
D11*
X152448077Y-119992188D03*
D12*
G36*
X153102151Y-120434130D02*
X152890019Y-120646262D01*
X151794003Y-119550246D01*
X152006135Y-119338114D01*
X153102151Y-120434130D01*
X153102151Y-120434130D01*
G37*
D11*
X152801630Y-119638634D03*
D12*
G36*
X153455704Y-120080576D02*
X153243572Y-120292708D01*
X152147556Y-119196692D01*
X152359688Y-118984560D01*
X153455704Y-120080576D01*
X153455704Y-120080576D01*
G37*
D11*
X153155183Y-119285081D03*
D12*
G36*
X153809257Y-119727023D02*
X153597125Y-119939155D01*
X152501109Y-118843139D01*
X152713241Y-118631007D01*
X153809257Y-119727023D01*
X153809257Y-119727023D01*
G37*
D11*
X153508737Y-118931527D03*
D12*
G36*
X154162811Y-119373469D02*
X153950679Y-119585601D01*
X152854663Y-118489585D01*
X153066795Y-118277453D01*
X154162811Y-119373469D01*
X154162811Y-119373469D01*
G37*
D11*
X153862290Y-118577974D03*
D12*
G36*
X154516364Y-119019916D02*
X154304232Y-119232048D01*
X153208216Y-118136032D01*
X153420348Y-117923900D01*
X154516364Y-119019916D01*
X154516364Y-119019916D01*
G37*
D11*
X154215844Y-118224421D03*
D12*
G36*
X154869918Y-118666363D02*
X154657786Y-118878495D01*
X153561770Y-117782479D01*
X153773902Y-117570347D01*
X154869918Y-118666363D01*
X154869918Y-118666363D01*
G37*
D11*
X154569397Y-117870867D03*
D12*
G36*
X155223471Y-118312809D02*
X155011339Y-118524941D01*
X153915323Y-117428925D01*
X154127455Y-117216793D01*
X155223471Y-118312809D01*
X155223471Y-118312809D01*
G37*
D11*
X154922950Y-117517314D03*
D12*
G36*
X155577024Y-117959256D02*
X155364892Y-118171388D01*
X154268876Y-117075372D01*
X154481008Y-116863240D01*
X155577024Y-117959256D01*
X155577024Y-117959256D01*
G37*
D11*
X155276504Y-117163760D03*
D12*
G36*
X155930578Y-117605702D02*
X155718446Y-117817834D01*
X154622430Y-116721818D01*
X154834562Y-116509686D01*
X155930578Y-117605702D01*
X155930578Y-117605702D01*
G37*
D11*
X155630057Y-116810207D03*
D12*
G36*
X156284131Y-117252149D02*
X156071999Y-117464281D01*
X154975983Y-116368265D01*
X155188115Y-116156133D01*
X156284131Y-117252149D01*
X156284131Y-117252149D01*
G37*
D11*
X155983611Y-116456654D03*
D12*
G36*
X156637685Y-116898596D02*
X156425553Y-117110728D01*
X155329537Y-116014712D01*
X155541669Y-115802580D01*
X156637685Y-116898596D01*
X156637685Y-116898596D01*
G37*
D11*
X156337164Y-116103100D03*
D12*
G36*
X156991238Y-116545042D02*
X156779106Y-116757174D01*
X155683090Y-115661158D01*
X155895222Y-115449026D01*
X156991238Y-116545042D01*
X156991238Y-116545042D01*
G37*
D11*
X156690717Y-115749547D03*
D12*
G36*
X157344791Y-116191489D02*
X157132659Y-116403621D01*
X156036643Y-115307605D01*
X156248775Y-115095473D01*
X157344791Y-116191489D01*
X157344791Y-116191489D01*
G37*
D11*
X157044271Y-115395993D03*
D12*
G36*
X157698345Y-115837935D02*
X157486213Y-116050067D01*
X156390197Y-114954051D01*
X156602329Y-114741919D01*
X157698345Y-115837935D01*
X157698345Y-115837935D01*
G37*
D11*
X157397824Y-115042440D03*
D12*
G36*
X158051898Y-115484382D02*
X157839766Y-115696514D01*
X156743750Y-114600498D01*
X156955882Y-114388366D01*
X158051898Y-115484382D01*
X158051898Y-115484382D01*
G37*
D11*
X157751377Y-114688887D03*
D12*
G36*
X158405451Y-115130829D02*
X158193319Y-115342961D01*
X157097303Y-114246945D01*
X157309435Y-114034813D01*
X158405451Y-115130829D01*
X158405451Y-115130829D01*
G37*
D11*
X158104931Y-114335333D03*
D12*
G36*
X158759005Y-114777275D02*
X158546873Y-114989407D01*
X157450857Y-113893391D01*
X157662989Y-113681259D01*
X158759005Y-114777275D01*
X158759005Y-114777275D01*
G37*
D11*
X158458484Y-113981780D03*
D12*
G36*
X159112558Y-114423722D02*
X158900426Y-114635854D01*
X157804410Y-113539838D01*
X158016542Y-113327706D01*
X159112558Y-114423722D01*
X159112558Y-114423722D01*
G37*
D11*
X158812038Y-113628226D03*
D12*
G36*
X159466112Y-114070168D02*
X159253980Y-114282300D01*
X158157964Y-113186284D01*
X158370096Y-112974152D01*
X159466112Y-114070168D01*
X159466112Y-114070168D01*
G37*
D11*
X159165591Y-113274673D03*
D12*
G36*
X159819665Y-113716615D02*
X159607533Y-113928747D01*
X158511517Y-112832731D01*
X158723649Y-112620599D01*
X159819665Y-113716615D01*
X159819665Y-113716615D01*
G37*
D11*
X159519144Y-112921120D03*
D12*
G36*
X160173218Y-113363062D02*
X159961086Y-113575194D01*
X158865070Y-112479178D01*
X159077202Y-112267046D01*
X160173218Y-113363062D01*
X160173218Y-113363062D01*
G37*
D11*
X159519144Y-110163403D03*
D12*
G36*
X159961086Y-109509329D02*
X160173218Y-109721461D01*
X159077202Y-110817477D01*
X158865070Y-110605345D01*
X159961086Y-109509329D01*
X159961086Y-109509329D01*
G37*
D11*
X159165591Y-109809850D03*
D12*
G36*
X159607533Y-109155776D02*
X159819665Y-109367908D01*
X158723649Y-110463924D01*
X158511517Y-110251792D01*
X159607533Y-109155776D01*
X159607533Y-109155776D01*
G37*
D11*
X158812038Y-109456296D03*
D12*
G36*
X159253980Y-108802222D02*
X159466112Y-109014354D01*
X158370096Y-110110370D01*
X158157964Y-109898238D01*
X159253980Y-108802222D01*
X159253980Y-108802222D01*
G37*
D11*
X158458484Y-109102743D03*
D12*
G36*
X158900426Y-108448669D02*
X159112558Y-108660801D01*
X158016542Y-109756817D01*
X157804410Y-109544685D01*
X158900426Y-108448669D01*
X158900426Y-108448669D01*
G37*
D11*
X158104931Y-108749190D03*
D12*
G36*
X158546873Y-108095116D02*
X158759005Y-108307248D01*
X157662989Y-109403264D01*
X157450857Y-109191132D01*
X158546873Y-108095116D01*
X158546873Y-108095116D01*
G37*
D11*
X157751377Y-108395636D03*
D12*
G36*
X158193319Y-107741562D02*
X158405451Y-107953694D01*
X157309435Y-109049710D01*
X157097303Y-108837578D01*
X158193319Y-107741562D01*
X158193319Y-107741562D01*
G37*
D11*
X157397824Y-108042083D03*
D12*
G36*
X157839766Y-107388009D02*
X158051898Y-107600141D01*
X156955882Y-108696157D01*
X156743750Y-108484025D01*
X157839766Y-107388009D01*
X157839766Y-107388009D01*
G37*
D11*
X157044271Y-107688530D03*
D12*
G36*
X157486213Y-107034456D02*
X157698345Y-107246588D01*
X156602329Y-108342604D01*
X156390197Y-108130472D01*
X157486213Y-107034456D01*
X157486213Y-107034456D01*
G37*
D11*
X156690717Y-107334976D03*
D12*
G36*
X157132659Y-106680902D02*
X157344791Y-106893034D01*
X156248775Y-107989050D01*
X156036643Y-107776918D01*
X157132659Y-106680902D01*
X157132659Y-106680902D01*
G37*
D11*
X156337164Y-106981423D03*
D12*
G36*
X156779106Y-106327349D02*
X156991238Y-106539481D01*
X155895222Y-107635497D01*
X155683090Y-107423365D01*
X156779106Y-106327349D01*
X156779106Y-106327349D01*
G37*
D11*
X155983611Y-106627869D03*
D12*
G36*
X156425553Y-105973795D02*
X156637685Y-106185927D01*
X155541669Y-107281943D01*
X155329537Y-107069811D01*
X156425553Y-105973795D01*
X156425553Y-105973795D01*
G37*
D11*
X155630057Y-106274316D03*
D12*
G36*
X156071999Y-105620242D02*
X156284131Y-105832374D01*
X155188115Y-106928390D01*
X154975983Y-106716258D01*
X156071999Y-105620242D01*
X156071999Y-105620242D01*
G37*
D11*
X155276504Y-105920763D03*
D12*
G36*
X155718446Y-105266689D02*
X155930578Y-105478821D01*
X154834562Y-106574837D01*
X154622430Y-106362705D01*
X155718446Y-105266689D01*
X155718446Y-105266689D01*
G37*
D11*
X154922950Y-105567209D03*
D12*
G36*
X155364892Y-104913135D02*
X155577024Y-105125267D01*
X154481008Y-106221283D01*
X154268876Y-106009151D01*
X155364892Y-104913135D01*
X155364892Y-104913135D01*
G37*
D11*
X154569397Y-105213656D03*
D12*
G36*
X155011339Y-104559582D02*
X155223471Y-104771714D01*
X154127455Y-105867730D01*
X153915323Y-105655598D01*
X155011339Y-104559582D01*
X155011339Y-104559582D01*
G37*
D11*
X154215844Y-104860102D03*
D12*
G36*
X154657786Y-104206028D02*
X154869918Y-104418160D01*
X153773902Y-105514176D01*
X153561770Y-105302044D01*
X154657786Y-104206028D01*
X154657786Y-104206028D01*
G37*
D11*
X153862290Y-104506549D03*
D12*
G36*
X154304232Y-103852475D02*
X154516364Y-104064607D01*
X153420348Y-105160623D01*
X153208216Y-104948491D01*
X154304232Y-103852475D01*
X154304232Y-103852475D01*
G37*
D11*
X153508737Y-104152996D03*
D12*
G36*
X153950679Y-103498922D02*
X154162811Y-103711054D01*
X153066795Y-104807070D01*
X152854663Y-104594938D01*
X153950679Y-103498922D01*
X153950679Y-103498922D01*
G37*
D11*
X153155183Y-103799442D03*
D12*
G36*
X153597125Y-103145368D02*
X153809257Y-103357500D01*
X152713241Y-104453516D01*
X152501109Y-104241384D01*
X153597125Y-103145368D01*
X153597125Y-103145368D01*
G37*
D11*
X152801630Y-103445889D03*
D12*
G36*
X153243572Y-102791815D02*
X153455704Y-103003947D01*
X152359688Y-104099963D01*
X152147556Y-103887831D01*
X153243572Y-102791815D01*
X153243572Y-102791815D01*
G37*
D11*
X152448077Y-103092335D03*
D12*
G36*
X152890019Y-102438261D02*
X153102151Y-102650393D01*
X152006135Y-103746409D01*
X151794003Y-103534277D01*
X152890019Y-102438261D01*
X152890019Y-102438261D01*
G37*
D11*
X152094523Y-102738782D03*
D12*
G36*
X152536465Y-102084708D02*
X152748597Y-102296840D01*
X151652581Y-103392856D01*
X151440449Y-103180724D01*
X152536465Y-102084708D01*
X152536465Y-102084708D01*
G37*
D11*
X151740970Y-102385229D03*
D12*
G36*
X152182912Y-101731155D02*
X152395044Y-101943287D01*
X151299028Y-103039303D01*
X151086896Y-102827171D01*
X152182912Y-101731155D01*
X152182912Y-101731155D01*
G37*
D11*
X151387416Y-102031675D03*
D12*
G36*
X151829358Y-101377601D02*
X152041490Y-101589733D01*
X150945474Y-102685749D01*
X150733342Y-102473617D01*
X151829358Y-101377601D01*
X151829358Y-101377601D01*
G37*
D11*
X151033863Y-101678122D03*
D12*
G36*
X151475805Y-101024048D02*
X151687937Y-101236180D01*
X150591921Y-102332196D01*
X150379789Y-102120064D01*
X151475805Y-101024048D01*
X151475805Y-101024048D01*
G37*
D11*
X150680310Y-101324568D03*
D12*
G36*
X151122252Y-100670494D02*
X151334384Y-100882626D01*
X150238368Y-101978642D01*
X150026236Y-101766510D01*
X151122252Y-100670494D01*
X151122252Y-100670494D01*
G37*
D11*
X150326756Y-100971015D03*
D12*
G36*
X150768698Y-100316941D02*
X150980830Y-100529073D01*
X149884814Y-101625089D01*
X149672682Y-101412957D01*
X150768698Y-100316941D01*
X150768698Y-100316941D01*
G37*
D11*
X149973203Y-100617462D03*
D12*
G36*
X150415145Y-99963388D02*
X150627277Y-100175520D01*
X149531261Y-101271536D01*
X149319129Y-101059404D01*
X150415145Y-99963388D01*
X150415145Y-99963388D01*
G37*
D11*
X149619649Y-100263908D03*
D12*
G36*
X150061591Y-99609834D02*
X150273723Y-99821966D01*
X149177707Y-100917982D01*
X148965575Y-100705850D01*
X150061591Y-99609834D01*
X150061591Y-99609834D01*
G37*
D11*
X149266096Y-99910355D03*
D12*
G36*
X149708038Y-99256281D02*
X149920170Y-99468413D01*
X148824154Y-100564429D01*
X148612022Y-100352297D01*
X149708038Y-99256281D01*
X149708038Y-99256281D01*
G37*
D11*
X148912543Y-99556802D03*
D12*
G36*
X149354485Y-98902728D02*
X149566617Y-99114860D01*
X148470601Y-100210876D01*
X148258469Y-99998744D01*
X149354485Y-98902728D01*
X149354485Y-98902728D01*
G37*
D11*
X148558989Y-99203248D03*
D12*
G36*
X149000931Y-98549174D02*
X149213063Y-98761306D01*
X148117047Y-99857322D01*
X147904915Y-99645190D01*
X149000931Y-98549174D01*
X149000931Y-98549174D01*
G37*
D11*
X148205436Y-98849695D03*
D12*
G36*
X148647378Y-98195621D02*
X148859510Y-98407753D01*
X147763494Y-99503769D01*
X147551362Y-99291637D01*
X148647378Y-98195621D01*
X148647378Y-98195621D01*
G37*
D11*
X147851883Y-98496141D03*
D12*
G36*
X148293825Y-97842067D02*
X148505957Y-98054199D01*
X147409941Y-99150215D01*
X147197809Y-98938083D01*
X148293825Y-97842067D01*
X148293825Y-97842067D01*
G37*
D11*
X147498329Y-98142588D03*
D12*
G36*
X147940271Y-97488514D02*
X148152403Y-97700646D01*
X147056387Y-98796662D01*
X146844255Y-98584530D01*
X147940271Y-97488514D01*
X147940271Y-97488514D01*
G37*
D11*
X147144776Y-97789035D03*
D12*
G36*
X147586718Y-97134961D02*
X147798850Y-97347093D01*
X146702834Y-98443109D01*
X146490702Y-98230977D01*
X147586718Y-97134961D01*
X147586718Y-97134961D01*
G37*
G04 #@! TD*
D13*
G04 #@! TO.C,C1*
X136996249Y-100239751D03*
D12*
G36*
X136837150Y-100929180D02*
X136306820Y-100398850D01*
X137155348Y-99550322D01*
X137685678Y-100080652D01*
X136837150Y-100929180D01*
X136837150Y-100929180D01*
G37*
D13*
X138339751Y-98896249D03*
D12*
G36*
X138180652Y-99585678D02*
X137650322Y-99055348D01*
X138498850Y-98206820D01*
X139029180Y-98737150D01*
X138180652Y-99585678D01*
X138180652Y-99585678D01*
G37*
G04 #@! TD*
D13*
G04 #@! TO.C,C23*
X136180751Y-120016349D03*
D12*
G36*
X136339850Y-119326920D02*
X136870180Y-119857250D01*
X136021652Y-120705778D01*
X135491322Y-120175448D01*
X136339850Y-119326920D01*
X136339850Y-119326920D01*
G37*
D13*
X134837249Y-121359851D03*
D12*
G36*
X134996348Y-120670422D02*
X135526678Y-121200752D01*
X134678150Y-122049280D01*
X134147820Y-121518950D01*
X134996348Y-120670422D01*
X134996348Y-120670422D01*
G37*
G04 #@! TD*
D13*
G04 #@! TO.C,C24*
X155423949Y-120039051D03*
D12*
G36*
X155264850Y-120728480D02*
X154734520Y-120198150D01*
X155583048Y-119349622D01*
X156113378Y-119879952D01*
X155264850Y-120728480D01*
X155264850Y-120728480D01*
G37*
D13*
X156767451Y-118695549D03*
D12*
G36*
X156608352Y-119384978D02*
X156078022Y-118854648D01*
X156926550Y-118006120D01*
X157456880Y-118536450D01*
X156608352Y-119384978D01*
X156608352Y-119384978D01*
G37*
G04 #@! TD*
D13*
G04 #@! TO.C,C25*
X161847451Y-106427349D03*
D12*
G36*
X161688352Y-107116778D02*
X161158022Y-106586448D01*
X162006550Y-105737920D01*
X162536880Y-106268250D01*
X161688352Y-107116778D01*
X161688352Y-107116778D01*
G37*
D13*
X160503949Y-107770851D03*
D12*
G36*
X160344850Y-108460280D02*
X159814520Y-107929950D01*
X160663048Y-107081422D01*
X161193378Y-107611752D01*
X160344850Y-108460280D01*
X160344850Y-108460280D01*
G37*
G04 #@! TD*
D14*
G04 #@! TO.C,C26*
X125918000Y-110871000D03*
X124018000Y-110871000D03*
G04 #@! TD*
D13*
G04 #@! TO.C,C27*
X139192000Y-96240600D03*
D12*
G36*
X139881429Y-96399699D02*
X139351099Y-96930029D01*
X138502571Y-96081501D01*
X139032901Y-95551171D01*
X139881429Y-96399699D01*
X139881429Y-96399699D01*
G37*
D13*
X140535502Y-97584102D03*
D12*
G36*
X141224931Y-97743201D02*
X140694601Y-98273531D01*
X139846073Y-97425003D01*
X140376403Y-96894673D01*
X141224931Y-97743201D01*
X141224931Y-97743201D01*
G37*
G04 #@! TD*
D14*
G04 #@! TO.C,C28*
X127955001Y-121031000D03*
X129854999Y-121031000D03*
G04 #@! TD*
D13*
G04 #@! TO.C,C29*
X135777049Y-123976051D03*
D12*
G36*
X135936148Y-123286622D02*
X136466478Y-123816952D01*
X135617950Y-124665480D01*
X135087620Y-124135150D01*
X135936148Y-123286622D01*
X135936148Y-123286622D01*
G37*
D13*
X137120551Y-122632549D03*
D12*
G36*
X137279650Y-121943120D02*
X137809980Y-122473450D01*
X136961452Y-123321978D01*
X136431122Y-122791648D01*
X137279650Y-121943120D01*
X137279650Y-121943120D01*
G37*
G04 #@! TD*
D13*
G04 #@! TO.C,C30*
X143346249Y-128360249D03*
D12*
G36*
X142656820Y-128201150D02*
X143187150Y-127670820D01*
X144035678Y-128519348D01*
X143505348Y-129049678D01*
X142656820Y-128201150D01*
X142656820Y-128201150D01*
G37*
D13*
X144689751Y-129703751D03*
D12*
G36*
X144000322Y-129544652D02*
X144530652Y-129014322D01*
X145379180Y-129862850D01*
X144848850Y-130393180D01*
X144000322Y-129544652D01*
X144000322Y-129544652D01*
G37*
G04 #@! TD*
D13*
G04 #@! TO.C,C31*
X158141749Y-117257751D03*
D12*
G36*
X157982650Y-117947180D02*
X157452320Y-117416850D01*
X158300848Y-116568322D01*
X158831178Y-117098652D01*
X157982650Y-117947180D01*
X157982650Y-117947180D01*
G37*
D13*
X159485251Y-115914249D03*
D12*
G36*
X159326152Y-116603678D02*
X158795822Y-116073348D01*
X159644350Y-115224820D01*
X160174680Y-115755150D01*
X159326152Y-116603678D01*
X159326152Y-116603678D01*
G37*
G04 #@! TD*
D13*
G04 #@! TO.C,C32*
X156830951Y-101347349D03*
D12*
G36*
X156671852Y-102036778D02*
X156141522Y-101506448D01*
X156990050Y-100657920D01*
X157520380Y-101188250D01*
X156671852Y-102036778D01*
X156671852Y-102036778D01*
G37*
D13*
X155487449Y-102690851D03*
D12*
G36*
X155328350Y-103380280D02*
X154798020Y-102849950D01*
X155646548Y-102001422D01*
X156176878Y-102531752D01*
X155328350Y-103380280D01*
X155328350Y-103380280D01*
G37*
G04 #@! TD*
D13*
G04 #@! TO.C,C33*
X153973451Y-98693049D03*
D12*
G36*
X153814352Y-99382478D02*
X153284022Y-98852148D01*
X154132550Y-98003620D01*
X154662880Y-98533950D01*
X153814352Y-99382478D01*
X153814352Y-99382478D01*
G37*
D13*
X152629949Y-100036551D03*
D12*
G36*
X152470850Y-100725980D02*
X151940520Y-100195650D01*
X152789048Y-99347122D01*
X153319378Y-99877452D01*
X152470850Y-100725980D01*
X152470850Y-100725980D01*
G37*
G04 #@! TD*
D13*
G04 #@! TO.C,C34*
X154100451Y-121349849D03*
D12*
G36*
X154259550Y-120660420D02*
X154789880Y-121190750D01*
X153941352Y-122039278D01*
X153411022Y-121508948D01*
X154259550Y-120660420D01*
X154259550Y-120660420D01*
G37*
D13*
X152756949Y-122693351D03*
D12*
G36*
X152916048Y-122003922D02*
X153446378Y-122534252D01*
X152597850Y-123382780D01*
X152067520Y-122852450D01*
X152916048Y-122003922D01*
X152916048Y-122003922D01*
G37*
G04 #@! TD*
D15*
G04 #@! TO.C,C36*
X131216400Y-138948200D03*
X131216400Y-137048200D03*
G04 #@! TD*
D14*
G04 #@! TO.C,C38*
X156779000Y-48133000D03*
X154879000Y-48133000D03*
G04 #@! TD*
D15*
G04 #@! TO.C,C39*
X149098000Y-61473000D03*
X149098000Y-63373000D03*
G04 #@! TD*
D14*
G04 #@! TO.C,C41*
X156525000Y-59055000D03*
X154625000Y-59055000D03*
G04 #@! TD*
D15*
G04 #@! TO.C,C42*
X149352000Y-65852000D03*
X149352000Y-67752000D03*
G04 #@! TD*
D14*
G04 #@! TO.C,C44*
X154625000Y-60579000D03*
X156525000Y-60579000D03*
G04 #@! TD*
D15*
G04 #@! TO.C,C45*
X146939000Y-67752000D03*
X146939000Y-65852000D03*
G04 #@! TD*
D14*
G04 #@! TO.C,C46*
X184338000Y-69850000D03*
X182438000Y-69850000D03*
G04 #@! TD*
G04 #@! TO.C,C47*
X167320000Y-69850000D03*
X165420000Y-69850000D03*
G04 #@! TD*
G04 #@! TO.C,C48*
X182438000Y-71882000D03*
X184338000Y-71882000D03*
G04 #@! TD*
D15*
G04 #@! TO.C,C49*
X164846000Y-47310000D03*
X164846000Y-49210000D03*
G04 #@! TD*
G04 #@! TO.C,C50*
X167132000Y-49210000D03*
X167132000Y-47310000D03*
G04 #@! TD*
D14*
G04 #@! TO.C,C51*
X165928000Y-99216201D03*
X167828000Y-99216201D03*
G04 #@! TD*
D15*
G04 #@! TO.C,C52*
X173355000Y-83119000D03*
X173355000Y-81219000D03*
G04 #@! TD*
D14*
G04 #@! TO.C,C53*
X131084400Y-106235500D03*
X129184400Y-106235500D03*
G04 #@! TD*
D16*
G04 #@! TO.C,D5*
X162052000Y-50418000D03*
X162052000Y-47118000D03*
G04 #@! TD*
G04 #@! TO.C,D7*
X134620000Y-68962000D03*
X134620000Y-72262000D03*
G04 #@! TD*
D17*
G04 #@! TO.C,D8*
X141858000Y-79248000D03*
X138558000Y-79248000D03*
G04 #@! TD*
D16*
G04 #@! TO.C,D11*
X135382000Y-62102000D03*
X135382000Y-58802000D03*
G04 #@! TD*
G04 #@! TO.C,D12*
X132080000Y-87248000D03*
X132080000Y-83948000D03*
G04 #@! TD*
D10*
G04 #@! TO.C,L3*
X172927000Y-49276000D03*
X170227000Y-49276000D03*
G04 #@! TD*
D17*
G04 #@! TO.C,R5*
X131305300Y-129227400D03*
X131305300Y-131427400D03*
G04 #@! TD*
D16*
G04 #@! TO.C,R6*
X142959000Y-48514000D03*
X140759000Y-48514000D03*
G04 #@! TD*
G04 #@! TO.C,R7*
X165438000Y-102362000D03*
X163238000Y-102362000D03*
G04 #@! TD*
G04 #@! TO.C,R10*
X177503000Y-87122000D03*
X175303000Y-87122000D03*
G04 #@! TD*
G04 #@! TO.C,R12*
X130218000Y-67310000D03*
X132418000Y-67310000D03*
G04 #@! TD*
G04 #@! TO.C,R13*
X133520000Y-78232000D03*
X135720000Y-78232000D03*
G04 #@! TD*
D17*
G04 #@! TO.C,R14*
X133350000Y-61552000D03*
X133350000Y-59352000D03*
G04 #@! TD*
G04 #@! TO.C,R15*
X134366000Y-84244000D03*
X134366000Y-86444000D03*
G04 #@! TD*
D18*
G04 #@! TO.C,SRX.X.*
X176954000Y-117279800D03*
D19*
X176954000Y-115559800D03*
X179154000Y-115559800D03*
X179154000Y-117459800D03*
G04 #@! TD*
G04 #@! TO.C,SRX.X.*
X179077800Y-113078300D03*
X179077800Y-111178300D03*
X176877800Y-111178300D03*
D18*
X176877800Y-112898300D03*
G04 #@! TD*
D20*
G04 #@! TO.C,U6*
X154432000Y-56527700D03*
D21*
X156743400Y-50292000D03*
X154432000Y-50292000D03*
X152120600Y-50292000D03*
G04 #@! TD*
D22*
G04 #@! TO.C,U7*
X151822150Y-68097400D03*
X151822150Y-65786000D03*
X151822150Y-63474600D03*
D23*
X158057850Y-65786000D03*
G04 #@! TD*
D24*
G04 #@! TO.C,U10*
X175453000Y-84189000D03*
X175453000Y-83689000D03*
X175453000Y-83189000D03*
X175453000Y-82689000D03*
X177353000Y-82689000D03*
X177353000Y-83189000D03*
X177353000Y-83689000D03*
X177353000Y-84189000D03*
D25*
X176403000Y-83439000D03*
G04 #@! TD*
D26*
G04 #@! TO.C,Q1*
X132064000Y-64516000D03*
X130064000Y-63566000D03*
X130064000Y-65466000D03*
G04 #@! TD*
D27*
G04 #@! TO.C,Q2*
X133416000Y-80280000D03*
X135316000Y-80280000D03*
X134366000Y-82280000D03*
G04 #@! TD*
D10*
G04 #@! TO.C,L4*
X179010300Y-109067600D03*
X176310300Y-109067600D03*
G04 #@! TD*
G04 #@! TO.C,L5*
X176297600Y-106654600D03*
X178997600Y-106654600D03*
G04 #@! TD*
D28*
G04 #@! TO.C,L6*
X133350000Y-134921000D03*
X133350000Y-137621000D03*
G04 #@! TD*
D10*
G04 #@! TO.C,L7*
X120095000Y-92456000D03*
X117395000Y-92456000D03*
G04 #@! TD*
D14*
G04 #@! TO.C,C5*
X124018000Y-112776000D03*
X125918000Y-112776000D03*
G04 #@! TD*
D17*
G04 #@! TO.C,R19*
X128016000Y-113114000D03*
X128016000Y-110914000D03*
G04 #@! TD*
M02*
