G04 #@! TF.GenerationSoftware,KiCad,Pcbnew,5.0.0-fee4fd1~66~ubuntu16.04.1*
G04 #@! TF.CreationDate,2018-10-21T13:34:45-05:00*
G04 #@! TF.ProjectId,design_emb,64657369676E5F656D622E6B69636164,rev?*
G04 #@! TF.SameCoordinates,Original*
G04 #@! TF.FileFunction,Soldermask,Top*
G04 #@! TF.FilePolarity,Negative*
%FSLAX46Y46*%
G04 Gerber Fmt 4.6, Leading zero omitted, Abs format (unit mm)*
G04 Created by KiCad (PCBNEW 5.0.0-fee4fd1~66~ubuntu16.04.1) date Sun Oct 21 13:34:45 2018*
%MOMM*%
%LPD*%
G01*
G04 APERTURE LIST*
%ADD10C,0.100000*%
G04 APERTURE END LIST*
D10*
G36*
X188855716Y-138219544D02*
X189256090Y-138385384D01*
X189616421Y-138626150D01*
X189922850Y-138932579D01*
X190163616Y-139292910D01*
X190329456Y-139693284D01*
X190414000Y-140118317D01*
X190414000Y-140551683D01*
X190329456Y-140976716D01*
X190163616Y-141377090D01*
X189922850Y-141737421D01*
X189616421Y-142043850D01*
X189256090Y-142284616D01*
X188855716Y-142450456D01*
X188430683Y-142535000D01*
X187997317Y-142535000D01*
X187572284Y-142450456D01*
X187171910Y-142284616D01*
X186811579Y-142043850D01*
X186505150Y-141737421D01*
X186264384Y-141377090D01*
X186098544Y-140976716D01*
X186014000Y-140551683D01*
X186014000Y-140118317D01*
X186098544Y-139693284D01*
X186264384Y-139292910D01*
X186505150Y-138932579D01*
X186811579Y-138626150D01*
X187171910Y-138385384D01*
X187572284Y-138219544D01*
X187997317Y-138135000D01*
X188430683Y-138135000D01*
X188855716Y-138219544D01*
X188855716Y-138219544D01*
G37*
G36*
X115195716Y-137965544D02*
X115596090Y-138131384D01*
X115956421Y-138372150D01*
X116262850Y-138678579D01*
X116503616Y-139038910D01*
X116669456Y-139439284D01*
X116754000Y-139864317D01*
X116754000Y-140297683D01*
X116669456Y-140722716D01*
X116503616Y-141123090D01*
X116262850Y-141483421D01*
X115956421Y-141789850D01*
X115596090Y-142030616D01*
X115195716Y-142196456D01*
X114770683Y-142281000D01*
X114337317Y-142281000D01*
X113912284Y-142196456D01*
X113511910Y-142030616D01*
X113151579Y-141789850D01*
X112845150Y-141483421D01*
X112604384Y-141123090D01*
X112438544Y-140722716D01*
X112354000Y-140297683D01*
X112354000Y-139864317D01*
X112438544Y-139439284D01*
X112604384Y-139038910D01*
X112845150Y-138678579D01*
X113151579Y-138372150D01*
X113511910Y-138131384D01*
X113912284Y-137965544D01*
X114337317Y-137881000D01*
X114770683Y-137881000D01*
X115195716Y-137965544D01*
X115195716Y-137965544D01*
G37*
G36*
X124250300Y-139964200D02*
X121850300Y-139964200D01*
X121850300Y-138064200D01*
X124250300Y-138064200D01*
X124250300Y-139964200D01*
X124250300Y-139964200D01*
G37*
G36*
X132530700Y-139938800D02*
X130130700Y-139938800D01*
X130130700Y-138038800D01*
X132530700Y-138038800D01*
X132530700Y-139938800D01*
X132530700Y-139938800D01*
G37*
G36*
X154677764Y-136540118D02*
X154754893Y-136547715D01*
X154886844Y-136587742D01*
X154952820Y-136607755D01*
X155135229Y-136705255D01*
X155295111Y-136836468D01*
X155426324Y-136996350D01*
X155523824Y-137178759D01*
X155523824Y-137178760D01*
X155583864Y-137376686D01*
X155604137Y-137582522D01*
X155583864Y-137788358D01*
X155555761Y-137881000D01*
X155523824Y-137986285D01*
X155426324Y-138168694D01*
X155295111Y-138328576D01*
X155135229Y-138459789D01*
X154952820Y-138557289D01*
X154886844Y-138577302D01*
X154754893Y-138617329D01*
X154677764Y-138624926D01*
X154600637Y-138632522D01*
X154497477Y-138632522D01*
X154420350Y-138624926D01*
X154343221Y-138617329D01*
X154211270Y-138577302D01*
X154145294Y-138557289D01*
X153962885Y-138459789D01*
X153803003Y-138328576D01*
X153671790Y-138168694D01*
X153574290Y-137986285D01*
X153542353Y-137881000D01*
X153514250Y-137788358D01*
X153493977Y-137582522D01*
X153514250Y-137376686D01*
X153574290Y-137178760D01*
X153574290Y-137178759D01*
X153671790Y-136996350D01*
X153803003Y-136836468D01*
X153962885Y-136705255D01*
X154145294Y-136607755D01*
X154211270Y-136587742D01*
X154343221Y-136547715D01*
X154420350Y-136540118D01*
X154497477Y-136532522D01*
X154600637Y-136532522D01*
X154677764Y-136540118D01*
X154677764Y-136540118D01*
G37*
G36*
X136897764Y-136540118D02*
X136974893Y-136547715D01*
X137106844Y-136587742D01*
X137172820Y-136607755D01*
X137355229Y-136705255D01*
X137515111Y-136836468D01*
X137646324Y-136996350D01*
X137743824Y-137178759D01*
X137743824Y-137178760D01*
X137803864Y-137376686D01*
X137824137Y-137582522D01*
X137803864Y-137788358D01*
X137775761Y-137881000D01*
X137743824Y-137986285D01*
X137646324Y-138168694D01*
X137515111Y-138328576D01*
X137355229Y-138459789D01*
X137172820Y-138557289D01*
X137106844Y-138577302D01*
X136974893Y-138617329D01*
X136897764Y-138624926D01*
X136820637Y-138632522D01*
X136717477Y-138632522D01*
X136640350Y-138624926D01*
X136563221Y-138617329D01*
X136431270Y-138577302D01*
X136365294Y-138557289D01*
X136182885Y-138459789D01*
X136023003Y-138328576D01*
X135891790Y-138168694D01*
X135794290Y-137986285D01*
X135762353Y-137881000D01*
X135734250Y-137788358D01*
X135713977Y-137582522D01*
X135734250Y-137376686D01*
X135794290Y-137178760D01*
X135794290Y-137178759D01*
X135891790Y-136996350D01*
X136023003Y-136836468D01*
X136182885Y-136705255D01*
X136365294Y-136607755D01*
X136431270Y-136587742D01*
X136563221Y-136547715D01*
X136640350Y-136540118D01*
X136717477Y-136532522D01*
X136820637Y-136532522D01*
X136897764Y-136540118D01*
X136897764Y-136540118D01*
G37*
G36*
X139437764Y-136540118D02*
X139514893Y-136547715D01*
X139646844Y-136587742D01*
X139712820Y-136607755D01*
X139895229Y-136705255D01*
X140055111Y-136836468D01*
X140186324Y-136996350D01*
X140283824Y-137178759D01*
X140283824Y-137178760D01*
X140343864Y-137376686D01*
X140364137Y-137582522D01*
X140343864Y-137788358D01*
X140315761Y-137881000D01*
X140283824Y-137986285D01*
X140186324Y-138168694D01*
X140055111Y-138328576D01*
X139895229Y-138459789D01*
X139712820Y-138557289D01*
X139646844Y-138577302D01*
X139514893Y-138617329D01*
X139437764Y-138624926D01*
X139360637Y-138632522D01*
X139257477Y-138632522D01*
X139180350Y-138624926D01*
X139103221Y-138617329D01*
X138971270Y-138577302D01*
X138905294Y-138557289D01*
X138722885Y-138459789D01*
X138563003Y-138328576D01*
X138431790Y-138168694D01*
X138334290Y-137986285D01*
X138302353Y-137881000D01*
X138274250Y-137788358D01*
X138253977Y-137582522D01*
X138274250Y-137376686D01*
X138334290Y-137178760D01*
X138334290Y-137178759D01*
X138431790Y-136996350D01*
X138563003Y-136836468D01*
X138722885Y-136705255D01*
X138905294Y-136607755D01*
X138971270Y-136587742D01*
X139103221Y-136547715D01*
X139180350Y-136540118D01*
X139257477Y-136532522D01*
X139360637Y-136532522D01*
X139437764Y-136540118D01*
X139437764Y-136540118D01*
G37*
G36*
X159757764Y-136540118D02*
X159834893Y-136547715D01*
X159966844Y-136587742D01*
X160032820Y-136607755D01*
X160215229Y-136705255D01*
X160375111Y-136836468D01*
X160506324Y-136996350D01*
X160603824Y-137178759D01*
X160603824Y-137178760D01*
X160663864Y-137376686D01*
X160684137Y-137582522D01*
X160663864Y-137788358D01*
X160635761Y-137881000D01*
X160603824Y-137986285D01*
X160506324Y-138168694D01*
X160375111Y-138328576D01*
X160215229Y-138459789D01*
X160032820Y-138557289D01*
X159966844Y-138577302D01*
X159834893Y-138617329D01*
X159757764Y-138624926D01*
X159680637Y-138632522D01*
X159577477Y-138632522D01*
X159500350Y-138624926D01*
X159423221Y-138617329D01*
X159291270Y-138577302D01*
X159225294Y-138557289D01*
X159042885Y-138459789D01*
X158883003Y-138328576D01*
X158751790Y-138168694D01*
X158654290Y-137986285D01*
X158622353Y-137881000D01*
X158594250Y-137788358D01*
X158573977Y-137582522D01*
X158594250Y-137376686D01*
X158654290Y-137178760D01*
X158654290Y-137178759D01*
X158751790Y-136996350D01*
X158883003Y-136836468D01*
X159042885Y-136705255D01*
X159225294Y-136607755D01*
X159291270Y-136587742D01*
X159423221Y-136547715D01*
X159500350Y-136540118D01*
X159577477Y-136532522D01*
X159680637Y-136532522D01*
X159757764Y-136540118D01*
X159757764Y-136540118D01*
G37*
G36*
X157217764Y-136540118D02*
X157294893Y-136547715D01*
X157426844Y-136587742D01*
X157492820Y-136607755D01*
X157675229Y-136705255D01*
X157835111Y-136836468D01*
X157966324Y-136996350D01*
X158063824Y-137178759D01*
X158063824Y-137178760D01*
X158123864Y-137376686D01*
X158144137Y-137582522D01*
X158123864Y-137788358D01*
X158095761Y-137881000D01*
X158063824Y-137986285D01*
X157966324Y-138168694D01*
X157835111Y-138328576D01*
X157675229Y-138459789D01*
X157492820Y-138557289D01*
X157426844Y-138577302D01*
X157294893Y-138617329D01*
X157217764Y-138624926D01*
X157140637Y-138632522D01*
X157037477Y-138632522D01*
X156960350Y-138624926D01*
X156883221Y-138617329D01*
X156751270Y-138577302D01*
X156685294Y-138557289D01*
X156502885Y-138459789D01*
X156343003Y-138328576D01*
X156211790Y-138168694D01*
X156114290Y-137986285D01*
X156082353Y-137881000D01*
X156054250Y-137788358D01*
X156033977Y-137582522D01*
X156054250Y-137376686D01*
X156114290Y-137178760D01*
X156114290Y-137178759D01*
X156211790Y-136996350D01*
X156343003Y-136836468D01*
X156502885Y-136705255D01*
X156685294Y-136607755D01*
X156751270Y-136587742D01*
X156883221Y-136547715D01*
X156960350Y-136540118D01*
X157037477Y-136532522D01*
X157140637Y-136532522D01*
X157217764Y-136540118D01*
X157217764Y-136540118D01*
G37*
G36*
X152137764Y-136540118D02*
X152214893Y-136547715D01*
X152346844Y-136587742D01*
X152412820Y-136607755D01*
X152595229Y-136705255D01*
X152755111Y-136836468D01*
X152886324Y-136996350D01*
X152983824Y-137178759D01*
X152983824Y-137178760D01*
X153043864Y-137376686D01*
X153064137Y-137582522D01*
X153043864Y-137788358D01*
X153015761Y-137881000D01*
X152983824Y-137986285D01*
X152886324Y-138168694D01*
X152755111Y-138328576D01*
X152595229Y-138459789D01*
X152412820Y-138557289D01*
X152346844Y-138577302D01*
X152214893Y-138617329D01*
X152137764Y-138624926D01*
X152060637Y-138632522D01*
X151957477Y-138632522D01*
X151880350Y-138624926D01*
X151803221Y-138617329D01*
X151671270Y-138577302D01*
X151605294Y-138557289D01*
X151422885Y-138459789D01*
X151263003Y-138328576D01*
X151131790Y-138168694D01*
X151034290Y-137986285D01*
X151002353Y-137881000D01*
X150974250Y-137788358D01*
X150953977Y-137582522D01*
X150974250Y-137376686D01*
X151034290Y-137178760D01*
X151034290Y-137178759D01*
X151131790Y-136996350D01*
X151263003Y-136836468D01*
X151422885Y-136705255D01*
X151605294Y-136607755D01*
X151671270Y-136587742D01*
X151803221Y-136547715D01*
X151880350Y-136540118D01*
X151957477Y-136532522D01*
X152060637Y-136532522D01*
X152137764Y-136540118D01*
X152137764Y-136540118D01*
G37*
G36*
X149597764Y-136540118D02*
X149674893Y-136547715D01*
X149806844Y-136587742D01*
X149872820Y-136607755D01*
X150055229Y-136705255D01*
X150215111Y-136836468D01*
X150346324Y-136996350D01*
X150443824Y-137178759D01*
X150443824Y-137178760D01*
X150503864Y-137376686D01*
X150524137Y-137582522D01*
X150503864Y-137788358D01*
X150475761Y-137881000D01*
X150443824Y-137986285D01*
X150346324Y-138168694D01*
X150215111Y-138328576D01*
X150055229Y-138459789D01*
X149872820Y-138557289D01*
X149806844Y-138577302D01*
X149674893Y-138617329D01*
X149597764Y-138624926D01*
X149520637Y-138632522D01*
X149417477Y-138632522D01*
X149340350Y-138624926D01*
X149263221Y-138617329D01*
X149131270Y-138577302D01*
X149065294Y-138557289D01*
X148882885Y-138459789D01*
X148723003Y-138328576D01*
X148591790Y-138168694D01*
X148494290Y-137986285D01*
X148462353Y-137881000D01*
X148434250Y-137788358D01*
X148413977Y-137582522D01*
X148434250Y-137376686D01*
X148494290Y-137178760D01*
X148494290Y-137178759D01*
X148591790Y-136996350D01*
X148723003Y-136836468D01*
X148882885Y-136705255D01*
X149065294Y-136607755D01*
X149131270Y-136587742D01*
X149263221Y-136547715D01*
X149340350Y-136540118D01*
X149417477Y-136532522D01*
X149520637Y-136532522D01*
X149597764Y-136540118D01*
X149597764Y-136540118D01*
G37*
G36*
X147057764Y-136540118D02*
X147134893Y-136547715D01*
X147266844Y-136587742D01*
X147332820Y-136607755D01*
X147515229Y-136705255D01*
X147675111Y-136836468D01*
X147806324Y-136996350D01*
X147903824Y-137178759D01*
X147903824Y-137178760D01*
X147963864Y-137376686D01*
X147984137Y-137582522D01*
X147963864Y-137788358D01*
X147935761Y-137881000D01*
X147903824Y-137986285D01*
X147806324Y-138168694D01*
X147675111Y-138328576D01*
X147515229Y-138459789D01*
X147332820Y-138557289D01*
X147266844Y-138577302D01*
X147134893Y-138617329D01*
X147057764Y-138624926D01*
X146980637Y-138632522D01*
X146877477Y-138632522D01*
X146800350Y-138624926D01*
X146723221Y-138617329D01*
X146591270Y-138577302D01*
X146525294Y-138557289D01*
X146342885Y-138459789D01*
X146183003Y-138328576D01*
X146051790Y-138168694D01*
X145954290Y-137986285D01*
X145922353Y-137881000D01*
X145894250Y-137788358D01*
X145873977Y-137582522D01*
X145894250Y-137376686D01*
X145954290Y-137178760D01*
X145954290Y-137178759D01*
X146051790Y-136996350D01*
X146183003Y-136836468D01*
X146342885Y-136705255D01*
X146525294Y-136607755D01*
X146591270Y-136587742D01*
X146723221Y-136547715D01*
X146800350Y-136540118D01*
X146877477Y-136532522D01*
X146980637Y-136532522D01*
X147057764Y-136540118D01*
X147057764Y-136540118D01*
G37*
G36*
X144517764Y-136540118D02*
X144594893Y-136547715D01*
X144726844Y-136587742D01*
X144792820Y-136607755D01*
X144975229Y-136705255D01*
X145135111Y-136836468D01*
X145266324Y-136996350D01*
X145363824Y-137178759D01*
X145363824Y-137178760D01*
X145423864Y-137376686D01*
X145444137Y-137582522D01*
X145423864Y-137788358D01*
X145395761Y-137881000D01*
X145363824Y-137986285D01*
X145266324Y-138168694D01*
X145135111Y-138328576D01*
X144975229Y-138459789D01*
X144792820Y-138557289D01*
X144726844Y-138577302D01*
X144594893Y-138617329D01*
X144517764Y-138624926D01*
X144440637Y-138632522D01*
X144337477Y-138632522D01*
X144260350Y-138624926D01*
X144183221Y-138617329D01*
X144051270Y-138577302D01*
X143985294Y-138557289D01*
X143802885Y-138459789D01*
X143643003Y-138328576D01*
X143511790Y-138168694D01*
X143414290Y-137986285D01*
X143382353Y-137881000D01*
X143354250Y-137788358D01*
X143333977Y-137582522D01*
X143354250Y-137376686D01*
X143414290Y-137178760D01*
X143414290Y-137178759D01*
X143511790Y-136996350D01*
X143643003Y-136836468D01*
X143802885Y-136705255D01*
X143985294Y-136607755D01*
X144051270Y-136587742D01*
X144183221Y-136547715D01*
X144260350Y-136540118D01*
X144337477Y-136532522D01*
X144440637Y-136532522D01*
X144517764Y-136540118D01*
X144517764Y-136540118D01*
G37*
G36*
X141977764Y-136540118D02*
X142054893Y-136547715D01*
X142186844Y-136587742D01*
X142252820Y-136607755D01*
X142435229Y-136705255D01*
X142595111Y-136836468D01*
X142726324Y-136996350D01*
X142823824Y-137178759D01*
X142823824Y-137178760D01*
X142883864Y-137376686D01*
X142904137Y-137582522D01*
X142883864Y-137788358D01*
X142855761Y-137881000D01*
X142823824Y-137986285D01*
X142726324Y-138168694D01*
X142595111Y-138328576D01*
X142435229Y-138459789D01*
X142252820Y-138557289D01*
X142186844Y-138577302D01*
X142054893Y-138617329D01*
X141977764Y-138624926D01*
X141900637Y-138632522D01*
X141797477Y-138632522D01*
X141720350Y-138624926D01*
X141643221Y-138617329D01*
X141511270Y-138577302D01*
X141445294Y-138557289D01*
X141262885Y-138459789D01*
X141103003Y-138328576D01*
X140971790Y-138168694D01*
X140874290Y-137986285D01*
X140842353Y-137881000D01*
X140814250Y-137788358D01*
X140793977Y-137582522D01*
X140814250Y-137376686D01*
X140874290Y-137178760D01*
X140874290Y-137178759D01*
X140971790Y-136996350D01*
X141103003Y-136836468D01*
X141262885Y-136705255D01*
X141445294Y-136607755D01*
X141511270Y-136587742D01*
X141643221Y-136547715D01*
X141720350Y-136540118D01*
X141797477Y-136532522D01*
X141900637Y-136532522D01*
X141977764Y-136540118D01*
X141977764Y-136540118D01*
G37*
G36*
X137819057Y-136092522D02*
X135719057Y-136092522D01*
X135719057Y-133992522D01*
X137819057Y-133992522D01*
X137819057Y-136092522D01*
X137819057Y-136092522D01*
G37*
G36*
X159757764Y-134000118D02*
X159834893Y-134007715D01*
X159966844Y-134047742D01*
X160032820Y-134067755D01*
X160215229Y-134165255D01*
X160375111Y-134296468D01*
X160506324Y-134456350D01*
X160603824Y-134638759D01*
X160603824Y-134638760D01*
X160663864Y-134836686D01*
X160684137Y-135042522D01*
X160663864Y-135248358D01*
X160623837Y-135380309D01*
X160603824Y-135446285D01*
X160506324Y-135628694D01*
X160375111Y-135788576D01*
X160215229Y-135919789D01*
X160032820Y-136017289D01*
X159966844Y-136037302D01*
X159834893Y-136077329D01*
X159757764Y-136084925D01*
X159680637Y-136092522D01*
X159577477Y-136092522D01*
X159500350Y-136084925D01*
X159423221Y-136077329D01*
X159291270Y-136037302D01*
X159225294Y-136017289D01*
X159042885Y-135919789D01*
X158883003Y-135788576D01*
X158751790Y-135628694D01*
X158654290Y-135446285D01*
X158634277Y-135380309D01*
X158594250Y-135248358D01*
X158573977Y-135042522D01*
X158594250Y-134836686D01*
X158654290Y-134638760D01*
X158654290Y-134638759D01*
X158751790Y-134456350D01*
X158883003Y-134296468D01*
X159042885Y-134165255D01*
X159225294Y-134067755D01*
X159291270Y-134047742D01*
X159423221Y-134007715D01*
X159500350Y-134000118D01*
X159577477Y-133992522D01*
X159680637Y-133992522D01*
X159757764Y-134000118D01*
X159757764Y-134000118D01*
G37*
G36*
X157217764Y-134000118D02*
X157294893Y-134007715D01*
X157426844Y-134047742D01*
X157492820Y-134067755D01*
X157675229Y-134165255D01*
X157835111Y-134296468D01*
X157966324Y-134456350D01*
X158063824Y-134638759D01*
X158063824Y-134638760D01*
X158123864Y-134836686D01*
X158144137Y-135042522D01*
X158123864Y-135248358D01*
X158083837Y-135380309D01*
X158063824Y-135446285D01*
X157966324Y-135628694D01*
X157835111Y-135788576D01*
X157675229Y-135919789D01*
X157492820Y-136017289D01*
X157426844Y-136037302D01*
X157294893Y-136077329D01*
X157217764Y-136084925D01*
X157140637Y-136092522D01*
X157037477Y-136092522D01*
X156960350Y-136084925D01*
X156883221Y-136077329D01*
X156751270Y-136037302D01*
X156685294Y-136017289D01*
X156502885Y-135919789D01*
X156343003Y-135788576D01*
X156211790Y-135628694D01*
X156114290Y-135446285D01*
X156094277Y-135380309D01*
X156054250Y-135248358D01*
X156033977Y-135042522D01*
X156054250Y-134836686D01*
X156114290Y-134638760D01*
X156114290Y-134638759D01*
X156211790Y-134456350D01*
X156343003Y-134296468D01*
X156502885Y-134165255D01*
X156685294Y-134067755D01*
X156751270Y-134047742D01*
X156883221Y-134007715D01*
X156960350Y-134000118D01*
X157037477Y-133992522D01*
X157140637Y-133992522D01*
X157217764Y-134000118D01*
X157217764Y-134000118D01*
G37*
G36*
X154677764Y-134000118D02*
X154754893Y-134007715D01*
X154886844Y-134047742D01*
X154952820Y-134067755D01*
X155135229Y-134165255D01*
X155295111Y-134296468D01*
X155426324Y-134456350D01*
X155523824Y-134638759D01*
X155523824Y-134638760D01*
X155583864Y-134836686D01*
X155604137Y-135042522D01*
X155583864Y-135248358D01*
X155543837Y-135380309D01*
X155523824Y-135446285D01*
X155426324Y-135628694D01*
X155295111Y-135788576D01*
X155135229Y-135919789D01*
X154952820Y-136017289D01*
X154886844Y-136037302D01*
X154754893Y-136077329D01*
X154677764Y-136084925D01*
X154600637Y-136092522D01*
X154497477Y-136092522D01*
X154420350Y-136084925D01*
X154343221Y-136077329D01*
X154211270Y-136037302D01*
X154145294Y-136017289D01*
X153962885Y-135919789D01*
X153803003Y-135788576D01*
X153671790Y-135628694D01*
X153574290Y-135446285D01*
X153554277Y-135380309D01*
X153514250Y-135248358D01*
X153493977Y-135042522D01*
X153514250Y-134836686D01*
X153574290Y-134638760D01*
X153574290Y-134638759D01*
X153671790Y-134456350D01*
X153803003Y-134296468D01*
X153962885Y-134165255D01*
X154145294Y-134067755D01*
X154211270Y-134047742D01*
X154343221Y-134007715D01*
X154420350Y-134000118D01*
X154497477Y-133992522D01*
X154600637Y-133992522D01*
X154677764Y-134000118D01*
X154677764Y-134000118D01*
G37*
G36*
X152137764Y-134000118D02*
X152214893Y-134007715D01*
X152346844Y-134047742D01*
X152412820Y-134067755D01*
X152595229Y-134165255D01*
X152755111Y-134296468D01*
X152886324Y-134456350D01*
X152983824Y-134638759D01*
X152983824Y-134638760D01*
X153043864Y-134836686D01*
X153064137Y-135042522D01*
X153043864Y-135248358D01*
X153003837Y-135380309D01*
X152983824Y-135446285D01*
X152886324Y-135628694D01*
X152755111Y-135788576D01*
X152595229Y-135919789D01*
X152412820Y-136017289D01*
X152346844Y-136037302D01*
X152214893Y-136077329D01*
X152137764Y-136084925D01*
X152060637Y-136092522D01*
X151957477Y-136092522D01*
X151880350Y-136084925D01*
X151803221Y-136077329D01*
X151671270Y-136037302D01*
X151605294Y-136017289D01*
X151422885Y-135919789D01*
X151263003Y-135788576D01*
X151131790Y-135628694D01*
X151034290Y-135446285D01*
X151014277Y-135380309D01*
X150974250Y-135248358D01*
X150953977Y-135042522D01*
X150974250Y-134836686D01*
X151034290Y-134638760D01*
X151034290Y-134638759D01*
X151131790Y-134456350D01*
X151263003Y-134296468D01*
X151422885Y-134165255D01*
X151605294Y-134067755D01*
X151671270Y-134047742D01*
X151803221Y-134007715D01*
X151880350Y-134000118D01*
X151957477Y-133992522D01*
X152060637Y-133992522D01*
X152137764Y-134000118D01*
X152137764Y-134000118D01*
G37*
G36*
X149597764Y-134000118D02*
X149674893Y-134007715D01*
X149806844Y-134047742D01*
X149872820Y-134067755D01*
X150055229Y-134165255D01*
X150215111Y-134296468D01*
X150346324Y-134456350D01*
X150443824Y-134638759D01*
X150443824Y-134638760D01*
X150503864Y-134836686D01*
X150524137Y-135042522D01*
X150503864Y-135248358D01*
X150463837Y-135380309D01*
X150443824Y-135446285D01*
X150346324Y-135628694D01*
X150215111Y-135788576D01*
X150055229Y-135919789D01*
X149872820Y-136017289D01*
X149806844Y-136037302D01*
X149674893Y-136077329D01*
X149597764Y-136084925D01*
X149520637Y-136092522D01*
X149417477Y-136092522D01*
X149340350Y-136084925D01*
X149263221Y-136077329D01*
X149131270Y-136037302D01*
X149065294Y-136017289D01*
X148882885Y-135919789D01*
X148723003Y-135788576D01*
X148591790Y-135628694D01*
X148494290Y-135446285D01*
X148474277Y-135380309D01*
X148434250Y-135248358D01*
X148413977Y-135042522D01*
X148434250Y-134836686D01*
X148494290Y-134638760D01*
X148494290Y-134638759D01*
X148591790Y-134456350D01*
X148723003Y-134296468D01*
X148882885Y-134165255D01*
X149065294Y-134067755D01*
X149131270Y-134047742D01*
X149263221Y-134007715D01*
X149340350Y-134000118D01*
X149417477Y-133992522D01*
X149520637Y-133992522D01*
X149597764Y-134000118D01*
X149597764Y-134000118D01*
G37*
G36*
X147057764Y-134000118D02*
X147134893Y-134007715D01*
X147266844Y-134047742D01*
X147332820Y-134067755D01*
X147515229Y-134165255D01*
X147675111Y-134296468D01*
X147806324Y-134456350D01*
X147903824Y-134638759D01*
X147903824Y-134638760D01*
X147963864Y-134836686D01*
X147984137Y-135042522D01*
X147963864Y-135248358D01*
X147923837Y-135380309D01*
X147903824Y-135446285D01*
X147806324Y-135628694D01*
X147675111Y-135788576D01*
X147515229Y-135919789D01*
X147332820Y-136017289D01*
X147266844Y-136037302D01*
X147134893Y-136077329D01*
X147057764Y-136084925D01*
X146980637Y-136092522D01*
X146877477Y-136092522D01*
X146800350Y-136084925D01*
X146723221Y-136077329D01*
X146591270Y-136037302D01*
X146525294Y-136017289D01*
X146342885Y-135919789D01*
X146183003Y-135788576D01*
X146051790Y-135628694D01*
X145954290Y-135446285D01*
X145934277Y-135380309D01*
X145894250Y-135248358D01*
X145873977Y-135042522D01*
X145894250Y-134836686D01*
X145954290Y-134638760D01*
X145954290Y-134638759D01*
X146051790Y-134456350D01*
X146183003Y-134296468D01*
X146342885Y-134165255D01*
X146525294Y-134067755D01*
X146591270Y-134047742D01*
X146723221Y-134007715D01*
X146800350Y-134000118D01*
X146877477Y-133992522D01*
X146980637Y-133992522D01*
X147057764Y-134000118D01*
X147057764Y-134000118D01*
G37*
G36*
X144517764Y-134000118D02*
X144594893Y-134007715D01*
X144726844Y-134047742D01*
X144792820Y-134067755D01*
X144975229Y-134165255D01*
X145135111Y-134296468D01*
X145266324Y-134456350D01*
X145363824Y-134638759D01*
X145363824Y-134638760D01*
X145423864Y-134836686D01*
X145444137Y-135042522D01*
X145423864Y-135248358D01*
X145383837Y-135380309D01*
X145363824Y-135446285D01*
X145266324Y-135628694D01*
X145135111Y-135788576D01*
X144975229Y-135919789D01*
X144792820Y-136017289D01*
X144726844Y-136037302D01*
X144594893Y-136077329D01*
X144517764Y-136084925D01*
X144440637Y-136092522D01*
X144337477Y-136092522D01*
X144260350Y-136084925D01*
X144183221Y-136077329D01*
X144051270Y-136037302D01*
X143985294Y-136017289D01*
X143802885Y-135919789D01*
X143643003Y-135788576D01*
X143511790Y-135628694D01*
X143414290Y-135446285D01*
X143394277Y-135380309D01*
X143354250Y-135248358D01*
X143333977Y-135042522D01*
X143354250Y-134836686D01*
X143414290Y-134638760D01*
X143414290Y-134638759D01*
X143511790Y-134456350D01*
X143643003Y-134296468D01*
X143802885Y-134165255D01*
X143985294Y-134067755D01*
X144051270Y-134047742D01*
X144183221Y-134007715D01*
X144260350Y-134000118D01*
X144337477Y-133992522D01*
X144440637Y-133992522D01*
X144517764Y-134000118D01*
X144517764Y-134000118D01*
G37*
G36*
X141977764Y-134000118D02*
X142054893Y-134007715D01*
X142186844Y-134047742D01*
X142252820Y-134067755D01*
X142435229Y-134165255D01*
X142595111Y-134296468D01*
X142726324Y-134456350D01*
X142823824Y-134638759D01*
X142823824Y-134638760D01*
X142883864Y-134836686D01*
X142904137Y-135042522D01*
X142883864Y-135248358D01*
X142843837Y-135380309D01*
X142823824Y-135446285D01*
X142726324Y-135628694D01*
X142595111Y-135788576D01*
X142435229Y-135919789D01*
X142252820Y-136017289D01*
X142186844Y-136037302D01*
X142054893Y-136077329D01*
X141977764Y-136084925D01*
X141900637Y-136092522D01*
X141797477Y-136092522D01*
X141720350Y-136084925D01*
X141643221Y-136077329D01*
X141511270Y-136037302D01*
X141445294Y-136017289D01*
X141262885Y-135919789D01*
X141103003Y-135788576D01*
X140971790Y-135628694D01*
X140874290Y-135446285D01*
X140854277Y-135380309D01*
X140814250Y-135248358D01*
X140793977Y-135042522D01*
X140814250Y-134836686D01*
X140874290Y-134638760D01*
X140874290Y-134638759D01*
X140971790Y-134456350D01*
X141103003Y-134296468D01*
X141262885Y-134165255D01*
X141445294Y-134067755D01*
X141511270Y-134047742D01*
X141643221Y-134007715D01*
X141720350Y-134000118D01*
X141797477Y-133992522D01*
X141900637Y-133992522D01*
X141977764Y-134000118D01*
X141977764Y-134000118D01*
G37*
G36*
X139437764Y-134000118D02*
X139514893Y-134007715D01*
X139646844Y-134047742D01*
X139712820Y-134067755D01*
X139895229Y-134165255D01*
X140055111Y-134296468D01*
X140186324Y-134456350D01*
X140283824Y-134638759D01*
X140283824Y-134638760D01*
X140343864Y-134836686D01*
X140364137Y-135042522D01*
X140343864Y-135248358D01*
X140303837Y-135380309D01*
X140283824Y-135446285D01*
X140186324Y-135628694D01*
X140055111Y-135788576D01*
X139895229Y-135919789D01*
X139712820Y-136017289D01*
X139646844Y-136037302D01*
X139514893Y-136077329D01*
X139437764Y-136084925D01*
X139360637Y-136092522D01*
X139257477Y-136092522D01*
X139180350Y-136084925D01*
X139103221Y-136077329D01*
X138971270Y-136037302D01*
X138905294Y-136017289D01*
X138722885Y-135919789D01*
X138563003Y-135788576D01*
X138431790Y-135628694D01*
X138334290Y-135446285D01*
X138314277Y-135380309D01*
X138274250Y-135248358D01*
X138253977Y-135042522D01*
X138274250Y-134836686D01*
X138334290Y-134638760D01*
X138334290Y-134638759D01*
X138431790Y-134456350D01*
X138563003Y-134296468D01*
X138722885Y-134165255D01*
X138905294Y-134067755D01*
X138971270Y-134047742D01*
X139103221Y-134007715D01*
X139180350Y-134000118D01*
X139257477Y-133992522D01*
X139360637Y-133992522D01*
X139437764Y-134000118D01*
X139437764Y-134000118D01*
G37*
G36*
X124250300Y-135493800D02*
X121850300Y-135493800D01*
X121850300Y-133593800D01*
X124250300Y-133593800D01*
X124250300Y-135493800D01*
X124250300Y-135493800D01*
G37*
G36*
X132505300Y-135417600D02*
X130105300Y-135417600D01*
X130105300Y-133517600D01*
X132505300Y-133517600D01*
X132505300Y-135417600D01*
X132505300Y-135417600D01*
G37*
G36*
X146932024Y-131767850D02*
X146118850Y-132581024D01*
X144987478Y-131449652D01*
X145800652Y-130636478D01*
X146932024Y-131767850D01*
X146932024Y-131767850D01*
G37*
G36*
X127827207Y-129691397D02*
X127904336Y-129698993D01*
X128036287Y-129739020D01*
X128102263Y-129759033D01*
X128284672Y-129856533D01*
X128444554Y-129987746D01*
X128575767Y-130147628D01*
X128673267Y-130330037D01*
X128673267Y-130330038D01*
X128733307Y-130527964D01*
X128753580Y-130733800D01*
X128733307Y-130939636D01*
X128693280Y-131071587D01*
X128673267Y-131137563D01*
X128575767Y-131319972D01*
X128444554Y-131479854D01*
X128284672Y-131611067D01*
X128102263Y-131708567D01*
X128036287Y-131728580D01*
X127904336Y-131768607D01*
X127827207Y-131776203D01*
X127750080Y-131783800D01*
X127646920Y-131783800D01*
X127569793Y-131776203D01*
X127492664Y-131768607D01*
X127360713Y-131728580D01*
X127294737Y-131708567D01*
X127112328Y-131611067D01*
X126952446Y-131479854D01*
X126821233Y-131319972D01*
X126723733Y-131137563D01*
X126703720Y-131071587D01*
X126663693Y-130939636D01*
X126643420Y-130733800D01*
X126663693Y-130527964D01*
X126723733Y-130330038D01*
X126723733Y-130330037D01*
X126821233Y-130147628D01*
X126952446Y-129987746D01*
X127112328Y-129856533D01*
X127294737Y-129759033D01*
X127360713Y-129739020D01*
X127492664Y-129698993D01*
X127569793Y-129691397D01*
X127646920Y-129683800D01*
X127750080Y-129683800D01*
X127827207Y-129691397D01*
X127827207Y-129691397D01*
G37*
G36*
X123668500Y-131783800D02*
X121568500Y-131783800D01*
X121568500Y-129683800D01*
X123668500Y-129683800D01*
X123668500Y-131783800D01*
X123668500Y-131783800D01*
G37*
G36*
X125287207Y-129691397D02*
X125364336Y-129698993D01*
X125496287Y-129739020D01*
X125562263Y-129759033D01*
X125744672Y-129856533D01*
X125904554Y-129987746D01*
X126035767Y-130147628D01*
X126133267Y-130330037D01*
X126133267Y-130330038D01*
X126193307Y-130527964D01*
X126213580Y-130733800D01*
X126193307Y-130939636D01*
X126153280Y-131071587D01*
X126133267Y-131137563D01*
X126035767Y-131319972D01*
X125904554Y-131479854D01*
X125744672Y-131611067D01*
X125562263Y-131708567D01*
X125496287Y-131728580D01*
X125364336Y-131768607D01*
X125287207Y-131776203D01*
X125210080Y-131783800D01*
X125106920Y-131783800D01*
X125029793Y-131776203D01*
X124952664Y-131768607D01*
X124820713Y-131728580D01*
X124754737Y-131708567D01*
X124572328Y-131611067D01*
X124412446Y-131479854D01*
X124281233Y-131319972D01*
X124183733Y-131137563D01*
X124163720Y-131071587D01*
X124123693Y-130939636D01*
X124103420Y-130733800D01*
X124123693Y-130527964D01*
X124183733Y-130330038D01*
X124183733Y-130330037D01*
X124281233Y-130147628D01*
X124412446Y-129987746D01*
X124572328Y-129856533D01*
X124754737Y-129759033D01*
X124820713Y-129739020D01*
X124952664Y-129698993D01*
X125029793Y-129691397D01*
X125106920Y-129683800D01*
X125210080Y-129683800D01*
X125287207Y-129691397D01*
X125287207Y-129691397D01*
G37*
G36*
X148837024Y-130497850D02*
X148023850Y-131311024D01*
X146892478Y-130179652D01*
X147705652Y-129366478D01*
X148837024Y-130497850D01*
X148837024Y-130497850D01*
G37*
G36*
X145588522Y-130424348D02*
X144775348Y-131237522D01*
X143643976Y-130106150D01*
X144457150Y-129292976D01*
X145588522Y-130424348D01*
X145588522Y-130424348D01*
G37*
G36*
X177937200Y-130943200D02*
X176037200Y-130943200D01*
X176037200Y-128543200D01*
X177937200Y-128543200D01*
X177937200Y-130943200D01*
X177937200Y-130943200D01*
G37*
G36*
X173466800Y-130943200D02*
X171566800Y-130943200D01*
X171566800Y-128543200D01*
X173466800Y-128543200D01*
X173466800Y-130943200D01*
X173466800Y-130943200D01*
G37*
G36*
X134532961Y-128010323D02*
X134551903Y-128025869D01*
X134573514Y-128037420D01*
X134590659Y-128042621D01*
X135553289Y-129005251D01*
X134421917Y-130136623D01*
X133507005Y-129221711D01*
X133488063Y-129206165D01*
X133466452Y-129194614D01*
X133449307Y-129189413D01*
X132486677Y-128226783D01*
X133618049Y-127095411D01*
X134532961Y-128010323D01*
X134532961Y-128010323D01*
G37*
G36*
X147493522Y-129154348D02*
X146680348Y-129967522D01*
X145548976Y-128836150D01*
X146362150Y-128022976D01*
X147493522Y-129154348D01*
X147493522Y-129154348D01*
G37*
G36*
X136088595Y-126454689D02*
X136107537Y-126470235D01*
X136129148Y-126481786D01*
X136146293Y-126486987D01*
X137108923Y-127449617D01*
X135977551Y-128580989D01*
X135062639Y-127666077D01*
X135043697Y-127650531D01*
X135022086Y-127638980D01*
X135004941Y-127633779D01*
X134042311Y-126671149D01*
X135173683Y-125539777D01*
X136088595Y-126454689D01*
X136088595Y-126454689D01*
G37*
G36*
X123400900Y-128069100D02*
X121800900Y-128069100D01*
X121800900Y-126769100D01*
X123400900Y-126769100D01*
X123400900Y-128069100D01*
X123400900Y-128069100D01*
G37*
G36*
X121200900Y-128069100D02*
X119600900Y-128069100D01*
X119600900Y-126769100D01*
X121200900Y-126769100D01*
X121200900Y-128069100D01*
X121200900Y-128069100D01*
G37*
G36*
X130690700Y-128056400D02*
X129090700Y-128056400D01*
X129090700Y-126756400D01*
X130690700Y-126756400D01*
X130690700Y-128056400D01*
X130690700Y-128056400D01*
G37*
G36*
X128490700Y-128056400D02*
X126890700Y-128056400D01*
X126890700Y-126756400D01*
X128490700Y-126756400D01*
X128490700Y-128056400D01*
X128490700Y-128056400D01*
G37*
G36*
X154894924Y-126344950D02*
X154081750Y-127158124D01*
X152950378Y-126026752D01*
X153763552Y-125213578D01*
X154894924Y-126344950D01*
X154894924Y-126344950D01*
G37*
G36*
X133020030Y-112585521D02*
X133020035Y-112585527D01*
X133055391Y-112620883D01*
X133055397Y-112620888D01*
X134787797Y-114353288D01*
X134787802Y-114353294D01*
X134823158Y-114388650D01*
X134823164Y-114388655D01*
X136555564Y-116121055D01*
X136555569Y-116121061D01*
X136590925Y-116156417D01*
X136590931Y-116156422D01*
X141151758Y-120717249D01*
X141151763Y-120717255D01*
X141187119Y-120752611D01*
X141187125Y-120752616D01*
X142919525Y-122485016D01*
X142919530Y-122485022D01*
X142954886Y-122520378D01*
X142954892Y-122520383D01*
X144687292Y-124252783D01*
X144687297Y-124252789D01*
X144722653Y-124288145D01*
X144722659Y-124288150D01*
X145306016Y-124871507D01*
X143927157Y-126250366D01*
X143661992Y-125985201D01*
X143661986Y-125985196D01*
X142990246Y-125313456D01*
X142990241Y-125313450D01*
X141894225Y-124217434D01*
X141894219Y-124217429D01*
X141222479Y-123545689D01*
X141222474Y-123545683D01*
X140126458Y-122449667D01*
X140126452Y-122449662D01*
X139454712Y-121777922D01*
X139454707Y-121777916D01*
X137438271Y-119761480D01*
X137419329Y-119745934D01*
X137397718Y-119734383D01*
X137374269Y-119727270D01*
X137349883Y-119724868D01*
X137325497Y-119727270D01*
X137302048Y-119734383D01*
X137280437Y-119745934D01*
X137261495Y-119761480D01*
X136047052Y-120975922D01*
X135233878Y-120162748D01*
X136448321Y-118948306D01*
X136463867Y-118929364D01*
X136475418Y-118907753D01*
X136482531Y-118884304D01*
X136484933Y-118859918D01*
X136482531Y-118835532D01*
X136475418Y-118812083D01*
X136463867Y-118790472D01*
X136448321Y-118771530D01*
X135530264Y-117853473D01*
X135530258Y-117853468D01*
X134858518Y-117181728D01*
X134858513Y-117181722D01*
X133762497Y-116085706D01*
X133762491Y-116085701D01*
X133090751Y-115413961D01*
X133090746Y-115413955D01*
X131994730Y-114317939D01*
X131994724Y-114317934D01*
X131322984Y-113646194D01*
X131322979Y-113646188D01*
X131057813Y-113381022D01*
X132436672Y-112002163D01*
X133020030Y-112585521D01*
X133020030Y-112585521D01*
G37*
G36*
X160438101Y-113381022D02*
X160172936Y-113646188D01*
X159501185Y-114317939D01*
X159147631Y-114671492D01*
X158440524Y-115378599D01*
X158440522Y-115378600D01*
X158405167Y-115413956D01*
X158405168Y-115413956D01*
X157733418Y-116085706D01*
X157379864Y-116439259D01*
X156672757Y-117146366D01*
X156672755Y-117146367D01*
X156637400Y-117181723D01*
X156637401Y-117181723D01*
X155965651Y-117853473D01*
X155612097Y-118207026D01*
X152076563Y-121742560D01*
X152076561Y-121742561D01*
X152041206Y-121777917D01*
X152041207Y-121777917D01*
X151369457Y-122449667D01*
X151015903Y-122803220D01*
X150308796Y-123510327D01*
X150308794Y-123510328D01*
X150273439Y-123545684D01*
X150273440Y-123545684D01*
X149601690Y-124217434D01*
X149248136Y-124570987D01*
X148541029Y-125278094D01*
X148541027Y-125278095D01*
X148505672Y-125313451D01*
X148505673Y-125313451D01*
X147833923Y-125985201D01*
X147568757Y-126250366D01*
X146189898Y-124871507D01*
X146773251Y-124288154D01*
X146773262Y-124288145D01*
X146808618Y-124252789D01*
X146808627Y-124252778D01*
X148541018Y-122520387D01*
X148541029Y-122520378D01*
X148576385Y-122485022D01*
X148576394Y-122485011D01*
X150308785Y-120752620D01*
X150308796Y-120752611D01*
X150344152Y-120717255D01*
X150344161Y-120717244D01*
X154904979Y-116156426D01*
X154904990Y-116156417D01*
X154940346Y-116121061D01*
X154940355Y-116121050D01*
X156672746Y-114388659D01*
X156672757Y-114388650D01*
X156708113Y-114353294D01*
X156708122Y-114353283D01*
X158440513Y-112620892D01*
X158440524Y-112620883D01*
X158475880Y-112585527D01*
X158475889Y-112585516D01*
X159059242Y-112002163D01*
X160438101Y-113381022D01*
X160438101Y-113381022D01*
G37*
G36*
X137714522Y-124972652D02*
X136583150Y-126104024D01*
X135769976Y-125290850D01*
X136901348Y-124159478D01*
X137714522Y-124972652D01*
X137714522Y-124972652D01*
G37*
G36*
X124769600Y-126062500D02*
X123169600Y-126062500D01*
X123169600Y-124762500D01*
X124769600Y-124762500D01*
X124769600Y-126062500D01*
X124769600Y-126062500D01*
G37*
G36*
X126969600Y-126062500D02*
X125369600Y-126062500D01*
X125369600Y-124762500D01*
X126969600Y-124762500D01*
X126969600Y-126062500D01*
X126969600Y-126062500D01*
G37*
G36*
X153551422Y-125001448D02*
X152738248Y-125814622D01*
X151606876Y-124683250D01*
X152420050Y-123870076D01*
X153551422Y-125001448D01*
X153551422Y-125001448D01*
G37*
G36*
X139058024Y-123629150D02*
X137926652Y-124760522D01*
X137113478Y-123947348D01*
X138244850Y-122815976D01*
X139058024Y-123629150D01*
X139058024Y-123629150D01*
G37*
G36*
X117517564Y-122493918D02*
X117594693Y-122501515D01*
X117726644Y-122541542D01*
X117792620Y-122561555D01*
X117975029Y-122659055D01*
X118134911Y-122790268D01*
X118266124Y-122950150D01*
X118363624Y-123132559D01*
X118363624Y-123132560D01*
X118423664Y-123330486D01*
X118443937Y-123536322D01*
X118423664Y-123742158D01*
X118402827Y-123810847D01*
X118363624Y-123940085D01*
X118266124Y-124122494D01*
X118134911Y-124282376D01*
X117975029Y-124413589D01*
X117792620Y-124511089D01*
X117726644Y-124531102D01*
X117594693Y-124571129D01*
X117517564Y-124578726D01*
X117440437Y-124586322D01*
X117337277Y-124586322D01*
X117260150Y-124578726D01*
X117183021Y-124571129D01*
X117051070Y-124531102D01*
X116985094Y-124511089D01*
X116802685Y-124413589D01*
X116642803Y-124282376D01*
X116511590Y-124122494D01*
X116414090Y-123940085D01*
X116374887Y-123810847D01*
X116354050Y-123742158D01*
X116333777Y-123536322D01*
X116354050Y-123330486D01*
X116414090Y-123132560D01*
X116414090Y-123132559D01*
X116511590Y-122950150D01*
X116642803Y-122790268D01*
X116802685Y-122659055D01*
X116985094Y-122561555D01*
X117051070Y-122541542D01*
X117183021Y-122501515D01*
X117260150Y-122493918D01*
X117337277Y-122486322D01*
X117440437Y-122486322D01*
X117517564Y-122493918D01*
X117517564Y-122493918D01*
G37*
G36*
X120057564Y-122493918D02*
X120134693Y-122501515D01*
X120266644Y-122541542D01*
X120332620Y-122561555D01*
X120515029Y-122659055D01*
X120674911Y-122790268D01*
X120806124Y-122950150D01*
X120903624Y-123132559D01*
X120903624Y-123132560D01*
X120963664Y-123330486D01*
X120983937Y-123536322D01*
X120963664Y-123742158D01*
X120942827Y-123810847D01*
X120903624Y-123940085D01*
X120806124Y-124122494D01*
X120674911Y-124282376D01*
X120515029Y-124413589D01*
X120332620Y-124511089D01*
X120266644Y-124531102D01*
X120134693Y-124571129D01*
X120057564Y-124578726D01*
X119980437Y-124586322D01*
X119877277Y-124586322D01*
X119800150Y-124578726D01*
X119723021Y-124571129D01*
X119591070Y-124531102D01*
X119525094Y-124511089D01*
X119342685Y-124413589D01*
X119182803Y-124282376D01*
X119051590Y-124122494D01*
X118954090Y-123940085D01*
X118914887Y-123810847D01*
X118894050Y-123742158D01*
X118873777Y-123536322D01*
X118894050Y-123330486D01*
X118954090Y-123132560D01*
X118954090Y-123132559D01*
X119051590Y-122950150D01*
X119182803Y-122790268D01*
X119342685Y-122659055D01*
X119525094Y-122561555D01*
X119591070Y-122541542D01*
X119723021Y-122501515D01*
X119800150Y-122493918D01*
X119877277Y-122486322D01*
X119980437Y-122486322D01*
X120057564Y-122493918D01*
X120057564Y-122493918D01*
G37*
G36*
X156154922Y-123194652D02*
X155023550Y-124326024D01*
X154210376Y-123512850D01*
X155341748Y-122381478D01*
X156154922Y-123194652D01*
X156154922Y-123194652D01*
G37*
G36*
X126931500Y-124208300D02*
X125331500Y-124208300D01*
X125331500Y-122908300D01*
X126931500Y-122908300D01*
X126931500Y-124208300D01*
X126931500Y-124208300D01*
G37*
G36*
X124731500Y-124208300D02*
X123131500Y-124208300D01*
X123131500Y-122908300D01*
X124731500Y-122908300D01*
X124731500Y-124208300D01*
X124731500Y-124208300D01*
G37*
G36*
X157498424Y-121851150D02*
X156367052Y-122982522D01*
X155553878Y-122169348D01*
X156685250Y-121037976D01*
X157498424Y-121851150D01*
X157498424Y-121851150D01*
G37*
G36*
X155550299Y-121571983D02*
X154206795Y-122915487D01*
X153004713Y-121713405D01*
X154348217Y-120369901D01*
X155550299Y-121571983D01*
X155550299Y-121571983D01*
G37*
G36*
X173390600Y-122688200D02*
X171490600Y-122688200D01*
X171490600Y-120288200D01*
X173390600Y-120288200D01*
X173390600Y-122688200D01*
X173390600Y-122688200D01*
G37*
G36*
X177911800Y-122662800D02*
X176011800Y-122662800D01*
X176011800Y-120262800D01*
X177911800Y-120262800D01*
X177911800Y-122662800D01*
X177911800Y-122662800D01*
G37*
G36*
X135834922Y-121188052D02*
X134703550Y-122319424D01*
X133890376Y-121506250D01*
X135021748Y-120374878D01*
X135834922Y-121188052D01*
X135834922Y-121188052D01*
G37*
G36*
X120057564Y-119953918D02*
X120134693Y-119961515D01*
X120266644Y-120001542D01*
X120332620Y-120021555D01*
X120515029Y-120119055D01*
X120674911Y-120250268D01*
X120806124Y-120410150D01*
X120903624Y-120592559D01*
X120914637Y-120628866D01*
X120963664Y-120790486D01*
X120983937Y-120996322D01*
X120963664Y-121202158D01*
X120933797Y-121300617D01*
X120903624Y-121400085D01*
X120806124Y-121582494D01*
X120674911Y-121742376D01*
X120515029Y-121873589D01*
X120332620Y-121971089D01*
X120266644Y-121991102D01*
X120134693Y-122031129D01*
X120057564Y-122038726D01*
X119980437Y-122046322D01*
X119877277Y-122046322D01*
X119800150Y-122038726D01*
X119723021Y-122031129D01*
X119591070Y-121991102D01*
X119525094Y-121971089D01*
X119342685Y-121873589D01*
X119182803Y-121742376D01*
X119051590Y-121582494D01*
X118954090Y-121400085D01*
X118923917Y-121300617D01*
X118894050Y-121202158D01*
X118873777Y-120996322D01*
X118894050Y-120790486D01*
X118943077Y-120628866D01*
X118954090Y-120592559D01*
X119051590Y-120410150D01*
X119182803Y-120250268D01*
X119342685Y-120119055D01*
X119525094Y-120021555D01*
X119591070Y-120001542D01*
X119723021Y-119961515D01*
X119800150Y-119953918D01*
X119877277Y-119946322D01*
X119980437Y-119946322D01*
X120057564Y-119953918D01*
X120057564Y-119953918D01*
G37*
G36*
X117517564Y-119953918D02*
X117594693Y-119961515D01*
X117726644Y-120001542D01*
X117792620Y-120021555D01*
X117975029Y-120119055D01*
X118134911Y-120250268D01*
X118266124Y-120410150D01*
X118363624Y-120592559D01*
X118374637Y-120628866D01*
X118423664Y-120790486D01*
X118443937Y-120996322D01*
X118423664Y-121202158D01*
X118393797Y-121300617D01*
X118363624Y-121400085D01*
X118266124Y-121582494D01*
X118134911Y-121742376D01*
X117975029Y-121873589D01*
X117792620Y-121971089D01*
X117726644Y-121991102D01*
X117594693Y-122031129D01*
X117517564Y-122038726D01*
X117440437Y-122046322D01*
X117337277Y-122046322D01*
X117260150Y-122038726D01*
X117183021Y-122031129D01*
X117051070Y-121991102D01*
X116985094Y-121971089D01*
X116802685Y-121873589D01*
X116642803Y-121742376D01*
X116511590Y-121582494D01*
X116414090Y-121400085D01*
X116383917Y-121300617D01*
X116354050Y-121202158D01*
X116333777Y-120996322D01*
X116354050Y-120790486D01*
X116403077Y-120628866D01*
X116414090Y-120592559D01*
X116511590Y-120410150D01*
X116642803Y-120250268D01*
X116802685Y-120119055D01*
X116985094Y-120021555D01*
X117051070Y-120001542D01*
X117183021Y-119961515D01*
X117260150Y-119953918D01*
X117337277Y-119946322D01*
X117440437Y-119946322D01*
X117517564Y-119953918D01*
X117517564Y-119953918D01*
G37*
G36*
X157459487Y-119662795D02*
X156115983Y-121006299D01*
X154913901Y-119804217D01*
X156257405Y-118460713D01*
X157459487Y-119662795D01*
X157459487Y-119662795D01*
G37*
G36*
X120057564Y-117413918D02*
X120134693Y-117421515D01*
X120218330Y-117446886D01*
X120332620Y-117481555D01*
X120515029Y-117579055D01*
X120674911Y-117710268D01*
X120806124Y-117870150D01*
X120903624Y-118052559D01*
X120903624Y-118052560D01*
X120963664Y-118250486D01*
X120983937Y-118456322D01*
X120963664Y-118662158D01*
X120923637Y-118794109D01*
X120903624Y-118860085D01*
X120806124Y-119042494D01*
X120674911Y-119202376D01*
X120515029Y-119333589D01*
X120332620Y-119431089D01*
X120266644Y-119451102D01*
X120134693Y-119491129D01*
X120057564Y-119498725D01*
X119980437Y-119506322D01*
X119877277Y-119506322D01*
X119800150Y-119498725D01*
X119723021Y-119491129D01*
X119591070Y-119451102D01*
X119525094Y-119431089D01*
X119342685Y-119333589D01*
X119182803Y-119202376D01*
X119051590Y-119042494D01*
X118954090Y-118860085D01*
X118934077Y-118794109D01*
X118894050Y-118662158D01*
X118873777Y-118456322D01*
X118894050Y-118250486D01*
X118954090Y-118052560D01*
X118954090Y-118052559D01*
X119051590Y-117870150D01*
X119182803Y-117710268D01*
X119342685Y-117579055D01*
X119525094Y-117481555D01*
X119639384Y-117446886D01*
X119723021Y-117421515D01*
X119800150Y-117413918D01*
X119877277Y-117406322D01*
X119980437Y-117406322D01*
X120057564Y-117413918D01*
X120057564Y-117413918D01*
G37*
G36*
X117517564Y-117413918D02*
X117594693Y-117421515D01*
X117678330Y-117446886D01*
X117792620Y-117481555D01*
X117975029Y-117579055D01*
X118134911Y-117710268D01*
X118266124Y-117870150D01*
X118363624Y-118052559D01*
X118363624Y-118052560D01*
X118423664Y-118250486D01*
X118443937Y-118456322D01*
X118423664Y-118662158D01*
X118383637Y-118794109D01*
X118363624Y-118860085D01*
X118266124Y-119042494D01*
X118134911Y-119202376D01*
X117975029Y-119333589D01*
X117792620Y-119431089D01*
X117726644Y-119451102D01*
X117594693Y-119491129D01*
X117517564Y-119498725D01*
X117440437Y-119506322D01*
X117337277Y-119506322D01*
X117260150Y-119498725D01*
X117183021Y-119491129D01*
X117051070Y-119451102D01*
X116985094Y-119431089D01*
X116802685Y-119333589D01*
X116642803Y-119202376D01*
X116511590Y-119042494D01*
X116414090Y-118860085D01*
X116394077Y-118794109D01*
X116354050Y-118662158D01*
X116333777Y-118456322D01*
X116354050Y-118250486D01*
X116414090Y-118052560D01*
X116414090Y-118052559D01*
X116511590Y-117870150D01*
X116642803Y-117710268D01*
X116802685Y-117579055D01*
X116985094Y-117481555D01*
X117099384Y-117446886D01*
X117183021Y-117421515D01*
X117260150Y-117413918D01*
X117337277Y-117406322D01*
X117440437Y-117406322D01*
X117517564Y-117413918D01*
X117517564Y-117413918D01*
G37*
G36*
X127733999Y-117034000D02*
X126133999Y-117034000D01*
X126133999Y-115884000D01*
X127733999Y-115884000D01*
X127733999Y-117034000D01*
X127733999Y-117034000D01*
G37*
G36*
X125834001Y-117034000D02*
X124234001Y-117034000D01*
X124234001Y-115884000D01*
X125834001Y-115884000D01*
X125834001Y-117034000D01*
X125834001Y-117034000D01*
G37*
G36*
X117517564Y-114873919D02*
X117594693Y-114881515D01*
X117726644Y-114921542D01*
X117792620Y-114941555D01*
X117975029Y-115039055D01*
X118134911Y-115170268D01*
X118266124Y-115330150D01*
X118363624Y-115512559D01*
X118363624Y-115512560D01*
X118423664Y-115710486D01*
X118443937Y-115916322D01*
X118423664Y-116122158D01*
X118386460Y-116244805D01*
X118363624Y-116320085D01*
X118266124Y-116502494D01*
X118134911Y-116662376D01*
X117975029Y-116793589D01*
X117792620Y-116891089D01*
X117726644Y-116911102D01*
X117594693Y-116951129D01*
X117517564Y-116958726D01*
X117440437Y-116966322D01*
X117337277Y-116966322D01*
X117260150Y-116958726D01*
X117183021Y-116951129D01*
X117051070Y-116911102D01*
X116985094Y-116891089D01*
X116802685Y-116793589D01*
X116642803Y-116662376D01*
X116511590Y-116502494D01*
X116414090Y-116320085D01*
X116391254Y-116244805D01*
X116354050Y-116122158D01*
X116333777Y-115916322D01*
X116354050Y-115710486D01*
X116414090Y-115512560D01*
X116414090Y-115512559D01*
X116511590Y-115330150D01*
X116642803Y-115170268D01*
X116802685Y-115039055D01*
X116985094Y-114941555D01*
X117051070Y-114921542D01*
X117183021Y-114881515D01*
X117260150Y-114873919D01*
X117337277Y-114866322D01*
X117440437Y-114866322D01*
X117517564Y-114873919D01*
X117517564Y-114873919D01*
G37*
G36*
X120057564Y-114873919D02*
X120134693Y-114881515D01*
X120266644Y-114921542D01*
X120332620Y-114941555D01*
X120515029Y-115039055D01*
X120674911Y-115170268D01*
X120806124Y-115330150D01*
X120903624Y-115512559D01*
X120903624Y-115512560D01*
X120963664Y-115710486D01*
X120983937Y-115916322D01*
X120963664Y-116122158D01*
X120926460Y-116244805D01*
X120903624Y-116320085D01*
X120806124Y-116502494D01*
X120674911Y-116662376D01*
X120515029Y-116793589D01*
X120332620Y-116891089D01*
X120266644Y-116911102D01*
X120134693Y-116951129D01*
X120057564Y-116958726D01*
X119980437Y-116966322D01*
X119877277Y-116966322D01*
X119800150Y-116958726D01*
X119723021Y-116951129D01*
X119591070Y-116911102D01*
X119525094Y-116891089D01*
X119342685Y-116793589D01*
X119182803Y-116662376D01*
X119051590Y-116502494D01*
X118954090Y-116320085D01*
X118931254Y-116244805D01*
X118894050Y-116122158D01*
X118873777Y-115916322D01*
X118894050Y-115710486D01*
X118954090Y-115512560D01*
X118954090Y-115512559D01*
X119051590Y-115330150D01*
X119182803Y-115170268D01*
X119342685Y-115039055D01*
X119525094Y-114941555D01*
X119591070Y-114921542D01*
X119723021Y-114881515D01*
X119800150Y-114873919D01*
X119877277Y-114866322D01*
X119980437Y-114866322D01*
X120057564Y-114873919D01*
X120057564Y-114873919D01*
G37*
G36*
X183168000Y-116620000D02*
X181068000Y-116620000D01*
X181068000Y-114520000D01*
X183168000Y-114520000D01*
X183168000Y-116620000D01*
X183168000Y-116620000D01*
G37*
G36*
X162695422Y-113796652D02*
X161564050Y-114928024D01*
X160750876Y-114114850D01*
X161882248Y-112983478D01*
X162695422Y-113796652D01*
X162695422Y-113796652D01*
G37*
G36*
X117517564Y-112333918D02*
X117594693Y-112341515D01*
X117726644Y-112381542D01*
X117792620Y-112401555D01*
X117975029Y-112499055D01*
X118134911Y-112630268D01*
X118266124Y-112790150D01*
X118363624Y-112972559D01*
X118363624Y-112972560D01*
X118423664Y-113170486D01*
X118443937Y-113376322D01*
X118423664Y-113582158D01*
X118404239Y-113646194D01*
X118363624Y-113780085D01*
X118266124Y-113962494D01*
X118134911Y-114122376D01*
X117975029Y-114253589D01*
X117792620Y-114351089D01*
X117726644Y-114371102D01*
X117594693Y-114411129D01*
X117517564Y-114418726D01*
X117440437Y-114426322D01*
X117337277Y-114426322D01*
X117260150Y-114418726D01*
X117183021Y-114411129D01*
X117051070Y-114371102D01*
X116985094Y-114351089D01*
X116802685Y-114253589D01*
X116642803Y-114122376D01*
X116511590Y-113962494D01*
X116414090Y-113780085D01*
X116373475Y-113646194D01*
X116354050Y-113582158D01*
X116333777Y-113376322D01*
X116354050Y-113170486D01*
X116414090Y-112972560D01*
X116414090Y-112972559D01*
X116511590Y-112790150D01*
X116642803Y-112630268D01*
X116802685Y-112499055D01*
X116985094Y-112401555D01*
X117051070Y-112381542D01*
X117183021Y-112341515D01*
X117260150Y-112333918D01*
X117337277Y-112326322D01*
X117440437Y-112326322D01*
X117517564Y-112333918D01*
X117517564Y-112333918D01*
G37*
G36*
X120057564Y-112333918D02*
X120134693Y-112341515D01*
X120266644Y-112381542D01*
X120332620Y-112401555D01*
X120515029Y-112499055D01*
X120674911Y-112630268D01*
X120806124Y-112790150D01*
X120903624Y-112972559D01*
X120903624Y-112972560D01*
X120963664Y-113170486D01*
X120983937Y-113376322D01*
X120963664Y-113582158D01*
X120944239Y-113646194D01*
X120903624Y-113780085D01*
X120806124Y-113962494D01*
X120674911Y-114122376D01*
X120515029Y-114253589D01*
X120332620Y-114351089D01*
X120266644Y-114371102D01*
X120134693Y-114411129D01*
X120057564Y-114418726D01*
X119980437Y-114426322D01*
X119877277Y-114426322D01*
X119800150Y-114418726D01*
X119723021Y-114411129D01*
X119591070Y-114371102D01*
X119525094Y-114351089D01*
X119342685Y-114253589D01*
X119182803Y-114122376D01*
X119051590Y-113962494D01*
X118954090Y-113780085D01*
X118913475Y-113646194D01*
X118894050Y-113582158D01*
X118873777Y-113376322D01*
X118894050Y-113170486D01*
X118954090Y-112972560D01*
X118954090Y-112972559D01*
X119051590Y-112790150D01*
X119182803Y-112630268D01*
X119342685Y-112499055D01*
X119525094Y-112401555D01*
X119591070Y-112381542D01*
X119723021Y-112341515D01*
X119800150Y-112333918D01*
X119877277Y-112326322D01*
X119980437Y-112326322D01*
X120057564Y-112333918D01*
X120057564Y-112333918D01*
G37*
G36*
X182246707Y-111987596D02*
X182323836Y-111995193D01*
X182455787Y-112035220D01*
X182521763Y-112055233D01*
X182704172Y-112152733D01*
X182864054Y-112283946D01*
X182995267Y-112443828D01*
X183092767Y-112626237D01*
X183109692Y-112682031D01*
X183152807Y-112824164D01*
X183173080Y-113030000D01*
X183152807Y-113235836D01*
X183112780Y-113367787D01*
X183092767Y-113433763D01*
X182995267Y-113616172D01*
X182864054Y-113776054D01*
X182704172Y-113907267D01*
X182521763Y-114004767D01*
X182455787Y-114024780D01*
X182323836Y-114064807D01*
X182246707Y-114072404D01*
X182169580Y-114080000D01*
X182066420Y-114080000D01*
X181989293Y-114072404D01*
X181912164Y-114064807D01*
X181780213Y-114024780D01*
X181714237Y-114004767D01*
X181531828Y-113907267D01*
X181371946Y-113776054D01*
X181240733Y-113616172D01*
X181143233Y-113433763D01*
X181123220Y-113367787D01*
X181083193Y-113235836D01*
X181062920Y-113030000D01*
X181083193Y-112824164D01*
X181126308Y-112682031D01*
X181143233Y-112626237D01*
X181240733Y-112443828D01*
X181371946Y-112283946D01*
X181531828Y-112152733D01*
X181714237Y-112055233D01*
X181780213Y-112035220D01*
X181912164Y-111995193D01*
X181989293Y-111987596D01*
X182066420Y-111980000D01*
X182169580Y-111980000D01*
X182246707Y-111987596D01*
X182246707Y-111987596D01*
G37*
G36*
X164038924Y-112453150D02*
X162907552Y-113584522D01*
X162094378Y-112771348D01*
X163225750Y-111639976D01*
X164038924Y-112453150D01*
X164038924Y-112453150D01*
G37*
G36*
X166482580Y-111762792D02*
X165563340Y-112682032D01*
X164431968Y-111550660D01*
X165351208Y-110631420D01*
X166482580Y-111762792D01*
X166482580Y-111762792D01*
G37*
G36*
X120057564Y-109793918D02*
X120134693Y-109801515D01*
X120266644Y-109841542D01*
X120332620Y-109861555D01*
X120515029Y-109959055D01*
X120674911Y-110090268D01*
X120806124Y-110250150D01*
X120903624Y-110432559D01*
X120903624Y-110432560D01*
X120963664Y-110630486D01*
X120983937Y-110836322D01*
X120963664Y-111042158D01*
X120940572Y-111118281D01*
X120903624Y-111240085D01*
X120806124Y-111422494D01*
X120674911Y-111582376D01*
X120515029Y-111713589D01*
X120332620Y-111811089D01*
X120266644Y-111831102D01*
X120134693Y-111871129D01*
X120057564Y-111878726D01*
X119980437Y-111886322D01*
X119877277Y-111886322D01*
X119800150Y-111878726D01*
X119723021Y-111871129D01*
X119591070Y-111831102D01*
X119525094Y-111811089D01*
X119342685Y-111713589D01*
X119182803Y-111582376D01*
X119051590Y-111422494D01*
X118954090Y-111240085D01*
X118917142Y-111118281D01*
X118894050Y-111042158D01*
X118873777Y-110836322D01*
X118894050Y-110630486D01*
X118954090Y-110432560D01*
X118954090Y-110432559D01*
X119051590Y-110250150D01*
X119182803Y-110090268D01*
X119342685Y-109959055D01*
X119525094Y-109861555D01*
X119591070Y-109841542D01*
X119723021Y-109801515D01*
X119800150Y-109793918D01*
X119877277Y-109786322D01*
X119980437Y-109786322D01*
X120057564Y-109793918D01*
X120057564Y-109793918D01*
G37*
G36*
X117517564Y-109793918D02*
X117594693Y-109801515D01*
X117726644Y-109841542D01*
X117792620Y-109861555D01*
X117975029Y-109959055D01*
X118134911Y-110090268D01*
X118266124Y-110250150D01*
X118363624Y-110432559D01*
X118363624Y-110432560D01*
X118423664Y-110630486D01*
X118443937Y-110836322D01*
X118423664Y-111042158D01*
X118400572Y-111118281D01*
X118363624Y-111240085D01*
X118266124Y-111422494D01*
X118134911Y-111582376D01*
X117975029Y-111713589D01*
X117792620Y-111811089D01*
X117726644Y-111831102D01*
X117594693Y-111871129D01*
X117517564Y-111878726D01*
X117440437Y-111886322D01*
X117337277Y-111886322D01*
X117260150Y-111878726D01*
X117183021Y-111871129D01*
X117051070Y-111831102D01*
X116985094Y-111811089D01*
X116802685Y-111713589D01*
X116642803Y-111582376D01*
X116511590Y-111422494D01*
X116414090Y-111240085D01*
X116377142Y-111118281D01*
X116354050Y-111042158D01*
X116333777Y-110836322D01*
X116354050Y-110630486D01*
X116414090Y-110432560D01*
X116414090Y-110432559D01*
X116511590Y-110250150D01*
X116642803Y-110090268D01*
X116802685Y-109959055D01*
X116985094Y-109861555D01*
X117051070Y-109841542D01*
X117183021Y-109801515D01*
X117260150Y-109793918D01*
X117337277Y-109786322D01*
X117440437Y-109786322D01*
X117517564Y-109793918D01*
X117517564Y-109793918D01*
G37*
G36*
X182246707Y-109447596D02*
X182323836Y-109455193D01*
X182455787Y-109495220D01*
X182521763Y-109515233D01*
X182704172Y-109612733D01*
X182864054Y-109743946D01*
X182995267Y-109903828D01*
X183092767Y-110086237D01*
X183101083Y-110113652D01*
X183152807Y-110284164D01*
X183173080Y-110490000D01*
X183152807Y-110695836D01*
X183112780Y-110827787D01*
X183092767Y-110893763D01*
X182995267Y-111076172D01*
X182864054Y-111236054D01*
X182704172Y-111367267D01*
X182521763Y-111464767D01*
X182455787Y-111484780D01*
X182323836Y-111524807D01*
X182246707Y-111532404D01*
X182169580Y-111540000D01*
X182066420Y-111540000D01*
X181989293Y-111532404D01*
X181912164Y-111524807D01*
X181780213Y-111484780D01*
X181714237Y-111464767D01*
X181531828Y-111367267D01*
X181371946Y-111236054D01*
X181240733Y-111076172D01*
X181143233Y-110893763D01*
X181123220Y-110827787D01*
X181083193Y-110695836D01*
X181062920Y-110490000D01*
X181083193Y-110284164D01*
X181134917Y-110113652D01*
X181143233Y-110086237D01*
X181240733Y-109903828D01*
X181371946Y-109743946D01*
X181531828Y-109612733D01*
X181714237Y-109515233D01*
X181780213Y-109495220D01*
X181912164Y-109455193D01*
X181989293Y-109447596D01*
X182066420Y-109440000D01*
X182169580Y-109440000D01*
X182246707Y-109447596D01*
X182246707Y-109447596D01*
G37*
G36*
X163368522Y-110113652D02*
X162237150Y-111245024D01*
X161423976Y-110431850D01*
X162555348Y-109300478D01*
X163368522Y-110113652D01*
X163368522Y-110113652D01*
G37*
G36*
X145306016Y-98248937D02*
X132436672Y-111118281D01*
X131057813Y-109739422D01*
X131322979Y-109474257D01*
X131322988Y-109474246D01*
X131994719Y-108802515D01*
X131994730Y-108802506D01*
X132348283Y-108448952D01*
X133055389Y-107741846D01*
X133055389Y-107741847D01*
X133090752Y-107706484D01*
X133090759Y-107706475D01*
X133762486Y-107034748D01*
X133762497Y-107034739D01*
X134116050Y-106681185D01*
X134823156Y-105974079D01*
X134823156Y-105974080D01*
X134858519Y-105938717D01*
X134858526Y-105938708D01*
X135530253Y-105266981D01*
X135530264Y-105266972D01*
X135883817Y-104913418D01*
X139419350Y-101377885D01*
X139419350Y-101377886D01*
X139454713Y-101342523D01*
X139454720Y-101342514D01*
X140126447Y-100670787D01*
X140126458Y-100670778D01*
X140480011Y-100317224D01*
X141187117Y-99610118D01*
X141187117Y-99610119D01*
X141222480Y-99574756D01*
X141222487Y-99574747D01*
X141894214Y-98903020D01*
X141894225Y-98903011D01*
X142247778Y-98549457D01*
X142954884Y-97842351D01*
X142954884Y-97842352D01*
X142990247Y-97806989D01*
X142990254Y-97806980D01*
X143661981Y-97135253D01*
X143661992Y-97135244D01*
X143927157Y-96870078D01*
X145306016Y-98248937D01*
X145306016Y-98248937D01*
G37*
G36*
X147833923Y-97135244D02*
X147833929Y-97135249D01*
X148505669Y-97806989D01*
X148505674Y-97806995D01*
X149601690Y-98903011D01*
X149601696Y-98903016D01*
X150273436Y-99574756D01*
X150273441Y-99574762D01*
X151369457Y-100670778D01*
X151369463Y-100670783D01*
X152041203Y-101342523D01*
X152041208Y-101342529D01*
X155965651Y-105266972D01*
X155965657Y-105266977D01*
X156637397Y-105938717D01*
X156637402Y-105938723D01*
X157733418Y-107034739D01*
X157733424Y-107034744D01*
X158405164Y-107706484D01*
X158405169Y-107706490D01*
X159501185Y-108802506D01*
X159501191Y-108802511D01*
X160172931Y-109474251D01*
X160172936Y-109474257D01*
X160438101Y-109739422D01*
X159059242Y-111118281D01*
X158475885Y-110534924D01*
X158475880Y-110534918D01*
X158440524Y-110499562D01*
X158440518Y-110499557D01*
X156708118Y-108767157D01*
X156708113Y-108767151D01*
X156672757Y-108731795D01*
X156672751Y-108731790D01*
X154940351Y-106999390D01*
X154940346Y-106999384D01*
X154904990Y-106964028D01*
X154904984Y-106964023D01*
X150344157Y-102403196D01*
X150344152Y-102403190D01*
X150308796Y-102367834D01*
X150308790Y-102367829D01*
X148576390Y-100635429D01*
X148576385Y-100635423D01*
X148541029Y-100600067D01*
X148541023Y-100600062D01*
X146808623Y-98867662D01*
X146808618Y-98867656D01*
X146773262Y-98832300D01*
X146773256Y-98832295D01*
X146189898Y-98248937D01*
X147568757Y-96870078D01*
X147833923Y-97135244D01*
X147833923Y-97135244D01*
G37*
G36*
X128724700Y-110755800D02*
X126824700Y-110755800D01*
X126824700Y-109055800D01*
X128724700Y-109055800D01*
X128724700Y-110755800D01*
X128724700Y-110755800D01*
G37*
G36*
X126024700Y-110755800D02*
X124124700Y-110755800D01*
X124124700Y-109055800D01*
X126024700Y-109055800D01*
X126024700Y-110755800D01*
X126024700Y-110755800D01*
G37*
G36*
X168816032Y-109429340D02*
X167896792Y-110348580D01*
X166765420Y-109217208D01*
X167684660Y-108297968D01*
X168816032Y-109429340D01*
X168816032Y-109429340D01*
G37*
G36*
X164712024Y-108770150D02*
X163580652Y-109901522D01*
X162767478Y-109088348D01*
X163898850Y-107956976D01*
X164712024Y-108770150D01*
X164712024Y-108770150D01*
G37*
G36*
X120057564Y-107253919D02*
X120134693Y-107261515D01*
X120266644Y-107301542D01*
X120332620Y-107321555D01*
X120515029Y-107419055D01*
X120674911Y-107550268D01*
X120806124Y-107710150D01*
X120903624Y-107892559D01*
X120903624Y-107892560D01*
X120963664Y-108090486D01*
X120983937Y-108296322D01*
X120963664Y-108502158D01*
X120953346Y-108536171D01*
X120903624Y-108700085D01*
X120806124Y-108882494D01*
X120674911Y-109042376D01*
X120515029Y-109173589D01*
X120332620Y-109271089D01*
X120266644Y-109291102D01*
X120134693Y-109331129D01*
X120057564Y-109338725D01*
X119980437Y-109346322D01*
X119877277Y-109346322D01*
X119800150Y-109338725D01*
X119723021Y-109331129D01*
X119591070Y-109291102D01*
X119525094Y-109271089D01*
X119342685Y-109173589D01*
X119182803Y-109042376D01*
X119051590Y-108882494D01*
X118954090Y-108700085D01*
X118904368Y-108536171D01*
X118894050Y-108502158D01*
X118873777Y-108296322D01*
X118894050Y-108090486D01*
X118954090Y-107892560D01*
X118954090Y-107892559D01*
X119051590Y-107710150D01*
X119182803Y-107550268D01*
X119342685Y-107419055D01*
X119525094Y-107321555D01*
X119591070Y-107301542D01*
X119723021Y-107261515D01*
X119800150Y-107253919D01*
X119877277Y-107246322D01*
X119980437Y-107246322D01*
X120057564Y-107253919D01*
X120057564Y-107253919D01*
G37*
G36*
X117517564Y-107253919D02*
X117594693Y-107261515D01*
X117726644Y-107301542D01*
X117792620Y-107321555D01*
X117975029Y-107419055D01*
X118134911Y-107550268D01*
X118266124Y-107710150D01*
X118363624Y-107892559D01*
X118363624Y-107892560D01*
X118423664Y-108090486D01*
X118443937Y-108296322D01*
X118423664Y-108502158D01*
X118413346Y-108536171D01*
X118363624Y-108700085D01*
X118266124Y-108882494D01*
X118134911Y-109042376D01*
X117975029Y-109173589D01*
X117792620Y-109271089D01*
X117726644Y-109291102D01*
X117594693Y-109331129D01*
X117517564Y-109338725D01*
X117440437Y-109346322D01*
X117337277Y-109346322D01*
X117260150Y-109338725D01*
X117183021Y-109331129D01*
X117051070Y-109291102D01*
X116985094Y-109271089D01*
X116802685Y-109173589D01*
X116642803Y-109042376D01*
X116511590Y-108882494D01*
X116414090Y-108700085D01*
X116364368Y-108536171D01*
X116354050Y-108502158D01*
X116333777Y-108296322D01*
X116354050Y-108090486D01*
X116414090Y-107892560D01*
X116414090Y-107892559D01*
X116511590Y-107710150D01*
X116642803Y-107550268D01*
X116802685Y-107419055D01*
X116985094Y-107321555D01*
X117051070Y-107301542D01*
X117183021Y-107261515D01*
X117260150Y-107253919D01*
X117337277Y-107246322D01*
X117440437Y-107246322D01*
X117517564Y-107253919D01*
X117517564Y-107253919D01*
G37*
G36*
X182246707Y-106907596D02*
X182323836Y-106915193D01*
X182455787Y-106955220D01*
X182521763Y-106975233D01*
X182704172Y-107072733D01*
X182864054Y-107203946D01*
X182995267Y-107363828D01*
X183092767Y-107546237D01*
X183103842Y-107582746D01*
X183152807Y-107744164D01*
X183173080Y-107950000D01*
X183152807Y-108155836D01*
X183112780Y-108287787D01*
X183092767Y-108353763D01*
X182995267Y-108536172D01*
X182864054Y-108696054D01*
X182704172Y-108827267D01*
X182521763Y-108924767D01*
X182455787Y-108944780D01*
X182323836Y-108984807D01*
X182246707Y-108992403D01*
X182169580Y-109000000D01*
X182066420Y-109000000D01*
X181989293Y-108992403D01*
X181912164Y-108984807D01*
X181780213Y-108944780D01*
X181714237Y-108924767D01*
X181531828Y-108827267D01*
X181371946Y-108696054D01*
X181240733Y-108536172D01*
X181143233Y-108353763D01*
X181123220Y-108287787D01*
X181083193Y-108155836D01*
X181062920Y-107950000D01*
X181083193Y-107744164D01*
X181132158Y-107582746D01*
X181143233Y-107546237D01*
X181240733Y-107363828D01*
X181371946Y-107203946D01*
X181531828Y-107072733D01*
X181714237Y-106975233D01*
X181780213Y-106955220D01*
X181912164Y-106915193D01*
X181989293Y-106907596D01*
X182066420Y-106900000D01*
X182169580Y-106900000D01*
X182246707Y-106907596D01*
X182246707Y-106907596D01*
G37*
G36*
X131886900Y-107699500D02*
X130286900Y-107699500D01*
X130286900Y-106549500D01*
X131886900Y-106549500D01*
X131886900Y-107699500D01*
X131886900Y-107699500D01*
G37*
G36*
X129986900Y-107699500D02*
X128386900Y-107699500D01*
X128386900Y-106549500D01*
X129986900Y-106549500D01*
X129986900Y-107699500D01*
X129986900Y-107699500D01*
G37*
G36*
X117517564Y-104713918D02*
X117594693Y-104721515D01*
X117726644Y-104761542D01*
X117792620Y-104781555D01*
X117975029Y-104879055D01*
X118134911Y-105010268D01*
X118266124Y-105170150D01*
X118363624Y-105352559D01*
X118383637Y-105418535D01*
X118423664Y-105550486D01*
X118443937Y-105756322D01*
X118423664Y-105962158D01*
X118403960Y-106027112D01*
X118363624Y-106160085D01*
X118266124Y-106342494D01*
X118134911Y-106502376D01*
X117975029Y-106633589D01*
X117792620Y-106731089D01*
X117726644Y-106751102D01*
X117594693Y-106791129D01*
X117517564Y-106798726D01*
X117440437Y-106806322D01*
X117337277Y-106806322D01*
X117260150Y-106798726D01*
X117183021Y-106791129D01*
X117051070Y-106751102D01*
X116985094Y-106731089D01*
X116802685Y-106633589D01*
X116642803Y-106502376D01*
X116511590Y-106342494D01*
X116414090Y-106160085D01*
X116373754Y-106027112D01*
X116354050Y-105962158D01*
X116333777Y-105756322D01*
X116354050Y-105550486D01*
X116394077Y-105418535D01*
X116414090Y-105352559D01*
X116511590Y-105170150D01*
X116642803Y-105010268D01*
X116802685Y-104879055D01*
X116985094Y-104781555D01*
X117051070Y-104761542D01*
X117183021Y-104721515D01*
X117260150Y-104713919D01*
X117337277Y-104706322D01*
X117440437Y-104706322D01*
X117517564Y-104713918D01*
X117517564Y-104713918D01*
G37*
G36*
X120057564Y-104713918D02*
X120134693Y-104721515D01*
X120266644Y-104761542D01*
X120332620Y-104781555D01*
X120515029Y-104879055D01*
X120674911Y-105010268D01*
X120806124Y-105170150D01*
X120903624Y-105352559D01*
X120923637Y-105418535D01*
X120963664Y-105550486D01*
X120983937Y-105756322D01*
X120963664Y-105962158D01*
X120943960Y-106027112D01*
X120903624Y-106160085D01*
X120806124Y-106342494D01*
X120674911Y-106502376D01*
X120515029Y-106633589D01*
X120332620Y-106731089D01*
X120266644Y-106751102D01*
X120134693Y-106791129D01*
X120057564Y-106798726D01*
X119980437Y-106806322D01*
X119877277Y-106806322D01*
X119800150Y-106798726D01*
X119723021Y-106791129D01*
X119591070Y-106751102D01*
X119525094Y-106731089D01*
X119342685Y-106633589D01*
X119182803Y-106502376D01*
X119051590Y-106342494D01*
X118954090Y-106160085D01*
X118913754Y-106027112D01*
X118894050Y-105962158D01*
X118873777Y-105756322D01*
X118894050Y-105550486D01*
X118934077Y-105418535D01*
X118954090Y-105352559D01*
X119051590Y-105170150D01*
X119182803Y-105010268D01*
X119342685Y-104879055D01*
X119525094Y-104781555D01*
X119591070Y-104761542D01*
X119723021Y-104721515D01*
X119800150Y-104713919D01*
X119877277Y-104706322D01*
X119980437Y-104706322D01*
X120057564Y-104713918D01*
X120057564Y-104713918D01*
G37*
G36*
X126583300Y-106251700D02*
X124983300Y-106251700D01*
X124983300Y-105101700D01*
X126583300Y-105101700D01*
X126583300Y-106251700D01*
X126583300Y-106251700D01*
G37*
G36*
X128483300Y-106251700D02*
X126883300Y-106251700D01*
X126883300Y-105101700D01*
X128483300Y-105101700D01*
X128483300Y-106251700D01*
X128483300Y-106251700D01*
G37*
G36*
X134158522Y-104652652D02*
X133027150Y-105784024D01*
X132213976Y-104970850D01*
X133345348Y-103839478D01*
X134158522Y-104652652D01*
X134158522Y-104652652D01*
G37*
G36*
X157831322Y-104131952D02*
X156699950Y-105263324D01*
X155886776Y-104450150D01*
X157018148Y-103318778D01*
X157831322Y-104131952D01*
X157831322Y-104131952D01*
G37*
G36*
X135502024Y-103309150D02*
X134370652Y-104440522D01*
X133557478Y-103627348D01*
X134688850Y-102495976D01*
X135502024Y-103309150D01*
X135502024Y-103309150D01*
G37*
G36*
X134152940Y-102101488D02*
X131819488Y-104434940D01*
X130546695Y-103162147D01*
X132880147Y-100828695D01*
X134152940Y-102101488D01*
X134152940Y-102101488D01*
G37*
G36*
X117517564Y-102173919D02*
X117594693Y-102181515D01*
X117726644Y-102221542D01*
X117792620Y-102241555D01*
X117975029Y-102339055D01*
X118134911Y-102470268D01*
X118266124Y-102630150D01*
X118363624Y-102812559D01*
X118363624Y-102812560D01*
X118423664Y-103010486D01*
X118443937Y-103216322D01*
X118423664Y-103422158D01*
X118384205Y-103552238D01*
X118363624Y-103620085D01*
X118266124Y-103802494D01*
X118134911Y-103962376D01*
X117975029Y-104093589D01*
X117792620Y-104191089D01*
X117726644Y-104211102D01*
X117594693Y-104251129D01*
X117517564Y-104258726D01*
X117440437Y-104266322D01*
X117337277Y-104266322D01*
X117260150Y-104258725D01*
X117183021Y-104251129D01*
X117051070Y-104211102D01*
X116985094Y-104191089D01*
X116802685Y-104093589D01*
X116642803Y-103962376D01*
X116511590Y-103802494D01*
X116414090Y-103620085D01*
X116393509Y-103552238D01*
X116354050Y-103422158D01*
X116333777Y-103216322D01*
X116354050Y-103010486D01*
X116414090Y-102812560D01*
X116414090Y-102812559D01*
X116511590Y-102630150D01*
X116642803Y-102470268D01*
X116802685Y-102339055D01*
X116985094Y-102241555D01*
X117051070Y-102221542D01*
X117183021Y-102181515D01*
X117260150Y-102173918D01*
X117337277Y-102166322D01*
X117440437Y-102166322D01*
X117517564Y-102173919D01*
X117517564Y-102173919D01*
G37*
G36*
X120057564Y-102173919D02*
X120134693Y-102181515D01*
X120266644Y-102221542D01*
X120332620Y-102241555D01*
X120515029Y-102339055D01*
X120674911Y-102470268D01*
X120806124Y-102630150D01*
X120903624Y-102812559D01*
X120903624Y-102812560D01*
X120963664Y-103010486D01*
X120983937Y-103216322D01*
X120963664Y-103422158D01*
X120924205Y-103552238D01*
X120903624Y-103620085D01*
X120806124Y-103802494D01*
X120674911Y-103962376D01*
X120515029Y-104093589D01*
X120332620Y-104191089D01*
X120266644Y-104211102D01*
X120134693Y-104251129D01*
X120057564Y-104258726D01*
X119980437Y-104266322D01*
X119877277Y-104266322D01*
X119800150Y-104258725D01*
X119723021Y-104251129D01*
X119591070Y-104211102D01*
X119525094Y-104191089D01*
X119342685Y-104093589D01*
X119182803Y-103962376D01*
X119051590Y-103802494D01*
X118954090Y-103620085D01*
X118933509Y-103552238D01*
X118894050Y-103422158D01*
X118873777Y-103216322D01*
X118894050Y-103010486D01*
X118954090Y-102812560D01*
X118954090Y-102812559D01*
X119051590Y-102630150D01*
X119182803Y-102470268D01*
X119342685Y-102339055D01*
X119525094Y-102241555D01*
X119591070Y-102221542D01*
X119723021Y-102181515D01*
X119800150Y-102173918D01*
X119877277Y-102166322D01*
X119980437Y-102166322D01*
X120057564Y-102173919D01*
X120057564Y-102173919D01*
G37*
G36*
X128495999Y-103953000D02*
X126895999Y-103953000D01*
X126895999Y-102803000D01*
X128495999Y-102803000D01*
X128495999Y-103953000D01*
X128495999Y-103953000D01*
G37*
G36*
X126596001Y-103953000D02*
X124996001Y-103953000D01*
X124996001Y-102803000D01*
X126596001Y-102803000D01*
X126596001Y-103953000D01*
X126596001Y-103953000D01*
G37*
G36*
X159174824Y-102788450D02*
X158043452Y-103919822D01*
X157230278Y-103106648D01*
X158361650Y-101975276D01*
X159174824Y-102788450D01*
X159174824Y-102788450D01*
G37*
G36*
X132597305Y-100545853D02*
X130263853Y-102879305D01*
X128991060Y-101606512D01*
X131324512Y-99273060D01*
X132597305Y-100545853D01*
X132597305Y-100545853D01*
G37*
G36*
X156129522Y-101223652D02*
X154998150Y-102355024D01*
X154184976Y-101541850D01*
X155316348Y-100410478D01*
X156129522Y-101223652D01*
X156129522Y-101223652D01*
G37*
G36*
X120030298Y-99631233D02*
X120134693Y-99641515D01*
X120266644Y-99681542D01*
X120332620Y-99701555D01*
X120515029Y-99799055D01*
X120674911Y-99930268D01*
X120806124Y-100090150D01*
X120903624Y-100272559D01*
X120920471Y-100328097D01*
X120963664Y-100470486D01*
X120983937Y-100676322D01*
X120963664Y-100882158D01*
X120924422Y-101011521D01*
X120903624Y-101080085D01*
X120806124Y-101262494D01*
X120674911Y-101422376D01*
X120515029Y-101553589D01*
X120332620Y-101651089D01*
X120272839Y-101669223D01*
X120134693Y-101711129D01*
X120057564Y-101718725D01*
X119980437Y-101726322D01*
X119877277Y-101726322D01*
X119800150Y-101718725D01*
X119723021Y-101711129D01*
X119584875Y-101669223D01*
X119525094Y-101651089D01*
X119342685Y-101553589D01*
X119182803Y-101422376D01*
X119051590Y-101262494D01*
X118954090Y-101080085D01*
X118933292Y-101011521D01*
X118894050Y-100882158D01*
X118873777Y-100676322D01*
X118894050Y-100470486D01*
X118937243Y-100328097D01*
X118954090Y-100272559D01*
X119051590Y-100090150D01*
X119182803Y-99930268D01*
X119342685Y-99799055D01*
X119525094Y-99701555D01*
X119591070Y-99681542D01*
X119723021Y-99641515D01*
X119827416Y-99631233D01*
X119877277Y-99626322D01*
X119980437Y-99626322D01*
X120030298Y-99631233D01*
X120030298Y-99631233D01*
G37*
G36*
X117490298Y-99631233D02*
X117594693Y-99641515D01*
X117726644Y-99681542D01*
X117792620Y-99701555D01*
X117975029Y-99799055D01*
X118134911Y-99930268D01*
X118266124Y-100090150D01*
X118363624Y-100272559D01*
X118380471Y-100328097D01*
X118423664Y-100470486D01*
X118443937Y-100676322D01*
X118423664Y-100882158D01*
X118384422Y-101011521D01*
X118363624Y-101080085D01*
X118266124Y-101262494D01*
X118134911Y-101422376D01*
X117975029Y-101553589D01*
X117792620Y-101651089D01*
X117732839Y-101669223D01*
X117594693Y-101711129D01*
X117517564Y-101718725D01*
X117440437Y-101726322D01*
X117337277Y-101726322D01*
X117260150Y-101718725D01*
X117183021Y-101711129D01*
X117044875Y-101669223D01*
X116985094Y-101651089D01*
X116802685Y-101553589D01*
X116642803Y-101422376D01*
X116511590Y-101262494D01*
X116414090Y-101080085D01*
X116393292Y-101011521D01*
X116354050Y-100882158D01*
X116333777Y-100676322D01*
X116354050Y-100470486D01*
X116397243Y-100328097D01*
X116414090Y-100272559D01*
X116511590Y-100090150D01*
X116642803Y-99930268D01*
X116802685Y-99799055D01*
X116985094Y-99701555D01*
X117051070Y-99681542D01*
X117183021Y-99641515D01*
X117287416Y-99631233D01*
X117337277Y-99626322D01*
X117440437Y-99626322D01*
X117490298Y-99631233D01*
X117490298Y-99631233D01*
G37*
G36*
X154351522Y-100537852D02*
X153220150Y-101669224D01*
X152406976Y-100856050D01*
X153538348Y-99724678D01*
X154351522Y-100537852D01*
X154351522Y-100537852D01*
G37*
G36*
X129586522Y-100080652D02*
X128455150Y-101212024D01*
X127641976Y-100398850D01*
X128773348Y-99267478D01*
X129586522Y-100080652D01*
X129586522Y-100080652D01*
G37*
G36*
X157473024Y-99880150D02*
X156341652Y-101011522D01*
X155528478Y-100198348D01*
X156659850Y-99066976D01*
X157473024Y-99880150D01*
X157473024Y-99880150D01*
G37*
G36*
X163197617Y-99111089D02*
X163286767Y-99128822D01*
X163343303Y-99152240D01*
X163423257Y-99185358D01*
X163546100Y-99267439D01*
X163650561Y-99371900D01*
X163732642Y-99494743D01*
X163740017Y-99512548D01*
X163787144Y-99626322D01*
X163789178Y-99631234D01*
X163818000Y-99776130D01*
X163818000Y-99923870D01*
X163789178Y-100068766D01*
X163732642Y-100205257D01*
X163650561Y-100328100D01*
X163546100Y-100432561D01*
X163423257Y-100514642D01*
X163347906Y-100545853D01*
X163286767Y-100571178D01*
X163214318Y-100585589D01*
X163141870Y-100600000D01*
X162994130Y-100600000D01*
X162921682Y-100585589D01*
X162849233Y-100571178D01*
X162788094Y-100545853D01*
X162712743Y-100514642D01*
X162589900Y-100432561D01*
X162485439Y-100328100D01*
X162403358Y-100205257D01*
X162346822Y-100068766D01*
X162318000Y-99923870D01*
X162318000Y-99776130D01*
X162346822Y-99631234D01*
X162348857Y-99626322D01*
X162395983Y-99512548D01*
X162403358Y-99494743D01*
X162485439Y-99371900D01*
X162589900Y-99267439D01*
X162712743Y-99185358D01*
X162792697Y-99152240D01*
X162849233Y-99128822D01*
X162938383Y-99111089D01*
X162994130Y-99100000D01*
X163141870Y-99100000D01*
X163197617Y-99111089D01*
X163197617Y-99111089D01*
G37*
G36*
X187597617Y-99111089D02*
X187686767Y-99128822D01*
X187743303Y-99152240D01*
X187823257Y-99185358D01*
X187946100Y-99267439D01*
X188050561Y-99371900D01*
X188132642Y-99494743D01*
X188140017Y-99512548D01*
X188187144Y-99626322D01*
X188189178Y-99631234D01*
X188218000Y-99776130D01*
X188218000Y-99923870D01*
X188189178Y-100068766D01*
X188132642Y-100205257D01*
X188050561Y-100328100D01*
X187946100Y-100432561D01*
X187823257Y-100514642D01*
X187747906Y-100545853D01*
X187686767Y-100571178D01*
X187614318Y-100585589D01*
X187541870Y-100600000D01*
X187394130Y-100600000D01*
X187321682Y-100585589D01*
X187249233Y-100571178D01*
X187188094Y-100545853D01*
X187112743Y-100514642D01*
X186989900Y-100432561D01*
X186885439Y-100328100D01*
X186803358Y-100205257D01*
X186746822Y-100068766D01*
X186718000Y-99923870D01*
X186718000Y-99776130D01*
X186746822Y-99631234D01*
X186748857Y-99626322D01*
X186795983Y-99512548D01*
X186803358Y-99494743D01*
X186885439Y-99371900D01*
X186989900Y-99267439D01*
X187112743Y-99185358D01*
X187192697Y-99152240D01*
X187249233Y-99128822D01*
X187338383Y-99111089D01*
X187394130Y-99100000D01*
X187541870Y-99100000D01*
X187597617Y-99111089D01*
X187597617Y-99111089D01*
G37*
G36*
X155695024Y-99194350D02*
X154563652Y-100325722D01*
X153750478Y-99512548D01*
X154881850Y-98381176D01*
X155695024Y-99194350D01*
X155695024Y-99194350D01*
G37*
G36*
X137280024Y-99382850D02*
X136466850Y-100196024D01*
X135335478Y-99064652D01*
X136148652Y-98251478D01*
X137280024Y-99382850D01*
X137280024Y-99382850D01*
G37*
G36*
X130930024Y-98737150D02*
X129798652Y-99868522D01*
X128985478Y-99055348D01*
X130116850Y-97923976D01*
X130930024Y-98737150D01*
X130930024Y-98737150D01*
G37*
G36*
X138813793Y-98263343D02*
X137823843Y-99253293D01*
X136268207Y-97697657D01*
X137258157Y-96707707D01*
X138813793Y-98263343D01*
X138813793Y-98263343D01*
G37*
G36*
X117517564Y-97093919D02*
X117594693Y-97101515D01*
X117726644Y-97141542D01*
X117792620Y-97161555D01*
X117975029Y-97259055D01*
X118134911Y-97390268D01*
X118266124Y-97550150D01*
X118363624Y-97732559D01*
X118363624Y-97732560D01*
X118423664Y-97930486D01*
X118443937Y-98136322D01*
X118423664Y-98342158D01*
X118396240Y-98432563D01*
X118363624Y-98540085D01*
X118266124Y-98722494D01*
X118134911Y-98882376D01*
X117975029Y-99013589D01*
X117792620Y-99111089D01*
X117734161Y-99128822D01*
X117594693Y-99171129D01*
X117517564Y-99178726D01*
X117440437Y-99186322D01*
X117337277Y-99186322D01*
X117260150Y-99178726D01*
X117183021Y-99171129D01*
X117043553Y-99128822D01*
X116985094Y-99111089D01*
X116802685Y-99013589D01*
X116642803Y-98882376D01*
X116511590Y-98722494D01*
X116414090Y-98540085D01*
X116381474Y-98432563D01*
X116354050Y-98342158D01*
X116333777Y-98136322D01*
X116354050Y-97930486D01*
X116414090Y-97732560D01*
X116414090Y-97732559D01*
X116511590Y-97550150D01*
X116642803Y-97390268D01*
X116802685Y-97259055D01*
X116985094Y-97161555D01*
X117051070Y-97141542D01*
X117183021Y-97101515D01*
X117260150Y-97093919D01*
X117337277Y-97086322D01*
X117440437Y-97086322D01*
X117517564Y-97093919D01*
X117517564Y-97093919D01*
G37*
G36*
X120057564Y-97093919D02*
X120134693Y-97101515D01*
X120266644Y-97141542D01*
X120332620Y-97161555D01*
X120515029Y-97259055D01*
X120674911Y-97390268D01*
X120806124Y-97550150D01*
X120903624Y-97732559D01*
X120903624Y-97732560D01*
X120963664Y-97930486D01*
X120983937Y-98136322D01*
X120963664Y-98342158D01*
X120936240Y-98432563D01*
X120903624Y-98540085D01*
X120806124Y-98722494D01*
X120674911Y-98882376D01*
X120515029Y-99013589D01*
X120332620Y-99111089D01*
X120274161Y-99128822D01*
X120134693Y-99171129D01*
X120057564Y-99178726D01*
X119980437Y-99186322D01*
X119877277Y-99186322D01*
X119800150Y-99178726D01*
X119723021Y-99171129D01*
X119583553Y-99128822D01*
X119525094Y-99111089D01*
X119342685Y-99013589D01*
X119182803Y-98882376D01*
X119051590Y-98722494D01*
X118954090Y-98540085D01*
X118921474Y-98432563D01*
X118894050Y-98342158D01*
X118873777Y-98136322D01*
X118894050Y-97930486D01*
X118954090Y-97732560D01*
X118954090Y-97732559D01*
X119051590Y-97550150D01*
X119182803Y-97390268D01*
X119342685Y-97259055D01*
X119525094Y-97161555D01*
X119591070Y-97141542D01*
X119723021Y-97101515D01*
X119800150Y-97093919D01*
X119877277Y-97086322D01*
X119980437Y-97086322D01*
X120057564Y-97093919D01*
X120057564Y-97093919D01*
G37*
G36*
X135936522Y-98039348D02*
X135123348Y-98852522D01*
X133991976Y-97721150D01*
X134805150Y-96907976D01*
X135936522Y-98039348D01*
X135936522Y-98039348D01*
G37*
G36*
X187614318Y-97114411D02*
X187686767Y-97128822D01*
X187743303Y-97152240D01*
X187823257Y-97185358D01*
X187946100Y-97267439D01*
X188050561Y-97371900D01*
X188132642Y-97494743D01*
X188189178Y-97631234D01*
X188218000Y-97776130D01*
X188218000Y-97923870D01*
X188203589Y-97996318D01*
X188189178Y-98068767D01*
X188165760Y-98125303D01*
X188132642Y-98205257D01*
X188050561Y-98328100D01*
X187946100Y-98432561D01*
X187823257Y-98514642D01*
X187743303Y-98547760D01*
X187686767Y-98571178D01*
X187614318Y-98585589D01*
X187541870Y-98600000D01*
X187394130Y-98600000D01*
X187321682Y-98585589D01*
X187249233Y-98571178D01*
X187192697Y-98547760D01*
X187112743Y-98514642D01*
X186989900Y-98432561D01*
X186885439Y-98328100D01*
X186803358Y-98205257D01*
X186770240Y-98125303D01*
X186746822Y-98068767D01*
X186732411Y-97996318D01*
X186718000Y-97923870D01*
X186718000Y-97776130D01*
X186746822Y-97631234D01*
X186803358Y-97494743D01*
X186885439Y-97371900D01*
X186989900Y-97267439D01*
X187112743Y-97185358D01*
X187192697Y-97152240D01*
X187249233Y-97128822D01*
X187321682Y-97114411D01*
X187394130Y-97100000D01*
X187541870Y-97100000D01*
X187614318Y-97114411D01*
X187614318Y-97114411D01*
G37*
G36*
X163214318Y-97114411D02*
X163286767Y-97128822D01*
X163343303Y-97152240D01*
X163423257Y-97185358D01*
X163546100Y-97267439D01*
X163650561Y-97371900D01*
X163732642Y-97494743D01*
X163789178Y-97631234D01*
X163818000Y-97776130D01*
X163818000Y-97923870D01*
X163803589Y-97996318D01*
X163789178Y-98068767D01*
X163765760Y-98125303D01*
X163732642Y-98205257D01*
X163650561Y-98328100D01*
X163546100Y-98432561D01*
X163423257Y-98514642D01*
X163343303Y-98547760D01*
X163286767Y-98571178D01*
X163214318Y-98585589D01*
X163141870Y-98600000D01*
X162994130Y-98600000D01*
X162921682Y-98585589D01*
X162849233Y-98571178D01*
X162792697Y-98547760D01*
X162712743Y-98514642D01*
X162589900Y-98432561D01*
X162485439Y-98328100D01*
X162403358Y-98205257D01*
X162370240Y-98125303D01*
X162346822Y-98068767D01*
X162332411Y-97996318D01*
X162318000Y-97923870D01*
X162318000Y-97776130D01*
X162346822Y-97631234D01*
X162403358Y-97494743D01*
X162485439Y-97371900D01*
X162589900Y-97267439D01*
X162712743Y-97185358D01*
X162792697Y-97152240D01*
X162849233Y-97128822D01*
X162921682Y-97114411D01*
X162994130Y-97100000D01*
X163141870Y-97100000D01*
X163214318Y-97114411D01*
X163214318Y-97114411D01*
G37*
G36*
X140581559Y-96495577D02*
X139591609Y-97485527D01*
X138035973Y-95929891D01*
X139025923Y-94939941D01*
X140581559Y-96495577D01*
X140581559Y-96495577D01*
G37*
G36*
X150160522Y-96283352D02*
X149029150Y-97414724D01*
X148215976Y-96601550D01*
X149347348Y-95470178D01*
X150160522Y-96283352D01*
X150160522Y-96283352D01*
G37*
G36*
X130623000Y-97381000D02*
X129473000Y-97381000D01*
X129473000Y-95781000D01*
X130623000Y-95781000D01*
X130623000Y-97381000D01*
X130623000Y-97381000D01*
G37*
G36*
X126800000Y-97154000D02*
X125000000Y-97154000D01*
X125000000Y-93854000D01*
X126800000Y-93854000D01*
X126800000Y-97154000D01*
X126800000Y-97154000D01*
G37*
G36*
X129000000Y-97154000D02*
X127200000Y-97154000D01*
X127200000Y-93854000D01*
X129000000Y-93854000D01*
X129000000Y-97154000D01*
X129000000Y-97154000D01*
G37*
G36*
X124527000Y-97127000D02*
X123377000Y-97127000D01*
X123377000Y-95527000D01*
X124527000Y-95527000D01*
X124527000Y-97127000D01*
X124527000Y-97127000D01*
G37*
G36*
X117517564Y-94553918D02*
X117594693Y-94561515D01*
X117715041Y-94598022D01*
X117792620Y-94621555D01*
X117975029Y-94719055D01*
X118134911Y-94850268D01*
X118266124Y-95010150D01*
X118363624Y-95192559D01*
X118363624Y-95192560D01*
X118423664Y-95390486D01*
X118443937Y-95596322D01*
X118423664Y-95802158D01*
X118386743Y-95923869D01*
X118363624Y-96000085D01*
X118266124Y-96182494D01*
X118134911Y-96342376D01*
X117975029Y-96473589D01*
X117792620Y-96571089D01*
X117726644Y-96591102D01*
X117594693Y-96631129D01*
X117517564Y-96638726D01*
X117440437Y-96646322D01*
X117337277Y-96646322D01*
X117260150Y-96638725D01*
X117183021Y-96631129D01*
X117051070Y-96591102D01*
X116985094Y-96571089D01*
X116802685Y-96473589D01*
X116642803Y-96342376D01*
X116511590Y-96182494D01*
X116414090Y-96000085D01*
X116390971Y-95923869D01*
X116354050Y-95802158D01*
X116333777Y-95596322D01*
X116354050Y-95390486D01*
X116414090Y-95192560D01*
X116414090Y-95192559D01*
X116511590Y-95010150D01*
X116642803Y-94850268D01*
X116802685Y-94719055D01*
X116985094Y-94621555D01*
X117062673Y-94598022D01*
X117183021Y-94561515D01*
X117260150Y-94553918D01*
X117337277Y-94546322D01*
X117440437Y-94546322D01*
X117517564Y-94553918D01*
X117517564Y-94553918D01*
G37*
G36*
X120978857Y-96646322D02*
X118878857Y-96646322D01*
X118878857Y-94546322D01*
X120978857Y-94546322D01*
X120978857Y-96646322D01*
X120978857Y-96646322D01*
G37*
G36*
X163214318Y-95114411D02*
X163286767Y-95128822D01*
X163343303Y-95152240D01*
X163423257Y-95185358D01*
X163546100Y-95267439D01*
X163650561Y-95371900D01*
X163732642Y-95494743D01*
X163789178Y-95631234D01*
X163818000Y-95776130D01*
X163818000Y-95923870D01*
X163814488Y-95941524D01*
X163789178Y-96068767D01*
X163788161Y-96071222D01*
X163732642Y-96205257D01*
X163650561Y-96328100D01*
X163546100Y-96432561D01*
X163423257Y-96514642D01*
X163343303Y-96547760D01*
X163286767Y-96571178D01*
X163214318Y-96585589D01*
X163141870Y-96600000D01*
X162994130Y-96600000D01*
X162921682Y-96585589D01*
X162849233Y-96571178D01*
X162792697Y-96547760D01*
X162712743Y-96514642D01*
X162589900Y-96432561D01*
X162485439Y-96328100D01*
X162403358Y-96205257D01*
X162347839Y-96071222D01*
X162346822Y-96068767D01*
X162321512Y-95941524D01*
X162318000Y-95923870D01*
X162318000Y-95776130D01*
X162346822Y-95631234D01*
X162403358Y-95494743D01*
X162485439Y-95371900D01*
X162589900Y-95267439D01*
X162712743Y-95185358D01*
X162792697Y-95152240D01*
X162849233Y-95128822D01*
X162921682Y-95114411D01*
X162994130Y-95100000D01*
X163141870Y-95100000D01*
X163214318Y-95114411D01*
X163214318Y-95114411D01*
G37*
G36*
X187614318Y-95114411D02*
X187686767Y-95128822D01*
X187743303Y-95152240D01*
X187823257Y-95185358D01*
X187946100Y-95267439D01*
X188050561Y-95371900D01*
X188132642Y-95494743D01*
X188189178Y-95631234D01*
X188218000Y-95776130D01*
X188218000Y-95923870D01*
X188214488Y-95941524D01*
X188189178Y-96068767D01*
X188188161Y-96071222D01*
X188132642Y-96205257D01*
X188050561Y-96328100D01*
X187946100Y-96432561D01*
X187823257Y-96514642D01*
X187743303Y-96547760D01*
X187686767Y-96571178D01*
X187614318Y-96585589D01*
X187541870Y-96600000D01*
X187394130Y-96600000D01*
X187321682Y-96585589D01*
X187249233Y-96571178D01*
X187192697Y-96547760D01*
X187112743Y-96514642D01*
X186989900Y-96432561D01*
X186885439Y-96328100D01*
X186803358Y-96205257D01*
X186747839Y-96071222D01*
X186746822Y-96068767D01*
X186721512Y-95941524D01*
X186718000Y-95923870D01*
X186718000Y-95776130D01*
X186746822Y-95631234D01*
X186803358Y-95494743D01*
X186885439Y-95371900D01*
X186989900Y-95267439D01*
X187112743Y-95185358D01*
X187192697Y-95152240D01*
X187249233Y-95128822D01*
X187321682Y-95114411D01*
X187394130Y-95100000D01*
X187541870Y-95100000D01*
X187614318Y-95114411D01*
X187614318Y-95114411D01*
G37*
G36*
X151504024Y-94939850D02*
X150372652Y-96071222D01*
X149559478Y-95258048D01*
X150690850Y-94126676D01*
X151504024Y-94939850D01*
X151504024Y-94939850D01*
G37*
G36*
X141534524Y-95128350D02*
X140721350Y-95941524D01*
X139589978Y-94810152D01*
X140403152Y-93996978D01*
X141534524Y-95128350D01*
X141534524Y-95128350D01*
G37*
G36*
X171056200Y-95861900D02*
X169456200Y-95861900D01*
X169456200Y-94561900D01*
X171056200Y-94561900D01*
X171056200Y-95861900D01*
X171056200Y-95861900D01*
G37*
G36*
X168856200Y-95861900D02*
X167256200Y-95861900D01*
X167256200Y-94561900D01*
X168856200Y-94561900D01*
X168856200Y-95861900D01*
X168856200Y-95861900D01*
G37*
G36*
X130623000Y-95481000D02*
X129473000Y-95481000D01*
X129473000Y-93881000D01*
X130623000Y-93881000D01*
X130623000Y-95481000D01*
X130623000Y-95481000D01*
G37*
G36*
X124527000Y-95227000D02*
X123377000Y-95227000D01*
X123377000Y-93627000D01*
X124527000Y-93627000D01*
X124527000Y-95227000D01*
X124527000Y-95227000D01*
G37*
G36*
X163214318Y-93114411D02*
X163286767Y-93128822D01*
X163343303Y-93152240D01*
X163423257Y-93185358D01*
X163546100Y-93267439D01*
X163650561Y-93371900D01*
X163732642Y-93494743D01*
X163765760Y-93574697D01*
X163787425Y-93627000D01*
X163789178Y-93631234D01*
X163818000Y-93776130D01*
X163818000Y-93923870D01*
X163789178Y-94068766D01*
X163732642Y-94205257D01*
X163650561Y-94328100D01*
X163546100Y-94432561D01*
X163423257Y-94514642D01*
X163346774Y-94546322D01*
X163286767Y-94571178D01*
X163214318Y-94585589D01*
X163141870Y-94600000D01*
X162994130Y-94600000D01*
X162921682Y-94585589D01*
X162849233Y-94571178D01*
X162789226Y-94546322D01*
X162712743Y-94514642D01*
X162589900Y-94432561D01*
X162485439Y-94328100D01*
X162403358Y-94205257D01*
X162346822Y-94068766D01*
X162318000Y-93923870D01*
X162318000Y-93776130D01*
X162346822Y-93631234D01*
X162348576Y-93627000D01*
X162370240Y-93574697D01*
X162403358Y-93494743D01*
X162485439Y-93371900D01*
X162589900Y-93267439D01*
X162712743Y-93185358D01*
X162792697Y-93152240D01*
X162849233Y-93128822D01*
X162921682Y-93114411D01*
X162994130Y-93100000D01*
X163141870Y-93100000D01*
X163214318Y-93114411D01*
X163214318Y-93114411D01*
G37*
G36*
X187614318Y-93114411D02*
X187686767Y-93128822D01*
X187743303Y-93152240D01*
X187823257Y-93185358D01*
X187946100Y-93267439D01*
X188050561Y-93371900D01*
X188132642Y-93494743D01*
X188165760Y-93574697D01*
X188187425Y-93627000D01*
X188189178Y-93631234D01*
X188218000Y-93776130D01*
X188218000Y-93923870D01*
X188189178Y-94068766D01*
X188132642Y-94205257D01*
X188050561Y-94328100D01*
X187946100Y-94432561D01*
X187823257Y-94514642D01*
X187746774Y-94546322D01*
X187686767Y-94571178D01*
X187614318Y-94585589D01*
X187541870Y-94600000D01*
X187394130Y-94600000D01*
X187321682Y-94585589D01*
X187249233Y-94571178D01*
X187189226Y-94546322D01*
X187112743Y-94514642D01*
X186989900Y-94432561D01*
X186885439Y-94328100D01*
X186803358Y-94205257D01*
X186746822Y-94068766D01*
X186718000Y-93923870D01*
X186718000Y-93776130D01*
X186746822Y-93631234D01*
X186748576Y-93627000D01*
X186770240Y-93574697D01*
X186803358Y-93494743D01*
X186885439Y-93371900D01*
X186989900Y-93267439D01*
X187112743Y-93185358D01*
X187192697Y-93152240D01*
X187249233Y-93128822D01*
X187321682Y-93114411D01*
X187394130Y-93100000D01*
X187541870Y-93100000D01*
X187614318Y-93114411D01*
X187614318Y-93114411D01*
G37*
G36*
X140191022Y-93784848D02*
X139377848Y-94598022D01*
X138246476Y-93466650D01*
X139059650Y-92653476D01*
X140191022Y-93784848D01*
X140191022Y-93784848D01*
G37*
G36*
X173108700Y-92953600D02*
X171508700Y-92953600D01*
X171508700Y-91653600D01*
X173108700Y-91653600D01*
X173108700Y-92953600D01*
X173108700Y-92953600D01*
G37*
G36*
X170908700Y-92953600D02*
X169308700Y-92953600D01*
X169308700Y-91653600D01*
X170908700Y-91653600D01*
X170908700Y-92953600D01*
X170908700Y-92953600D01*
G37*
G36*
X163214318Y-91114411D02*
X163286767Y-91128822D01*
X163343303Y-91152240D01*
X163423257Y-91185358D01*
X163546100Y-91267439D01*
X163650561Y-91371900D01*
X163732642Y-91494743D01*
X163789178Y-91631234D01*
X163818000Y-91776130D01*
X163818000Y-91923870D01*
X163789178Y-92068766D01*
X163732642Y-92205257D01*
X163650561Y-92328100D01*
X163546100Y-92432561D01*
X163423257Y-92514642D01*
X163343303Y-92547760D01*
X163286767Y-92571178D01*
X163214318Y-92585589D01*
X163141870Y-92600000D01*
X162994130Y-92600000D01*
X162921682Y-92585589D01*
X162849233Y-92571178D01*
X162792697Y-92547760D01*
X162712743Y-92514642D01*
X162589900Y-92432561D01*
X162485439Y-92328100D01*
X162403358Y-92205257D01*
X162346822Y-92068766D01*
X162318000Y-91923870D01*
X162318000Y-91776130D01*
X162346822Y-91631234D01*
X162403358Y-91494743D01*
X162485439Y-91371900D01*
X162589900Y-91267439D01*
X162712743Y-91185358D01*
X162792697Y-91152240D01*
X162849233Y-91128822D01*
X162921682Y-91114411D01*
X162994130Y-91100000D01*
X163141870Y-91100000D01*
X163214318Y-91114411D01*
X163214318Y-91114411D01*
G37*
G36*
X187614318Y-91114411D02*
X187686767Y-91128822D01*
X187743303Y-91152240D01*
X187823257Y-91185358D01*
X187946100Y-91267439D01*
X188050561Y-91371900D01*
X188132642Y-91494743D01*
X188189178Y-91631234D01*
X188218000Y-91776130D01*
X188218000Y-91923870D01*
X188189178Y-92068766D01*
X188132642Y-92205257D01*
X188050561Y-92328100D01*
X187946100Y-92432561D01*
X187823257Y-92514642D01*
X187743303Y-92547760D01*
X187686767Y-92571178D01*
X187614318Y-92585589D01*
X187541870Y-92600000D01*
X187394130Y-92600000D01*
X187321682Y-92585589D01*
X187249233Y-92571178D01*
X187192697Y-92547760D01*
X187112743Y-92514642D01*
X186989900Y-92432561D01*
X186885439Y-92328100D01*
X186803358Y-92205257D01*
X186746822Y-92068766D01*
X186718000Y-91923870D01*
X186718000Y-91776130D01*
X186746822Y-91631234D01*
X186803358Y-91494743D01*
X186885439Y-91371900D01*
X186989900Y-91267439D01*
X187112743Y-91185358D01*
X187192697Y-91152240D01*
X187249233Y-91128822D01*
X187321682Y-91114411D01*
X187394130Y-91100000D01*
X187541870Y-91100000D01*
X187614318Y-91114411D01*
X187614318Y-91114411D01*
G37*
G36*
X133050000Y-90820000D02*
X131450000Y-90820000D01*
X131450000Y-89520000D01*
X133050000Y-89520000D01*
X133050000Y-90820000D01*
X133050000Y-90820000D01*
G37*
G36*
X135250000Y-90820000D02*
X133650000Y-90820000D01*
X133650000Y-89520000D01*
X135250000Y-89520000D01*
X135250000Y-90820000D01*
X135250000Y-90820000D01*
G37*
G36*
X187614318Y-89114411D02*
X187686767Y-89128822D01*
X187743303Y-89152240D01*
X187823257Y-89185358D01*
X187946100Y-89267439D01*
X188050561Y-89371900D01*
X188132642Y-89494743D01*
X188189178Y-89631234D01*
X188218000Y-89776130D01*
X188218000Y-89923870D01*
X188189178Y-90068766D01*
X188132642Y-90205257D01*
X188050561Y-90328100D01*
X187946100Y-90432561D01*
X187823257Y-90514642D01*
X187743303Y-90547760D01*
X187686767Y-90571178D01*
X187614318Y-90585589D01*
X187541870Y-90600000D01*
X187394130Y-90600000D01*
X187321682Y-90585589D01*
X187249233Y-90571178D01*
X187192697Y-90547760D01*
X187112743Y-90514642D01*
X186989900Y-90432561D01*
X186885439Y-90328100D01*
X186803358Y-90205257D01*
X186746822Y-90068766D01*
X186718000Y-89923870D01*
X186718000Y-89776130D01*
X186746822Y-89631234D01*
X186803358Y-89494743D01*
X186885439Y-89371900D01*
X186989900Y-89267439D01*
X187112743Y-89185358D01*
X187192697Y-89152240D01*
X187249233Y-89128822D01*
X187321682Y-89114411D01*
X187394130Y-89100000D01*
X187541870Y-89100000D01*
X187614318Y-89114411D01*
X187614318Y-89114411D01*
G37*
G36*
X163214318Y-89114411D02*
X163286767Y-89128822D01*
X163343303Y-89152240D01*
X163423257Y-89185358D01*
X163546100Y-89267439D01*
X163650561Y-89371900D01*
X163732642Y-89494743D01*
X163789178Y-89631234D01*
X163818000Y-89776130D01*
X163818000Y-89923870D01*
X163789178Y-90068766D01*
X163732642Y-90205257D01*
X163650561Y-90328100D01*
X163546100Y-90432561D01*
X163423257Y-90514642D01*
X163343303Y-90547760D01*
X163286767Y-90571178D01*
X163214318Y-90585589D01*
X163141870Y-90600000D01*
X162994130Y-90600000D01*
X162921682Y-90585589D01*
X162849233Y-90571178D01*
X162792697Y-90547760D01*
X162712743Y-90514642D01*
X162589900Y-90432561D01*
X162485439Y-90328100D01*
X162403358Y-90205257D01*
X162346822Y-90068766D01*
X162318000Y-89923870D01*
X162318000Y-89776130D01*
X162346822Y-89631234D01*
X162403358Y-89494743D01*
X162485439Y-89371900D01*
X162589900Y-89267439D01*
X162712743Y-89185358D01*
X162792697Y-89152240D01*
X162849233Y-89128822D01*
X162921682Y-89114411D01*
X162994130Y-89100000D01*
X163141870Y-89100000D01*
X163214318Y-89114411D01*
X163214318Y-89114411D01*
G37*
G36*
X171572000Y-90185000D02*
X169972000Y-90185000D01*
X169972000Y-88885000D01*
X171572000Y-88885000D01*
X171572000Y-90185000D01*
X171572000Y-90185000D01*
G37*
G36*
X169372000Y-90185000D02*
X167772000Y-90185000D01*
X167772000Y-88885000D01*
X169372000Y-88885000D01*
X169372000Y-90185000D01*
X169372000Y-90185000D01*
G37*
G36*
X141061420Y-85483053D02*
X141170899Y-85504830D01*
X141480279Y-85632979D01*
X141758714Y-85819023D01*
X141995504Y-86055813D01*
X142181548Y-86334248D01*
X142309697Y-86643628D01*
X142375027Y-86972065D01*
X142375027Y-87306935D01*
X142309697Y-87635372D01*
X142181548Y-87944752D01*
X141995504Y-88223187D01*
X141758714Y-88459977D01*
X141480279Y-88646021D01*
X141170899Y-88774170D01*
X141061420Y-88795947D01*
X140842464Y-88839500D01*
X140507590Y-88839500D01*
X140288634Y-88795947D01*
X140179155Y-88774170D01*
X139869775Y-88646021D01*
X139591340Y-88459977D01*
X139354550Y-88223187D01*
X139168506Y-87944752D01*
X139040357Y-87635372D01*
X138975027Y-87306935D01*
X138975027Y-86972065D01*
X139040357Y-86643628D01*
X139168506Y-86334248D01*
X139354550Y-86055813D01*
X139591340Y-85819023D01*
X139869775Y-85632979D01*
X140179155Y-85504830D01*
X140288634Y-85483053D01*
X140507590Y-85439500D01*
X140842464Y-85439500D01*
X141061420Y-85483053D01*
X141061420Y-85483053D01*
G37*
G36*
X163214318Y-87114411D02*
X163286767Y-87128822D01*
X163343303Y-87152240D01*
X163423257Y-87185358D01*
X163546100Y-87267439D01*
X163650561Y-87371900D01*
X163732642Y-87494743D01*
X163789178Y-87631234D01*
X163818000Y-87776130D01*
X163818000Y-87923870D01*
X163789178Y-88068766D01*
X163732642Y-88205257D01*
X163650561Y-88328100D01*
X163546100Y-88432561D01*
X163423257Y-88514642D01*
X163377058Y-88533778D01*
X163286767Y-88571178D01*
X163214318Y-88585589D01*
X163141870Y-88600000D01*
X162994130Y-88600000D01*
X162921682Y-88585589D01*
X162849233Y-88571178D01*
X162758942Y-88533778D01*
X162712743Y-88514642D01*
X162589900Y-88432561D01*
X162485439Y-88328100D01*
X162403358Y-88205257D01*
X162346822Y-88068766D01*
X162318000Y-87923870D01*
X162318000Y-87776130D01*
X162346822Y-87631234D01*
X162403358Y-87494743D01*
X162485439Y-87371900D01*
X162589900Y-87267439D01*
X162712743Y-87185358D01*
X162792697Y-87152240D01*
X162849233Y-87128822D01*
X162921682Y-87114411D01*
X162994130Y-87100000D01*
X163141870Y-87100000D01*
X163214318Y-87114411D01*
X163214318Y-87114411D01*
G37*
G36*
X187614318Y-87114411D02*
X187686767Y-87128822D01*
X187743303Y-87152240D01*
X187823257Y-87185358D01*
X187946100Y-87267439D01*
X188050561Y-87371900D01*
X188132642Y-87494743D01*
X188189178Y-87631234D01*
X188218000Y-87776130D01*
X188218000Y-87923870D01*
X188189178Y-88068766D01*
X188132642Y-88205257D01*
X188050561Y-88328100D01*
X187946100Y-88432561D01*
X187823257Y-88514642D01*
X187777058Y-88533778D01*
X187686767Y-88571178D01*
X187614318Y-88585589D01*
X187541870Y-88600000D01*
X187394130Y-88600000D01*
X187321682Y-88585589D01*
X187249233Y-88571178D01*
X187158942Y-88533778D01*
X187112743Y-88514642D01*
X186989900Y-88432561D01*
X186885439Y-88328100D01*
X186803358Y-88205257D01*
X186746822Y-88068766D01*
X186718000Y-87923870D01*
X186718000Y-87776130D01*
X186746822Y-87631234D01*
X186803358Y-87494743D01*
X186885439Y-87371900D01*
X186989900Y-87267439D01*
X187112743Y-87185358D01*
X187192697Y-87152240D01*
X187249233Y-87128822D01*
X187321682Y-87114411D01*
X187394130Y-87100000D01*
X187541870Y-87100000D01*
X187614318Y-87114411D01*
X187614318Y-87114411D01*
G37*
G36*
X128897974Y-85745222D02*
X129161860Y-85854527D01*
X129399351Y-86013213D01*
X129601314Y-86215176D01*
X129760000Y-86452667D01*
X129869305Y-86716553D01*
X129925027Y-86996686D01*
X129925027Y-87282314D01*
X129869305Y-87562447D01*
X129760000Y-87826333D01*
X129601314Y-88063824D01*
X129399351Y-88265787D01*
X129161860Y-88424473D01*
X128897974Y-88533778D01*
X128617841Y-88589500D01*
X128332213Y-88589500D01*
X128052080Y-88533778D01*
X127788194Y-88424473D01*
X127550703Y-88265787D01*
X127348740Y-88063824D01*
X127190054Y-87826333D01*
X127080749Y-87562447D01*
X127025027Y-87282314D01*
X127025027Y-86996686D01*
X127080749Y-86716553D01*
X127190054Y-86452667D01*
X127348740Y-86215176D01*
X127550703Y-86013213D01*
X127788194Y-85854527D01*
X128052080Y-85745222D01*
X128332213Y-85689500D01*
X128617841Y-85689500D01*
X128897974Y-85745222D01*
X128897974Y-85745222D01*
G37*
G36*
X173007100Y-87010000D02*
X171407100Y-87010000D01*
X171407100Y-85710000D01*
X173007100Y-85710000D01*
X173007100Y-87010000D01*
X173007100Y-87010000D01*
G37*
G36*
X170807100Y-87010000D02*
X169207100Y-87010000D01*
X169207100Y-85710000D01*
X170807100Y-85710000D01*
X170807100Y-87010000D01*
X170807100Y-87010000D01*
G37*
G36*
X187614318Y-85114411D02*
X187686767Y-85128822D01*
X187743303Y-85152240D01*
X187823257Y-85185358D01*
X187946100Y-85267439D01*
X188050561Y-85371900D01*
X188132642Y-85494743D01*
X188189178Y-85631234D01*
X188218000Y-85776130D01*
X188218000Y-85923870D01*
X188189178Y-86068766D01*
X188132642Y-86205257D01*
X188050561Y-86328100D01*
X187946100Y-86432561D01*
X187823257Y-86514642D01*
X187743303Y-86547760D01*
X187686767Y-86571178D01*
X187614318Y-86585589D01*
X187541870Y-86600000D01*
X187394130Y-86600000D01*
X187321682Y-86585589D01*
X187249233Y-86571178D01*
X187192697Y-86547760D01*
X187112743Y-86514642D01*
X186989900Y-86432561D01*
X186885439Y-86328100D01*
X186803358Y-86205257D01*
X186746822Y-86068766D01*
X186718000Y-85923870D01*
X186718000Y-85776130D01*
X186746822Y-85631234D01*
X186803358Y-85494743D01*
X186885439Y-85371900D01*
X186989900Y-85267439D01*
X187112743Y-85185358D01*
X187192697Y-85152240D01*
X187249233Y-85128822D01*
X187321682Y-85114411D01*
X187394130Y-85100000D01*
X187541870Y-85100000D01*
X187614318Y-85114411D01*
X187614318Y-85114411D01*
G37*
G36*
X163214318Y-85114411D02*
X163286767Y-85128822D01*
X163343303Y-85152240D01*
X163423257Y-85185358D01*
X163546100Y-85267439D01*
X163650561Y-85371900D01*
X163732642Y-85494743D01*
X163789178Y-85631234D01*
X163818000Y-85776130D01*
X163818000Y-85923870D01*
X163789178Y-86068766D01*
X163732642Y-86205257D01*
X163650561Y-86328100D01*
X163546100Y-86432561D01*
X163423257Y-86514642D01*
X163343303Y-86547760D01*
X163286767Y-86571178D01*
X163214318Y-86585589D01*
X163141870Y-86600000D01*
X162994130Y-86600000D01*
X162921682Y-86585589D01*
X162849233Y-86571178D01*
X162792697Y-86547760D01*
X162712743Y-86514642D01*
X162589900Y-86432561D01*
X162485439Y-86328100D01*
X162403358Y-86205257D01*
X162346822Y-86068766D01*
X162318000Y-85923870D01*
X162318000Y-85776130D01*
X162346822Y-85631234D01*
X162403358Y-85494743D01*
X162485439Y-85371900D01*
X162589900Y-85267439D01*
X162712743Y-85185358D01*
X162792697Y-85152240D01*
X162849233Y-85128822D01*
X162921682Y-85114411D01*
X162994130Y-85100000D01*
X163141870Y-85100000D01*
X163214318Y-85114411D01*
X163214318Y-85114411D01*
G37*
G36*
X187592640Y-83110099D02*
X187686767Y-83128822D01*
X187743303Y-83152240D01*
X187823257Y-83185358D01*
X187946100Y-83267439D01*
X188050561Y-83371900D01*
X188132642Y-83494743D01*
X188189178Y-83631234D01*
X188218000Y-83776130D01*
X188218000Y-83923870D01*
X188189178Y-84068766D01*
X188132642Y-84205257D01*
X188050561Y-84328100D01*
X187946100Y-84432561D01*
X187823257Y-84514642D01*
X187743303Y-84547760D01*
X187686767Y-84571178D01*
X187614318Y-84585589D01*
X187541870Y-84600000D01*
X187394130Y-84600000D01*
X187321682Y-84585589D01*
X187249233Y-84571178D01*
X187192697Y-84547760D01*
X187112743Y-84514642D01*
X186989900Y-84432561D01*
X186885439Y-84328100D01*
X186803358Y-84205257D01*
X186746822Y-84068766D01*
X186718000Y-83923870D01*
X186718000Y-83776130D01*
X186746822Y-83631234D01*
X186803358Y-83494743D01*
X186885439Y-83371900D01*
X186989900Y-83267439D01*
X187112743Y-83185358D01*
X187192697Y-83152240D01*
X187249233Y-83128822D01*
X187343360Y-83110099D01*
X187394130Y-83100000D01*
X187541870Y-83100000D01*
X187592640Y-83110099D01*
X187592640Y-83110099D01*
G37*
G36*
X163192640Y-83110099D02*
X163286767Y-83128822D01*
X163343303Y-83152240D01*
X163423257Y-83185358D01*
X163546100Y-83267439D01*
X163650561Y-83371900D01*
X163732642Y-83494743D01*
X163789178Y-83631234D01*
X163818000Y-83776130D01*
X163818000Y-83923870D01*
X163789178Y-84068766D01*
X163732642Y-84205257D01*
X163650561Y-84328100D01*
X163546100Y-84432561D01*
X163423257Y-84514642D01*
X163343303Y-84547760D01*
X163286767Y-84571178D01*
X163214318Y-84585589D01*
X163141870Y-84600000D01*
X162994130Y-84600000D01*
X162921682Y-84585589D01*
X162849233Y-84571178D01*
X162792697Y-84547760D01*
X162712743Y-84514642D01*
X162589900Y-84432561D01*
X162485439Y-84328100D01*
X162403358Y-84205257D01*
X162346822Y-84068766D01*
X162318000Y-83923870D01*
X162318000Y-83776130D01*
X162346822Y-83631234D01*
X162403358Y-83494743D01*
X162485439Y-83371900D01*
X162589900Y-83267439D01*
X162712743Y-83185358D01*
X162792697Y-83152240D01*
X162849233Y-83128822D01*
X162943360Y-83110099D01*
X162994130Y-83100000D01*
X163141870Y-83100000D01*
X163192640Y-83110099D01*
X163192640Y-83110099D01*
G37*
G36*
X176446780Y-83694668D02*
X176446783Y-83694669D01*
X176446782Y-83694669D01*
X176474099Y-83705983D01*
X176474100Y-83705984D01*
X176498686Y-83722412D01*
X176519588Y-83743314D01*
X176519590Y-83743317D01*
X176536017Y-83767901D01*
X176544768Y-83789029D01*
X176547332Y-83795220D01*
X176553100Y-83824215D01*
X176553100Y-83853785D01*
X176547332Y-83882780D01*
X176547331Y-83882782D01*
X176536017Y-83910099D01*
X176536016Y-83910100D01*
X176519588Y-83934686D01*
X176498686Y-83955588D01*
X176498683Y-83955590D01*
X176474099Y-83972017D01*
X176452971Y-83980768D01*
X176446780Y-83983332D01*
X176417785Y-83989100D01*
X176388215Y-83989100D01*
X176359220Y-83983332D01*
X176353029Y-83980768D01*
X176331901Y-83972017D01*
X176307317Y-83955590D01*
X176307314Y-83955588D01*
X176286412Y-83934686D01*
X176269984Y-83910100D01*
X176269983Y-83910099D01*
X176258669Y-83882782D01*
X176258668Y-83882780D01*
X176252900Y-83853785D01*
X176252900Y-83824215D01*
X176258668Y-83795220D01*
X176261232Y-83789029D01*
X176269983Y-83767901D01*
X176286410Y-83743317D01*
X176286412Y-83743314D01*
X176307314Y-83722412D01*
X176331900Y-83705984D01*
X176331901Y-83705983D01*
X176359218Y-83694669D01*
X176359217Y-83694669D01*
X176359220Y-83694668D01*
X176388215Y-83688900D01*
X176417785Y-83688900D01*
X176446780Y-83694668D01*
X176446780Y-83694668D01*
G37*
G36*
X180294000Y-83835000D02*
X178694000Y-83835000D01*
X178694000Y-82535000D01*
X180294000Y-82535000D01*
X180294000Y-83835000D01*
X180294000Y-83835000D01*
G37*
G36*
X182494000Y-83835000D02*
X180894000Y-83835000D01*
X180894000Y-82535000D01*
X182494000Y-82535000D01*
X182494000Y-83835000D01*
X182494000Y-83835000D01*
G37*
G36*
X176446780Y-82894668D02*
X176446783Y-82894669D01*
X176446782Y-82894669D01*
X176474099Y-82905983D01*
X176474100Y-82905984D01*
X176498686Y-82922412D01*
X176519588Y-82943314D01*
X176519590Y-82943317D01*
X176536017Y-82967901D01*
X176544768Y-82989029D01*
X176547332Y-82995220D01*
X176553100Y-83024215D01*
X176553100Y-83053785D01*
X176547332Y-83082780D01*
X176547331Y-83082782D01*
X176536017Y-83110099D01*
X176536016Y-83110100D01*
X176519588Y-83134686D01*
X176498686Y-83155588D01*
X176498683Y-83155590D01*
X176474099Y-83172017D01*
X176452971Y-83180768D01*
X176446780Y-83183332D01*
X176417785Y-83189100D01*
X176388215Y-83189100D01*
X176359220Y-83183332D01*
X176353029Y-83180768D01*
X176331901Y-83172017D01*
X176307317Y-83155590D01*
X176307314Y-83155588D01*
X176286412Y-83134686D01*
X176269984Y-83110100D01*
X176269983Y-83110099D01*
X176258669Y-83082782D01*
X176258668Y-83082780D01*
X176252900Y-83053785D01*
X176252900Y-83024215D01*
X176258668Y-82995220D01*
X176261232Y-82989029D01*
X176269983Y-82967901D01*
X176286410Y-82943317D01*
X176286412Y-82943314D01*
X176307314Y-82922412D01*
X176331900Y-82905984D01*
X176331901Y-82905983D01*
X176359218Y-82894669D01*
X176359217Y-82894669D01*
X176359220Y-82894668D01*
X176388215Y-82888900D01*
X176417785Y-82888900D01*
X176446780Y-82894668D01*
X176446780Y-82894668D01*
G37*
G36*
X126911420Y-79433053D02*
X127020899Y-79454830D01*
X127330279Y-79582979D01*
X127608714Y-79769023D01*
X127845504Y-80005813D01*
X128031548Y-80284248D01*
X128159697Y-80593628D01*
X128159697Y-80593629D01*
X128225027Y-80922063D01*
X128225027Y-81256937D01*
X128183223Y-81467098D01*
X128159697Y-81585372D01*
X128031548Y-81894752D01*
X127845504Y-82173187D01*
X127608714Y-82409977D01*
X127330279Y-82596021D01*
X127020899Y-82724170D01*
X126911420Y-82745947D01*
X126692464Y-82789500D01*
X126357590Y-82789500D01*
X126138634Y-82745947D01*
X126029155Y-82724170D01*
X125719775Y-82596021D01*
X125441340Y-82409977D01*
X125204550Y-82173187D01*
X125018506Y-81894752D01*
X124890357Y-81585372D01*
X124866831Y-81467098D01*
X124825027Y-81256937D01*
X124825027Y-80922063D01*
X124890357Y-80593629D01*
X124890357Y-80593628D01*
X125018506Y-80284248D01*
X125204550Y-80005813D01*
X125441340Y-79769023D01*
X125719775Y-79582979D01*
X126029155Y-79454830D01*
X126138634Y-79433053D01*
X126357590Y-79389500D01*
X126692464Y-79389500D01*
X126911420Y-79433053D01*
X126911420Y-79433053D01*
G37*
G36*
X187614318Y-81114411D02*
X187686767Y-81128822D01*
X187743303Y-81152240D01*
X187823257Y-81185358D01*
X187946100Y-81267439D01*
X188050561Y-81371900D01*
X188132642Y-81494743D01*
X188165760Y-81574697D01*
X188170182Y-81585372D01*
X188189178Y-81631234D01*
X188218000Y-81776130D01*
X188218000Y-81923870D01*
X188189178Y-82068766D01*
X188132642Y-82205257D01*
X188050561Y-82328100D01*
X187946100Y-82432561D01*
X187823257Y-82514642D01*
X187774108Y-82535000D01*
X187686767Y-82571178D01*
X187614318Y-82585589D01*
X187541870Y-82600000D01*
X187394130Y-82600000D01*
X187321682Y-82585589D01*
X187249233Y-82571178D01*
X187161892Y-82535000D01*
X187112743Y-82514642D01*
X186989900Y-82432561D01*
X186885439Y-82328100D01*
X186803358Y-82205257D01*
X186746822Y-82068766D01*
X186718000Y-81923870D01*
X186718000Y-81776130D01*
X186746822Y-81631234D01*
X186765819Y-81585372D01*
X186770240Y-81574697D01*
X186803358Y-81494743D01*
X186885439Y-81371900D01*
X186989900Y-81267439D01*
X187112743Y-81185358D01*
X187192697Y-81152240D01*
X187249233Y-81128822D01*
X187321682Y-81114411D01*
X187394130Y-81100000D01*
X187541870Y-81100000D01*
X187614318Y-81114411D01*
X187614318Y-81114411D01*
G37*
G36*
X163214318Y-81114411D02*
X163286767Y-81128822D01*
X163343303Y-81152240D01*
X163423257Y-81185358D01*
X163546100Y-81267439D01*
X163650561Y-81371900D01*
X163732642Y-81494743D01*
X163765760Y-81574697D01*
X163770182Y-81585372D01*
X163789178Y-81631234D01*
X163818000Y-81776130D01*
X163818000Y-81923870D01*
X163789178Y-82068766D01*
X163732642Y-82205257D01*
X163650561Y-82328100D01*
X163546100Y-82432561D01*
X163423257Y-82514642D01*
X163374108Y-82535000D01*
X163286767Y-82571178D01*
X163214318Y-82585589D01*
X163141870Y-82600000D01*
X162994130Y-82600000D01*
X162921682Y-82585589D01*
X162849233Y-82571178D01*
X162761892Y-82535000D01*
X162712743Y-82514642D01*
X162589900Y-82432561D01*
X162485439Y-82328100D01*
X162403358Y-82205257D01*
X162346822Y-82068766D01*
X162318000Y-81923870D01*
X162318000Y-81776130D01*
X162346822Y-81631234D01*
X162365819Y-81585372D01*
X162370240Y-81574697D01*
X162403358Y-81494743D01*
X162485439Y-81371900D01*
X162589900Y-81267439D01*
X162712743Y-81185358D01*
X162792697Y-81152240D01*
X162849233Y-81128822D01*
X162921682Y-81114411D01*
X162994130Y-81100000D01*
X163141870Y-81100000D01*
X163214318Y-81114411D01*
X163214318Y-81114411D01*
G37*
G36*
X119226445Y-79822944D02*
X119366308Y-79836719D01*
X119590623Y-79904765D01*
X119797354Y-80015264D01*
X119978555Y-80163972D01*
X120127263Y-80345173D01*
X120237762Y-80551904D01*
X120305808Y-80776219D01*
X120328784Y-81009500D01*
X120305808Y-81242781D01*
X120237762Y-81467096D01*
X120127263Y-81673827D01*
X119978555Y-81855028D01*
X119797354Y-82003736D01*
X119590623Y-82114235D01*
X119366308Y-82182281D01*
X119226445Y-82196056D01*
X119191480Y-82199500D01*
X117094574Y-82199500D01*
X117059609Y-82196056D01*
X116919746Y-82182281D01*
X116695431Y-82114235D01*
X116488700Y-82003736D01*
X116307499Y-81855028D01*
X116158791Y-81673827D01*
X116048292Y-81467096D01*
X115980246Y-81242781D01*
X115957270Y-81009500D01*
X115980246Y-80776219D01*
X116048292Y-80551904D01*
X116158791Y-80345173D01*
X116307499Y-80163972D01*
X116488700Y-80015264D01*
X116695431Y-79904765D01*
X116919746Y-79836719D01*
X117059609Y-79822944D01*
X117094574Y-79819500D01*
X119191480Y-79819500D01*
X119226445Y-79822944D01*
X119226445Y-79822944D01*
G37*
G36*
X187614318Y-79114411D02*
X187686767Y-79128822D01*
X187743303Y-79152240D01*
X187823257Y-79185358D01*
X187946100Y-79267439D01*
X188050561Y-79371900D01*
X188132642Y-79494743D01*
X188189178Y-79631234D01*
X188218000Y-79776130D01*
X188218000Y-79923870D01*
X188189178Y-80068766D01*
X188132642Y-80205257D01*
X188050561Y-80328100D01*
X187946100Y-80432561D01*
X187823257Y-80514642D01*
X187743303Y-80547760D01*
X187686767Y-80571178D01*
X187614318Y-80585589D01*
X187541870Y-80600000D01*
X187394130Y-80600000D01*
X187321682Y-80585589D01*
X187249233Y-80571178D01*
X187192697Y-80547760D01*
X187112743Y-80514642D01*
X186989900Y-80432561D01*
X186885439Y-80328100D01*
X186803358Y-80205257D01*
X186746822Y-80068766D01*
X186718000Y-79923870D01*
X186718000Y-79776130D01*
X186746822Y-79631234D01*
X186803358Y-79494743D01*
X186885439Y-79371900D01*
X186989900Y-79267439D01*
X187112743Y-79185358D01*
X187192697Y-79152240D01*
X187249233Y-79128822D01*
X187321682Y-79114411D01*
X187394130Y-79100000D01*
X187541870Y-79100000D01*
X187614318Y-79114411D01*
X187614318Y-79114411D01*
G37*
G36*
X163214318Y-79114411D02*
X163286767Y-79128822D01*
X163343303Y-79152240D01*
X163423257Y-79185358D01*
X163546100Y-79267439D01*
X163650561Y-79371900D01*
X163732642Y-79494743D01*
X163789178Y-79631234D01*
X163818000Y-79776130D01*
X163818000Y-79923870D01*
X163789178Y-80068766D01*
X163732642Y-80205257D01*
X163650561Y-80328100D01*
X163546100Y-80432561D01*
X163423257Y-80514642D01*
X163343303Y-80547760D01*
X163286767Y-80571178D01*
X163214318Y-80585589D01*
X163141870Y-80600000D01*
X162994130Y-80600000D01*
X162921682Y-80585589D01*
X162849233Y-80571178D01*
X162792697Y-80547760D01*
X162712743Y-80514642D01*
X162589900Y-80432561D01*
X162485439Y-80328100D01*
X162403358Y-80205257D01*
X162346822Y-80068766D01*
X162318000Y-79923870D01*
X162318000Y-79776130D01*
X162346822Y-79631234D01*
X162403358Y-79494743D01*
X162485439Y-79371900D01*
X162589900Y-79267439D01*
X162712743Y-79185358D01*
X162792697Y-79152240D01*
X162849233Y-79128822D01*
X162921682Y-79114411D01*
X162994130Y-79100000D01*
X163141870Y-79100000D01*
X163214318Y-79114411D01*
X163214318Y-79114411D01*
G37*
G36*
X163214318Y-77114411D02*
X163286767Y-77128822D01*
X163343303Y-77152240D01*
X163423257Y-77185358D01*
X163546100Y-77267439D01*
X163650561Y-77371900D01*
X163732642Y-77494743D01*
X163789178Y-77631234D01*
X163818000Y-77776130D01*
X163818000Y-77923870D01*
X163789178Y-78068766D01*
X163732642Y-78205257D01*
X163650561Y-78328100D01*
X163546100Y-78432561D01*
X163423257Y-78514642D01*
X163343303Y-78547760D01*
X163286767Y-78571178D01*
X163214318Y-78585589D01*
X163141870Y-78600000D01*
X162994130Y-78600000D01*
X162921682Y-78585589D01*
X162849233Y-78571178D01*
X162792697Y-78547760D01*
X162712743Y-78514642D01*
X162589900Y-78432561D01*
X162485439Y-78328100D01*
X162403358Y-78205257D01*
X162346822Y-78068766D01*
X162318000Y-77923870D01*
X162318000Y-77776130D01*
X162346822Y-77631234D01*
X162403358Y-77494743D01*
X162485439Y-77371900D01*
X162589900Y-77267439D01*
X162712743Y-77185358D01*
X162792697Y-77152240D01*
X162849233Y-77128822D01*
X162921682Y-77114411D01*
X162994130Y-77100000D01*
X163141870Y-77100000D01*
X163214318Y-77114411D01*
X163214318Y-77114411D01*
G37*
G36*
X187614318Y-77114411D02*
X187686767Y-77128822D01*
X187743303Y-77152240D01*
X187823257Y-77185358D01*
X187946100Y-77267439D01*
X188050561Y-77371900D01*
X188132642Y-77494743D01*
X188189178Y-77631234D01*
X188218000Y-77776130D01*
X188218000Y-77923870D01*
X188189178Y-78068766D01*
X188132642Y-78205257D01*
X188050561Y-78328100D01*
X187946100Y-78432561D01*
X187823257Y-78514642D01*
X187743303Y-78547760D01*
X187686767Y-78571178D01*
X187614318Y-78585589D01*
X187541870Y-78600000D01*
X187394130Y-78600000D01*
X187321682Y-78585589D01*
X187249233Y-78571178D01*
X187192697Y-78547760D01*
X187112743Y-78514642D01*
X186989900Y-78432561D01*
X186885439Y-78328100D01*
X186803358Y-78205257D01*
X186746822Y-78068766D01*
X186718000Y-77923870D01*
X186718000Y-77776130D01*
X186746822Y-77631234D01*
X186803358Y-77494743D01*
X186885439Y-77371900D01*
X186989900Y-77267439D01*
X187112743Y-77185358D01*
X187192697Y-77152240D01*
X187249233Y-77128822D01*
X187321682Y-77114411D01*
X187394130Y-77100000D01*
X187541870Y-77100000D01*
X187614318Y-77114411D01*
X187614318Y-77114411D01*
G37*
G36*
X120323027Y-77199500D02*
X115963027Y-77199500D01*
X115963027Y-74819500D01*
X120323027Y-74819500D01*
X120323027Y-77199500D01*
X120323027Y-77199500D01*
G37*
G36*
X152279716Y-72687544D02*
X152680090Y-72853384D01*
X153040421Y-73094150D01*
X153346850Y-73400579D01*
X153587616Y-73760910D01*
X153753456Y-74161284D01*
X153838000Y-74586317D01*
X153838000Y-75019683D01*
X153753456Y-75444716D01*
X153587616Y-75845090D01*
X153346850Y-76205421D01*
X153040421Y-76511850D01*
X152680090Y-76752616D01*
X152279716Y-76918456D01*
X151854683Y-77003000D01*
X151421317Y-77003000D01*
X150996284Y-76918456D01*
X150595910Y-76752616D01*
X150235579Y-76511850D01*
X149929150Y-76205421D01*
X149688384Y-75845090D01*
X149522544Y-75444716D01*
X149438000Y-75019683D01*
X149438000Y-74586317D01*
X149522544Y-74161284D01*
X149688384Y-73760910D01*
X149929150Y-73400579D01*
X150235579Y-73094150D01*
X150595910Y-72853384D01*
X150996284Y-72687544D01*
X151421317Y-72603000D01*
X151854683Y-72603000D01*
X152279716Y-72687544D01*
X152279716Y-72687544D01*
G37*
G36*
X141111420Y-73433053D02*
X141220899Y-73454830D01*
X141530279Y-73582979D01*
X141808714Y-73769023D01*
X142045504Y-74005813D01*
X142231548Y-74284248D01*
X142359697Y-74593628D01*
X142425027Y-74922065D01*
X142425027Y-75256935D01*
X142359697Y-75585372D01*
X142231548Y-75894752D01*
X142045504Y-76173187D01*
X141808714Y-76409977D01*
X141530279Y-76596021D01*
X141220899Y-76724170D01*
X141111420Y-76745947D01*
X140892464Y-76789500D01*
X140557590Y-76789500D01*
X140338634Y-76745947D01*
X140229155Y-76724170D01*
X139919775Y-76596021D01*
X139641340Y-76409977D01*
X139404550Y-76173187D01*
X139218506Y-75894752D01*
X139090357Y-75585372D01*
X139025027Y-75256935D01*
X139025027Y-74922065D01*
X139090357Y-74593628D01*
X139218506Y-74284248D01*
X139404550Y-74005813D01*
X139641340Y-73769023D01*
X139919775Y-73582979D01*
X140229155Y-73454830D01*
X140338634Y-73433053D01*
X140557590Y-73389500D01*
X140892464Y-73389500D01*
X141111420Y-73433053D01*
X141111420Y-73433053D01*
G37*
G36*
X187614318Y-75114411D02*
X187686767Y-75128822D01*
X187743303Y-75152240D01*
X187823257Y-75185358D01*
X187946100Y-75267439D01*
X188050561Y-75371900D01*
X188132642Y-75494743D01*
X188165760Y-75574697D01*
X188170182Y-75585372D01*
X188189178Y-75631234D01*
X188218000Y-75776130D01*
X188218000Y-75923870D01*
X188189178Y-76068766D01*
X188132642Y-76205257D01*
X188050561Y-76328100D01*
X187946100Y-76432561D01*
X187823257Y-76514642D01*
X187777058Y-76533778D01*
X187686767Y-76571178D01*
X187614318Y-76585589D01*
X187541870Y-76600000D01*
X187394130Y-76600000D01*
X187321682Y-76585589D01*
X187249233Y-76571178D01*
X187158942Y-76533778D01*
X187112743Y-76514642D01*
X186989900Y-76432561D01*
X186885439Y-76328100D01*
X186803358Y-76205257D01*
X186746822Y-76068766D01*
X186718000Y-75923870D01*
X186718000Y-75776130D01*
X186746822Y-75631234D01*
X186765819Y-75585372D01*
X186770240Y-75574697D01*
X186803358Y-75494743D01*
X186885439Y-75371900D01*
X186989900Y-75267439D01*
X187112743Y-75185358D01*
X187192697Y-75152240D01*
X187249233Y-75128822D01*
X187321682Y-75114411D01*
X187394130Y-75100000D01*
X187541870Y-75100000D01*
X187614318Y-75114411D01*
X187614318Y-75114411D01*
G37*
G36*
X163214318Y-75114411D02*
X163286767Y-75128822D01*
X163343303Y-75152240D01*
X163423257Y-75185358D01*
X163546100Y-75267439D01*
X163650561Y-75371900D01*
X163732642Y-75494743D01*
X163765760Y-75574697D01*
X163770182Y-75585372D01*
X163789178Y-75631234D01*
X163818000Y-75776130D01*
X163818000Y-75923870D01*
X163789178Y-76068766D01*
X163732642Y-76205257D01*
X163650561Y-76328100D01*
X163546100Y-76432561D01*
X163423257Y-76514642D01*
X163377058Y-76533778D01*
X163286767Y-76571178D01*
X163214318Y-76585589D01*
X163141870Y-76600000D01*
X162994130Y-76600000D01*
X162921682Y-76585589D01*
X162849233Y-76571178D01*
X162758942Y-76533778D01*
X162712743Y-76514642D01*
X162589900Y-76432561D01*
X162485439Y-76328100D01*
X162403358Y-76205257D01*
X162346822Y-76068766D01*
X162318000Y-75923870D01*
X162318000Y-75776130D01*
X162346822Y-75631234D01*
X162365819Y-75585372D01*
X162370240Y-75574697D01*
X162403358Y-75494743D01*
X162485439Y-75371900D01*
X162589900Y-75267439D01*
X162712743Y-75185358D01*
X162792697Y-75152240D01*
X162849233Y-75128822D01*
X162921682Y-75114411D01*
X162994130Y-75100000D01*
X163141870Y-75100000D01*
X163214318Y-75114411D01*
X163214318Y-75114411D01*
G37*
G36*
X128897974Y-73745222D02*
X129161860Y-73854527D01*
X129399351Y-74013213D01*
X129601314Y-74215176D01*
X129760000Y-74452667D01*
X129869305Y-74716553D01*
X129925027Y-74996686D01*
X129925027Y-75282314D01*
X129869305Y-75562447D01*
X129760000Y-75826333D01*
X129601314Y-76063824D01*
X129399351Y-76265787D01*
X129161860Y-76424473D01*
X128897974Y-76533778D01*
X128617841Y-76589500D01*
X128332213Y-76589500D01*
X128052080Y-76533778D01*
X127788194Y-76424473D01*
X127550703Y-76265787D01*
X127348740Y-76063824D01*
X127190054Y-75826333D01*
X127080749Y-75562447D01*
X127025027Y-75282314D01*
X127025027Y-74996686D01*
X127080749Y-74716553D01*
X127190054Y-74452667D01*
X127348740Y-74215176D01*
X127550703Y-74013213D01*
X127788194Y-73854527D01*
X128052080Y-73745222D01*
X128332213Y-73689500D01*
X128617841Y-73689500D01*
X128897974Y-73745222D01*
X128897974Y-73745222D01*
G37*
G36*
X187614318Y-73114411D02*
X187686767Y-73128822D01*
X187743303Y-73152240D01*
X187823257Y-73185358D01*
X187946100Y-73267439D01*
X188050561Y-73371900D01*
X188132642Y-73494743D01*
X188189178Y-73631234D01*
X188218000Y-73776130D01*
X188218000Y-73923870D01*
X188189178Y-74068766D01*
X188132642Y-74205257D01*
X188050561Y-74328100D01*
X187946100Y-74432561D01*
X187823257Y-74514642D01*
X187743303Y-74547760D01*
X187686767Y-74571178D01*
X187614318Y-74585589D01*
X187541870Y-74600000D01*
X187394130Y-74600000D01*
X187321682Y-74585589D01*
X187249233Y-74571178D01*
X187192697Y-74547760D01*
X187112743Y-74514642D01*
X186989900Y-74432561D01*
X186885439Y-74328100D01*
X186803358Y-74205257D01*
X186746822Y-74068766D01*
X186718000Y-73923870D01*
X186718000Y-73776130D01*
X186746822Y-73631234D01*
X186803358Y-73494743D01*
X186885439Y-73371900D01*
X186989900Y-73267439D01*
X187112743Y-73185358D01*
X187192697Y-73152240D01*
X187249233Y-73128822D01*
X187321682Y-73114411D01*
X187394130Y-73100000D01*
X187541870Y-73100000D01*
X187614318Y-73114411D01*
X187614318Y-73114411D01*
G37*
G36*
X163214318Y-73114411D02*
X163286767Y-73128822D01*
X163343303Y-73152240D01*
X163423257Y-73185358D01*
X163546100Y-73267439D01*
X163650561Y-73371900D01*
X163732642Y-73494743D01*
X163789178Y-73631234D01*
X163818000Y-73776130D01*
X163818000Y-73923870D01*
X163789178Y-74068766D01*
X163732642Y-74205257D01*
X163650561Y-74328100D01*
X163546100Y-74432561D01*
X163423257Y-74514642D01*
X163343303Y-74547760D01*
X163286767Y-74571178D01*
X163214318Y-74585589D01*
X163141870Y-74600000D01*
X162994130Y-74600000D01*
X162921682Y-74585589D01*
X162849233Y-74571178D01*
X162792697Y-74547760D01*
X162712743Y-74514642D01*
X162589900Y-74432561D01*
X162485439Y-74328100D01*
X162403358Y-74205257D01*
X162346822Y-74068766D01*
X162318000Y-73923870D01*
X162318000Y-73776130D01*
X162346822Y-73631234D01*
X162403358Y-73494743D01*
X162485439Y-73371900D01*
X162589900Y-73267439D01*
X162712743Y-73185358D01*
X162792697Y-73152240D01*
X162849233Y-73128822D01*
X162921682Y-73114411D01*
X162994130Y-73100000D01*
X163141870Y-73100000D01*
X163214318Y-73114411D01*
X163214318Y-73114411D01*
G37*
G36*
X163214318Y-71114411D02*
X163286767Y-71128822D01*
X163343303Y-71152240D01*
X163423257Y-71185358D01*
X163546100Y-71267439D01*
X163650561Y-71371900D01*
X163732642Y-71494743D01*
X163789178Y-71631234D01*
X163818000Y-71776130D01*
X163818000Y-71923870D01*
X163789178Y-72068766D01*
X163732642Y-72205257D01*
X163650561Y-72328100D01*
X163546100Y-72432561D01*
X163423257Y-72514642D01*
X163343303Y-72547760D01*
X163286767Y-72571178D01*
X163214318Y-72585589D01*
X163141870Y-72600000D01*
X162994130Y-72600000D01*
X162921682Y-72585589D01*
X162849233Y-72571178D01*
X162792697Y-72547760D01*
X162712743Y-72514642D01*
X162589900Y-72432561D01*
X162485439Y-72328100D01*
X162403358Y-72205257D01*
X162346822Y-72068766D01*
X162318000Y-71923870D01*
X162318000Y-71776130D01*
X162346822Y-71631234D01*
X162403358Y-71494743D01*
X162485439Y-71371900D01*
X162589900Y-71267439D01*
X162712743Y-71185358D01*
X162792697Y-71152240D01*
X162849233Y-71128822D01*
X162921682Y-71114411D01*
X162994130Y-71100000D01*
X163141870Y-71100000D01*
X163214318Y-71114411D01*
X163214318Y-71114411D01*
G37*
G36*
X187614318Y-71114411D02*
X187686767Y-71128822D01*
X187743303Y-71152240D01*
X187823257Y-71185358D01*
X187946100Y-71267439D01*
X188050561Y-71371900D01*
X188132642Y-71494743D01*
X188189178Y-71631234D01*
X188218000Y-71776130D01*
X188218000Y-71923870D01*
X188189178Y-72068766D01*
X188132642Y-72205257D01*
X188050561Y-72328100D01*
X187946100Y-72432561D01*
X187823257Y-72514642D01*
X187743303Y-72547760D01*
X187686767Y-72571178D01*
X187614318Y-72585589D01*
X187541870Y-72600000D01*
X187394130Y-72600000D01*
X187321682Y-72585589D01*
X187249233Y-72571178D01*
X187192697Y-72547760D01*
X187112743Y-72514642D01*
X186989900Y-72432561D01*
X186885439Y-72328100D01*
X186803358Y-72205257D01*
X186746822Y-72068766D01*
X186718000Y-71923870D01*
X186718000Y-71776130D01*
X186746822Y-71631234D01*
X186803358Y-71494743D01*
X186885439Y-71371900D01*
X186989900Y-71267439D01*
X187112743Y-71185358D01*
X187192697Y-71152240D01*
X187249233Y-71128822D01*
X187321682Y-71114411D01*
X187394130Y-71100000D01*
X187541870Y-71100000D01*
X187614318Y-71114411D01*
X187614318Y-71114411D01*
G37*
G36*
X129729420Y-68923053D02*
X129838899Y-68944830D01*
X130148279Y-69072979D01*
X130426714Y-69259023D01*
X130663504Y-69495813D01*
X130849548Y-69774248D01*
X130977697Y-70083628D01*
X130982257Y-70106553D01*
X131026326Y-70328100D01*
X131043027Y-70412065D01*
X131043027Y-70746935D01*
X130977697Y-71075372D01*
X130849548Y-71384752D01*
X130663504Y-71663187D01*
X130426714Y-71899977D01*
X130148279Y-72086021D01*
X129838899Y-72214170D01*
X129729420Y-72235947D01*
X129510464Y-72279500D01*
X129175590Y-72279500D01*
X128956634Y-72235947D01*
X128847155Y-72214170D01*
X128537775Y-72086021D01*
X128259340Y-71899977D01*
X128022550Y-71663187D01*
X127836506Y-71384752D01*
X127708357Y-71075372D01*
X127643027Y-70746935D01*
X127643027Y-70412065D01*
X127659729Y-70328100D01*
X127703797Y-70106553D01*
X127708357Y-70083628D01*
X127836506Y-69774248D01*
X128022550Y-69495813D01*
X128259340Y-69259023D01*
X128537775Y-69072979D01*
X128847155Y-68944830D01*
X128956634Y-68923053D01*
X129175590Y-68879500D01*
X129510464Y-68879500D01*
X129729420Y-68923053D01*
X129729420Y-68923053D01*
G37*
G36*
X142015974Y-69135222D02*
X142279860Y-69244527D01*
X142517351Y-69403213D01*
X142719314Y-69605176D01*
X142878000Y-69842667D01*
X142987305Y-70106553D01*
X143043027Y-70386686D01*
X143043027Y-70672314D01*
X142987305Y-70952447D01*
X142878000Y-71216333D01*
X142719314Y-71453824D01*
X142517351Y-71655787D01*
X142279860Y-71814473D01*
X142015974Y-71923778D01*
X141735841Y-71979500D01*
X141450213Y-71979500D01*
X141170080Y-71923778D01*
X140906194Y-71814473D01*
X140668703Y-71655787D01*
X140466740Y-71453824D01*
X140308054Y-71216333D01*
X140198749Y-70952447D01*
X140143027Y-70672314D01*
X140143027Y-70386686D01*
X140198749Y-70106553D01*
X140308054Y-69842667D01*
X140466740Y-69605176D01*
X140668703Y-69403213D01*
X140906194Y-69244527D01*
X141170080Y-69135222D01*
X141450213Y-69079500D01*
X141735841Y-69079500D01*
X142015974Y-69135222D01*
X142015974Y-69135222D01*
G37*
G36*
X163214318Y-69114411D02*
X163286767Y-69128822D01*
X163343303Y-69152240D01*
X163423257Y-69185358D01*
X163546100Y-69267439D01*
X163650561Y-69371900D01*
X163732642Y-69494743D01*
X163789178Y-69631234D01*
X163818000Y-69776130D01*
X163818000Y-69923870D01*
X163789178Y-70068766D01*
X163732642Y-70205257D01*
X163650561Y-70328100D01*
X163546100Y-70432561D01*
X163423257Y-70514642D01*
X163343303Y-70547760D01*
X163286767Y-70571178D01*
X163214318Y-70585589D01*
X163141870Y-70600000D01*
X162994130Y-70600000D01*
X162921682Y-70585589D01*
X162849233Y-70571178D01*
X162792697Y-70547760D01*
X162712743Y-70514642D01*
X162589900Y-70432561D01*
X162485439Y-70328100D01*
X162403358Y-70205257D01*
X162346822Y-70068766D01*
X162318000Y-69923870D01*
X162318000Y-69776130D01*
X162346822Y-69631234D01*
X162403358Y-69494743D01*
X162485439Y-69371900D01*
X162589900Y-69267439D01*
X162712743Y-69185358D01*
X162792697Y-69152240D01*
X162849233Y-69128822D01*
X162921682Y-69114411D01*
X162994130Y-69100000D01*
X163141870Y-69100000D01*
X163214318Y-69114411D01*
X163214318Y-69114411D01*
G37*
G36*
X187614318Y-69114411D02*
X187686767Y-69128822D01*
X187743303Y-69152240D01*
X187823257Y-69185358D01*
X187946100Y-69267439D01*
X188050561Y-69371900D01*
X188132642Y-69494743D01*
X188189178Y-69631234D01*
X188218000Y-69776130D01*
X188218000Y-69923870D01*
X188189178Y-70068766D01*
X188132642Y-70205257D01*
X188050561Y-70328100D01*
X187946100Y-70432561D01*
X187823257Y-70514642D01*
X187743303Y-70547760D01*
X187686767Y-70571178D01*
X187614318Y-70585589D01*
X187541870Y-70600000D01*
X187394130Y-70600000D01*
X187321682Y-70585589D01*
X187249233Y-70571178D01*
X187192697Y-70547760D01*
X187112743Y-70514642D01*
X186989900Y-70432561D01*
X186885439Y-70328100D01*
X186803358Y-70205257D01*
X186746822Y-70068766D01*
X186718000Y-69923870D01*
X186718000Y-69776130D01*
X186746822Y-69631234D01*
X186803358Y-69494743D01*
X186885439Y-69371900D01*
X186989900Y-69267439D01*
X187112743Y-69185358D01*
X187192697Y-69152240D01*
X187249233Y-69128822D01*
X187321682Y-69114411D01*
X187394130Y-69100000D01*
X187541870Y-69100000D01*
X187614318Y-69114411D01*
X187614318Y-69114411D01*
G37*
G36*
X119226445Y-67884944D02*
X119366308Y-67898719D01*
X119590623Y-67966765D01*
X119797354Y-68077264D01*
X119978555Y-68225972D01*
X120127263Y-68407173D01*
X120237762Y-68613904D01*
X120305808Y-68838219D01*
X120328784Y-69071500D01*
X120305808Y-69304781D01*
X120237762Y-69529096D01*
X120127263Y-69735827D01*
X119978555Y-69917028D01*
X119797354Y-70065736D01*
X119590623Y-70176235D01*
X119366308Y-70244281D01*
X119226445Y-70258056D01*
X119191480Y-70261500D01*
X117094574Y-70261500D01*
X117059609Y-70258056D01*
X116919746Y-70244281D01*
X116695431Y-70176235D01*
X116488700Y-70065736D01*
X116307499Y-69917028D01*
X116158791Y-69735827D01*
X116048292Y-69529096D01*
X115980246Y-69304781D01*
X115957270Y-69071500D01*
X115980246Y-68838219D01*
X116048292Y-68613904D01*
X116158791Y-68407173D01*
X116307499Y-68225972D01*
X116488700Y-68077264D01*
X116695431Y-67966765D01*
X116919746Y-67898719D01*
X117059609Y-67884944D01*
X117094574Y-67881500D01*
X119191480Y-67881500D01*
X119226445Y-67884944D01*
X119226445Y-67884944D01*
G37*
G36*
X176799000Y-66289000D02*
X175499000Y-66289000D01*
X175499000Y-64689000D01*
X176799000Y-64689000D01*
X176799000Y-66289000D01*
X176799000Y-66289000D01*
G37*
G36*
X143929420Y-62923053D02*
X144038899Y-62944830D01*
X144348279Y-63072979D01*
X144626714Y-63259023D01*
X144863504Y-63495813D01*
X145049548Y-63774248D01*
X145177697Y-64083628D01*
X145243027Y-64412065D01*
X145243027Y-64746935D01*
X145177697Y-65075372D01*
X145049548Y-65384752D01*
X144863504Y-65663187D01*
X144626714Y-65899977D01*
X144348279Y-66086021D01*
X144038899Y-66214170D01*
X143929420Y-66235947D01*
X143710464Y-66279500D01*
X143375590Y-66279500D01*
X143156634Y-66235947D01*
X143047155Y-66214170D01*
X142737775Y-66086021D01*
X142459340Y-65899977D01*
X142222550Y-65663187D01*
X142036506Y-65384752D01*
X141908357Y-65075372D01*
X141843027Y-64746935D01*
X141843027Y-64412065D01*
X141908357Y-64083628D01*
X142036506Y-63774248D01*
X142222550Y-63495813D01*
X142459340Y-63259023D01*
X142737775Y-63072979D01*
X143047155Y-62944830D01*
X143156634Y-62923053D01*
X143375590Y-62879500D01*
X143710464Y-62879500D01*
X143929420Y-62923053D01*
X143929420Y-62923053D01*
G37*
G36*
X120323027Y-65261500D02*
X115963027Y-65261500D01*
X115963027Y-62881500D01*
X120323027Y-62881500D01*
X120323027Y-65261500D01*
X120323027Y-65261500D01*
G37*
G36*
X176799000Y-64089000D02*
X175499000Y-64089000D01*
X175499000Y-62489000D01*
X176799000Y-62489000D01*
X176799000Y-64089000D01*
X176799000Y-64089000D01*
G37*
G36*
X155425000Y-62297000D02*
X153825000Y-62297000D01*
X153825000Y-61147000D01*
X155425000Y-61147000D01*
X155425000Y-62297000D01*
X155425000Y-62297000D01*
G37*
G36*
X157325000Y-62297000D02*
X155725000Y-62297000D01*
X155725000Y-61147000D01*
X157325000Y-61147000D01*
X157325000Y-62297000D01*
X157325000Y-62297000D01*
G37*
G36*
X174706000Y-61356000D02*
X173106000Y-61356000D01*
X173106000Y-60056000D01*
X174706000Y-60056000D01*
X174706000Y-61356000D01*
X174706000Y-61356000D01*
G37*
G36*
X176906000Y-61356000D02*
X175306000Y-61356000D01*
X175306000Y-60056000D01*
X176906000Y-60056000D01*
X176906000Y-61356000D01*
X176906000Y-61356000D01*
G37*
G36*
X185099300Y-60867900D02*
X182692700Y-60867900D01*
X182692700Y-59807500D01*
X185099300Y-59807500D01*
X185099300Y-60867900D01*
X185099300Y-60867900D01*
G37*
G36*
X180556000Y-60463000D02*
X179646000Y-60463000D01*
X179646000Y-58663000D01*
X180556000Y-58663000D01*
X180556000Y-60463000D01*
X180556000Y-60463000D01*
G37*
G36*
X129779420Y-56873053D02*
X129888899Y-56894830D01*
X130198279Y-57022979D01*
X130476714Y-57209023D01*
X130713504Y-57445813D01*
X130899548Y-57724248D01*
X131027697Y-58033628D01*
X131093027Y-58362065D01*
X131093027Y-58696935D01*
X131027697Y-59025372D01*
X130899548Y-59334752D01*
X130713504Y-59613187D01*
X130476714Y-59849977D01*
X130198279Y-60036021D01*
X129888899Y-60164170D01*
X129779420Y-60185947D01*
X129560464Y-60229500D01*
X129225590Y-60229500D01*
X129006634Y-60185947D01*
X128897155Y-60164170D01*
X128587775Y-60036021D01*
X128309340Y-59849977D01*
X128072550Y-59613187D01*
X127886506Y-59334752D01*
X127758357Y-59025372D01*
X127693027Y-58696935D01*
X127693027Y-58362065D01*
X127758357Y-58033628D01*
X127886506Y-57724248D01*
X128072550Y-57445813D01*
X128309340Y-57209023D01*
X128587775Y-57022979D01*
X128897155Y-56894830D01*
X129006634Y-56873053D01*
X129225590Y-56829500D01*
X129560464Y-56829500D01*
X129779420Y-56873053D01*
X129779420Y-56873053D01*
G37*
G36*
X142015974Y-57135222D02*
X142279860Y-57244527D01*
X142517351Y-57403213D01*
X142719314Y-57605176D01*
X142878000Y-57842667D01*
X142987305Y-58106553D01*
X143043027Y-58386686D01*
X143043027Y-58672314D01*
X142987305Y-58952447D01*
X142878000Y-59216333D01*
X142719314Y-59453824D01*
X142517351Y-59655787D01*
X142279860Y-59814473D01*
X142015974Y-59923778D01*
X141735841Y-59979500D01*
X141450213Y-59979500D01*
X141170080Y-59923778D01*
X140906194Y-59814473D01*
X140668703Y-59655787D01*
X140466740Y-59453824D01*
X140308054Y-59216333D01*
X140198749Y-58952447D01*
X140143027Y-58672314D01*
X140143027Y-58386686D01*
X140198749Y-58106553D01*
X140308054Y-57842667D01*
X140466740Y-57605176D01*
X140668703Y-57403213D01*
X140906194Y-57244527D01*
X141170080Y-57135222D01*
X141450213Y-57079500D01*
X141735841Y-57079500D01*
X142015974Y-57135222D01*
X142015974Y-57135222D01*
G37*
G36*
X179256000Y-59963000D02*
X178346000Y-59963000D01*
X178346000Y-59163000D01*
X179256000Y-59163000D01*
X179256000Y-59963000D01*
X179256000Y-59963000D01*
G37*
G36*
X157325000Y-59630000D02*
X155725000Y-59630000D01*
X155725000Y-58480000D01*
X157325000Y-58480000D01*
X157325000Y-59630000D01*
X157325000Y-59630000D01*
G37*
G36*
X155425000Y-59630000D02*
X153825000Y-59630000D01*
X153825000Y-58480000D01*
X155425000Y-58480000D01*
X155425000Y-59630000D01*
X155425000Y-59630000D01*
G37*
G36*
X185099300Y-59318500D02*
X182692700Y-59318500D01*
X182692700Y-58258100D01*
X185099300Y-58258100D01*
X185099300Y-59318500D01*
X185099300Y-59318500D01*
G37*
G36*
X159579000Y-59281000D02*
X158429000Y-59281000D01*
X158429000Y-57681000D01*
X159579000Y-57681000D01*
X159579000Y-59281000D01*
X159579000Y-59281000D01*
G37*
G36*
X152765100Y-57540500D02*
X151476100Y-57540500D01*
X151476100Y-55375200D01*
X152765100Y-55375200D01*
X152765100Y-57540500D01*
X152765100Y-57540500D01*
G37*
G36*
X157387900Y-57540500D02*
X156098900Y-57540500D01*
X156098900Y-55375200D01*
X157387900Y-55375200D01*
X157387900Y-57540500D01*
X157387900Y-57540500D01*
G37*
G36*
X155076500Y-57540500D02*
X153787500Y-57540500D01*
X153787500Y-55375200D01*
X155076500Y-55375200D01*
X155076500Y-57540500D01*
X155076500Y-57540500D01*
G37*
G36*
X159579000Y-57381000D02*
X158429000Y-57381000D01*
X158429000Y-55781000D01*
X159579000Y-55781000D01*
X159579000Y-57381000D01*
X159579000Y-57381000D01*
G37*
G36*
X176633351Y-54850227D02*
X176771005Y-54877608D01*
X176943894Y-54949221D01*
X177099490Y-55053187D01*
X177231813Y-55185510D01*
X177335779Y-55341106D01*
X177393418Y-55480258D01*
X177404967Y-55501864D01*
X177420512Y-55520806D01*
X177439454Y-55536351D01*
X177461065Y-55547902D01*
X177484514Y-55555015D01*
X177508900Y-55557417D01*
X177533287Y-55555015D01*
X177556736Y-55547902D01*
X177578347Y-55536350D01*
X177597289Y-55520805D01*
X177612834Y-55501863D01*
X177624382Y-55480258D01*
X177682021Y-55341106D01*
X177785987Y-55185510D01*
X177918310Y-55053187D01*
X178073906Y-54949221D01*
X178246795Y-54877608D01*
X178384449Y-54850227D01*
X178430332Y-54841100D01*
X178617468Y-54841100D01*
X178663351Y-54850227D01*
X178801005Y-54877608D01*
X178973894Y-54949221D01*
X179129490Y-55053187D01*
X179261813Y-55185510D01*
X179365779Y-55341106D01*
X179437392Y-55513995D01*
X179473900Y-55697533D01*
X179473900Y-55884667D01*
X179437392Y-56068205D01*
X179365779Y-56241094D01*
X179261813Y-56396690D01*
X179129490Y-56529013D01*
X178973894Y-56632979D01*
X178801005Y-56704592D01*
X178663351Y-56731973D01*
X178617468Y-56741100D01*
X178430332Y-56741100D01*
X178384449Y-56731973D01*
X178246795Y-56704592D01*
X178073906Y-56632979D01*
X177918310Y-56529013D01*
X177785987Y-56396690D01*
X177682021Y-56241094D01*
X177624382Y-56101942D01*
X177612833Y-56080336D01*
X177597288Y-56061394D01*
X177578346Y-56045849D01*
X177556735Y-56034298D01*
X177533286Y-56027185D01*
X177508900Y-56024783D01*
X177484513Y-56027185D01*
X177461064Y-56034298D01*
X177439453Y-56045850D01*
X177420511Y-56061395D01*
X177404966Y-56080337D01*
X177393418Y-56101942D01*
X177335779Y-56241094D01*
X177231813Y-56396690D01*
X177099490Y-56529013D01*
X176943894Y-56632979D01*
X176771005Y-56704592D01*
X176633351Y-56731973D01*
X176587468Y-56741100D01*
X176400332Y-56741100D01*
X176354449Y-56731973D01*
X176216795Y-56704592D01*
X176043906Y-56632979D01*
X175888310Y-56529013D01*
X175755987Y-56396690D01*
X175652021Y-56241094D01*
X175580408Y-56068205D01*
X175543900Y-55884667D01*
X175543900Y-55697533D01*
X175580408Y-55513995D01*
X175652021Y-55341106D01*
X175755987Y-55185510D01*
X175888310Y-55053187D01*
X176043906Y-54949221D01*
X176216795Y-54877608D01*
X176354449Y-54850227D01*
X176400332Y-54841100D01*
X176587468Y-54841100D01*
X176633351Y-54850227D01*
X176633351Y-54850227D01*
G37*
G36*
X181203351Y-54850227D02*
X181341005Y-54877608D01*
X181513894Y-54949221D01*
X181669490Y-55053187D01*
X181801813Y-55185510D01*
X181905779Y-55341106D01*
X181977392Y-55513995D01*
X182013900Y-55697533D01*
X182013900Y-55884667D01*
X181977392Y-56068205D01*
X181905779Y-56241094D01*
X181801813Y-56396690D01*
X181669490Y-56529013D01*
X181513894Y-56632979D01*
X181341005Y-56704592D01*
X181203351Y-56731973D01*
X181157468Y-56741100D01*
X180970332Y-56741100D01*
X180924449Y-56731973D01*
X180786795Y-56704592D01*
X180613906Y-56632979D01*
X180458310Y-56529013D01*
X180325987Y-56396690D01*
X180222021Y-56241094D01*
X180150408Y-56068205D01*
X180113900Y-55884667D01*
X180113900Y-55697533D01*
X180150408Y-55513995D01*
X180222021Y-55341106D01*
X180325987Y-55185510D01*
X180458310Y-55053187D01*
X180613906Y-54949221D01*
X180786795Y-54877608D01*
X180924449Y-54850227D01*
X180970332Y-54841100D01*
X181157468Y-54841100D01*
X181203351Y-54850227D01*
X181203351Y-54850227D01*
G37*
G36*
X174093351Y-54850227D02*
X174231005Y-54877608D01*
X174403894Y-54949221D01*
X174559490Y-55053187D01*
X174691813Y-55185510D01*
X174795779Y-55341106D01*
X174867392Y-55513995D01*
X174903900Y-55697533D01*
X174903900Y-55884667D01*
X174867392Y-56068205D01*
X174795779Y-56241094D01*
X174691813Y-56396690D01*
X174559490Y-56529013D01*
X174403894Y-56632979D01*
X174231005Y-56704592D01*
X174093351Y-56731973D01*
X174047468Y-56741100D01*
X173860332Y-56741100D01*
X173814449Y-56731973D01*
X173676795Y-56704592D01*
X173503906Y-56632979D01*
X173348310Y-56529013D01*
X173215987Y-56396690D01*
X173112021Y-56241094D01*
X173040408Y-56068205D01*
X173003900Y-55884667D01*
X173003900Y-55697533D01*
X173040408Y-55513995D01*
X173112021Y-55341106D01*
X173215987Y-55185510D01*
X173348310Y-55053187D01*
X173503906Y-54949221D01*
X173676795Y-54877608D01*
X173814449Y-54850227D01*
X173860332Y-54841100D01*
X174047468Y-54841100D01*
X174093351Y-54850227D01*
X174093351Y-54850227D01*
G37*
G36*
X120616000Y-55926000D02*
X116716000Y-55926000D01*
X116716000Y-52026000D01*
X120616000Y-52026000D01*
X120616000Y-55926000D01*
X120616000Y-55926000D01*
G37*
G36*
X134150000Y-55768000D02*
X132550000Y-55768000D01*
X132550000Y-54468000D01*
X134150000Y-54468000D01*
X134150000Y-55768000D01*
X134150000Y-55768000D01*
G37*
G36*
X136350000Y-55768000D02*
X134750000Y-55768000D01*
X134750000Y-54468000D01*
X136350000Y-54468000D01*
X136350000Y-55768000D01*
X136350000Y-55768000D01*
G37*
G36*
X171290293Y-51464653D02*
X171399772Y-51486430D01*
X171709152Y-51614579D01*
X171987587Y-51800623D01*
X172224377Y-52037413D01*
X172410421Y-52315848D01*
X172538570Y-52625228D01*
X172603900Y-52953665D01*
X172603900Y-53288535D01*
X172538570Y-53616972D01*
X172410421Y-53926352D01*
X172224377Y-54204787D01*
X171987587Y-54441577D01*
X171709152Y-54627621D01*
X171399772Y-54755770D01*
X171290293Y-54777547D01*
X171071337Y-54821100D01*
X170736463Y-54821100D01*
X170517507Y-54777547D01*
X170408028Y-54755770D01*
X170098648Y-54627621D01*
X169820213Y-54441577D01*
X169583423Y-54204787D01*
X169397379Y-53926352D01*
X169269230Y-53616972D01*
X169203900Y-53288535D01*
X169203900Y-52953665D01*
X169269230Y-52625228D01*
X169397379Y-52315848D01*
X169583423Y-52037413D01*
X169820213Y-51800623D01*
X170098648Y-51614579D01*
X170408028Y-51486430D01*
X170517507Y-51464653D01*
X170736463Y-51421100D01*
X171071337Y-51421100D01*
X171290293Y-51464653D01*
X171290293Y-51464653D01*
G37*
G36*
X185010293Y-51464653D02*
X185119772Y-51486430D01*
X185429152Y-51614579D01*
X185707587Y-51800623D01*
X185944377Y-52037413D01*
X186130421Y-52315848D01*
X186258570Y-52625228D01*
X186323900Y-52953665D01*
X186323900Y-53288535D01*
X186258570Y-53616972D01*
X186130421Y-53926352D01*
X185944377Y-54204787D01*
X185707587Y-54441577D01*
X185429152Y-54627621D01*
X185119772Y-54755770D01*
X185010293Y-54777547D01*
X184791337Y-54821100D01*
X184456463Y-54821100D01*
X184237507Y-54777547D01*
X184128028Y-54755770D01*
X183818648Y-54627621D01*
X183540213Y-54441577D01*
X183303423Y-54204787D01*
X183117379Y-53926352D01*
X182989230Y-53616972D01*
X182923900Y-53288535D01*
X182923900Y-52953665D01*
X182989230Y-52625228D01*
X183117379Y-52315848D01*
X183303423Y-52037413D01*
X183540213Y-51800623D01*
X183818648Y-51614579D01*
X184128028Y-51486430D01*
X184237507Y-51464653D01*
X184456463Y-51421100D01*
X184791337Y-51421100D01*
X185010293Y-51464653D01*
X185010293Y-51464653D01*
G37*
G36*
X156206800Y-51304800D02*
X152657200Y-51304800D01*
X152657200Y-49139500D01*
X156206800Y-49139500D01*
X156206800Y-51304800D01*
X156206800Y-51304800D01*
G37*
G36*
X117616000Y-51226000D02*
X113716000Y-51226000D01*
X113716000Y-47326000D01*
X117616000Y-47326000D01*
X117616000Y-51226000D01*
X117616000Y-51226000D01*
G37*
G36*
X123616000Y-51226000D02*
X119716000Y-51226000D01*
X119716000Y-47326000D01*
X123616000Y-47326000D01*
X123616000Y-51226000D01*
X123616000Y-51226000D01*
G37*
G36*
X143759000Y-49164000D02*
X142159000Y-49164000D01*
X142159000Y-47864000D01*
X143759000Y-47864000D01*
X143759000Y-49164000D01*
X143759000Y-49164000D01*
G37*
G36*
X141559000Y-49164000D02*
X139959000Y-49164000D01*
X139959000Y-47864000D01*
X141559000Y-47864000D01*
X141559000Y-49164000D01*
X141559000Y-49164000D01*
G37*
M02*
