G04 #@! TF.GenerationSoftware,KiCad,Pcbnew,5.0.0-fee4fd1~66~ubuntu16.04.1*
G04 #@! TF.CreationDate,2018-10-21T13:34:44-05:00*
G04 #@! TF.ProjectId,design_emb,64657369676E5F656D622E6B69636164,rev?*
G04 #@! TF.SameCoordinates,Original*
G04 #@! TF.FileFunction,Legend,Bot*
G04 #@! TF.FilePolarity,Positive*
%FSLAX46Y46*%
G04 Gerber Fmt 4.6, Leading zero omitted, Abs format (unit mm)*
G04 Created by KiCad (PCBNEW 5.0.0-fee4fd1~66~ubuntu16.04.1) date Sun Oct 21 13:34:44 2018*
%MOMM*%
%LPD*%
G01*
G04 APERTURE LIST*
%ADD10C,0.120000*%
%ADD11C,0.150000*%
%ADD12C,0.152400*%
%ADD13C,0.100000*%
G04 APERTURE END LIST*
D10*
G04 #@! TO.C,L8*
X119336100Y-125764400D02*
X118136100Y-125764400D01*
X118136100Y-127524400D02*
X119336100Y-127524400D01*
D11*
G04 #@! TO.C,ICE40HX1K*
X145765918Y-97152638D02*
X145076488Y-97842068D01*
X160155541Y-111542261D02*
X159413078Y-112284724D01*
X145765918Y-125931884D02*
X146508380Y-125189422D01*
X131376295Y-111542261D02*
X132118757Y-110799799D01*
X145765918Y-97152638D02*
X146508380Y-97895101D01*
X131376295Y-111542261D02*
X132118757Y-112284724D01*
X145765918Y-125931884D02*
X145023455Y-125189422D01*
X160155541Y-111542261D02*
X159413078Y-110799799D01*
X145076488Y-97842068D02*
X144157250Y-96922829D01*
D10*
G04 #@! TO.C,C1*
X137844777Y-100239751D02*
X138339751Y-99744777D01*
X137491223Y-98896249D02*
X136996249Y-99391223D01*
G04 #@! TO.C,C23*
X135332223Y-120016349D02*
X134837249Y-120511323D01*
X135685777Y-121359851D02*
X136180751Y-120864877D01*
G04 #@! TO.C,C24*
X156272477Y-120039051D02*
X156767451Y-119544077D01*
X155918923Y-118695549D02*
X155423949Y-119190523D01*
G04 #@! TO.C,C25*
X160998923Y-106427349D02*
X160503949Y-106922323D01*
X161352477Y-107770851D02*
X161847451Y-107275877D01*
G04 #@! TO.C,C26*
X125318000Y-110271000D02*
X124618000Y-110271000D01*
X124618000Y-111471000D02*
X125318000Y-111471000D01*
G04 #@! TO.C,C27*
X139192000Y-97089128D02*
X139686974Y-97584102D01*
X140535502Y-96735574D02*
X140040528Y-96240600D01*
G04 #@! TO.C,C28*
X128555001Y-121631000D02*
X129254999Y-121631000D01*
X129254999Y-120431000D02*
X128555001Y-120431000D01*
G04 #@! TO.C,C29*
X136625577Y-123976051D02*
X137120551Y-123481077D01*
X136272023Y-122632549D02*
X135777049Y-123127523D01*
G04 #@! TO.C,C30*
X143346249Y-129208777D02*
X143841223Y-129703751D01*
X144689751Y-128855223D02*
X144194777Y-128360249D01*
G04 #@! TO.C,C31*
X158990277Y-117257751D02*
X159485251Y-116762777D01*
X158636723Y-115914249D02*
X158141749Y-116409223D01*
G04 #@! TO.C,C32*
X155982423Y-101347349D02*
X155487449Y-101842323D01*
X156335977Y-102690851D02*
X156830951Y-102195877D01*
G04 #@! TO.C,C33*
X153124923Y-98693049D02*
X152629949Y-99188023D01*
X153478477Y-100036551D02*
X153973451Y-99541577D01*
G04 #@! TO.C,C34*
X153251923Y-121349849D02*
X152756949Y-121844823D01*
X153605477Y-122693351D02*
X154100451Y-122198377D01*
G04 #@! TO.C,C36*
X131816400Y-138348200D02*
X131816400Y-137648200D01*
X130616400Y-137648200D02*
X130616400Y-138348200D01*
G04 #@! TO.C,C38*
X156179000Y-47533000D02*
X155479000Y-47533000D01*
X155479000Y-48733000D02*
X156179000Y-48733000D01*
G04 #@! TO.C,C39*
X148498000Y-62073000D02*
X148498000Y-62773000D01*
X149698000Y-62773000D02*
X149698000Y-62073000D01*
G04 #@! TO.C,C41*
X155925000Y-58455000D02*
X155225000Y-58455000D01*
X155225000Y-59655000D02*
X155925000Y-59655000D01*
G04 #@! TO.C,C42*
X148752000Y-66452000D02*
X148752000Y-67152000D01*
X149952000Y-67152000D02*
X149952000Y-66452000D01*
G04 #@! TO.C,C44*
X155225000Y-61179000D02*
X155925000Y-61179000D01*
X155925000Y-59979000D02*
X155225000Y-59979000D01*
G04 #@! TO.C,C45*
X147539000Y-67152000D02*
X147539000Y-66452000D01*
X146339000Y-66452000D02*
X146339000Y-67152000D01*
G04 #@! TO.C,C46*
X183738000Y-69250000D02*
X183038000Y-69250000D01*
X183038000Y-70450000D02*
X183738000Y-70450000D01*
G04 #@! TO.C,C47*
X166720000Y-69250000D02*
X166020000Y-69250000D01*
X166020000Y-70450000D02*
X166720000Y-70450000D01*
G04 #@! TO.C,C48*
X183038000Y-72482000D02*
X183738000Y-72482000D01*
X183738000Y-71282000D02*
X183038000Y-71282000D01*
G04 #@! TO.C,C49*
X164246000Y-47910000D02*
X164246000Y-48610000D01*
X165446000Y-48610000D02*
X165446000Y-47910000D01*
G04 #@! TO.C,C50*
X167732000Y-48610000D02*
X167732000Y-47910000D01*
X166532000Y-47910000D02*
X166532000Y-48610000D01*
G04 #@! TO.C,C51*
X166528000Y-99816201D02*
X167228000Y-99816201D01*
X167228000Y-98616201D02*
X166528000Y-98616201D01*
G04 #@! TO.C,C52*
X173955000Y-82519000D02*
X173955000Y-81819000D01*
X172755000Y-81819000D02*
X172755000Y-82519000D01*
G04 #@! TO.C,C53*
X130484400Y-105635500D02*
X129784400Y-105635500D01*
X129784400Y-106835500D02*
X130484400Y-106835500D01*
G04 #@! TO.C,D5*
X161052000Y-46518000D02*
X161052000Y-50418000D01*
X163052000Y-46518000D02*
X163052000Y-50418000D01*
X161052000Y-46518000D02*
X163052000Y-46518000D01*
G04 #@! TO.C,D7*
X133620000Y-68362000D02*
X135620000Y-68362000D01*
X135620000Y-68362000D02*
X135620000Y-72262000D01*
X133620000Y-68362000D02*
X133620000Y-72262000D01*
G04 #@! TO.C,D8*
X137958000Y-80248000D02*
X141858000Y-80248000D01*
X137958000Y-78248000D02*
X141858000Y-78248000D01*
X137958000Y-80248000D02*
X137958000Y-78248000D01*
G04 #@! TO.C,D11*
X134382000Y-58202000D02*
X134382000Y-62102000D01*
X136382000Y-58202000D02*
X136382000Y-62102000D01*
X134382000Y-58202000D02*
X136382000Y-58202000D01*
G04 #@! TO.C,D12*
X133080000Y-87848000D02*
X131080000Y-87848000D01*
X131080000Y-87848000D02*
X131080000Y-83948000D01*
X133080000Y-87848000D02*
X133080000Y-83948000D01*
G04 #@! TO.C,L3*
X170977000Y-50156000D02*
X172177000Y-50156000D01*
X172177000Y-48396000D02*
X170977000Y-48396000D01*
G04 #@! TO.C,R5*
X131985300Y-130827400D02*
X131985300Y-129827400D01*
X130625300Y-129827400D02*
X130625300Y-130827400D01*
G04 #@! TO.C,R6*
X141359000Y-49194000D02*
X142359000Y-49194000D01*
X142359000Y-47834000D02*
X141359000Y-47834000D01*
G04 #@! TO.C,R7*
X163838000Y-103042000D02*
X164838000Y-103042000D01*
X164838000Y-101682000D02*
X163838000Y-101682000D01*
G04 #@! TO.C,R10*
X175903000Y-87802000D02*
X176903000Y-87802000D01*
X176903000Y-86442000D02*
X175903000Y-86442000D01*
G04 #@! TO.C,R12*
X131818000Y-66630000D02*
X130818000Y-66630000D01*
X130818000Y-67990000D02*
X131818000Y-67990000D01*
G04 #@! TO.C,R13*
X135120000Y-77552000D02*
X134120000Y-77552000D01*
X134120000Y-78912000D02*
X135120000Y-78912000D01*
G04 #@! TO.C,R14*
X132670000Y-59952000D02*
X132670000Y-60952000D01*
X134030000Y-60952000D02*
X134030000Y-59952000D01*
G04 #@! TO.C,R15*
X135046000Y-85844000D02*
X135046000Y-84844000D01*
X133686000Y-84844000D02*
X133686000Y-85844000D01*
G04 #@! TO.C,SRX.X.*
X176854000Y-114959800D02*
X179254000Y-114959800D01*
X179254000Y-118059800D02*
X176304000Y-118059800D01*
X179177800Y-113678300D02*
X176227800Y-113678300D01*
X176777800Y-110578300D02*
X179177800Y-110578300D01*
D12*
G04 #@! TO.C,U6*
X149936200Y-49764950D02*
G75*
G03X149936200Y-49764950I-127000J0D01*
G01*
X152642258Y-55391050D02*
X150952200Y-55391050D01*
X157402842Y-51428650D02*
X157911800Y-51428650D01*
X155091442Y-51428650D02*
X156083958Y-51428650D01*
X152780042Y-51428650D02*
X153772558Y-51428650D01*
X150952200Y-55391050D02*
X150952200Y-51428650D01*
X157911800Y-55391050D02*
X156221742Y-55391050D01*
X157911800Y-51428650D02*
X157911800Y-55391050D01*
X150952200Y-51428650D02*
X151461158Y-51428650D01*
G04 #@! TO.C,U7*
X152958800Y-69265800D02*
X152958800Y-68756842D01*
X152958800Y-62306200D02*
X156921200Y-62306200D01*
X156921200Y-62306200D02*
X156921200Y-63996258D01*
X156921200Y-69265800D02*
X152958800Y-69265800D01*
X152958800Y-67437958D02*
X152958800Y-66445442D01*
X152958800Y-65126558D02*
X152958800Y-64134042D01*
X152958800Y-62815158D02*
X152958800Y-62306200D01*
X156921200Y-67575742D02*
X156921200Y-69265800D01*
X151422100Y-70408800D02*
G75*
G03X151422100Y-70408800I-127000J0D01*
G01*
D13*
G04 #@! TO.C,U10*
X177503000Y-82339000D02*
X177503000Y-82439000D01*
X177503000Y-84539000D02*
X177503000Y-84439000D01*
X175303000Y-84439000D02*
X175103000Y-84439000D01*
X175303000Y-82439000D02*
X175303000Y-82339000D01*
X175303000Y-82339000D02*
X175503000Y-82339000D01*
X177503000Y-82339000D02*
X177303000Y-82339000D01*
X177503000Y-84539000D02*
X177303000Y-84539000D01*
X175603000Y-84539000D02*
X175303000Y-84539000D01*
X175303000Y-84539000D02*
X175303000Y-84439000D01*
D10*
G04 #@! TO.C,Q1*
X131824000Y-62936000D02*
X130364000Y-62936000D01*
X131824000Y-66096000D02*
X129664000Y-66096000D01*
X131824000Y-66096000D02*
X131824000Y-65166000D01*
X131824000Y-62936000D02*
X131824000Y-63866000D01*
G04 #@! TO.C,Q2*
X135946000Y-82040000D02*
X135016000Y-82040000D01*
X132786000Y-82040000D02*
X133716000Y-82040000D01*
X132786000Y-82040000D02*
X132786000Y-79880000D01*
X135946000Y-82040000D02*
X135946000Y-80580000D01*
G04 #@! TO.C,L4*
X177060300Y-109947600D02*
X178260300Y-109947600D01*
X178260300Y-108187600D02*
X177060300Y-108187600D01*
G04 #@! TO.C,L5*
X178247600Y-105774600D02*
X177047600Y-105774600D01*
X177047600Y-107534600D02*
X178247600Y-107534600D01*
G04 #@! TO.C,L6*
X134230000Y-136871000D02*
X134230000Y-135671000D01*
X132470000Y-135671000D02*
X132470000Y-136871000D01*
G04 #@! TO.C,L7*
X118145000Y-93336000D02*
X119345000Y-93336000D01*
X119345000Y-91576000D02*
X118145000Y-91576000D01*
G04 #@! TO.C,C5*
X124618000Y-113376000D02*
X125318000Y-113376000D01*
X125318000Y-112176000D02*
X124618000Y-112176000D01*
G04 #@! TO.C,R19*
X127336000Y-111514000D02*
X127336000Y-112514000D01*
X128696000Y-112514000D02*
X128696000Y-111514000D01*
G04 #@! TO.C,L8*
D11*
X118902766Y-124996780D02*
X119378957Y-124996780D01*
X119378957Y-123996780D01*
X118426576Y-124425352D02*
X118521814Y-124377733D01*
X118569433Y-124330114D01*
X118617052Y-124234876D01*
X118617052Y-124187257D01*
X118569433Y-124092019D01*
X118521814Y-124044400D01*
X118426576Y-123996780D01*
X118236100Y-123996780D01*
X118140861Y-124044400D01*
X118093242Y-124092019D01*
X118045623Y-124187257D01*
X118045623Y-124234876D01*
X118093242Y-124330114D01*
X118140861Y-124377733D01*
X118236100Y-124425352D01*
X118426576Y-124425352D01*
X118521814Y-124472971D01*
X118569433Y-124520590D01*
X118617052Y-124615828D01*
X118617052Y-124806304D01*
X118569433Y-124901542D01*
X118521814Y-124949161D01*
X118426576Y-124996780D01*
X118236100Y-124996780D01*
X118140861Y-124949161D01*
X118093242Y-124901542D01*
X118045623Y-124806304D01*
X118045623Y-124615828D01*
X118093242Y-124520590D01*
X118140861Y-124472971D01*
X118236100Y-124425352D01*
G04 #@! TO.C,ICE40HX1K*
X154570367Y-108156629D02*
X155277473Y-107449522D01*
X153896932Y-107348507D02*
X153896932Y-107415850D01*
X153964275Y-107550537D01*
X154031619Y-107617881D01*
X154166306Y-107685224D01*
X154300993Y-107685224D01*
X154402008Y-107651553D01*
X154570367Y-107550537D01*
X154671382Y-107449522D01*
X154772397Y-107281163D01*
X154806069Y-107180148D01*
X154806069Y-107045461D01*
X154738725Y-106910774D01*
X154671382Y-106843431D01*
X154536695Y-106776087D01*
X154469351Y-106776087D01*
X153896932Y-106742415D02*
X153661229Y-106506713D01*
X153189825Y-106776087D02*
X153526542Y-107112805D01*
X154233649Y-106405698D01*
X153896932Y-106068980D01*
X153055138Y-105698591D02*
X152583733Y-106169996D01*
X153492871Y-105597576D02*
X153156153Y-106271011D01*
X152718420Y-105833278D01*
X152785764Y-104957812D02*
X152718420Y-104890469D01*
X152617405Y-104856797D01*
X152550062Y-104856797D01*
X152449046Y-104890469D01*
X152280688Y-104991484D01*
X152112329Y-105159843D01*
X152011313Y-105328202D01*
X151977642Y-105429217D01*
X151977642Y-105496561D01*
X152011313Y-105597576D01*
X152078657Y-105664919D01*
X152179672Y-105698591D01*
X152247016Y-105698591D01*
X152348031Y-105664919D01*
X152516390Y-105563904D01*
X152684749Y-105395545D01*
X152785764Y-105227187D01*
X152819436Y-105126171D01*
X152819436Y-105058828D01*
X152785764Y-104957812D01*
X151539909Y-105126171D02*
X152247016Y-104419064D01*
X151910298Y-104755782D02*
X151506237Y-104351721D01*
X151135848Y-104722110D02*
X151842955Y-104015003D01*
X151573581Y-103745629D02*
X150395069Y-103981332D01*
X151102176Y-103274225D02*
X150866474Y-104452736D01*
X149755306Y-103341568D02*
X150159367Y-103745629D01*
X149957337Y-103543599D02*
X150664443Y-102836492D01*
X150630772Y-103004851D01*
X150630772Y-103139538D01*
X150664443Y-103240553D01*
X149452260Y-103038523D02*
X150159367Y-102331416D01*
X149048199Y-102634462D02*
X149755306Y-102533446D01*
X149755306Y-101927355D02*
X149755306Y-102735477D01*
G04 #@! TO.C,C1*
X138922272Y-100586570D02*
X138989615Y-100586570D01*
X139124302Y-100519226D01*
X139191646Y-100451883D01*
X139258989Y-100317195D01*
X139258989Y-100182508D01*
X139225318Y-100081493D01*
X139124302Y-99913134D01*
X139023287Y-99812119D01*
X138854928Y-99711104D01*
X138753913Y-99677432D01*
X138619226Y-99677432D01*
X138484539Y-99744776D01*
X138417195Y-99812119D01*
X138349852Y-99946806D01*
X138349852Y-100014150D01*
X138316180Y-101327348D02*
X138720241Y-100923287D01*
X138518211Y-101125318D02*
X137811104Y-100418211D01*
X137979463Y-100451883D01*
X138114150Y-100451883D01*
X138215165Y-100418211D01*
G04 #@! TO.C,C23*
X135332223Y-119602186D02*
X135399567Y-119602186D01*
X135534254Y-119534842D01*
X135601597Y-119467499D01*
X135668941Y-119332812D01*
X135668941Y-119198125D01*
X135635269Y-119097110D01*
X135534254Y-118928751D01*
X135433239Y-118827736D01*
X135264880Y-118726720D01*
X135163865Y-118693049D01*
X135029178Y-118693049D01*
X134894491Y-118760392D01*
X134827147Y-118827736D01*
X134759804Y-118962423D01*
X134759804Y-119029766D01*
X134490429Y-119299140D02*
X134423086Y-119299140D01*
X134322071Y-119332812D01*
X134153712Y-119501171D01*
X134120040Y-119602186D01*
X134120040Y-119669529D01*
X134153712Y-119770545D01*
X134221055Y-119837888D01*
X134355742Y-119905232D01*
X135163865Y-119905232D01*
X134726132Y-120342965D01*
X133783323Y-119871560D02*
X133345590Y-120309293D01*
X133850666Y-120342965D01*
X133749651Y-120443980D01*
X133715979Y-120544995D01*
X133715979Y-120612339D01*
X133749651Y-120713354D01*
X133918010Y-120881713D01*
X134019025Y-120915384D01*
X134086368Y-120915384D01*
X134187384Y-120881713D01*
X134389414Y-120679682D01*
X134423086Y-120578667D01*
X134423086Y-120511323D01*
G04 #@! TO.C,C24*
X157686689Y-120049152D02*
X157754033Y-120049152D01*
X157888720Y-119981808D01*
X157956063Y-119914465D01*
X158023407Y-119779778D01*
X158023407Y-119645091D01*
X157989735Y-119544076D01*
X157888720Y-119375717D01*
X157787705Y-119274702D01*
X157619346Y-119173686D01*
X157518331Y-119140015D01*
X157383644Y-119140015D01*
X157248957Y-119207358D01*
X157181613Y-119274702D01*
X157114270Y-119409389D01*
X157114270Y-119476732D01*
X156844895Y-119746106D02*
X156777552Y-119746106D01*
X156676537Y-119779778D01*
X156508178Y-119948137D01*
X156474506Y-120049152D01*
X156474506Y-120116495D01*
X156508178Y-120217511D01*
X156575521Y-120284854D01*
X156710208Y-120352198D01*
X157518331Y-120352198D01*
X157080598Y-120789931D01*
X156003102Y-120924618D02*
X156474506Y-121396022D01*
X155902086Y-120486885D02*
X156575521Y-120823602D01*
X156137789Y-121261335D01*
G04 #@! TO.C,C25*
X162766689Y-107780952D02*
X162834033Y-107780952D01*
X162968720Y-107713608D01*
X163036063Y-107646265D01*
X163103407Y-107511578D01*
X163103407Y-107376891D01*
X163069735Y-107275876D01*
X162968720Y-107107517D01*
X162867705Y-107006502D01*
X162699346Y-106905486D01*
X162598331Y-106871815D01*
X162463644Y-106871815D01*
X162328957Y-106939158D01*
X162261613Y-107006502D01*
X162194270Y-107141189D01*
X162194270Y-107208532D01*
X161924895Y-107477906D02*
X161857552Y-107477906D01*
X161756537Y-107511578D01*
X161588178Y-107679937D01*
X161554506Y-107780952D01*
X161554506Y-107848295D01*
X161588178Y-107949311D01*
X161655521Y-108016654D01*
X161790208Y-108083998D01*
X162598331Y-108083998D01*
X162160598Y-108521731D01*
X160813728Y-108454387D02*
X161150445Y-108117670D01*
X161520834Y-108420715D01*
X161453491Y-108420715D01*
X161352476Y-108454387D01*
X161184117Y-108622746D01*
X161150445Y-108723761D01*
X161150445Y-108791105D01*
X161184117Y-108892120D01*
X161352476Y-109060479D01*
X161453491Y-109094150D01*
X161520834Y-109094150D01*
X161621850Y-109060479D01*
X161790208Y-108892120D01*
X161823880Y-108791105D01*
X161823880Y-108723761D01*
G04 #@! TO.C,C26*
X125610857Y-109978142D02*
X125658476Y-110025761D01*
X125801333Y-110073380D01*
X125896571Y-110073380D01*
X126039428Y-110025761D01*
X126134666Y-109930523D01*
X126182285Y-109835285D01*
X126229904Y-109644809D01*
X126229904Y-109501952D01*
X126182285Y-109311476D01*
X126134666Y-109216238D01*
X126039428Y-109121000D01*
X125896571Y-109073380D01*
X125801333Y-109073380D01*
X125658476Y-109121000D01*
X125610857Y-109168619D01*
X125229904Y-109168619D02*
X125182285Y-109121000D01*
X125087047Y-109073380D01*
X124848952Y-109073380D01*
X124753714Y-109121000D01*
X124706095Y-109168619D01*
X124658476Y-109263857D01*
X124658476Y-109359095D01*
X124706095Y-109501952D01*
X125277523Y-110073380D01*
X124658476Y-110073380D01*
X123801333Y-109073380D02*
X123991809Y-109073380D01*
X124087047Y-109121000D01*
X124134666Y-109168619D01*
X124229904Y-109311476D01*
X124277523Y-109501952D01*
X124277523Y-109882904D01*
X124229904Y-109978142D01*
X124182285Y-110025761D01*
X124087047Y-110073380D01*
X123896571Y-110073380D01*
X123801333Y-110025761D01*
X123753714Y-109978142D01*
X123706095Y-109882904D01*
X123706095Y-109644809D01*
X123753714Y-109549571D01*
X123801333Y-109501952D01*
X123896571Y-109454333D01*
X124087047Y-109454333D01*
X124182285Y-109501952D01*
X124229904Y-109549571D01*
X124277523Y-109644809D01*
G04 #@! TO.C,C27*
X140949664Y-96735574D02*
X140949664Y-96802918D01*
X141017008Y-96937605D01*
X141084351Y-97004948D01*
X141219038Y-97072292D01*
X141353725Y-97072292D01*
X141454740Y-97038620D01*
X141623099Y-96937605D01*
X141724114Y-96836590D01*
X141825130Y-96668231D01*
X141858801Y-96567216D01*
X141858801Y-96432529D01*
X141791458Y-96297842D01*
X141724114Y-96230498D01*
X141589427Y-96163155D01*
X141522084Y-96163155D01*
X141252710Y-95893780D02*
X141252710Y-95826437D01*
X141219038Y-95725422D01*
X141050679Y-95557063D01*
X140949664Y-95523391D01*
X140882321Y-95523391D01*
X140781305Y-95557063D01*
X140713962Y-95624406D01*
X140646618Y-95759093D01*
X140646618Y-96567216D01*
X140208885Y-96129483D01*
X140680290Y-95186674D02*
X140208885Y-94715269D01*
X139804824Y-95725422D01*
G04 #@! TO.C,C28*
X129547857Y-120138143D02*
X129595476Y-120185762D01*
X129738333Y-120233381D01*
X129833571Y-120233381D01*
X129976428Y-120185762D01*
X130071666Y-120090524D01*
X130119285Y-119995286D01*
X130166904Y-119804810D01*
X130166904Y-119661953D01*
X130119285Y-119471477D01*
X130071666Y-119376239D01*
X129976428Y-119281001D01*
X129833571Y-119233381D01*
X129738333Y-119233381D01*
X129595476Y-119281001D01*
X129547857Y-119328620D01*
X129166904Y-119328620D02*
X129119285Y-119281001D01*
X129024047Y-119233381D01*
X128785952Y-119233381D01*
X128690714Y-119281001D01*
X128643095Y-119328620D01*
X128595476Y-119423858D01*
X128595476Y-119519096D01*
X128643095Y-119661953D01*
X129214523Y-120233381D01*
X128595476Y-120233381D01*
X128024047Y-119661953D02*
X128119285Y-119614334D01*
X128166904Y-119566715D01*
X128214523Y-119471477D01*
X128214523Y-119423858D01*
X128166904Y-119328620D01*
X128119285Y-119281001D01*
X128024047Y-119233381D01*
X127833571Y-119233381D01*
X127738333Y-119281001D01*
X127690714Y-119328620D01*
X127643095Y-119423858D01*
X127643095Y-119471477D01*
X127690714Y-119566715D01*
X127738333Y-119614334D01*
X127833571Y-119661953D01*
X128024047Y-119661953D01*
X128119285Y-119709572D01*
X128166904Y-119757191D01*
X128214523Y-119852429D01*
X128214523Y-120042905D01*
X128166904Y-120138143D01*
X128119285Y-120185762D01*
X128024047Y-120233381D01*
X127833571Y-120233381D01*
X127738333Y-120185762D01*
X127690714Y-120138143D01*
X127643095Y-120042905D01*
X127643095Y-119852429D01*
X127690714Y-119757191D01*
X127738333Y-119709572D01*
X127833571Y-119661953D01*
G04 #@! TO.C,C29*
X136272023Y-122218386D02*
X136339367Y-122218386D01*
X136474054Y-122151042D01*
X136541397Y-122083699D01*
X136608741Y-121949012D01*
X136608741Y-121814325D01*
X136575069Y-121713310D01*
X136474054Y-121544951D01*
X136373039Y-121443936D01*
X136204680Y-121342920D01*
X136103665Y-121309249D01*
X135968978Y-121309249D01*
X135834291Y-121376592D01*
X135766947Y-121443936D01*
X135699604Y-121578623D01*
X135699604Y-121645966D01*
X135430229Y-121915340D02*
X135362886Y-121915340D01*
X135261871Y-121949012D01*
X135093512Y-122117371D01*
X135059840Y-122218386D01*
X135059840Y-122285729D01*
X135093512Y-122386745D01*
X135160855Y-122454088D01*
X135295542Y-122521432D01*
X136103665Y-122521432D01*
X135665932Y-122959165D01*
X135329214Y-123295882D02*
X135194527Y-123430569D01*
X135093512Y-123464241D01*
X135026168Y-123464241D01*
X134857810Y-123430569D01*
X134689451Y-123329554D01*
X134420077Y-123060180D01*
X134386405Y-122959165D01*
X134386405Y-122891821D01*
X134420077Y-122790806D01*
X134554764Y-122656119D01*
X134655779Y-122622447D01*
X134723123Y-122622447D01*
X134824138Y-122656119D01*
X134992497Y-122824478D01*
X135026168Y-122925493D01*
X135026168Y-122992836D01*
X134992497Y-123093852D01*
X134857810Y-123228539D01*
X134756794Y-123262210D01*
X134689451Y-123262210D01*
X134588436Y-123228539D01*
G04 #@! TO.C,C30*
X143336147Y-130622989D02*
X143336147Y-130690333D01*
X143403491Y-130825020D01*
X143470834Y-130892363D01*
X143605521Y-130959707D01*
X143740208Y-130959707D01*
X143841223Y-130926035D01*
X144009582Y-130825020D01*
X144110597Y-130724005D01*
X144211613Y-130555646D01*
X144245284Y-130454631D01*
X144245284Y-130319944D01*
X144177941Y-130185257D01*
X144110597Y-130117913D01*
X143975910Y-130050570D01*
X143908567Y-130050570D01*
X143740208Y-129747524D02*
X143302475Y-129309791D01*
X143268804Y-129814867D01*
X143167788Y-129713852D01*
X143066773Y-129680180D01*
X142999429Y-129680180D01*
X142898414Y-129713852D01*
X142730055Y-129882211D01*
X142696384Y-129983226D01*
X142696384Y-130050570D01*
X142730055Y-130151585D01*
X142932086Y-130353615D01*
X143033101Y-130387287D01*
X143100445Y-130387287D01*
X142864742Y-128872058D02*
X142797399Y-128804715D01*
X142696384Y-128771043D01*
X142629040Y-128771043D01*
X142528025Y-128804715D01*
X142359666Y-128905730D01*
X142191307Y-129074089D01*
X142090292Y-129242447D01*
X142056620Y-129343463D01*
X142056620Y-129410806D01*
X142090292Y-129511821D01*
X142157636Y-129579165D01*
X142258651Y-129612837D01*
X142325994Y-129612837D01*
X142427010Y-129579165D01*
X142595368Y-129478150D01*
X142763727Y-129309791D01*
X142864742Y-129141432D01*
X142898414Y-129040417D01*
X142898414Y-128973073D01*
X142864742Y-128872058D01*
G04 #@! TO.C,C31*
X160404489Y-117267852D02*
X160471833Y-117267852D01*
X160606520Y-117200508D01*
X160673863Y-117133165D01*
X160741207Y-116998478D01*
X160741207Y-116863791D01*
X160707535Y-116762776D01*
X160606520Y-116594417D01*
X160505505Y-116493402D01*
X160337146Y-116392386D01*
X160236131Y-116358715D01*
X160101444Y-116358715D01*
X159966757Y-116426058D01*
X159899413Y-116493402D01*
X159832070Y-116628089D01*
X159832070Y-116695432D01*
X159529024Y-116863791D02*
X159091291Y-117301524D01*
X159596367Y-117335195D01*
X159495352Y-117436211D01*
X159461680Y-117537226D01*
X159461680Y-117604570D01*
X159495352Y-117705585D01*
X159663711Y-117873944D01*
X159764726Y-117907615D01*
X159832070Y-117907615D01*
X159933085Y-117873944D01*
X160135115Y-117671913D01*
X160168787Y-117570898D01*
X160168787Y-117503554D01*
X159124963Y-118682066D02*
X159529024Y-118278005D01*
X159326993Y-118480035D02*
X158619886Y-117772928D01*
X158788245Y-117806600D01*
X158922932Y-117806600D01*
X159023947Y-117772928D01*
G04 #@! TO.C,C32*
X157750189Y-102700952D02*
X157817533Y-102700952D01*
X157952220Y-102633608D01*
X158019563Y-102566265D01*
X158086907Y-102431578D01*
X158086907Y-102296891D01*
X158053235Y-102195876D01*
X157952220Y-102027517D01*
X157851205Y-101926502D01*
X157682846Y-101825486D01*
X157581831Y-101791815D01*
X157447144Y-101791815D01*
X157312457Y-101859158D01*
X157245113Y-101926502D01*
X157177770Y-102061189D01*
X157177770Y-102128532D01*
X156874724Y-102296891D02*
X156436991Y-102734624D01*
X156942067Y-102768295D01*
X156841052Y-102869311D01*
X156807380Y-102970326D01*
X156807380Y-103037670D01*
X156841052Y-103138685D01*
X157009411Y-103307044D01*
X157110426Y-103340715D01*
X157177770Y-103340715D01*
X157278785Y-103307044D01*
X157480815Y-103105013D01*
X157514487Y-103003998D01*
X157514487Y-102936654D01*
X156234960Y-103071341D02*
X156167617Y-103071341D01*
X156066602Y-103105013D01*
X155898243Y-103273372D01*
X155864571Y-103374387D01*
X155864571Y-103441731D01*
X155898243Y-103542746D01*
X155965586Y-103610089D01*
X156100273Y-103677433D01*
X156908395Y-103677433D01*
X156470663Y-104115166D01*
G04 #@! TO.C,C33*
X154892689Y-100046652D02*
X154960033Y-100046652D01*
X155094720Y-99979308D01*
X155162063Y-99911965D01*
X155229407Y-99777278D01*
X155229407Y-99642591D01*
X155195735Y-99541576D01*
X155094720Y-99373217D01*
X154993705Y-99272202D01*
X154825346Y-99171186D01*
X154724331Y-99137515D01*
X154589644Y-99137515D01*
X154454957Y-99204858D01*
X154387613Y-99272202D01*
X154320270Y-99406889D01*
X154320270Y-99474232D01*
X154017224Y-99642591D02*
X153579491Y-100080324D01*
X154084567Y-100113995D01*
X153983552Y-100215011D01*
X153949880Y-100316026D01*
X153949880Y-100383370D01*
X153983552Y-100484385D01*
X154151911Y-100652744D01*
X154252926Y-100686415D01*
X154320270Y-100686415D01*
X154421285Y-100652744D01*
X154623315Y-100450713D01*
X154656987Y-100349698D01*
X154656987Y-100282354D01*
X153343789Y-100316026D02*
X152906056Y-100753759D01*
X153411132Y-100787431D01*
X153310117Y-100888446D01*
X153276445Y-100989461D01*
X153276445Y-101056805D01*
X153310117Y-101157820D01*
X153478476Y-101326179D01*
X153579491Y-101359850D01*
X153646834Y-101359850D01*
X153747850Y-101326179D01*
X153949880Y-101124148D01*
X153983552Y-101023133D01*
X153983552Y-100955789D01*
G04 #@! TO.C,C34*
X155019682Y-122703445D02*
X155087026Y-122703445D01*
X155221713Y-122636101D01*
X155289056Y-122568758D01*
X155356400Y-122434071D01*
X155356400Y-122299384D01*
X155322728Y-122198369D01*
X155221713Y-122030010D01*
X155120698Y-121928995D01*
X154952339Y-121827979D01*
X154851324Y-121794308D01*
X154716637Y-121794308D01*
X154581950Y-121861651D01*
X154514606Y-121928995D01*
X154447263Y-122063682D01*
X154447263Y-122131025D01*
X154144217Y-122299384D02*
X153706484Y-122737117D01*
X154211560Y-122770788D01*
X154110545Y-122871804D01*
X154076873Y-122972819D01*
X154076873Y-123040163D01*
X154110545Y-123141178D01*
X154278904Y-123309537D01*
X154379919Y-123343208D01*
X154447263Y-123343208D01*
X154548278Y-123309537D01*
X154750308Y-123107506D01*
X154783980Y-123006491D01*
X154783980Y-122939147D01*
X153336095Y-123578911D02*
X153807499Y-124050315D01*
X153235079Y-123141178D02*
X153908514Y-123477895D01*
X153470782Y-123915628D01*
G04 #@! TO.C,C36*
X130323542Y-137355342D02*
X130371161Y-137307723D01*
X130418780Y-137164866D01*
X130418780Y-137069628D01*
X130371161Y-136926771D01*
X130275923Y-136831533D01*
X130180685Y-136783914D01*
X129990209Y-136736295D01*
X129847352Y-136736295D01*
X129656876Y-136783914D01*
X129561638Y-136831533D01*
X129466400Y-136926771D01*
X129418780Y-137069628D01*
X129418780Y-137164866D01*
X129466400Y-137307723D01*
X129514019Y-137355342D01*
X129418780Y-137688676D02*
X129418780Y-138307723D01*
X129799733Y-137974390D01*
X129799733Y-138117247D01*
X129847352Y-138212485D01*
X129894971Y-138260104D01*
X129990209Y-138307723D01*
X130228304Y-138307723D01*
X130323542Y-138260104D01*
X130371161Y-138212485D01*
X130418780Y-138117247D01*
X130418780Y-137831533D01*
X130371161Y-137736295D01*
X130323542Y-137688676D01*
X129418780Y-139164866D02*
X129418780Y-138974390D01*
X129466400Y-138879152D01*
X129514019Y-138831533D01*
X129656876Y-138736295D01*
X129847352Y-138688676D01*
X130228304Y-138688676D01*
X130323542Y-138736295D01*
X130371161Y-138783914D01*
X130418780Y-138879152D01*
X130418780Y-139069628D01*
X130371161Y-139164866D01*
X130323542Y-139212485D01*
X130228304Y-139260104D01*
X129990209Y-139260104D01*
X129894971Y-139212485D01*
X129847352Y-139164866D01*
X129799733Y-139069628D01*
X129799733Y-138879152D01*
X129847352Y-138783914D01*
X129894971Y-138736295D01*
X129990209Y-138688676D01*
G04 #@! TO.C,C38*
X156471857Y-47240142D02*
X156519476Y-47287761D01*
X156662333Y-47335380D01*
X156757571Y-47335380D01*
X156900428Y-47287761D01*
X156995666Y-47192523D01*
X157043285Y-47097285D01*
X157090904Y-46906809D01*
X157090904Y-46763952D01*
X157043285Y-46573476D01*
X156995666Y-46478238D01*
X156900428Y-46383000D01*
X156757571Y-46335380D01*
X156662333Y-46335380D01*
X156519476Y-46383000D01*
X156471857Y-46430619D01*
X156138523Y-46335380D02*
X155519476Y-46335380D01*
X155852809Y-46716333D01*
X155709952Y-46716333D01*
X155614714Y-46763952D01*
X155567095Y-46811571D01*
X155519476Y-46906809D01*
X155519476Y-47144904D01*
X155567095Y-47240142D01*
X155614714Y-47287761D01*
X155709952Y-47335380D01*
X155995666Y-47335380D01*
X156090904Y-47287761D01*
X156138523Y-47240142D01*
X154948047Y-46763952D02*
X155043285Y-46716333D01*
X155090904Y-46668714D01*
X155138523Y-46573476D01*
X155138523Y-46525857D01*
X155090904Y-46430619D01*
X155043285Y-46383000D01*
X154948047Y-46335380D01*
X154757571Y-46335380D01*
X154662333Y-46383000D01*
X154614714Y-46430619D01*
X154567095Y-46525857D01*
X154567095Y-46573476D01*
X154614714Y-46668714D01*
X154662333Y-46716333D01*
X154757571Y-46763952D01*
X154948047Y-46763952D01*
X155043285Y-46811571D01*
X155090904Y-46859190D01*
X155138523Y-46954428D01*
X155138523Y-47144904D01*
X155090904Y-47240142D01*
X155043285Y-47287761D01*
X154948047Y-47335380D01*
X154757571Y-47335380D01*
X154662333Y-47287761D01*
X154614714Y-47240142D01*
X154567095Y-47144904D01*
X154567095Y-46954428D01*
X154614714Y-46859190D01*
X154662333Y-46811571D01*
X154757571Y-46763952D01*
G04 #@! TO.C,C39*
X150705142Y-61780142D02*
X150752761Y-61732523D01*
X150800380Y-61589666D01*
X150800380Y-61494428D01*
X150752761Y-61351571D01*
X150657523Y-61256333D01*
X150562285Y-61208714D01*
X150371809Y-61161095D01*
X150228952Y-61161095D01*
X150038476Y-61208714D01*
X149943238Y-61256333D01*
X149848000Y-61351571D01*
X149800380Y-61494428D01*
X149800380Y-61589666D01*
X149848000Y-61732523D01*
X149895619Y-61780142D01*
X149800380Y-62113476D02*
X149800380Y-62732523D01*
X150181333Y-62399190D01*
X150181333Y-62542047D01*
X150228952Y-62637285D01*
X150276571Y-62684904D01*
X150371809Y-62732523D01*
X150609904Y-62732523D01*
X150705142Y-62684904D01*
X150752761Y-62637285D01*
X150800380Y-62542047D01*
X150800380Y-62256333D01*
X150752761Y-62161095D01*
X150705142Y-62113476D01*
X150800380Y-63208714D02*
X150800380Y-63399190D01*
X150752761Y-63494428D01*
X150705142Y-63542047D01*
X150562285Y-63637285D01*
X150371809Y-63684904D01*
X149990857Y-63684904D01*
X149895619Y-63637285D01*
X149848000Y-63589666D01*
X149800380Y-63494428D01*
X149800380Y-63303952D01*
X149848000Y-63208714D01*
X149895619Y-63161095D01*
X149990857Y-63113476D01*
X150228952Y-63113476D01*
X150324190Y-63161095D01*
X150371809Y-63208714D01*
X150419428Y-63303952D01*
X150419428Y-63494428D01*
X150371809Y-63589666D01*
X150324190Y-63637285D01*
X150228952Y-63684904D01*
G04 #@! TO.C,C41*
X159329357Y-59412142D02*
X159376976Y-59459761D01*
X159519833Y-59507380D01*
X159615071Y-59507380D01*
X159757928Y-59459761D01*
X159853166Y-59364523D01*
X159900785Y-59269285D01*
X159948404Y-59078809D01*
X159948404Y-58935952D01*
X159900785Y-58745476D01*
X159853166Y-58650238D01*
X159757928Y-58555000D01*
X159615071Y-58507380D01*
X159519833Y-58507380D01*
X159376976Y-58555000D01*
X159329357Y-58602619D01*
X158472214Y-58840714D02*
X158472214Y-59507380D01*
X158710309Y-58459761D02*
X158948404Y-59174047D01*
X158329357Y-59174047D01*
X157424595Y-59507380D02*
X157996023Y-59507380D01*
X157710309Y-59507380D02*
X157710309Y-58507380D01*
X157805547Y-58650238D01*
X157900785Y-58745476D01*
X157996023Y-58793095D01*
G04 #@! TO.C,C42*
X148459142Y-66159142D02*
X148506761Y-66111523D01*
X148554380Y-65968666D01*
X148554380Y-65873428D01*
X148506761Y-65730571D01*
X148411523Y-65635333D01*
X148316285Y-65587714D01*
X148125809Y-65540095D01*
X147982952Y-65540095D01*
X147792476Y-65587714D01*
X147697238Y-65635333D01*
X147602000Y-65730571D01*
X147554380Y-65873428D01*
X147554380Y-65968666D01*
X147602000Y-66111523D01*
X147649619Y-66159142D01*
X147887714Y-67016285D02*
X148554380Y-67016285D01*
X147506761Y-66778190D02*
X148221047Y-66540095D01*
X148221047Y-67159142D01*
X147649619Y-67492476D02*
X147602000Y-67540095D01*
X147554380Y-67635333D01*
X147554380Y-67873428D01*
X147602000Y-67968666D01*
X147649619Y-68016285D01*
X147744857Y-68063904D01*
X147840095Y-68063904D01*
X147982952Y-68016285D01*
X148554380Y-67444857D01*
X148554380Y-68063904D01*
G04 #@! TO.C,C44*
X159392857Y-60936142D02*
X159440476Y-60983761D01*
X159583333Y-61031380D01*
X159678571Y-61031380D01*
X159821428Y-60983761D01*
X159916666Y-60888523D01*
X159964285Y-60793285D01*
X160011904Y-60602809D01*
X160011904Y-60459952D01*
X159964285Y-60269476D01*
X159916666Y-60174238D01*
X159821428Y-60079000D01*
X159678571Y-60031380D01*
X159583333Y-60031380D01*
X159440476Y-60079000D01*
X159392857Y-60126619D01*
X158535714Y-60364714D02*
X158535714Y-61031380D01*
X158773809Y-59983761D02*
X159011904Y-60698047D01*
X158392857Y-60698047D01*
X157583333Y-60364714D02*
X157583333Y-61031380D01*
X157821428Y-59983761D02*
X158059523Y-60698047D01*
X157440476Y-60698047D01*
G04 #@! TO.C,C45*
X146046142Y-66159142D02*
X146093761Y-66111523D01*
X146141380Y-65968666D01*
X146141380Y-65873428D01*
X146093761Y-65730571D01*
X145998523Y-65635333D01*
X145903285Y-65587714D01*
X145712809Y-65540095D01*
X145569952Y-65540095D01*
X145379476Y-65587714D01*
X145284238Y-65635333D01*
X145189000Y-65730571D01*
X145141380Y-65873428D01*
X145141380Y-65968666D01*
X145189000Y-66111523D01*
X145236619Y-66159142D01*
X145474714Y-67016285D02*
X146141380Y-67016285D01*
X145093761Y-66778190D02*
X145808047Y-66540095D01*
X145808047Y-67159142D01*
X145141380Y-68016285D02*
X145141380Y-67540095D01*
X145617571Y-67492476D01*
X145569952Y-67540095D01*
X145522333Y-67635333D01*
X145522333Y-67873428D01*
X145569952Y-67968666D01*
X145617571Y-68016285D01*
X145712809Y-68063904D01*
X145950904Y-68063904D01*
X146046142Y-68016285D01*
X146093761Y-67968666D01*
X146141380Y-67873428D01*
X146141380Y-67635333D01*
X146093761Y-67540095D01*
X146046142Y-67492476D01*
G04 #@! TO.C,C46*
X184030857Y-68957142D02*
X184078476Y-69004761D01*
X184221333Y-69052380D01*
X184316571Y-69052380D01*
X184459428Y-69004761D01*
X184554666Y-68909523D01*
X184602285Y-68814285D01*
X184649904Y-68623809D01*
X184649904Y-68480952D01*
X184602285Y-68290476D01*
X184554666Y-68195238D01*
X184459428Y-68100000D01*
X184316571Y-68052380D01*
X184221333Y-68052380D01*
X184078476Y-68100000D01*
X184030857Y-68147619D01*
X183173714Y-68385714D02*
X183173714Y-69052380D01*
X183411809Y-68004761D02*
X183649904Y-68719047D01*
X183030857Y-68719047D01*
X182221333Y-68052380D02*
X182411809Y-68052380D01*
X182507047Y-68100000D01*
X182554666Y-68147619D01*
X182649904Y-68290476D01*
X182697523Y-68480952D01*
X182697523Y-68861904D01*
X182649904Y-68957142D01*
X182602285Y-69004761D01*
X182507047Y-69052380D01*
X182316571Y-69052380D01*
X182221333Y-69004761D01*
X182173714Y-68957142D01*
X182126095Y-68861904D01*
X182126095Y-68623809D01*
X182173714Y-68528571D01*
X182221333Y-68480952D01*
X182316571Y-68433333D01*
X182507047Y-68433333D01*
X182602285Y-68480952D01*
X182649904Y-68528571D01*
X182697523Y-68623809D01*
G04 #@! TO.C,C47*
X167012857Y-71457142D02*
X167060476Y-71504761D01*
X167203333Y-71552380D01*
X167298571Y-71552380D01*
X167441428Y-71504761D01*
X167536666Y-71409523D01*
X167584285Y-71314285D01*
X167631904Y-71123809D01*
X167631904Y-70980952D01*
X167584285Y-70790476D01*
X167536666Y-70695238D01*
X167441428Y-70600000D01*
X167298571Y-70552380D01*
X167203333Y-70552380D01*
X167060476Y-70600000D01*
X167012857Y-70647619D01*
X166155714Y-70885714D02*
X166155714Y-71552380D01*
X166393809Y-70504761D02*
X166631904Y-71219047D01*
X166012857Y-71219047D01*
X165727142Y-70552380D02*
X165060476Y-70552380D01*
X165489047Y-71552380D01*
G04 #@! TO.C,C48*
X184030857Y-73445642D02*
X184078476Y-73493261D01*
X184221333Y-73540880D01*
X184316571Y-73540880D01*
X184459428Y-73493261D01*
X184554666Y-73398023D01*
X184602285Y-73302785D01*
X184649904Y-73112309D01*
X184649904Y-72969452D01*
X184602285Y-72778976D01*
X184554666Y-72683738D01*
X184459428Y-72588500D01*
X184316571Y-72540880D01*
X184221333Y-72540880D01*
X184078476Y-72588500D01*
X184030857Y-72636119D01*
X183173714Y-72874214D02*
X183173714Y-73540880D01*
X183411809Y-72493261D02*
X183649904Y-73207547D01*
X183030857Y-73207547D01*
X182507047Y-72969452D02*
X182602285Y-72921833D01*
X182649904Y-72874214D01*
X182697523Y-72778976D01*
X182697523Y-72731357D01*
X182649904Y-72636119D01*
X182602285Y-72588500D01*
X182507047Y-72540880D01*
X182316571Y-72540880D01*
X182221333Y-72588500D01*
X182173714Y-72636119D01*
X182126095Y-72731357D01*
X182126095Y-72778976D01*
X182173714Y-72874214D01*
X182221333Y-72921833D01*
X182316571Y-72969452D01*
X182507047Y-72969452D01*
X182602285Y-73017071D01*
X182649904Y-73064690D01*
X182697523Y-73159928D01*
X182697523Y-73350404D01*
X182649904Y-73445642D01*
X182602285Y-73493261D01*
X182507047Y-73540880D01*
X182316571Y-73540880D01*
X182221333Y-73493261D01*
X182173714Y-73445642D01*
X182126095Y-73350404D01*
X182126095Y-73159928D01*
X182173714Y-73064690D01*
X182221333Y-73017071D01*
X182316571Y-72969452D01*
G04 #@! TO.C,C49*
X163953142Y-47617142D02*
X164000761Y-47569523D01*
X164048380Y-47426666D01*
X164048380Y-47331428D01*
X164000761Y-47188571D01*
X163905523Y-47093333D01*
X163810285Y-47045714D01*
X163619809Y-46998095D01*
X163476952Y-46998095D01*
X163286476Y-47045714D01*
X163191238Y-47093333D01*
X163096000Y-47188571D01*
X163048380Y-47331428D01*
X163048380Y-47426666D01*
X163096000Y-47569523D01*
X163143619Y-47617142D01*
X163381714Y-48474285D02*
X164048380Y-48474285D01*
X163000761Y-48236190D02*
X163715047Y-47998095D01*
X163715047Y-48617142D01*
X164048380Y-49045714D02*
X164048380Y-49236190D01*
X164000761Y-49331428D01*
X163953142Y-49379047D01*
X163810285Y-49474285D01*
X163619809Y-49521904D01*
X163238857Y-49521904D01*
X163143619Y-49474285D01*
X163096000Y-49426666D01*
X163048380Y-49331428D01*
X163048380Y-49140952D01*
X163096000Y-49045714D01*
X163143619Y-48998095D01*
X163238857Y-48950476D01*
X163476952Y-48950476D01*
X163572190Y-48998095D01*
X163619809Y-49045714D01*
X163667428Y-49140952D01*
X163667428Y-49331428D01*
X163619809Y-49426666D01*
X163572190Y-49474285D01*
X163476952Y-49521904D01*
G04 #@! TO.C,C50*
X166239142Y-47617142D02*
X166286761Y-47569523D01*
X166334380Y-47426666D01*
X166334380Y-47331428D01*
X166286761Y-47188571D01*
X166191523Y-47093333D01*
X166096285Y-47045714D01*
X165905809Y-46998095D01*
X165762952Y-46998095D01*
X165572476Y-47045714D01*
X165477238Y-47093333D01*
X165382000Y-47188571D01*
X165334380Y-47331428D01*
X165334380Y-47426666D01*
X165382000Y-47569523D01*
X165429619Y-47617142D01*
X165334380Y-48521904D02*
X165334380Y-48045714D01*
X165810571Y-47998095D01*
X165762952Y-48045714D01*
X165715333Y-48140952D01*
X165715333Y-48379047D01*
X165762952Y-48474285D01*
X165810571Y-48521904D01*
X165905809Y-48569523D01*
X166143904Y-48569523D01*
X166239142Y-48521904D01*
X166286761Y-48474285D01*
X166334380Y-48379047D01*
X166334380Y-48140952D01*
X166286761Y-48045714D01*
X166239142Y-47998095D01*
X165334380Y-49188571D02*
X165334380Y-49283809D01*
X165382000Y-49379047D01*
X165429619Y-49426666D01*
X165524857Y-49474285D01*
X165715333Y-49521904D01*
X165953428Y-49521904D01*
X166143904Y-49474285D01*
X166239142Y-49426666D01*
X166286761Y-49379047D01*
X166334380Y-49283809D01*
X166334380Y-49188571D01*
X166286761Y-49093333D01*
X166239142Y-49045714D01*
X166143904Y-48998095D01*
X165953428Y-48950476D01*
X165715333Y-48950476D01*
X165524857Y-48998095D01*
X165429619Y-49045714D01*
X165382000Y-49093333D01*
X165334380Y-49188571D01*
G04 #@! TO.C,C51*
X167520857Y-100823343D02*
X167568476Y-100870962D01*
X167711333Y-100918581D01*
X167806571Y-100918581D01*
X167949428Y-100870962D01*
X168044666Y-100775724D01*
X168092285Y-100680486D01*
X168139904Y-100490010D01*
X168139904Y-100347153D01*
X168092285Y-100156677D01*
X168044666Y-100061439D01*
X167949428Y-99966201D01*
X167806571Y-99918581D01*
X167711333Y-99918581D01*
X167568476Y-99966201D01*
X167520857Y-100013820D01*
X166616095Y-99918581D02*
X167092285Y-99918581D01*
X167139904Y-100394772D01*
X167092285Y-100347153D01*
X166997047Y-100299534D01*
X166758952Y-100299534D01*
X166663714Y-100347153D01*
X166616095Y-100394772D01*
X166568476Y-100490010D01*
X166568476Y-100728105D01*
X166616095Y-100823343D01*
X166663714Y-100870962D01*
X166758952Y-100918581D01*
X166997047Y-100918581D01*
X167092285Y-100870962D01*
X167139904Y-100823343D01*
X165616095Y-100918581D02*
X166187523Y-100918581D01*
X165901809Y-100918581D02*
X165901809Y-99918581D01*
X165997047Y-100061439D01*
X166092285Y-100156677D01*
X166187523Y-100204296D01*
G04 #@! TO.C,C52*
X174962142Y-81526142D02*
X175009761Y-81478523D01*
X175057380Y-81335666D01*
X175057380Y-81240428D01*
X175009761Y-81097571D01*
X174914523Y-81002333D01*
X174819285Y-80954714D01*
X174628809Y-80907095D01*
X174485952Y-80907095D01*
X174295476Y-80954714D01*
X174200238Y-81002333D01*
X174105000Y-81097571D01*
X174057380Y-81240428D01*
X174057380Y-81335666D01*
X174105000Y-81478523D01*
X174152619Y-81526142D01*
X174057380Y-82430904D02*
X174057380Y-81954714D01*
X174533571Y-81907095D01*
X174485952Y-81954714D01*
X174438333Y-82049952D01*
X174438333Y-82288047D01*
X174485952Y-82383285D01*
X174533571Y-82430904D01*
X174628809Y-82478523D01*
X174866904Y-82478523D01*
X174962142Y-82430904D01*
X175009761Y-82383285D01*
X175057380Y-82288047D01*
X175057380Y-82049952D01*
X175009761Y-81954714D01*
X174962142Y-81907095D01*
X174152619Y-82859476D02*
X174105000Y-82907095D01*
X174057380Y-83002333D01*
X174057380Y-83240428D01*
X174105000Y-83335666D01*
X174152619Y-83383285D01*
X174247857Y-83430904D01*
X174343095Y-83430904D01*
X174485952Y-83383285D01*
X175057380Y-82811857D01*
X175057380Y-83430904D01*
G04 #@! TO.C,C53*
X130777257Y-105342642D02*
X130824876Y-105390261D01*
X130967733Y-105437880D01*
X131062971Y-105437880D01*
X131205828Y-105390261D01*
X131301066Y-105295023D01*
X131348685Y-105199785D01*
X131396304Y-105009309D01*
X131396304Y-104866452D01*
X131348685Y-104675976D01*
X131301066Y-104580738D01*
X131205828Y-104485500D01*
X131062971Y-104437880D01*
X130967733Y-104437880D01*
X130824876Y-104485500D01*
X130777257Y-104533119D01*
X129872495Y-104437880D02*
X130348685Y-104437880D01*
X130396304Y-104914071D01*
X130348685Y-104866452D01*
X130253447Y-104818833D01*
X130015352Y-104818833D01*
X129920114Y-104866452D01*
X129872495Y-104914071D01*
X129824876Y-105009309D01*
X129824876Y-105247404D01*
X129872495Y-105342642D01*
X129920114Y-105390261D01*
X130015352Y-105437880D01*
X130253447Y-105437880D01*
X130348685Y-105390261D01*
X130396304Y-105342642D01*
X129491542Y-104437880D02*
X128872495Y-104437880D01*
X129205828Y-104818833D01*
X129062971Y-104818833D01*
X128967733Y-104866452D01*
X128920114Y-104914071D01*
X128872495Y-105009309D01*
X128872495Y-105247404D01*
X128920114Y-105342642D01*
X128967733Y-105390261D01*
X129062971Y-105437880D01*
X129348685Y-105437880D01*
X129443923Y-105390261D01*
X129491542Y-105342642D01*
G04 #@! TO.C,D5*
X160504380Y-48029904D02*
X159504380Y-48029904D01*
X159504380Y-48268000D01*
X159552000Y-48410857D01*
X159647238Y-48506095D01*
X159742476Y-48553714D01*
X159932952Y-48601333D01*
X160075809Y-48601333D01*
X160266285Y-48553714D01*
X160361523Y-48506095D01*
X160456761Y-48410857D01*
X160504380Y-48268000D01*
X160504380Y-48029904D01*
X159504380Y-49506095D02*
X159504380Y-49029904D01*
X159980571Y-48982285D01*
X159932952Y-49029904D01*
X159885333Y-49125142D01*
X159885333Y-49363238D01*
X159932952Y-49458476D01*
X159980571Y-49506095D01*
X160075809Y-49553714D01*
X160313904Y-49553714D01*
X160409142Y-49506095D01*
X160456761Y-49458476D01*
X160504380Y-49363238D01*
X160504380Y-49125142D01*
X160456761Y-49029904D01*
X160409142Y-48982285D01*
G04 #@! TO.C,D7*
X133072380Y-69873904D02*
X132072380Y-69873904D01*
X132072380Y-70112000D01*
X132120000Y-70254857D01*
X132215238Y-70350095D01*
X132310476Y-70397714D01*
X132500952Y-70445333D01*
X132643809Y-70445333D01*
X132834285Y-70397714D01*
X132929523Y-70350095D01*
X133024761Y-70254857D01*
X133072380Y-70112000D01*
X133072380Y-69873904D01*
X132072380Y-70778666D02*
X132072380Y-71445333D01*
X133072380Y-71016761D01*
G04 #@! TO.C,D8*
X140946095Y-81700380D02*
X140946095Y-80700380D01*
X140708000Y-80700380D01*
X140565142Y-80748000D01*
X140469904Y-80843238D01*
X140422285Y-80938476D01*
X140374666Y-81128952D01*
X140374666Y-81271809D01*
X140422285Y-81462285D01*
X140469904Y-81557523D01*
X140565142Y-81652761D01*
X140708000Y-81700380D01*
X140946095Y-81700380D01*
X139803238Y-81128952D02*
X139898476Y-81081333D01*
X139946095Y-81033714D01*
X139993714Y-80938476D01*
X139993714Y-80890857D01*
X139946095Y-80795619D01*
X139898476Y-80748000D01*
X139803238Y-80700380D01*
X139612761Y-80700380D01*
X139517523Y-80748000D01*
X139469904Y-80795619D01*
X139422285Y-80890857D01*
X139422285Y-80938476D01*
X139469904Y-81033714D01*
X139517523Y-81081333D01*
X139612761Y-81128952D01*
X139803238Y-81128952D01*
X139898476Y-81176571D01*
X139946095Y-81224190D01*
X139993714Y-81319428D01*
X139993714Y-81509904D01*
X139946095Y-81605142D01*
X139898476Y-81652761D01*
X139803238Y-81700380D01*
X139612761Y-81700380D01*
X139517523Y-81652761D01*
X139469904Y-81605142D01*
X139422285Y-81509904D01*
X139422285Y-81319428D01*
X139469904Y-81224190D01*
X139517523Y-81176571D01*
X139612761Y-81128952D01*
G04 #@! TO.C,D11*
X137739380Y-59237714D02*
X136739380Y-59237714D01*
X136739380Y-59475809D01*
X136787000Y-59618666D01*
X136882238Y-59713904D01*
X136977476Y-59761523D01*
X137167952Y-59809142D01*
X137310809Y-59809142D01*
X137501285Y-59761523D01*
X137596523Y-59713904D01*
X137691761Y-59618666D01*
X137739380Y-59475809D01*
X137739380Y-59237714D01*
X137739380Y-60761523D02*
X137739380Y-60190095D01*
X137739380Y-60475809D02*
X136739380Y-60475809D01*
X136882238Y-60380571D01*
X136977476Y-60285333D01*
X137025095Y-60190095D01*
X137739380Y-61713904D02*
X137739380Y-61142476D01*
X137739380Y-61428190D02*
X136739380Y-61428190D01*
X136882238Y-61332952D01*
X136977476Y-61237714D01*
X137025095Y-61142476D01*
G04 #@! TO.C,D12*
X130817880Y-84383714D02*
X129817880Y-84383714D01*
X129817880Y-84621809D01*
X129865500Y-84764666D01*
X129960738Y-84859904D01*
X130055976Y-84907523D01*
X130246452Y-84955142D01*
X130389309Y-84955142D01*
X130579785Y-84907523D01*
X130675023Y-84859904D01*
X130770261Y-84764666D01*
X130817880Y-84621809D01*
X130817880Y-84383714D01*
X130817880Y-85907523D02*
X130817880Y-85336095D01*
X130817880Y-85621809D02*
X129817880Y-85621809D01*
X129960738Y-85526571D01*
X130055976Y-85431333D01*
X130103595Y-85336095D01*
X129913119Y-86288476D02*
X129865500Y-86336095D01*
X129817880Y-86431333D01*
X129817880Y-86669428D01*
X129865500Y-86764666D01*
X129913119Y-86812285D01*
X130008357Y-86859904D01*
X130103595Y-86859904D01*
X130246452Y-86812285D01*
X130817880Y-86240857D01*
X130817880Y-86859904D01*
G04 #@! TO.C,L3*
X171743666Y-48204380D02*
X172219857Y-48204380D01*
X172219857Y-47204380D01*
X171505571Y-47204380D02*
X170886523Y-47204380D01*
X171219857Y-47585333D01*
X171077000Y-47585333D01*
X170981761Y-47632952D01*
X170934142Y-47680571D01*
X170886523Y-47775809D01*
X170886523Y-48013904D01*
X170934142Y-48109142D01*
X170981761Y-48156761D01*
X171077000Y-48204380D01*
X171362714Y-48204380D01*
X171457952Y-48156761D01*
X171505571Y-48109142D01*
G04 #@! TO.C,R5*
X133207680Y-130160733D02*
X132731490Y-129827400D01*
X133207680Y-129589304D02*
X132207680Y-129589304D01*
X132207680Y-129970257D01*
X132255300Y-130065495D01*
X132302919Y-130113114D01*
X132398157Y-130160733D01*
X132541014Y-130160733D01*
X132636252Y-130113114D01*
X132683871Y-130065495D01*
X132731490Y-129970257D01*
X132731490Y-129589304D01*
X132207680Y-131065495D02*
X132207680Y-130589304D01*
X132683871Y-130541685D01*
X132636252Y-130589304D01*
X132588633Y-130684542D01*
X132588633Y-130922638D01*
X132636252Y-131017876D01*
X132683871Y-131065495D01*
X132779109Y-131113114D01*
X133017204Y-131113114D01*
X133112442Y-131065495D01*
X133160061Y-131017876D01*
X133207680Y-130922638D01*
X133207680Y-130684542D01*
X133160061Y-130589304D01*
X133112442Y-130541685D01*
G04 #@! TO.C,R6*
X142025666Y-50416380D02*
X142359000Y-49940190D01*
X142597095Y-50416380D02*
X142597095Y-49416380D01*
X142216142Y-49416380D01*
X142120904Y-49464000D01*
X142073285Y-49511619D01*
X142025666Y-49606857D01*
X142025666Y-49749714D01*
X142073285Y-49844952D01*
X142120904Y-49892571D01*
X142216142Y-49940190D01*
X142597095Y-49940190D01*
X141168523Y-49416380D02*
X141359000Y-49416380D01*
X141454238Y-49464000D01*
X141501857Y-49511619D01*
X141597095Y-49654476D01*
X141644714Y-49844952D01*
X141644714Y-50225904D01*
X141597095Y-50321142D01*
X141549476Y-50368761D01*
X141454238Y-50416380D01*
X141263761Y-50416380D01*
X141168523Y-50368761D01*
X141120904Y-50321142D01*
X141073285Y-50225904D01*
X141073285Y-49987809D01*
X141120904Y-49892571D01*
X141168523Y-49844952D01*
X141263761Y-49797333D01*
X141454238Y-49797333D01*
X141549476Y-49844952D01*
X141597095Y-49892571D01*
X141644714Y-49987809D01*
G04 #@! TO.C,R7*
X164504666Y-104264380D02*
X164838000Y-103788190D01*
X165076095Y-104264380D02*
X165076095Y-103264380D01*
X164695142Y-103264380D01*
X164599904Y-103312000D01*
X164552285Y-103359619D01*
X164504666Y-103454857D01*
X164504666Y-103597714D01*
X164552285Y-103692952D01*
X164599904Y-103740571D01*
X164695142Y-103788190D01*
X165076095Y-103788190D01*
X164171333Y-103264380D02*
X163504666Y-103264380D01*
X163933238Y-104264380D01*
G04 #@! TO.C,R10*
X177045857Y-86124380D02*
X177379190Y-85648190D01*
X177617285Y-86124380D02*
X177617285Y-85124380D01*
X177236333Y-85124380D01*
X177141095Y-85172000D01*
X177093476Y-85219619D01*
X177045857Y-85314857D01*
X177045857Y-85457714D01*
X177093476Y-85552952D01*
X177141095Y-85600571D01*
X177236333Y-85648190D01*
X177617285Y-85648190D01*
X176093476Y-86124380D02*
X176664904Y-86124380D01*
X176379190Y-86124380D02*
X176379190Y-85124380D01*
X176474428Y-85267238D01*
X176569666Y-85362476D01*
X176664904Y-85410095D01*
X175474428Y-85124380D02*
X175379190Y-85124380D01*
X175283952Y-85172000D01*
X175236333Y-85219619D01*
X175188714Y-85314857D01*
X175141095Y-85505333D01*
X175141095Y-85743428D01*
X175188714Y-85933904D01*
X175236333Y-86029142D01*
X175283952Y-86076761D01*
X175379190Y-86124380D01*
X175474428Y-86124380D01*
X175569666Y-86076761D01*
X175617285Y-86029142D01*
X175664904Y-85933904D01*
X175712523Y-85743428D01*
X175712523Y-85505333D01*
X175664904Y-85314857D01*
X175617285Y-85219619D01*
X175569666Y-85172000D01*
X175474428Y-85124380D01*
G04 #@! TO.C,R12*
X131960857Y-69212380D02*
X132294190Y-68736190D01*
X132532285Y-69212380D02*
X132532285Y-68212380D01*
X132151333Y-68212380D01*
X132056095Y-68260000D01*
X132008476Y-68307619D01*
X131960857Y-68402857D01*
X131960857Y-68545714D01*
X132008476Y-68640952D01*
X132056095Y-68688571D01*
X132151333Y-68736190D01*
X132532285Y-68736190D01*
X131008476Y-69212380D02*
X131579904Y-69212380D01*
X131294190Y-69212380D02*
X131294190Y-68212380D01*
X131389428Y-68355238D01*
X131484666Y-68450476D01*
X131579904Y-68498095D01*
X130627523Y-68307619D02*
X130579904Y-68260000D01*
X130484666Y-68212380D01*
X130246571Y-68212380D01*
X130151333Y-68260000D01*
X130103714Y-68307619D01*
X130056095Y-68402857D01*
X130056095Y-68498095D01*
X130103714Y-68640952D01*
X130675142Y-69212380D01*
X130056095Y-69212380D01*
G04 #@! TO.C,R13*
X135262857Y-77350880D02*
X135596190Y-76874690D01*
X135834285Y-77350880D02*
X135834285Y-76350880D01*
X135453333Y-76350880D01*
X135358095Y-76398500D01*
X135310476Y-76446119D01*
X135262857Y-76541357D01*
X135262857Y-76684214D01*
X135310476Y-76779452D01*
X135358095Y-76827071D01*
X135453333Y-76874690D01*
X135834285Y-76874690D01*
X134310476Y-77350880D02*
X134881904Y-77350880D01*
X134596190Y-77350880D02*
X134596190Y-76350880D01*
X134691428Y-76493738D01*
X134786666Y-76588976D01*
X134881904Y-76636595D01*
X133977142Y-76350880D02*
X133358095Y-76350880D01*
X133691428Y-76731833D01*
X133548571Y-76731833D01*
X133453333Y-76779452D01*
X133405714Y-76827071D01*
X133358095Y-76922309D01*
X133358095Y-77160404D01*
X133405714Y-77255642D01*
X133453333Y-77303261D01*
X133548571Y-77350880D01*
X133834285Y-77350880D01*
X133929523Y-77303261D01*
X133977142Y-77255642D01*
G04 #@! TO.C,R14*
X132352380Y-59809142D02*
X131876190Y-59475809D01*
X132352380Y-59237714D02*
X131352380Y-59237714D01*
X131352380Y-59618666D01*
X131400000Y-59713904D01*
X131447619Y-59761523D01*
X131542857Y-59809142D01*
X131685714Y-59809142D01*
X131780952Y-59761523D01*
X131828571Y-59713904D01*
X131876190Y-59618666D01*
X131876190Y-59237714D01*
X132352380Y-60761523D02*
X132352380Y-60190095D01*
X132352380Y-60475809D02*
X131352380Y-60475809D01*
X131495238Y-60380571D01*
X131590476Y-60285333D01*
X131638095Y-60190095D01*
X131685714Y-61618666D02*
X132352380Y-61618666D01*
X131304761Y-61380571D02*
X132019047Y-61142476D01*
X132019047Y-61761523D01*
G04 #@! TO.C,R15*
X136268380Y-84701142D02*
X135792190Y-84367809D01*
X136268380Y-84129714D02*
X135268380Y-84129714D01*
X135268380Y-84510666D01*
X135316000Y-84605904D01*
X135363619Y-84653523D01*
X135458857Y-84701142D01*
X135601714Y-84701142D01*
X135696952Y-84653523D01*
X135744571Y-84605904D01*
X135792190Y-84510666D01*
X135792190Y-84129714D01*
X136268380Y-85653523D02*
X136268380Y-85082095D01*
X136268380Y-85367809D02*
X135268380Y-85367809D01*
X135411238Y-85272571D01*
X135506476Y-85177333D01*
X135554095Y-85082095D01*
X135268380Y-86558285D02*
X135268380Y-86082095D01*
X135744571Y-86034476D01*
X135696952Y-86082095D01*
X135649333Y-86177333D01*
X135649333Y-86415428D01*
X135696952Y-86510666D01*
X135744571Y-86558285D01*
X135839809Y-86605904D01*
X136077904Y-86605904D01*
X136173142Y-86558285D01*
X136220761Y-86510666D01*
X136268380Y-86415428D01*
X136268380Y-86177333D01*
X136220761Y-86082095D01*
X136173142Y-86034476D01*
G04 #@! TO.C,SRX.X.*
X175791761Y-114308214D02*
X175839380Y-114451071D01*
X175839380Y-114689166D01*
X175791761Y-114784404D01*
X175744142Y-114832023D01*
X175648904Y-114879642D01*
X175553666Y-114879642D01*
X175458428Y-114832023D01*
X175410809Y-114784404D01*
X175363190Y-114689166D01*
X175315571Y-114498690D01*
X175267952Y-114403452D01*
X175220333Y-114355833D01*
X175125095Y-114308214D01*
X175029857Y-114308214D01*
X174934619Y-114355833D01*
X174887000Y-114403452D01*
X174839380Y-114498690D01*
X174839380Y-114736785D01*
X174887000Y-114879642D01*
X175839380Y-115879642D02*
X175363190Y-115546309D01*
X175839380Y-115308214D02*
X174839380Y-115308214D01*
X174839380Y-115689166D01*
X174887000Y-115784404D01*
X174934619Y-115832023D01*
X175029857Y-115879642D01*
X175172714Y-115879642D01*
X175267952Y-115832023D01*
X175315571Y-115784404D01*
X175363190Y-115689166D01*
X175363190Y-115308214D01*
X174839380Y-116212976D02*
X175839380Y-116879642D01*
X174839380Y-116879642D02*
X175839380Y-116212976D01*
X175744142Y-117260595D02*
X175791761Y-117308214D01*
X175839380Y-117260595D01*
X175791761Y-117212976D01*
X175744142Y-117260595D01*
X175839380Y-117260595D01*
X174839380Y-117641547D02*
X175839380Y-118308214D01*
X174839380Y-118308214D02*
X175839380Y-117641547D01*
X175744142Y-118689166D02*
X175791761Y-118736785D01*
X175839380Y-118689166D01*
X175791761Y-118641547D01*
X175744142Y-118689166D01*
X175839380Y-118689166D01*
X175601261Y-109926714D02*
X175648880Y-110069571D01*
X175648880Y-110307666D01*
X175601261Y-110402904D01*
X175553642Y-110450523D01*
X175458404Y-110498142D01*
X175363166Y-110498142D01*
X175267928Y-110450523D01*
X175220309Y-110402904D01*
X175172690Y-110307666D01*
X175125071Y-110117190D01*
X175077452Y-110021952D01*
X175029833Y-109974333D01*
X174934595Y-109926714D01*
X174839357Y-109926714D01*
X174744119Y-109974333D01*
X174696500Y-110021952D01*
X174648880Y-110117190D01*
X174648880Y-110355285D01*
X174696500Y-110498142D01*
X175648880Y-111498142D02*
X175172690Y-111164809D01*
X175648880Y-110926714D02*
X174648880Y-110926714D01*
X174648880Y-111307666D01*
X174696500Y-111402904D01*
X174744119Y-111450523D01*
X174839357Y-111498142D01*
X174982214Y-111498142D01*
X175077452Y-111450523D01*
X175125071Y-111402904D01*
X175172690Y-111307666D01*
X175172690Y-110926714D01*
X174648880Y-111831476D02*
X175648880Y-112498142D01*
X174648880Y-112498142D02*
X175648880Y-111831476D01*
X175553642Y-112879095D02*
X175601261Y-112926714D01*
X175648880Y-112879095D01*
X175601261Y-112831476D01*
X175553642Y-112879095D01*
X175648880Y-112879095D01*
X174648880Y-113260047D02*
X175648880Y-113926714D01*
X174648880Y-113926714D02*
X175648880Y-113260047D01*
X175553642Y-114307666D02*
X175601261Y-114355285D01*
X175648880Y-114307666D01*
X175601261Y-114260047D01*
X175553642Y-114307666D01*
X175648880Y-114307666D01*
G04 #@! TO.C,U6*
X161170095Y-52862230D02*
X160598666Y-52862230D01*
X160884380Y-53862230D02*
X160884380Y-52862230D01*
X159789142Y-53862230D02*
X160265333Y-53862230D01*
X160265333Y-52862230D01*
X159598666Y-52862230D02*
X159265333Y-53862230D01*
X158932000Y-52862230D01*
X158074857Y-53862230D02*
X158646285Y-53862230D01*
X158360571Y-53862230D02*
X158360571Y-52862230D01*
X158455809Y-53005088D01*
X158551047Y-53100326D01*
X158646285Y-53147945D01*
X157122476Y-53862230D02*
X157693904Y-53862230D01*
X157408190Y-53862230D02*
X157408190Y-52862230D01*
X157503428Y-53005088D01*
X157598666Y-53100326D01*
X157693904Y-53147945D01*
X156170095Y-53862230D02*
X156741523Y-53862230D01*
X156455809Y-53862230D02*
X156455809Y-52862230D01*
X156551047Y-53005088D01*
X156646285Y-53100326D01*
X156741523Y-53147945D01*
X155836761Y-52862230D02*
X155170095Y-52862230D01*
X155598666Y-53862230D01*
X154312952Y-53862230D02*
X154789142Y-53862230D01*
X154789142Y-52862230D01*
X154122476Y-52862230D02*
X153789142Y-53862230D01*
X153455809Y-52862230D01*
X153217714Y-52862230D02*
X152598666Y-52862230D01*
X152932000Y-53243183D01*
X152789142Y-53243183D01*
X152693904Y-53290802D01*
X152646285Y-53338421D01*
X152598666Y-53433659D01*
X152598666Y-53671754D01*
X152646285Y-53766992D01*
X152693904Y-53814611D01*
X152789142Y-53862230D01*
X153074857Y-53862230D01*
X153170095Y-53814611D01*
X153217714Y-53766992D01*
X152265333Y-52862230D02*
X151646285Y-52862230D01*
X151979619Y-53243183D01*
X151836761Y-53243183D01*
X151741523Y-53290802D01*
X151693904Y-53338421D01*
X151646285Y-53433659D01*
X151646285Y-53671754D01*
X151693904Y-53766992D01*
X151741523Y-53814611D01*
X151836761Y-53862230D01*
X152122476Y-53862230D01*
X152217714Y-53814611D01*
X152265333Y-53766992D01*
X151217714Y-53862230D02*
X151217714Y-52862230D01*
X150979619Y-52862230D01*
X150836761Y-52909850D01*
X150741523Y-53005088D01*
X150693904Y-53100326D01*
X150646285Y-53290802D01*
X150646285Y-53433659D01*
X150693904Y-53624135D01*
X150741523Y-53719373D01*
X150836761Y-53814611D01*
X150979619Y-53862230D01*
X151217714Y-53862230D01*
X149646285Y-53766992D02*
X149693904Y-53814611D01*
X149836761Y-53862230D01*
X149932000Y-53862230D01*
X150074857Y-53814611D01*
X150170095Y-53719373D01*
X150217714Y-53624135D01*
X150265333Y-53433659D01*
X150265333Y-53290802D01*
X150217714Y-53100326D01*
X150170095Y-53005088D01*
X150074857Y-52909850D01*
X149932000Y-52862230D01*
X149836761Y-52862230D01*
X149693904Y-52909850D01*
X149646285Y-52957469D01*
X149027238Y-53386040D02*
X149027238Y-53862230D01*
X149360571Y-52862230D02*
X149027238Y-53386040D01*
X148693904Y-52862230D01*
X147789142Y-53862230D02*
X148122476Y-53386040D01*
X148360571Y-53862230D02*
X148360571Y-52862230D01*
X147979619Y-52862230D01*
X147884380Y-52909850D01*
X147836761Y-52957469D01*
X147789142Y-53052707D01*
X147789142Y-53195564D01*
X147836761Y-53290802D01*
X147884380Y-53338421D01*
X147979619Y-53386040D01*
X148360571Y-53386040D01*
G04 #@! TO.C,U7*
X154392380Y-59721714D02*
X154392380Y-60236000D01*
X155392380Y-59978857D02*
X154392380Y-59978857D01*
X155392380Y-60964571D02*
X155392380Y-60536000D01*
X154392380Y-60536000D01*
X154392380Y-61136000D02*
X155392380Y-61436000D01*
X154392380Y-61736000D01*
X155392380Y-62507428D02*
X155392380Y-61993142D01*
X155392380Y-62250285D02*
X154392380Y-62250285D01*
X154535238Y-62164571D01*
X154630476Y-62078857D01*
X154678095Y-61993142D01*
X155392380Y-63364571D02*
X155392380Y-62850285D01*
X155392380Y-63107428D02*
X154392380Y-63107428D01*
X154535238Y-63021714D01*
X154630476Y-62936000D01*
X154678095Y-62850285D01*
X155392380Y-64221714D02*
X155392380Y-63707428D01*
X155392380Y-63964571D02*
X154392380Y-63964571D01*
X154535238Y-63878857D01*
X154630476Y-63793142D01*
X154678095Y-63707428D01*
X154392380Y-64521714D02*
X154392380Y-65121714D01*
X155392380Y-64736000D01*
X155392380Y-65893142D02*
X155392380Y-65464571D01*
X154392380Y-65464571D01*
X154392380Y-66064571D02*
X155392380Y-66364571D01*
X154392380Y-66664571D01*
X155392380Y-67436000D02*
X155392380Y-66921714D01*
X155392380Y-67178857D02*
X154392380Y-67178857D01*
X154535238Y-67093142D01*
X154630476Y-67007428D01*
X154678095Y-66921714D01*
X154487619Y-67778857D02*
X154440000Y-67821714D01*
X154392380Y-67907428D01*
X154392380Y-68121714D01*
X154440000Y-68207428D01*
X154487619Y-68250285D01*
X154582857Y-68293142D01*
X154678095Y-68293142D01*
X154820952Y-68250285D01*
X155392380Y-67736000D01*
X155392380Y-68293142D01*
X155392380Y-68678857D02*
X154392380Y-68678857D01*
X154392380Y-68893142D01*
X154440000Y-69021714D01*
X154535238Y-69107428D01*
X154630476Y-69150285D01*
X154820952Y-69193142D01*
X154963809Y-69193142D01*
X155154285Y-69150285D01*
X155249523Y-69107428D01*
X155344761Y-69021714D01*
X155392380Y-68893142D01*
X155392380Y-68678857D01*
X155297142Y-70093142D02*
X155344761Y-70050285D01*
X155392380Y-69921714D01*
X155392380Y-69836000D01*
X155344761Y-69707428D01*
X155249523Y-69621714D01*
X155154285Y-69578857D01*
X154963809Y-69536000D01*
X154820952Y-69536000D01*
X154630476Y-69578857D01*
X154535238Y-69621714D01*
X154440000Y-69707428D01*
X154392380Y-69836000D01*
X154392380Y-69921714D01*
X154440000Y-70050285D01*
X154487619Y-70093142D01*
X154916190Y-70650285D02*
X155392380Y-70650285D01*
X154392380Y-70350285D02*
X154916190Y-70650285D01*
X154392380Y-70950285D01*
X155392380Y-71764571D02*
X154916190Y-71464571D01*
X155392380Y-71250285D02*
X154392380Y-71250285D01*
X154392380Y-71593142D01*
X154440000Y-71678857D01*
X154487619Y-71721714D01*
X154582857Y-71764571D01*
X154725714Y-71764571D01*
X154820952Y-71721714D01*
X154868571Y-71678857D01*
X154916190Y-71593142D01*
X154916190Y-71250285D01*
G04 #@! TO.C,U10*
X178465380Y-82200904D02*
X179274904Y-82200904D01*
X179370142Y-82248523D01*
X179417761Y-82296142D01*
X179465380Y-82391380D01*
X179465380Y-82581857D01*
X179417761Y-82677095D01*
X179370142Y-82724714D01*
X179274904Y-82772333D01*
X178465380Y-82772333D01*
X179465380Y-83772333D02*
X179465380Y-83200904D01*
X179465380Y-83486619D02*
X178465380Y-83486619D01*
X178608238Y-83391380D01*
X178703476Y-83296142D01*
X178751095Y-83200904D01*
X178465380Y-84391380D02*
X178465380Y-84486619D01*
X178513000Y-84581857D01*
X178560619Y-84629476D01*
X178655857Y-84677095D01*
X178846333Y-84724714D01*
X179084428Y-84724714D01*
X179274904Y-84677095D01*
X179370142Y-84629476D01*
X179417761Y-84581857D01*
X179465380Y-84486619D01*
X179465380Y-84391380D01*
X179417761Y-84296142D01*
X179370142Y-84248523D01*
X179274904Y-84200904D01*
X179084428Y-84153285D01*
X178846333Y-84153285D01*
X178655857Y-84200904D01*
X178560619Y-84248523D01*
X178513000Y-84296142D01*
X178465380Y-84391380D01*
G04 #@! TO.C,Q1*
X133762738Y-65063619D02*
X133857976Y-65016000D01*
X133953214Y-64920761D01*
X134096071Y-64777904D01*
X134191309Y-64730285D01*
X134286547Y-64730285D01*
X134238928Y-64968380D02*
X134334166Y-64920761D01*
X134429404Y-64825523D01*
X134477023Y-64635047D01*
X134477023Y-64301714D01*
X134429404Y-64111238D01*
X134334166Y-64016000D01*
X134238928Y-63968380D01*
X134048452Y-63968380D01*
X133953214Y-64016000D01*
X133857976Y-64111238D01*
X133810357Y-64301714D01*
X133810357Y-64635047D01*
X133857976Y-64825523D01*
X133953214Y-64920761D01*
X134048452Y-64968380D01*
X134238928Y-64968380D01*
X132857976Y-64968380D02*
X133429404Y-64968380D01*
X133143690Y-64968380D02*
X133143690Y-63968380D01*
X133238928Y-64111238D01*
X133334166Y-64206476D01*
X133429404Y-64254095D01*
G04 #@! TO.C,Q2*
X132413619Y-81184761D02*
X132366000Y-81089523D01*
X132270761Y-80994285D01*
X132127904Y-80851428D01*
X132080285Y-80756190D01*
X132080285Y-80660952D01*
X132318380Y-80708571D02*
X132270761Y-80613333D01*
X132175523Y-80518095D01*
X131985047Y-80470476D01*
X131651714Y-80470476D01*
X131461238Y-80518095D01*
X131366000Y-80613333D01*
X131318380Y-80708571D01*
X131318380Y-80899047D01*
X131366000Y-80994285D01*
X131461238Y-81089523D01*
X131651714Y-81137142D01*
X131985047Y-81137142D01*
X132175523Y-81089523D01*
X132270761Y-80994285D01*
X132318380Y-80899047D01*
X132318380Y-80708571D01*
X131413619Y-81518095D02*
X131366000Y-81565714D01*
X131318380Y-81660952D01*
X131318380Y-81899047D01*
X131366000Y-81994285D01*
X131413619Y-82041904D01*
X131508857Y-82089523D01*
X131604095Y-82089523D01*
X131746952Y-82041904D01*
X132318380Y-81470476D01*
X132318380Y-82089523D01*
G04 #@! TO.C,L4*
X174664666Y-109545380D02*
X175140857Y-109545380D01*
X175140857Y-108545380D01*
X173902761Y-108878714D02*
X173902761Y-109545380D01*
X174140857Y-108497761D02*
X174378952Y-109212047D01*
X173759904Y-109212047D01*
G04 #@! TO.C,L5*
X174664666Y-107132380D02*
X175140857Y-107132380D01*
X175140857Y-106132380D01*
X173855142Y-106132380D02*
X174331333Y-106132380D01*
X174378952Y-106608571D01*
X174331333Y-106560952D01*
X174236095Y-106513333D01*
X173998000Y-106513333D01*
X173902761Y-106560952D01*
X173855142Y-106608571D01*
X173807523Y-106703809D01*
X173807523Y-106941904D01*
X173855142Y-107037142D01*
X173902761Y-107084761D01*
X173998000Y-107132380D01*
X174236095Y-107132380D01*
X174331333Y-107084761D01*
X174378952Y-107037142D01*
G04 #@! TO.C,L6*
X133802380Y-132865833D02*
X133802380Y-132389642D01*
X132802380Y-132389642D01*
X132802380Y-133627738D02*
X132802380Y-133437261D01*
X132850000Y-133342023D01*
X132897619Y-133294404D01*
X133040476Y-133199166D01*
X133230952Y-133151547D01*
X133611904Y-133151547D01*
X133707142Y-133199166D01*
X133754761Y-133246785D01*
X133802380Y-133342023D01*
X133802380Y-133532500D01*
X133754761Y-133627738D01*
X133707142Y-133675357D01*
X133611904Y-133722976D01*
X133373809Y-133722976D01*
X133278571Y-133675357D01*
X133230952Y-133627738D01*
X133183333Y-133532500D01*
X133183333Y-133342023D01*
X133230952Y-133246785D01*
X133278571Y-133199166D01*
X133373809Y-133151547D01*
G04 #@! TO.C,L7*
X118911666Y-95008380D02*
X119387857Y-95008380D01*
X119387857Y-94008380D01*
X118673571Y-94008380D02*
X118006904Y-94008380D01*
X118435476Y-95008380D01*
G04 #@! TO.C,C5*
X125134666Y-114403142D02*
X125182285Y-114450761D01*
X125325142Y-114498380D01*
X125420380Y-114498380D01*
X125563238Y-114450761D01*
X125658476Y-114355523D01*
X125706095Y-114260285D01*
X125753714Y-114069809D01*
X125753714Y-113926952D01*
X125706095Y-113736476D01*
X125658476Y-113641238D01*
X125563238Y-113546000D01*
X125420380Y-113498380D01*
X125325142Y-113498380D01*
X125182285Y-113546000D01*
X125134666Y-113593619D01*
X124229904Y-113498380D02*
X124706095Y-113498380D01*
X124753714Y-113974571D01*
X124706095Y-113926952D01*
X124610857Y-113879333D01*
X124372761Y-113879333D01*
X124277523Y-113926952D01*
X124229904Y-113974571D01*
X124182285Y-114069809D01*
X124182285Y-114307904D01*
X124229904Y-114403142D01*
X124277523Y-114450761D01*
X124372761Y-114498380D01*
X124610857Y-114498380D01*
X124706095Y-114450761D01*
X124753714Y-114403142D01*
G04 #@! TO.C,R19*
X129928880Y-111371142D02*
X129452690Y-111037809D01*
X129928880Y-110799714D02*
X128928880Y-110799714D01*
X128928880Y-111180666D01*
X128976500Y-111275904D01*
X129024119Y-111323523D01*
X129119357Y-111371142D01*
X129262214Y-111371142D01*
X129357452Y-111323523D01*
X129405071Y-111275904D01*
X129452690Y-111180666D01*
X129452690Y-110799714D01*
X129928880Y-112323523D02*
X129928880Y-111752095D01*
X129928880Y-112037809D02*
X128928880Y-112037809D01*
X129071738Y-111942571D01*
X129166976Y-111847333D01*
X129214595Y-111752095D01*
X129928880Y-112799714D02*
X129928880Y-112990190D01*
X129881261Y-113085428D01*
X129833642Y-113133047D01*
X129690785Y-113228285D01*
X129500309Y-113275904D01*
X129119357Y-113275904D01*
X129024119Y-113228285D01*
X128976500Y-113180666D01*
X128928880Y-113085428D01*
X128928880Y-112894952D01*
X128976500Y-112799714D01*
X129024119Y-112752095D01*
X129119357Y-112704476D01*
X129357452Y-112704476D01*
X129452690Y-112752095D01*
X129500309Y-112799714D01*
X129547928Y-112894952D01*
X129547928Y-113085428D01*
X129500309Y-113180666D01*
X129452690Y-113228285D01*
X129357452Y-113275904D01*
G04 #@! TD*
M02*
