G04 #@! TF.GenerationSoftware,KiCad,Pcbnew,5.0.0-fee4fd1~66~ubuntu16.04.1*
G04 #@! TF.CreationDate,2018-10-21T13:34:44-05:00*
G04 #@! TF.ProjectId,design_emb,64657369676E5F656D622E6B69636164,rev?*
G04 #@! TF.SameCoordinates,Original*
G04 #@! TF.FileFunction,Paste,Top*
G04 #@! TF.FilePolarity,Positive*
%FSLAX46Y46*%
G04 Gerber Fmt 4.6, Leading zero omitted, Abs format (unit mm)*
G04 Created by KiCad (PCBNEW 5.0.0-fee4fd1~66~ubuntu16.04.1) date Sun Oct 21 13:34:44 2018*
%MOMM*%
%LPD*%
G01*
G04 APERTURE LIST*
%ADD10C,1.000000*%
%ADD11C,0.100000*%
%ADD12R,1.500000X2.000000*%
%ADD13R,2.000000X1.500000*%
%ADD14C,0.750000*%
%ADD15R,1.200000X0.750000*%
%ADD16R,0.750000X1.200000*%
%ADD17R,1.200000X0.900000*%
%ADD18C,0.900000*%
%ADD19C,1.300000*%
%ADD20R,1.500000X1.300000*%
%ADD21R,0.863600X0.660400*%
%ADD22C,1.200000*%
%ADD23R,0.900000X1.200000*%
%ADD24C,0.300000*%
%ADD25R,0.889000X1.765300*%
%ADD26R,3.149600X1.765300*%
%ADD27R,0.510000X0.400000*%
%ADD28R,1.400000X1.200000*%
G04 APERTURE END LIST*
D10*
G04 #@! TO.C,OSC1*
X137541000Y-97980500D03*
D11*
G36*
X137823843Y-98970449D02*
X136551051Y-97697657D01*
X137258157Y-96990551D01*
X138530949Y-98263343D01*
X137823843Y-98970449D01*
X137823843Y-98970449D01*
G37*
D10*
X139308766Y-96212734D03*
D11*
G36*
X139591609Y-97202683D02*
X138318817Y-95929891D01*
X139025923Y-95222785D01*
X140298715Y-96495577D01*
X139591609Y-97202683D01*
X139591609Y-97202683D01*
G37*
G04 #@! TD*
D12*
G04 #@! TO.C,RST_O*
X172440600Y-121488200D03*
X172516800Y-129743200D03*
X176961800Y-121462800D03*
X176987200Y-129743200D03*
G04 #@! TD*
D13*
G04 #@! TO.C,RST_F*
X131305300Y-134467600D03*
X123050300Y-134543800D03*
X131330700Y-138988800D03*
X123050300Y-139014200D03*
G04 #@! TD*
D14*
G04 #@! TO.C,C16*
X150531751Y-95098949D03*
D11*
G36*
X150372652Y-95788378D02*
X149842322Y-95258048D01*
X150690850Y-94409520D01*
X151221180Y-94939850D01*
X150372652Y-95788378D01*
X150372652Y-95788378D01*
G37*
D14*
X149188249Y-96442451D03*
D11*
G36*
X149029150Y-97131880D02*
X148498820Y-96601550D01*
X149347348Y-95753022D01*
X149877678Y-96283352D01*
X149029150Y-97131880D01*
X149029150Y-97131880D01*
G37*
G04 #@! TD*
D15*
G04 #@! TO.C,C18*
X129186900Y-107124500D03*
X131086900Y-107124500D03*
G04 #@! TD*
D14*
G04 #@! TO.C,C20*
X145959751Y-131608751D03*
D11*
G36*
X145270322Y-131449652D02*
X145800652Y-130919322D01*
X146649180Y-131767850D01*
X146118850Y-132298180D01*
X145270322Y-131449652D01*
X145270322Y-131449652D01*
G37*
D14*
X144616249Y-130265249D03*
D11*
G36*
X143926820Y-130106150D02*
X144457150Y-129575820D01*
X145305678Y-130424348D01*
X144775348Y-130954678D01*
X143926820Y-130106150D01*
X143926820Y-130106150D01*
G37*
G04 #@! TD*
D15*
G04 #@! TO.C,C2*
X127683300Y-105676700D03*
X125783300Y-105676700D03*
G04 #@! TD*
G04 #@! TO.C,C3*
X125034001Y-116459000D03*
X126933999Y-116459000D03*
G04 #@! TD*
D14*
G04 #@! TO.C,C4*
X136206151Y-120003649D03*
D11*
G36*
X136365250Y-119314220D02*
X136895580Y-119844550D01*
X136047052Y-120693078D01*
X135516722Y-120162748D01*
X136365250Y-119314220D01*
X136365250Y-119314220D01*
G37*
D14*
X134862649Y-121347151D03*
D11*
G36*
X135021748Y-120657722D02*
X135552078Y-121188052D01*
X134703550Y-122036580D01*
X134173220Y-121506250D01*
X135021748Y-120657722D01*
X135021748Y-120657722D01*
G37*
G04 #@! TD*
D14*
G04 #@! TO.C,C6*
X146521249Y-128995249D03*
D11*
G36*
X145831820Y-128836150D02*
X146362150Y-128305820D01*
X147210678Y-129154348D01*
X146680348Y-129684678D01*
X145831820Y-128836150D01*
X145831820Y-128836150D01*
G37*
D14*
X147864751Y-130338751D03*
D11*
G36*
X147175322Y-130179652D02*
X147705652Y-129649322D01*
X148554180Y-130497850D01*
X148023850Y-131028180D01*
X147175322Y-130179652D01*
X147175322Y-130179652D01*
G37*
G04 #@! TD*
D14*
G04 #@! TO.C,C7*
X153922651Y-126185851D03*
D11*
G36*
X153233222Y-126026752D02*
X153763552Y-125496422D01*
X154612080Y-126344950D01*
X154081750Y-126875280D01*
X153233222Y-126026752D01*
X153233222Y-126026752D01*
G37*
D14*
X152579149Y-124842349D03*
D11*
G36*
X151889720Y-124683250D02*
X152420050Y-124152920D01*
X153268578Y-125001448D01*
X152738248Y-125531778D01*
X151889720Y-124683250D01*
X151889720Y-124683250D01*
G37*
G04 #@! TD*
D14*
G04 #@! TO.C,C8*
X136742249Y-125131751D03*
D11*
G36*
X136901348Y-124442322D02*
X137431678Y-124972652D01*
X136583150Y-125821180D01*
X136052820Y-125290850D01*
X136901348Y-124442322D01*
X136901348Y-124442322D01*
G37*
D14*
X138085751Y-123788249D03*
D11*
G36*
X138244850Y-123098820D02*
X138775180Y-123629150D01*
X137926652Y-124477678D01*
X137396322Y-123947348D01*
X138244850Y-123098820D01*
X138244850Y-123098820D01*
G37*
G04 #@! TD*
D14*
G04 #@! TO.C,C9*
X140562251Y-94969251D03*
D11*
G36*
X141251680Y-95128350D02*
X140721350Y-95658680D01*
X139872822Y-94810152D01*
X140403152Y-94279822D01*
X141251680Y-95128350D01*
X141251680Y-95128350D01*
G37*
D14*
X139218749Y-93625749D03*
D11*
G36*
X139908178Y-93784848D02*
X139377848Y-94315178D01*
X138529320Y-93466650D01*
X139059650Y-92936320D01*
X139908178Y-93784848D01*
X139908178Y-93784848D01*
G37*
G04 #@! TD*
D14*
G04 #@! TO.C,C10*
X162396249Y-110272751D03*
D11*
G36*
X162237150Y-110962180D02*
X161706820Y-110431850D01*
X162555348Y-109583322D01*
X163085678Y-110113652D01*
X162237150Y-110962180D01*
X162237150Y-110962180D01*
G37*
D14*
X163739751Y-108929249D03*
D11*
G36*
X163580652Y-109618678D02*
X163050322Y-109088348D01*
X163898850Y-108239820D01*
X164429180Y-108770150D01*
X163580652Y-109618678D01*
X163580652Y-109618678D01*
G37*
G04 #@! TD*
D14*
G04 #@! TO.C,C11*
X134964249Y-97880249D03*
D11*
G36*
X135653678Y-98039348D02*
X135123348Y-98569678D01*
X134274820Y-97721150D01*
X134805150Y-97190820D01*
X135653678Y-98039348D01*
X135653678Y-98039348D01*
G37*
D14*
X136307751Y-99223751D03*
D11*
G36*
X136997180Y-99382850D02*
X136466850Y-99913180D01*
X135618322Y-99064652D01*
X136148652Y-98534322D01*
X136997180Y-99382850D01*
X136997180Y-99382850D01*
G37*
G04 #@! TD*
D14*
G04 #@! TO.C,C12*
X156500751Y-100039249D03*
D11*
G36*
X156341652Y-100728678D02*
X155811322Y-100198348D01*
X156659850Y-99349820D01*
X157190180Y-99880150D01*
X156341652Y-100728678D01*
X156341652Y-100728678D01*
G37*
D14*
X155157249Y-101382751D03*
D11*
G36*
X154998150Y-102072180D02*
X154467820Y-101541850D01*
X155316348Y-100693322D01*
X155846678Y-101223652D01*
X154998150Y-102072180D01*
X154998150Y-102072180D01*
G37*
G04 #@! TD*
D14*
G04 #@! TO.C,C13*
X156859049Y-104291051D03*
D11*
G36*
X156699950Y-104980480D02*
X156169620Y-104450150D01*
X157018148Y-103601622D01*
X157548478Y-104131952D01*
X156699950Y-104980480D01*
X156699950Y-104980480D01*
G37*
D14*
X158202551Y-102947549D03*
D11*
G36*
X158043452Y-103636978D02*
X157513122Y-103106648D01*
X158361650Y-102258120D01*
X158891980Y-102788450D01*
X158043452Y-103636978D01*
X158043452Y-103636978D01*
G37*
G04 #@! TD*
D14*
G04 #@! TO.C,C14*
X134529751Y-103468249D03*
D11*
G36*
X134688850Y-102778820D02*
X135219180Y-103309150D01*
X134370652Y-104157678D01*
X133840322Y-103627348D01*
X134688850Y-102778820D01*
X134688850Y-102778820D01*
G37*
D14*
X133186249Y-104811751D03*
D11*
G36*
X133345348Y-104122322D02*
X133875678Y-104652652D01*
X133027150Y-105501180D01*
X132496820Y-104970850D01*
X133345348Y-104122322D01*
X133345348Y-104122322D01*
G37*
G04 #@! TD*
D14*
G04 #@! TO.C,C15*
X153379249Y-100696951D03*
D11*
G36*
X153220150Y-101386380D02*
X152689820Y-100856050D01*
X153538348Y-100007522D01*
X154068678Y-100537852D01*
X153220150Y-101386380D01*
X153220150Y-101386380D01*
G37*
D14*
X154722751Y-99353449D03*
D11*
G36*
X154563652Y-100042878D02*
X154033322Y-99512548D01*
X154881850Y-98664020D01*
X155412180Y-99194350D01*
X154563652Y-100042878D01*
X154563652Y-100042878D01*
G37*
G04 #@! TD*
D14*
G04 #@! TO.C,C17*
X129957751Y-98896249D03*
D11*
G36*
X129798652Y-99585678D02*
X129268322Y-99055348D01*
X130116850Y-98206820D01*
X130647180Y-98737150D01*
X129798652Y-99585678D01*
X129798652Y-99585678D01*
G37*
D14*
X128614249Y-100239751D03*
D11*
G36*
X128455150Y-100929180D02*
X127924820Y-100398850D01*
X128773348Y-99550322D01*
X129303678Y-100080652D01*
X128455150Y-100929180D01*
X128455150Y-100929180D01*
G37*
G04 #@! TD*
D14*
G04 #@! TO.C,C19*
X155182649Y-123353751D03*
D11*
G36*
X155341748Y-122664322D02*
X155872078Y-123194652D01*
X155023550Y-124043180D01*
X154493220Y-123512850D01*
X155341748Y-122664322D01*
X155341748Y-122664322D01*
G37*
D14*
X156526151Y-122010249D03*
D11*
G36*
X156685250Y-121320820D02*
X157215580Y-121851150D01*
X156367052Y-122699678D01*
X155836722Y-122169348D01*
X156685250Y-121320820D01*
X156685250Y-121320820D01*
G37*
G04 #@! TD*
D14*
G04 #@! TO.C,C21*
X161723149Y-113955751D03*
D11*
G36*
X161564050Y-114645180D02*
X161033720Y-114114850D01*
X161882248Y-113266322D01*
X162412578Y-113796652D01*
X161564050Y-114645180D01*
X161564050Y-114645180D01*
G37*
D14*
X163066651Y-112612249D03*
D11*
G36*
X162907552Y-113301678D02*
X162377222Y-112771348D01*
X163225750Y-111922820D01*
X163756080Y-112453150D01*
X162907552Y-113301678D01*
X162907552Y-113301678D01*
G37*
G04 #@! TD*
D15*
G04 #@! TO.C,C22*
X127695999Y-103378000D03*
X125796001Y-103378000D03*
G04 #@! TD*
D16*
G04 #@! TO.C,C37*
X159004000Y-56581000D03*
X159004000Y-58481000D03*
G04 #@! TD*
D15*
G04 #@! TO.C,C40*
X156525000Y-59055000D03*
X154625000Y-59055000D03*
G04 #@! TD*
G04 #@! TO.C,C43*
X156525000Y-61722000D03*
X154625000Y-61722000D03*
G04 #@! TD*
D17*
G04 #@! TO.C,D1*
X126169600Y-125412500D03*
X123969600Y-125412500D03*
G04 #@! TD*
D18*
G04 #@! TO.C,D2*
X133511983Y-128120717D03*
D11*
G36*
X133618049Y-127378255D02*
X134254445Y-128014651D01*
X133405917Y-128863179D01*
X132769521Y-128226783D01*
X133618049Y-127378255D01*
X133618049Y-127378255D01*
G37*
D18*
X135067617Y-126565083D03*
D11*
G36*
X135173683Y-125822621D02*
X135810079Y-126459017D01*
X134961551Y-127307545D01*
X134325155Y-126671149D01*
X135173683Y-125822621D01*
X135173683Y-125822621D01*
G37*
G04 #@! TD*
D17*
G04 #@! TO.C,D4*
X140759000Y-48514000D03*
X142959000Y-48514000D03*
G04 #@! TD*
G04 #@! TO.C,D6*
X176106000Y-60706000D03*
X173906000Y-60706000D03*
G04 #@! TD*
G04 #@! TO.C,D9*
X133350000Y-55118000D03*
X135550000Y-55118000D03*
G04 #@! TD*
G04 #@! TO.C,D10*
X132250000Y-90170000D03*
X134450000Y-90170000D03*
G04 #@! TD*
D19*
G04 #@! TO.C,L1*
X154277506Y-121642694D03*
D11*
G36*
X154206795Y-122632643D02*
X153287557Y-121713405D01*
X154348217Y-120652745D01*
X155267455Y-121571983D01*
X154206795Y-122632643D01*
X154206795Y-122632643D01*
G37*
D19*
X156186694Y-119733506D03*
D11*
G36*
X156115983Y-120723455D02*
X155196745Y-119804217D01*
X156257405Y-118743557D01*
X157176643Y-119662795D01*
X156115983Y-120723455D01*
X156115983Y-120723455D01*
G37*
G04 #@! TD*
D20*
G04 #@! TO.C,L2*
X125074700Y-109905800D03*
X127774700Y-109905800D03*
G04 #@! TD*
D21*
G04 #@! TO.C,LSRF1*
X183324500Y-58788300D03*
X183324500Y-60337700D03*
X184467500Y-60337700D03*
X184467500Y-58788300D03*
G04 #@! TD*
D22*
G04 #@! TO.C,OSC2*
X131748777Y-103232858D03*
D11*
G36*
X132668016Y-103303569D02*
X131819488Y-104152097D01*
X130829538Y-103162147D01*
X131678066Y-102313619D01*
X132668016Y-103303569D01*
X132668016Y-103303569D01*
G37*
D22*
X130193142Y-101677223D03*
D11*
G36*
X131112381Y-101747934D02*
X130263853Y-102596462D01*
X129273903Y-101606512D01*
X130122431Y-100757984D01*
X131112381Y-101747934D01*
X131112381Y-101747934D01*
G37*
D22*
X131395223Y-100475142D03*
D11*
G36*
X132314462Y-100545853D02*
X131465934Y-101394381D01*
X130475984Y-100404431D01*
X131324512Y-99555903D01*
X132314462Y-100545853D01*
X132314462Y-100545853D01*
G37*
D22*
X132950858Y-102030777D03*
D11*
G36*
X133870097Y-102101488D02*
X133021569Y-102950016D01*
X132031619Y-101960066D01*
X132880147Y-101111538D01*
X133870097Y-102101488D01*
X133870097Y-102101488D01*
G37*
G04 #@! TD*
D17*
G04 #@! TO.C,R1*
X123931500Y-123558300D03*
X126131500Y-123558300D03*
G04 #@! TD*
G04 #@! TO.C,R2*
X120400900Y-127419100D03*
X122600900Y-127419100D03*
G04 #@! TD*
G04 #@! TO.C,R3*
X127690700Y-127406400D03*
X129890700Y-127406400D03*
G04 #@! TD*
D18*
G04 #@! TO.C,R4*
X134527983Y-129111317D03*
D11*
G36*
X134634049Y-128368855D02*
X135270445Y-129005251D01*
X134421917Y-129853779D01*
X133785521Y-129217383D01*
X134634049Y-128368855D01*
X134634049Y-128368855D01*
G37*
D18*
X136083617Y-127555683D03*
D11*
G36*
X136189683Y-126813221D02*
X136826079Y-127449617D01*
X135977551Y-128298145D01*
X135341155Y-127661749D01*
X136189683Y-126813221D01*
X136189683Y-126813221D01*
G37*
G04 #@! TD*
D23*
G04 #@! TO.C,R8*
X176149000Y-65489000D03*
X176149000Y-63289000D03*
G04 #@! TD*
D17*
G04 #@! TO.C,R9*
X170256200Y-95211900D03*
X168056200Y-95211900D03*
G04 #@! TD*
G04 #@! TO.C,R11*
X181694000Y-83185000D03*
X179494000Y-83185000D03*
G04 #@! TD*
D24*
G04 #@! TO.C,STM32F446ZETx*
X147126815Y-97806995D03*
D11*
G36*
X146684873Y-98461069D02*
X146472741Y-98248937D01*
X147568757Y-97152921D01*
X147780889Y-97365053D01*
X146684873Y-98461069D01*
X146684873Y-98461069D01*
G37*
D24*
X147480369Y-98160548D03*
D11*
G36*
X147038427Y-98814622D02*
X146826295Y-98602490D01*
X147922311Y-97506474D01*
X148134443Y-97718606D01*
X147038427Y-98814622D01*
X147038427Y-98814622D01*
G37*
D24*
X147833922Y-98514102D03*
D11*
G36*
X147391980Y-99168176D02*
X147179848Y-98956044D01*
X148275864Y-97860028D01*
X148487996Y-98072160D01*
X147391980Y-99168176D01*
X147391980Y-99168176D01*
G37*
D24*
X148187475Y-98867655D03*
D11*
G36*
X147745533Y-99521729D02*
X147533401Y-99309597D01*
X148629417Y-98213581D01*
X148841549Y-98425713D01*
X147745533Y-99521729D01*
X147745533Y-99521729D01*
G37*
D24*
X148541029Y-99221209D03*
D11*
G36*
X148099087Y-99875283D02*
X147886955Y-99663151D01*
X148982971Y-98567135D01*
X149195103Y-98779267D01*
X148099087Y-99875283D01*
X148099087Y-99875283D01*
G37*
D24*
X148894582Y-99574762D03*
D11*
G36*
X148452640Y-100228836D02*
X148240508Y-100016704D01*
X149336524Y-98920688D01*
X149548656Y-99132820D01*
X148452640Y-100228836D01*
X148452640Y-100228836D01*
G37*
D24*
X149248136Y-99928315D03*
D11*
G36*
X148806194Y-100582389D02*
X148594062Y-100370257D01*
X149690078Y-99274241D01*
X149902210Y-99486373D01*
X148806194Y-100582389D01*
X148806194Y-100582389D01*
G37*
D24*
X149601689Y-100281869D03*
D11*
G36*
X149159747Y-100935943D02*
X148947615Y-100723811D01*
X150043631Y-99627795D01*
X150255763Y-99839927D01*
X149159747Y-100935943D01*
X149159747Y-100935943D01*
G37*
D24*
X149955242Y-100635422D03*
D11*
G36*
X149513300Y-101289496D02*
X149301168Y-101077364D01*
X150397184Y-99981348D01*
X150609316Y-100193480D01*
X149513300Y-101289496D01*
X149513300Y-101289496D01*
G37*
D24*
X150308796Y-100988976D03*
D11*
G36*
X149866854Y-101643050D02*
X149654722Y-101430918D01*
X150750738Y-100334902D01*
X150962870Y-100547034D01*
X149866854Y-101643050D01*
X149866854Y-101643050D01*
G37*
D24*
X150662349Y-101342529D03*
D11*
G36*
X150220407Y-101996603D02*
X150008275Y-101784471D01*
X151104291Y-100688455D01*
X151316423Y-100900587D01*
X150220407Y-101996603D01*
X150220407Y-101996603D01*
G37*
D24*
X151015903Y-101696082D03*
D11*
G36*
X150573961Y-102350156D02*
X150361829Y-102138024D01*
X151457845Y-101042008D01*
X151669977Y-101254140D01*
X150573961Y-102350156D01*
X150573961Y-102350156D01*
G37*
D24*
X151369456Y-102049636D03*
D11*
G36*
X150927514Y-102703710D02*
X150715382Y-102491578D01*
X151811398Y-101395562D01*
X152023530Y-101607694D01*
X150927514Y-102703710D01*
X150927514Y-102703710D01*
G37*
D24*
X151723009Y-102403189D03*
D11*
G36*
X151281067Y-103057263D02*
X151068935Y-102845131D01*
X152164951Y-101749115D01*
X152377083Y-101961247D01*
X151281067Y-103057263D01*
X151281067Y-103057263D01*
G37*
D24*
X152076563Y-102756743D03*
D11*
G36*
X151634621Y-103410817D02*
X151422489Y-103198685D01*
X152518505Y-102102669D01*
X152730637Y-102314801D01*
X151634621Y-103410817D01*
X151634621Y-103410817D01*
G37*
D24*
X152430116Y-103110296D03*
D11*
G36*
X151988174Y-103764370D02*
X151776042Y-103552238D01*
X152872058Y-102456222D01*
X153084190Y-102668354D01*
X151988174Y-103764370D01*
X151988174Y-103764370D01*
G37*
D24*
X152783669Y-103463849D03*
D11*
G36*
X152341727Y-104117923D02*
X152129595Y-103905791D01*
X153225611Y-102809775D01*
X153437743Y-103021907D01*
X152341727Y-104117923D01*
X152341727Y-104117923D01*
G37*
D24*
X153137223Y-103817403D03*
D11*
G36*
X152695281Y-104471477D02*
X152483149Y-104259345D01*
X153579165Y-103163329D01*
X153791297Y-103375461D01*
X152695281Y-104471477D01*
X152695281Y-104471477D01*
G37*
D24*
X153490776Y-104170956D03*
D11*
G36*
X153048834Y-104825030D02*
X152836702Y-104612898D01*
X153932718Y-103516882D01*
X154144850Y-103729014D01*
X153048834Y-104825030D01*
X153048834Y-104825030D01*
G37*
D24*
X153844330Y-104524510D03*
D11*
G36*
X153402388Y-105178584D02*
X153190256Y-104966452D01*
X154286272Y-103870436D01*
X154498404Y-104082568D01*
X153402388Y-105178584D01*
X153402388Y-105178584D01*
G37*
D24*
X154197883Y-104878063D03*
D11*
G36*
X153755941Y-105532137D02*
X153543809Y-105320005D01*
X154639825Y-104223989D01*
X154851957Y-104436121D01*
X153755941Y-105532137D01*
X153755941Y-105532137D01*
G37*
D24*
X154551436Y-105231616D03*
D11*
G36*
X154109494Y-105885690D02*
X153897362Y-105673558D01*
X154993378Y-104577542D01*
X155205510Y-104789674D01*
X154109494Y-105885690D01*
X154109494Y-105885690D01*
G37*
D24*
X154904990Y-105585170D03*
D11*
G36*
X154463048Y-106239244D02*
X154250916Y-106027112D01*
X155346932Y-104931096D01*
X155559064Y-105143228D01*
X154463048Y-106239244D01*
X154463048Y-106239244D01*
G37*
D24*
X155258543Y-105938723D03*
D11*
G36*
X154816601Y-106592797D02*
X154604469Y-106380665D01*
X155700485Y-105284649D01*
X155912617Y-105496781D01*
X154816601Y-106592797D01*
X154816601Y-106592797D01*
G37*
D24*
X155612097Y-106292276D03*
D11*
G36*
X155170155Y-106946350D02*
X154958023Y-106734218D01*
X156054039Y-105638202D01*
X156266171Y-105850334D01*
X155170155Y-106946350D01*
X155170155Y-106946350D01*
G37*
D24*
X155965650Y-106645830D03*
D11*
G36*
X155523708Y-107299904D02*
X155311576Y-107087772D01*
X156407592Y-105991756D01*
X156619724Y-106203888D01*
X155523708Y-107299904D01*
X155523708Y-107299904D01*
G37*
D24*
X156319203Y-106999383D03*
D11*
G36*
X155877261Y-107653457D02*
X155665129Y-107441325D01*
X156761145Y-106345309D01*
X156973277Y-106557441D01*
X155877261Y-107653457D01*
X155877261Y-107653457D01*
G37*
D24*
X156672757Y-107352937D03*
D11*
G36*
X156230815Y-108007011D02*
X156018683Y-107794879D01*
X157114699Y-106698863D01*
X157326831Y-106910995D01*
X156230815Y-108007011D01*
X156230815Y-108007011D01*
G37*
D24*
X157026310Y-107706490D03*
D11*
G36*
X156584368Y-108360564D02*
X156372236Y-108148432D01*
X157468252Y-107052416D01*
X157680384Y-107264548D01*
X156584368Y-108360564D01*
X156584368Y-108360564D01*
G37*
D24*
X157379864Y-108060043D03*
D11*
G36*
X156937922Y-108714117D02*
X156725790Y-108501985D01*
X157821806Y-107405969D01*
X158033938Y-107618101D01*
X156937922Y-108714117D01*
X156937922Y-108714117D01*
G37*
D24*
X157733417Y-108413597D03*
D11*
G36*
X157291475Y-109067671D02*
X157079343Y-108855539D01*
X158175359Y-107759523D01*
X158387491Y-107971655D01*
X157291475Y-109067671D01*
X157291475Y-109067671D01*
G37*
D24*
X158086970Y-108767150D03*
D11*
G36*
X157645028Y-109421224D02*
X157432896Y-109209092D01*
X158528912Y-108113076D01*
X158741044Y-108325208D01*
X157645028Y-109421224D01*
X157645028Y-109421224D01*
G37*
D24*
X158440524Y-109120704D03*
D11*
G36*
X157998582Y-109774778D02*
X157786450Y-109562646D01*
X158882466Y-108466630D01*
X159094598Y-108678762D01*
X157998582Y-109774778D01*
X157998582Y-109774778D01*
G37*
D24*
X158794077Y-109474257D03*
D11*
G36*
X158352135Y-110128331D02*
X158140003Y-109916199D01*
X159236019Y-108820183D01*
X159448151Y-109032315D01*
X158352135Y-110128331D01*
X158352135Y-110128331D01*
G37*
D24*
X159147631Y-109827810D03*
D11*
G36*
X158705689Y-110481884D02*
X158493557Y-110269752D01*
X159589573Y-109173736D01*
X159801705Y-109385868D01*
X158705689Y-110481884D01*
X158705689Y-110481884D01*
G37*
D24*
X159501184Y-110181364D03*
D11*
G36*
X159059242Y-110835438D02*
X158847110Y-110623306D01*
X159943126Y-109527290D01*
X160155258Y-109739422D01*
X159059242Y-110835438D01*
X159059242Y-110835438D01*
G37*
D24*
X159501184Y-112939080D03*
D11*
G36*
X158847110Y-112497138D02*
X159059242Y-112285006D01*
X160155258Y-113381022D01*
X159943126Y-113593154D01*
X158847110Y-112497138D01*
X158847110Y-112497138D01*
G37*
D24*
X159147631Y-113292634D03*
D11*
G36*
X158493557Y-112850692D02*
X158705689Y-112638560D01*
X159801705Y-113734576D01*
X159589573Y-113946708D01*
X158493557Y-112850692D01*
X158493557Y-112850692D01*
G37*
D24*
X158794077Y-113646187D03*
D11*
G36*
X158140003Y-113204245D02*
X158352135Y-112992113D01*
X159448151Y-114088129D01*
X159236019Y-114300261D01*
X158140003Y-113204245D01*
X158140003Y-113204245D01*
G37*
D24*
X158440524Y-113999740D03*
D11*
G36*
X157786450Y-113557798D02*
X157998582Y-113345666D01*
X159094598Y-114441682D01*
X158882466Y-114653814D01*
X157786450Y-113557798D01*
X157786450Y-113557798D01*
G37*
D24*
X158086970Y-114353294D03*
D11*
G36*
X157432896Y-113911352D02*
X157645028Y-113699220D01*
X158741044Y-114795236D01*
X158528912Y-115007368D01*
X157432896Y-113911352D01*
X157432896Y-113911352D01*
G37*
D24*
X157733417Y-114706847D03*
D11*
G36*
X157079343Y-114264905D02*
X157291475Y-114052773D01*
X158387491Y-115148789D01*
X158175359Y-115360921D01*
X157079343Y-114264905D01*
X157079343Y-114264905D01*
G37*
D24*
X157379864Y-115060401D03*
D11*
G36*
X156725790Y-114618459D02*
X156937922Y-114406327D01*
X158033938Y-115502343D01*
X157821806Y-115714475D01*
X156725790Y-114618459D01*
X156725790Y-114618459D01*
G37*
D24*
X157026310Y-115413954D03*
D11*
G36*
X156372236Y-114972012D02*
X156584368Y-114759880D01*
X157680384Y-115855896D01*
X157468252Y-116068028D01*
X156372236Y-114972012D01*
X156372236Y-114972012D01*
G37*
D24*
X156672757Y-115767507D03*
D11*
G36*
X156018683Y-115325565D02*
X156230815Y-115113433D01*
X157326831Y-116209449D01*
X157114699Y-116421581D01*
X156018683Y-115325565D01*
X156018683Y-115325565D01*
G37*
D24*
X156319203Y-116121061D03*
D11*
G36*
X155665129Y-115679119D02*
X155877261Y-115466987D01*
X156973277Y-116563003D01*
X156761145Y-116775135D01*
X155665129Y-115679119D01*
X155665129Y-115679119D01*
G37*
D24*
X155965650Y-116474614D03*
D11*
G36*
X155311576Y-116032672D02*
X155523708Y-115820540D01*
X156619724Y-116916556D01*
X156407592Y-117128688D01*
X155311576Y-116032672D01*
X155311576Y-116032672D01*
G37*
D24*
X155612097Y-116828168D03*
D11*
G36*
X154958023Y-116386226D02*
X155170155Y-116174094D01*
X156266171Y-117270110D01*
X156054039Y-117482242D01*
X154958023Y-116386226D01*
X154958023Y-116386226D01*
G37*
D24*
X155258543Y-117181721D03*
D11*
G36*
X154604469Y-116739779D02*
X154816601Y-116527647D01*
X155912617Y-117623663D01*
X155700485Y-117835795D01*
X154604469Y-116739779D01*
X154604469Y-116739779D01*
G37*
D24*
X154904990Y-117535274D03*
D11*
G36*
X154250916Y-117093332D02*
X154463048Y-116881200D01*
X155559064Y-117977216D01*
X155346932Y-118189348D01*
X154250916Y-117093332D01*
X154250916Y-117093332D01*
G37*
D24*
X154551436Y-117888828D03*
D11*
G36*
X153897362Y-117446886D02*
X154109494Y-117234754D01*
X155205510Y-118330770D01*
X154993378Y-118542902D01*
X153897362Y-117446886D01*
X153897362Y-117446886D01*
G37*
D24*
X154197883Y-118242381D03*
D11*
G36*
X153543809Y-117800439D02*
X153755941Y-117588307D01*
X154851957Y-118684323D01*
X154639825Y-118896455D01*
X153543809Y-117800439D01*
X153543809Y-117800439D01*
G37*
D24*
X153844330Y-118595934D03*
D11*
G36*
X153190256Y-118153992D02*
X153402388Y-117941860D01*
X154498404Y-119037876D01*
X154286272Y-119250008D01*
X153190256Y-118153992D01*
X153190256Y-118153992D01*
G37*
D24*
X153490776Y-118949488D03*
D11*
G36*
X152836702Y-118507546D02*
X153048834Y-118295414D01*
X154144850Y-119391430D01*
X153932718Y-119603562D01*
X152836702Y-118507546D01*
X152836702Y-118507546D01*
G37*
D24*
X153137223Y-119303041D03*
D11*
G36*
X152483149Y-118861099D02*
X152695281Y-118648967D01*
X153791297Y-119744983D01*
X153579165Y-119957115D01*
X152483149Y-118861099D01*
X152483149Y-118861099D01*
G37*
D24*
X152783669Y-119656595D03*
D11*
G36*
X152129595Y-119214653D02*
X152341727Y-119002521D01*
X153437743Y-120098537D01*
X153225611Y-120310669D01*
X152129595Y-119214653D01*
X152129595Y-119214653D01*
G37*
D24*
X152430116Y-120010148D03*
D11*
G36*
X151776042Y-119568206D02*
X151988174Y-119356074D01*
X153084190Y-120452090D01*
X152872058Y-120664222D01*
X151776042Y-119568206D01*
X151776042Y-119568206D01*
G37*
D24*
X152076563Y-120363701D03*
D11*
G36*
X151422489Y-119921759D02*
X151634621Y-119709627D01*
X152730637Y-120805643D01*
X152518505Y-121017775D01*
X151422489Y-119921759D01*
X151422489Y-119921759D01*
G37*
D24*
X151723009Y-120717255D03*
D11*
G36*
X151068935Y-120275313D02*
X151281067Y-120063181D01*
X152377083Y-121159197D01*
X152164951Y-121371329D01*
X151068935Y-120275313D01*
X151068935Y-120275313D01*
G37*
D24*
X151369456Y-121070808D03*
D11*
G36*
X150715382Y-120628866D02*
X150927514Y-120416734D01*
X152023530Y-121512750D01*
X151811398Y-121724882D01*
X150715382Y-120628866D01*
X150715382Y-120628866D01*
G37*
D24*
X151015903Y-121424362D03*
D11*
G36*
X150361829Y-120982420D02*
X150573961Y-120770288D01*
X151669977Y-121866304D01*
X151457845Y-122078436D01*
X150361829Y-120982420D01*
X150361829Y-120982420D01*
G37*
D24*
X150662349Y-121777915D03*
D11*
G36*
X150008275Y-121335973D02*
X150220407Y-121123841D01*
X151316423Y-122219857D01*
X151104291Y-122431989D01*
X150008275Y-121335973D01*
X150008275Y-121335973D01*
G37*
D24*
X150308796Y-122131468D03*
D11*
G36*
X149654722Y-121689526D02*
X149866854Y-121477394D01*
X150962870Y-122573410D01*
X150750738Y-122785542D01*
X149654722Y-121689526D01*
X149654722Y-121689526D01*
G37*
D24*
X149955242Y-122485022D03*
D11*
G36*
X149301168Y-122043080D02*
X149513300Y-121830948D01*
X150609316Y-122926964D01*
X150397184Y-123139096D01*
X149301168Y-122043080D01*
X149301168Y-122043080D01*
G37*
D24*
X149601689Y-122838575D03*
D11*
G36*
X148947615Y-122396633D02*
X149159747Y-122184501D01*
X150255763Y-123280517D01*
X150043631Y-123492649D01*
X148947615Y-122396633D01*
X148947615Y-122396633D01*
G37*
D24*
X149248136Y-123192129D03*
D11*
G36*
X148594062Y-122750187D02*
X148806194Y-122538055D01*
X149902210Y-123634071D01*
X149690078Y-123846203D01*
X148594062Y-122750187D01*
X148594062Y-122750187D01*
G37*
D24*
X148894582Y-123545682D03*
D11*
G36*
X148240508Y-123103740D02*
X148452640Y-122891608D01*
X149548656Y-123987624D01*
X149336524Y-124199756D01*
X148240508Y-123103740D01*
X148240508Y-123103740D01*
G37*
D24*
X148541029Y-123899235D03*
D11*
G36*
X147886955Y-123457293D02*
X148099087Y-123245161D01*
X149195103Y-124341177D01*
X148982971Y-124553309D01*
X147886955Y-123457293D01*
X147886955Y-123457293D01*
G37*
D24*
X148187475Y-124252789D03*
D11*
G36*
X147533401Y-123810847D02*
X147745533Y-123598715D01*
X148841549Y-124694731D01*
X148629417Y-124906863D01*
X147533401Y-123810847D01*
X147533401Y-123810847D01*
G37*
D24*
X147833922Y-124606342D03*
D11*
G36*
X147179848Y-124164400D02*
X147391980Y-123952268D01*
X148487996Y-125048284D01*
X148275864Y-125260416D01*
X147179848Y-124164400D01*
X147179848Y-124164400D01*
G37*
D24*
X147480369Y-124959896D03*
D11*
G36*
X146826295Y-124517954D02*
X147038427Y-124305822D01*
X148134443Y-125401838D01*
X147922311Y-125613970D01*
X146826295Y-124517954D01*
X146826295Y-124517954D01*
G37*
D24*
X147126815Y-125313449D03*
D11*
G36*
X146472741Y-124871507D02*
X146684873Y-124659375D01*
X147780889Y-125755391D01*
X147568757Y-125967523D01*
X146472741Y-124871507D01*
X146472741Y-124871507D01*
G37*
D24*
X144369099Y-125313449D03*
D11*
G36*
X143927157Y-125967523D02*
X143715025Y-125755391D01*
X144811041Y-124659375D01*
X145023173Y-124871507D01*
X143927157Y-125967523D01*
X143927157Y-125967523D01*
G37*
D24*
X144015545Y-124959896D03*
D11*
G36*
X143573603Y-125613970D02*
X143361471Y-125401838D01*
X144457487Y-124305822D01*
X144669619Y-124517954D01*
X143573603Y-125613970D01*
X143573603Y-125613970D01*
G37*
D24*
X143661992Y-124606342D03*
D11*
G36*
X143220050Y-125260416D02*
X143007918Y-125048284D01*
X144103934Y-123952268D01*
X144316066Y-124164400D01*
X143220050Y-125260416D01*
X143220050Y-125260416D01*
G37*
D24*
X143308439Y-124252789D03*
D11*
G36*
X142866497Y-124906863D02*
X142654365Y-124694731D01*
X143750381Y-123598715D01*
X143962513Y-123810847D01*
X142866497Y-124906863D01*
X142866497Y-124906863D01*
G37*
D24*
X142954885Y-123899235D03*
D11*
G36*
X142512943Y-124553309D02*
X142300811Y-124341177D01*
X143396827Y-123245161D01*
X143608959Y-123457293D01*
X142512943Y-124553309D01*
X142512943Y-124553309D01*
G37*
D24*
X142601332Y-123545682D03*
D11*
G36*
X142159390Y-124199756D02*
X141947258Y-123987624D01*
X143043274Y-122891608D01*
X143255406Y-123103740D01*
X142159390Y-124199756D01*
X142159390Y-124199756D01*
G37*
D24*
X142247778Y-123192129D03*
D11*
G36*
X141805836Y-123846203D02*
X141593704Y-123634071D01*
X142689720Y-122538055D01*
X142901852Y-122750187D01*
X141805836Y-123846203D01*
X141805836Y-123846203D01*
G37*
D24*
X141894225Y-122838575D03*
D11*
G36*
X141452283Y-123492649D02*
X141240151Y-123280517D01*
X142336167Y-122184501D01*
X142548299Y-122396633D01*
X141452283Y-123492649D01*
X141452283Y-123492649D01*
G37*
D24*
X141540672Y-122485022D03*
D11*
G36*
X141098730Y-123139096D02*
X140886598Y-122926964D01*
X141982614Y-121830948D01*
X142194746Y-122043080D01*
X141098730Y-123139096D01*
X141098730Y-123139096D01*
G37*
D24*
X141187118Y-122131468D03*
D11*
G36*
X140745176Y-122785542D02*
X140533044Y-122573410D01*
X141629060Y-121477394D01*
X141841192Y-121689526D01*
X140745176Y-122785542D01*
X140745176Y-122785542D01*
G37*
D24*
X140833565Y-121777915D03*
D11*
G36*
X140391623Y-122431989D02*
X140179491Y-122219857D01*
X141275507Y-121123841D01*
X141487639Y-121335973D01*
X140391623Y-122431989D01*
X140391623Y-122431989D01*
G37*
D24*
X140480011Y-121424362D03*
D11*
G36*
X140038069Y-122078436D02*
X139825937Y-121866304D01*
X140921953Y-120770288D01*
X141134085Y-120982420D01*
X140038069Y-122078436D01*
X140038069Y-122078436D01*
G37*
D24*
X140126458Y-121070808D03*
D11*
G36*
X139684516Y-121724882D02*
X139472384Y-121512750D01*
X140568400Y-120416734D01*
X140780532Y-120628866D01*
X139684516Y-121724882D01*
X139684516Y-121724882D01*
G37*
D24*
X139772905Y-120717255D03*
D11*
G36*
X139330963Y-121371329D02*
X139118831Y-121159197D01*
X140214847Y-120063181D01*
X140426979Y-120275313D01*
X139330963Y-121371329D01*
X139330963Y-121371329D01*
G37*
D24*
X139419351Y-120363701D03*
D11*
G36*
X138977409Y-121017775D02*
X138765277Y-120805643D01*
X139861293Y-119709627D01*
X140073425Y-119921759D01*
X138977409Y-121017775D01*
X138977409Y-121017775D01*
G37*
D24*
X139065798Y-120010148D03*
D11*
G36*
X138623856Y-120664222D02*
X138411724Y-120452090D01*
X139507740Y-119356074D01*
X139719872Y-119568206D01*
X138623856Y-120664222D01*
X138623856Y-120664222D01*
G37*
D24*
X138712245Y-119656595D03*
D11*
G36*
X138270303Y-120310669D02*
X138058171Y-120098537D01*
X139154187Y-119002521D01*
X139366319Y-119214653D01*
X138270303Y-120310669D01*
X138270303Y-120310669D01*
G37*
D24*
X138358691Y-119303041D03*
D11*
G36*
X137916749Y-119957115D02*
X137704617Y-119744983D01*
X138800633Y-118648967D01*
X139012765Y-118861099D01*
X137916749Y-119957115D01*
X137916749Y-119957115D01*
G37*
D24*
X138005138Y-118949488D03*
D11*
G36*
X137563196Y-119603562D02*
X137351064Y-119391430D01*
X138447080Y-118295414D01*
X138659212Y-118507546D01*
X137563196Y-119603562D01*
X137563196Y-119603562D01*
G37*
D24*
X137651584Y-118595934D03*
D11*
G36*
X137209642Y-119250008D02*
X136997510Y-119037876D01*
X138093526Y-117941860D01*
X138305658Y-118153992D01*
X137209642Y-119250008D01*
X137209642Y-119250008D01*
G37*
D24*
X137298031Y-118242381D03*
D11*
G36*
X136856089Y-118896455D02*
X136643957Y-118684323D01*
X137739973Y-117588307D01*
X137952105Y-117800439D01*
X136856089Y-118896455D01*
X136856089Y-118896455D01*
G37*
D24*
X136944478Y-117888828D03*
D11*
G36*
X136502536Y-118542902D02*
X136290404Y-118330770D01*
X137386420Y-117234754D01*
X137598552Y-117446886D01*
X136502536Y-118542902D01*
X136502536Y-118542902D01*
G37*
D24*
X136590924Y-117535274D03*
D11*
G36*
X136148982Y-118189348D02*
X135936850Y-117977216D01*
X137032866Y-116881200D01*
X137244998Y-117093332D01*
X136148982Y-118189348D01*
X136148982Y-118189348D01*
G37*
D24*
X136237371Y-117181721D03*
D11*
G36*
X135795429Y-117835795D02*
X135583297Y-117623663D01*
X136679313Y-116527647D01*
X136891445Y-116739779D01*
X135795429Y-117835795D01*
X135795429Y-117835795D01*
G37*
D24*
X135883817Y-116828168D03*
D11*
G36*
X135441875Y-117482242D02*
X135229743Y-117270110D01*
X136325759Y-116174094D01*
X136537891Y-116386226D01*
X135441875Y-117482242D01*
X135441875Y-117482242D01*
G37*
D24*
X135530264Y-116474614D03*
D11*
G36*
X135088322Y-117128688D02*
X134876190Y-116916556D01*
X135972206Y-115820540D01*
X136184338Y-116032672D01*
X135088322Y-117128688D01*
X135088322Y-117128688D01*
G37*
D24*
X135176711Y-116121061D03*
D11*
G36*
X134734769Y-116775135D02*
X134522637Y-116563003D01*
X135618653Y-115466987D01*
X135830785Y-115679119D01*
X134734769Y-116775135D01*
X134734769Y-116775135D01*
G37*
D24*
X134823157Y-115767507D03*
D11*
G36*
X134381215Y-116421581D02*
X134169083Y-116209449D01*
X135265099Y-115113433D01*
X135477231Y-115325565D01*
X134381215Y-116421581D01*
X134381215Y-116421581D01*
G37*
D24*
X134469604Y-115413954D03*
D11*
G36*
X134027662Y-116068028D02*
X133815530Y-115855896D01*
X134911546Y-114759880D01*
X135123678Y-114972012D01*
X134027662Y-116068028D01*
X134027662Y-116068028D01*
G37*
D24*
X134116050Y-115060401D03*
D11*
G36*
X133674108Y-115714475D02*
X133461976Y-115502343D01*
X134557992Y-114406327D01*
X134770124Y-114618459D01*
X133674108Y-115714475D01*
X133674108Y-115714475D01*
G37*
D24*
X133762497Y-114706847D03*
D11*
G36*
X133320555Y-115360921D02*
X133108423Y-115148789D01*
X134204439Y-114052773D01*
X134416571Y-114264905D01*
X133320555Y-115360921D01*
X133320555Y-115360921D01*
G37*
D24*
X133408944Y-114353294D03*
D11*
G36*
X132967002Y-115007368D02*
X132754870Y-114795236D01*
X133850886Y-113699220D01*
X134063018Y-113911352D01*
X132967002Y-115007368D01*
X132967002Y-115007368D01*
G37*
D24*
X133055390Y-113999740D03*
D11*
G36*
X132613448Y-114653814D02*
X132401316Y-114441682D01*
X133497332Y-113345666D01*
X133709464Y-113557798D01*
X132613448Y-114653814D01*
X132613448Y-114653814D01*
G37*
D24*
X132701837Y-113646187D03*
D11*
G36*
X132259895Y-114300261D02*
X132047763Y-114088129D01*
X133143779Y-112992113D01*
X133355911Y-113204245D01*
X132259895Y-114300261D01*
X132259895Y-114300261D01*
G37*
D24*
X132348283Y-113292634D03*
D11*
G36*
X131906341Y-113946708D02*
X131694209Y-113734576D01*
X132790225Y-112638560D01*
X133002357Y-112850692D01*
X131906341Y-113946708D01*
X131906341Y-113946708D01*
G37*
D24*
X131994730Y-112939080D03*
D11*
G36*
X131552788Y-113593154D02*
X131340656Y-113381022D01*
X132436672Y-112285006D01*
X132648804Y-112497138D01*
X131552788Y-113593154D01*
X131552788Y-113593154D01*
G37*
D24*
X131994730Y-110181364D03*
D11*
G36*
X131340656Y-109739422D02*
X131552788Y-109527290D01*
X132648804Y-110623306D01*
X132436672Y-110835438D01*
X131340656Y-109739422D01*
X131340656Y-109739422D01*
G37*
D24*
X132348283Y-109827810D03*
D11*
G36*
X131694209Y-109385868D02*
X131906341Y-109173736D01*
X133002357Y-110269752D01*
X132790225Y-110481884D01*
X131694209Y-109385868D01*
X131694209Y-109385868D01*
G37*
D24*
X132701837Y-109474257D03*
D11*
G36*
X132047763Y-109032315D02*
X132259895Y-108820183D01*
X133355911Y-109916199D01*
X133143779Y-110128331D01*
X132047763Y-109032315D01*
X132047763Y-109032315D01*
G37*
D24*
X133055390Y-109120704D03*
D11*
G36*
X132401316Y-108678762D02*
X132613448Y-108466630D01*
X133709464Y-109562646D01*
X133497332Y-109774778D01*
X132401316Y-108678762D01*
X132401316Y-108678762D01*
G37*
D24*
X133408944Y-108767150D03*
D11*
G36*
X132754870Y-108325208D02*
X132967002Y-108113076D01*
X134063018Y-109209092D01*
X133850886Y-109421224D01*
X132754870Y-108325208D01*
X132754870Y-108325208D01*
G37*
D24*
X133762497Y-108413597D03*
D11*
G36*
X133108423Y-107971655D02*
X133320555Y-107759523D01*
X134416571Y-108855539D01*
X134204439Y-109067671D01*
X133108423Y-107971655D01*
X133108423Y-107971655D01*
G37*
D24*
X134116050Y-108060043D03*
D11*
G36*
X133461976Y-107618101D02*
X133674108Y-107405969D01*
X134770124Y-108501985D01*
X134557992Y-108714117D01*
X133461976Y-107618101D01*
X133461976Y-107618101D01*
G37*
D24*
X134469604Y-107706490D03*
D11*
G36*
X133815530Y-107264548D02*
X134027662Y-107052416D01*
X135123678Y-108148432D01*
X134911546Y-108360564D01*
X133815530Y-107264548D01*
X133815530Y-107264548D01*
G37*
D24*
X134823157Y-107352937D03*
D11*
G36*
X134169083Y-106910995D02*
X134381215Y-106698863D01*
X135477231Y-107794879D01*
X135265099Y-108007011D01*
X134169083Y-106910995D01*
X134169083Y-106910995D01*
G37*
D24*
X135176711Y-106999383D03*
D11*
G36*
X134522637Y-106557441D02*
X134734769Y-106345309D01*
X135830785Y-107441325D01*
X135618653Y-107653457D01*
X134522637Y-106557441D01*
X134522637Y-106557441D01*
G37*
D24*
X135530264Y-106645830D03*
D11*
G36*
X134876190Y-106203888D02*
X135088322Y-105991756D01*
X136184338Y-107087772D01*
X135972206Y-107299904D01*
X134876190Y-106203888D01*
X134876190Y-106203888D01*
G37*
D24*
X135883817Y-106292276D03*
D11*
G36*
X135229743Y-105850334D02*
X135441875Y-105638202D01*
X136537891Y-106734218D01*
X136325759Y-106946350D01*
X135229743Y-105850334D01*
X135229743Y-105850334D01*
G37*
D24*
X136237371Y-105938723D03*
D11*
G36*
X135583297Y-105496781D02*
X135795429Y-105284649D01*
X136891445Y-106380665D01*
X136679313Y-106592797D01*
X135583297Y-105496781D01*
X135583297Y-105496781D01*
G37*
D24*
X136590924Y-105585170D03*
D11*
G36*
X135936850Y-105143228D02*
X136148982Y-104931096D01*
X137244998Y-106027112D01*
X137032866Y-106239244D01*
X135936850Y-105143228D01*
X135936850Y-105143228D01*
G37*
D24*
X136944478Y-105231616D03*
D11*
G36*
X136290404Y-104789674D02*
X136502536Y-104577542D01*
X137598552Y-105673558D01*
X137386420Y-105885690D01*
X136290404Y-104789674D01*
X136290404Y-104789674D01*
G37*
D24*
X137298031Y-104878063D03*
D11*
G36*
X136643957Y-104436121D02*
X136856089Y-104223989D01*
X137952105Y-105320005D01*
X137739973Y-105532137D01*
X136643957Y-104436121D01*
X136643957Y-104436121D01*
G37*
D24*
X137651584Y-104524510D03*
D11*
G36*
X136997510Y-104082568D02*
X137209642Y-103870436D01*
X138305658Y-104966452D01*
X138093526Y-105178584D01*
X136997510Y-104082568D01*
X136997510Y-104082568D01*
G37*
D24*
X138005138Y-104170956D03*
D11*
G36*
X137351064Y-103729014D02*
X137563196Y-103516882D01*
X138659212Y-104612898D01*
X138447080Y-104825030D01*
X137351064Y-103729014D01*
X137351064Y-103729014D01*
G37*
D24*
X138358691Y-103817403D03*
D11*
G36*
X137704617Y-103375461D02*
X137916749Y-103163329D01*
X139012765Y-104259345D01*
X138800633Y-104471477D01*
X137704617Y-103375461D01*
X137704617Y-103375461D01*
G37*
D24*
X138712245Y-103463849D03*
D11*
G36*
X138058171Y-103021907D02*
X138270303Y-102809775D01*
X139366319Y-103905791D01*
X139154187Y-104117923D01*
X138058171Y-103021907D01*
X138058171Y-103021907D01*
G37*
D24*
X139065798Y-103110296D03*
D11*
G36*
X138411724Y-102668354D02*
X138623856Y-102456222D01*
X139719872Y-103552238D01*
X139507740Y-103764370D01*
X138411724Y-102668354D01*
X138411724Y-102668354D01*
G37*
D24*
X139419351Y-102756743D03*
D11*
G36*
X138765277Y-102314801D02*
X138977409Y-102102669D01*
X140073425Y-103198685D01*
X139861293Y-103410817D01*
X138765277Y-102314801D01*
X138765277Y-102314801D01*
G37*
D24*
X139772905Y-102403189D03*
D11*
G36*
X139118831Y-101961247D02*
X139330963Y-101749115D01*
X140426979Y-102845131D01*
X140214847Y-103057263D01*
X139118831Y-101961247D01*
X139118831Y-101961247D01*
G37*
D24*
X140126458Y-102049636D03*
D11*
G36*
X139472384Y-101607694D02*
X139684516Y-101395562D01*
X140780532Y-102491578D01*
X140568400Y-102703710D01*
X139472384Y-101607694D01*
X139472384Y-101607694D01*
G37*
D24*
X140480011Y-101696082D03*
D11*
G36*
X139825937Y-101254140D02*
X140038069Y-101042008D01*
X141134085Y-102138024D01*
X140921953Y-102350156D01*
X139825937Y-101254140D01*
X139825937Y-101254140D01*
G37*
D24*
X140833565Y-101342529D03*
D11*
G36*
X140179491Y-100900587D02*
X140391623Y-100688455D01*
X141487639Y-101784471D01*
X141275507Y-101996603D01*
X140179491Y-100900587D01*
X140179491Y-100900587D01*
G37*
D24*
X141187118Y-100988976D03*
D11*
G36*
X140533044Y-100547034D02*
X140745176Y-100334902D01*
X141841192Y-101430918D01*
X141629060Y-101643050D01*
X140533044Y-100547034D01*
X140533044Y-100547034D01*
G37*
D24*
X141540672Y-100635422D03*
D11*
G36*
X140886598Y-100193480D02*
X141098730Y-99981348D01*
X142194746Y-101077364D01*
X141982614Y-101289496D01*
X140886598Y-100193480D01*
X140886598Y-100193480D01*
G37*
D24*
X141894225Y-100281869D03*
D11*
G36*
X141240151Y-99839927D02*
X141452283Y-99627795D01*
X142548299Y-100723811D01*
X142336167Y-100935943D01*
X141240151Y-99839927D01*
X141240151Y-99839927D01*
G37*
D24*
X142247778Y-99928315D03*
D11*
G36*
X141593704Y-99486373D02*
X141805836Y-99274241D01*
X142901852Y-100370257D01*
X142689720Y-100582389D01*
X141593704Y-99486373D01*
X141593704Y-99486373D01*
G37*
D24*
X142601332Y-99574762D03*
D11*
G36*
X141947258Y-99132820D02*
X142159390Y-98920688D01*
X143255406Y-100016704D01*
X143043274Y-100228836D01*
X141947258Y-99132820D01*
X141947258Y-99132820D01*
G37*
D24*
X142954885Y-99221209D03*
D11*
G36*
X142300811Y-98779267D02*
X142512943Y-98567135D01*
X143608959Y-99663151D01*
X143396827Y-99875283D01*
X142300811Y-98779267D01*
X142300811Y-98779267D01*
G37*
D24*
X143308439Y-98867655D03*
D11*
G36*
X142654365Y-98425713D02*
X142866497Y-98213581D01*
X143962513Y-99309597D01*
X143750381Y-99521729D01*
X142654365Y-98425713D01*
X142654365Y-98425713D01*
G37*
D24*
X143661992Y-98514102D03*
D11*
G36*
X143007918Y-98072160D02*
X143220050Y-97860028D01*
X144316066Y-98956044D01*
X144103934Y-99168176D01*
X143007918Y-98072160D01*
X143007918Y-98072160D01*
G37*
D24*
X144015545Y-98160548D03*
D11*
G36*
X143361471Y-97718606D02*
X143573603Y-97506474D01*
X144669619Y-98602490D01*
X144457487Y-98814622D01*
X143361471Y-97718606D01*
X143361471Y-97718606D01*
G37*
D24*
X144369099Y-97806995D03*
D11*
G36*
X143715025Y-97365053D02*
X143927157Y-97152921D01*
X145023173Y-98248937D01*
X144811041Y-98461069D01*
X143715025Y-97365053D01*
X143715025Y-97365053D01*
G37*
G04 #@! TD*
D25*
G04 #@! TO.C,U5*
X152120600Y-56457850D03*
X154432000Y-56457850D03*
X156743400Y-56457850D03*
D26*
X154432000Y-50222150D03*
G04 #@! TD*
D27*
G04 #@! TO.C,RCL1*
X178801000Y-59563000D03*
X180101000Y-60063000D03*
X180101000Y-59063000D03*
G04 #@! TD*
D17*
G04 #@! TO.C,R16*
X172308700Y-92303600D03*
X170108700Y-92303600D03*
G04 #@! TD*
G04 #@! TO.C,R17*
X170772000Y-89535000D03*
X168572000Y-89535000D03*
G04 #@! TD*
G04 #@! TO.C,R18*
X170007100Y-86360000D03*
X172207100Y-86360000D03*
G04 #@! TD*
D18*
G04 #@! TO.C,D3*
X165457274Y-111656726D03*
D11*
G36*
X165351208Y-110914264D02*
X166199736Y-111762792D01*
X165563340Y-112399188D01*
X164714812Y-111550660D01*
X165351208Y-110914264D01*
X165351208Y-110914264D01*
G37*
D18*
X167790726Y-109323274D03*
D11*
G36*
X167684660Y-108580812D02*
X168533188Y-109429340D01*
X167896792Y-110065736D01*
X167048264Y-109217208D01*
X167684660Y-108580812D01*
X167684660Y-108580812D01*
G37*
G04 #@! TD*
D16*
G04 #@! TO.C,C35*
X130048000Y-96581000D03*
X130048000Y-94681000D03*
G04 #@! TD*
G04 #@! TO.C,C54*
X123952000Y-96327000D03*
X123952000Y-94427000D03*
G04 #@! TD*
D28*
G04 #@! TO.C,OSC3*
X128100000Y-96354000D03*
X125900000Y-96354000D03*
X125900000Y-94654000D03*
X128100000Y-94654000D03*
G04 #@! TD*
M02*
