M48
;DRILL file {KiCad 5.0.0-fee4fd1~66~ubuntu16.04.1} date Sun Oct 21 13:36:45 2018
;FORMAT={-:-/ absolute / inch / decimal}
FMAT,2
INCH,TZ
T1C0.0118
T2C0.0157
T3C0.0276
T4C0.0394
T5C0.0512
T6C0.0520
T7C0.0787
T8C0.0906
%
G90
G05
M72
T1
X4.828Y-5.082
X4.83Y-2.99
X4.84Y-2.69
X4.84Y-4.185
X4.885Y-4.185
X4.981Y-4.2938
X5.025Y-4.845
X5.028Y-5.081
X5.07Y-4.585
X5.09Y-4.96
X5.0938Y-4.8126
X5.1094Y-4.2944
X5.11Y-4.1108
X5.1225Y-4.4675
X5.15Y-4.9
X5.1501Y-4.5707
X5.1525Y-4.435
X5.1695Y-5.346
X5.17Y-5.2415
X5.18Y-4.88
X5.205Y-4.855
X5.2345Y-4.8297
X5.245Y-4.42
X5.25Y-2.25
X5.265Y-4.85
X5.285Y-4.655
X5.29Y-3.49
X5.3041Y-4.4109
X5.3147Y-4.6789
X5.33Y-3.985
X5.33Y-4.83
X5.345Y-4.055
X5.345Y-4.52
X5.36Y-4.41
X5.37Y-2.395
X5.37Y-2.84
X5.3807Y-4.0693
X5.3825Y-4.765
X5.385Y-4.31
X5.385Y-4.435
X5.395Y-4.985
X5.398Y-4.572
X5.41Y-3.03
X5.4195Y-4.9555
X5.425Y-4.
X5.4275Y-4.2965
X5.4293Y-5.0252
X5.44Y-4.795
X5.445Y-4.24
X5.445Y-4.992
X5.45Y-4.595
X5.4613Y-5.0263
X5.475Y-1.91
X5.475Y-4.175
X5.4795Y-4.295
X5.4905Y-5.0325
X5.4916Y-2.6016
X5.499Y-4.873
X5.51Y-4.65
X5.518Y-4.1025
X5.521Y-4.9045
X5.5225Y-4.4275
X5.5268Y-4.5882
X5.53Y-4.975
X5.5325Y-5.0675
X5.5492Y-4.9232
X5.57Y-4.715
X5.59Y-3.815
X5.59Y-4.0775
X5.59Y-4.485
X5.6138Y-3.845
X5.62Y-4.165
X5.6214Y-4.7401
X5.6294Y-4.7687
X5.63Y-3.985
X5.647Y-3.8066
X5.6475Y-4.035
X5.65Y-4.5575
X5.6525Y-4.285
X5.6575Y-4.4125
X5.661Y-4.7925
X5.68Y-5.0275
X5.69Y-3.94
X5.7Y-4.81
X5.72Y-3.12
X5.7251Y-4.9251
X5.7282Y-5.2518
X5.7377Y-4.8035
X5.74Y-4.97
X5.745Y-4.63
X5.7624Y-4.82
X5.7625Y-4.3075
X5.7675Y-5.
X5.78Y-4.435
X5.78Y-5.25
X5.785Y-3.925
X5.795Y-4.78
X5.8Y-4.145
X5.81Y-4.825
X5.8105Y-3.9403
X5.82Y-4.235
X5.82Y-5.025
X5.84Y-3.72
X5.8434Y-4.8017
X5.85Y-4.74
X5.8541Y-3.9841
X5.865Y-4.535
X5.8675Y-4.3375
X5.87Y-3.7
X5.87Y-5.2
X5.875Y-4.68
X5.9Y-4.895
X5.9Y-5.21
X5.91Y-3.84
X5.915Y-4.235
X5.92Y-4.715
X5.93Y-4.865
X5.935Y-4.255
X5.94Y-3.82
X5.94Y-4.435
X5.94Y-4.335
X5.945Y-4.155
X5.945Y-4.6899
X5.945Y-5.205
X5.955Y-4.89
X5.96Y-4.355
X5.9625Y-4.845
X5.9674Y-4.6676
X5.98Y-5.205
X5.985Y-3.625
X5.9902Y-4.5993
X6.Y-3.835
X6.0025Y-4.2156
X6.005Y-4.165
X6.02Y-4.24
X6.02Y-4.455
X6.04Y-4.855
X6.04Y-5.065
X6.065Y-4.3
X6.07Y-4.265
X6.08Y-4.54
X6.0825Y-4.435
X6.085Y-4.39
X6.105Y-5.105
X6.1056Y-4.2634
X6.115Y-5.06
X6.1275Y-4.77
X6.1295Y-4.3303
X6.135Y-4.465
X6.135Y-5.125
X6.139Y-4.083
X6.145Y-3.895
X6.1457Y-4.4207
X6.155Y-4.95
X6.1583Y-4.3214
X6.17Y-3.855
X6.18Y-4.465
X6.185Y-5.125
X6.205Y-3.9
X6.235Y-5.135
X6.285Y-5.175
X6.3186Y-4.095
X6.3225Y-3.235
X6.325Y-4.46
X6.3288Y-5.1057
X6.3425Y-4.56
X6.345Y-3.41
X6.35Y-3.515
X6.35Y-4.1
X6.3535Y-3.1315
X6.355Y-4.39
X6.38Y-4.525
X6.385Y-4.72
X6.39Y-4.68
X6.405Y-4.635
X6.42Y-4.585
X6.43Y-4.54
X6.4787Y-3.0645
X6.5025Y-2.9112
X6.54Y-3.04
X6.5588Y-3.711
X6.569Y-3.539
X6.5735Y-3.4585
X6.6125Y-3.618
X6.725Y-3.465
X6.74Y-4.54
X6.79Y-3.725
X6.85Y-3.62
X6.87Y-4.34
X6.87Y-4.445
X6.905Y-3.205
X6.94Y-3.505
X7.015Y-3.235
X7.02Y-3.085
X7.02Y-3.2711
X7.135Y-3.235
X7.21Y-3.12
X7.2991Y-3.1491
X7.31Y-3.18
X7.33Y-2.965
X7.3323Y-2.9017
X6.945Y-3.2693
X6.945Y-3.3007
T2
X4.5375Y-5.1562
X4.5475Y-5.2775
X4.55Y-5.0275
X4.5525Y-3.335
X4.5525Y-3.53
X4.5862Y-5.1075
X4.6475Y-5.375
X4.75Y-5.475
X4.91Y-3.595
X5.05Y-1.94
X5.055Y-2.07
X5.11Y-3.0798
X5.12Y-1.94
X5.13Y-2.07
X5.155Y-3.64
X5.2Y-1.94
X5.21Y-3.49
X5.22Y-2.07
X5.34Y-2.23
X5.3919Y-5.56
X5.46Y-5.56
X5.465Y-2.07
X5.535Y-5.56
X5.54Y-2.07
X5.61Y-2.07
X6.0425Y-5.56
X6.0475Y-3.6425
X6.05Y-3.7225
X6.1Y-3.215
X6.11Y-5.56
X6.115Y-3.6675
X6.17Y-3.525
X6.1975Y-3.3275
X6.215Y-4.385
X6.2275Y-4.1775
X6.23Y-4.12
X6.25Y-3.2775
X6.27Y-1.82
X6.285Y-2.035
X6.3357Y-2.0857
X6.445Y-5.4875
X6.5375Y-4.2325
X6.5625Y-5.4875
X6.615Y-4.65
X6.6325Y-4.575
X6.6825Y-5.485
X6.7625Y-3.9225
X6.7625Y-4.015
X6.7625Y-4.125
X6.8125Y-2.7575
X6.8125Y-2.91
X6.815Y-2.5875
X6.8175Y-3.065
X6.9325Y-5.3925
X7.1125Y-5.2125
X7.285Y-5.04
X7.3875Y-1.8875
X7.3875Y-2.0375
X7.3875Y-2.19
X7.3875Y-2.34
X7.3875Y-4.7425
X7.39Y-4.18
X7.39Y-4.5375
X7.39Y-4.9275
X7.3925Y-4.345
X7.45Y-2.64
X7.45Y-2.72
X7.45Y-2.79
T3
X6.42Y-2.75
X6.42Y-2.8287
X6.42Y-2.9075
X6.42Y-2.9862
X6.42Y-3.065
X6.42Y-3.1437
X6.42Y-3.2224
X6.42Y-3.3012
X6.42Y-3.3799
X6.42Y-3.4587
X6.42Y-3.5374
X6.42Y-3.6161
X6.42Y-3.6949
X6.42Y-3.7736
X6.42Y-3.8524
X6.42Y-3.9311
X7.3806Y-2.75
X7.3806Y-2.8287
X7.3806Y-2.9075
X7.3806Y-2.9862
X7.3806Y-3.065
X7.3806Y-3.1437
X7.3806Y-3.2224
X7.3806Y-3.3012
X7.3806Y-3.3799
X7.3806Y-3.4587
X7.3806Y-3.5374
X7.3806Y-3.6161
X7.3806Y-3.6949
X7.3806Y-3.7736
X7.3806Y-3.8524
X7.3806Y-3.9311
T4
X5.0581Y-2.9582
X5.0581Y-3.4307
X5.3846Y-5.3166
X5.3846Y-5.4166
X5.4846Y-5.3166
X5.4846Y-5.4166
X5.5846Y-5.3166
X5.5846Y-5.4166
X5.6846Y-5.3166
X5.6846Y-5.4166
X5.7846Y-5.3166
X5.7846Y-5.4166
X5.8846Y-5.3166
X5.8846Y-5.4166
X5.9846Y-5.3166
X5.9846Y-5.4166
X6.0846Y-5.3166
X6.0846Y-5.4166
X6.1846Y-5.3166
X6.1846Y-5.4166
X6.2846Y-5.3166
X6.2846Y-5.4166
X5.5745Y-2.3043
X5.5745Y-2.7768
X4.8275Y-5.147
X4.9275Y-5.147
X5.0275Y-5.147
X6.8486Y-2.1965
X6.9486Y-2.1965
X7.0285Y-2.1965
X7.1285Y-2.1965
X4.6216Y-3.7636
X4.6216Y-3.8636
X4.6216Y-3.9636
X4.6216Y-4.0636
X4.6216Y-4.1636
X4.6216Y-4.2636
X4.6216Y-4.3636
X4.6216Y-4.4636
X4.6216Y-4.5636
X4.6216Y-4.6636
X4.6216Y-4.7636
X4.6216Y-4.8636
X4.7216Y-3.7636
X4.7216Y-3.8636
X4.7216Y-3.9636
X4.7216Y-4.0636
X4.7216Y-4.1636
X4.7216Y-4.2636
X4.7216Y-4.3636
X4.7216Y-4.4636
X4.7216Y-4.5636
X4.7216Y-4.6636
X4.7216Y-4.7636
X4.7216Y-4.8636
X7.17Y-4.25
X7.17Y-4.35
X7.17Y-4.45
X7.17Y-4.55
T5
X4.9813Y-3.1925
X5.5384Y-3.4307
X5.5404Y-2.9563
X5.0922Y-2.7787
X5.0942Y-2.3043
X5.6513Y-2.5425
T6
X4.6513Y-2.9925
X4.6513Y-3.1894
X4.6513Y-2.5225
X4.6513Y-2.7194
T7
X4.51Y-5.515
X7.41Y-5.525
X5.97Y-2.945
T8
X6.7285Y-2.0914
X7.2687Y-2.0914
T4
X4.5538Y-1.9006G85X4.5538Y-1.9794
G05
X4.6325Y-2.125G85X4.7113Y-2.125
G05
X4.79Y-1.9006G85X4.79Y-1.9794
G05
T0
M30
